# Blender 4.2.0
# www.blender.org
mtllib conveyor belt.mtl
o conveyor
v -1.603989 -0.000000 1.000000
v 1.603989 0.000000 1.000000
v -1.603989 -0.191342 1.038060
v 1.603989 -0.191342 1.038060
v -1.603989 -0.353554 1.146447
v 1.603989 -0.353553 1.146447
v -1.603989 -0.461940 1.308658
v 1.603989 -0.461940 1.308658
v -1.603989 -0.500000 1.500000
v 1.603989 -0.500000 1.500000
v -1.603989 -0.461940 1.691342
v 1.603989 -0.461940 1.691342
v -1.603989 -0.353554 1.853553
v 1.603989 -0.353553 1.853553
v -1.603989 -0.191342 1.961940
v 1.603989 -0.191342 1.961940
v -1.603989 -0.000000 2.000000
v 1.603989 0.000000 2.000000
v -1.603989 0.191342 1.961940
v 1.603989 0.191342 1.961940
v -1.603989 0.353553 1.853553
v 1.603989 0.353554 1.853553
v -1.603989 0.461940 1.691342
v 1.603989 0.461940 1.691342
v -1.603989 0.500000 1.500000
v 1.603989 0.500000 1.500000
v -1.603989 0.461940 1.308658
v 1.603989 0.461940 1.308658
v -1.603989 0.353553 1.146447
v 1.603989 0.353554 1.146447
v -1.603989 0.191342 1.038060
v 1.603989 0.191342 1.038060
v -1.603989 -0.000000 -0.500000
v 1.603989 0.000000 -0.500000
v -1.603989 -0.191342 -0.461940
v 1.603989 -0.191342 -0.461940
v -1.603989 -0.353554 -0.353554
v 1.603989 -0.353553 -0.353554
v -1.603989 -0.461940 -0.191342
v 1.603989 -0.461940 -0.191342
v -1.603989 -0.500000 -0.000000
v 1.603989 -0.500000 -0.000000
v -1.603989 -0.461940 0.191342
v 1.603989 -0.461940 0.191342
v -1.603989 -0.353554 0.353553
v 1.603989 -0.353553 0.353553
v -1.603989 -0.191342 0.461940
v 1.603989 -0.191342 0.461940
v -1.603989 -0.000000 0.500000
v 1.603989 0.000000 0.500000
v -1.603989 0.191342 0.461940
v 1.603989 0.191342 0.461940
v -1.603989 0.353553 0.353553
v 1.603989 0.353554 0.353553
v -1.603989 0.461940 0.191342
v 1.603989 0.461940 0.191342
v -1.603989 0.500000 -0.000000
v 1.603989 0.500000 -0.000000
v -1.603989 0.461940 -0.191342
v 1.603989 0.461940 -0.191342
v -1.603989 0.353553 -0.353554
v 1.603989 0.353554 -0.353554
v -1.603989 0.191342 -0.461940
v 1.603989 0.191342 -0.461940
v -1.603989 -0.000000 -2.000000
v 1.603989 0.000000 -2.000000
v -1.603989 -0.191342 -1.961940
v 1.603989 -0.191342 -1.961940
v -1.603989 -0.353554 -1.853554
v 1.603989 -0.353553 -1.853554
v -1.603989 -0.461940 -1.691342
v 1.603989 -0.461940 -1.691342
v -1.603989 -0.500000 -1.500000
v 1.603989 -0.500000 -1.500000
v -1.603989 -0.461940 -1.308658
v 1.603989 -0.461940 -1.308658
v -1.603989 -0.353554 -1.146447
v 1.603989 -0.353553 -1.146447
v -1.603989 -0.191342 -1.038061
v 1.603989 -0.191342 -1.038061
v -1.603989 -0.000000 -1.000000
v 1.603989 0.000000 -1.000000
v -1.603989 0.191342 -1.038061
v 1.603989 0.191342 -1.038061
v -1.603989 0.353553 -1.146447
v 1.603989 0.353554 -1.146447
v -1.603989 0.461940 -1.308658
v 1.603989 0.461940 -1.308658
v -1.603989 0.500000 -1.500000
v 1.603989 0.500000 -1.500000
v -1.603989 0.461940 -1.691342
v 1.603989 0.461940 -1.691342
v -1.603989 0.353553 -1.853554
v 1.603989 0.353554 -1.853554
v -1.603989 0.191342 -1.961940
v 1.603989 0.191342 -1.961940
v 1.450000 0.675000 -2.741874
v 1.450000 0.675000 2.741874
v 1.450000 -0.675000 2.741874
v 1.450000 -0.675000 -2.741874
v -1.450000 0.675000 -2.741874
v -1.450000 0.675000 2.741874
v -1.450000 -0.675000 2.741874
v -1.450000 -0.675000 -2.741874
v -1.450000 0.207214 -2.674999
v -1.450000 0.675001 -2.207212
v -1.450000 0.456768 -2.608131
v -1.450000 0.608133 -2.456767
v -1.450000 -0.674999 -2.207213
v -1.450000 -0.207212 -2.674999
v -1.450000 -0.608131 -2.456768
v -1.450000 -0.456767 -2.608132
v 1.450000 0.675001 -2.207212
v 1.450000 0.207214 -2.674999
v 1.450000 0.608133 -2.456767
v 1.450000 0.456768 -2.608131
v 1.450000 -0.207212 -2.674999
v 1.450000 -0.674999 -2.207213
v 1.450000 -0.456767 -2.608132
v 1.450000 -0.608131 -2.456768
v -2.000000 -1.000001 2.250000
v 2.000000 -1.000001 2.250000
v 2.000000 0.899520 -2.625000
v -2.000000 0.899520 -2.625000
v 2.000000 0.625001 -2.899518
v -2.000000 0.625001 -2.899518
v 2.000000 0.250001 -3.000000
v -2.000000 0.250001 -3.000000
v -2.000000 -0.899518 -2.625000
v -2.000000 -0.999999 -2.250000
v 2.000000 -0.999999 -2.250000
v 2.000000 -0.899518 -2.625000
v -2.000000 -0.624999 -2.899519
v 2.000000 -0.624999 -2.899519
v -2.000000 -0.249999 -3.000000
v 2.000000 -0.249999 -3.000000
v 2.000000 0.652962 -2.482649
v 2.000000 0.725001 -2.213795
v -2.000000 0.652961 -2.482649
v 2.000000 0.482650 -2.652960
v -2.000000 0.482650 -2.652960
v 2.000000 0.213796 -2.725000
v -2.000000 0.213796 -2.725000
v -2.000000 -0.652960 -2.482649
v -2.000000 -0.724999 -2.213796
v 2.000000 -0.724999 -2.213796
v 2.000000 -0.652960 -2.482649
v -2.000000 -0.482649 -2.652961
v 2.000000 -0.482649 -2.652961
v -2.000000 -0.213795 -2.725000
v 2.000000 -0.213795 -2.725000
v -1.450000 -0.207213 2.674999
v -1.450000 -0.675000 2.207213
v -1.450000 -0.456768 2.608132
v -1.450000 -0.608132 2.456767
v -1.450000 0.675000 2.207213
v -1.450000 0.207213 2.674999
v -1.450000 0.608132 2.456767
v -1.450000 0.456768 2.608132
v 1.450000 -0.675000 2.207213
v 1.450000 -0.207213 2.674999
v 1.450000 -0.608132 2.456767
v 1.450000 -0.456768 2.608132
v 1.450000 0.207213 2.674999
v 1.450000 0.675000 2.207213
v 1.450000 0.456768 2.608132
v 1.450000 0.608132 2.456767
v -2.000000 1.000000 -2.250000
v 2.000000 1.000000 -2.250000
v 2.000000 -0.899519 2.625000
v -2.000000 -0.899519 2.625000
v 2.000000 -0.625000 2.899519
v -2.000000 -0.625000 2.899519
v 2.000000 -0.250000 3.000000
v -2.000000 -0.250000 3.000000
v -2.000000 0.899519 2.625000
v -2.000000 1.000000 2.250000
v 2.000000 1.000000 2.250000
v 2.000000 0.899519 2.625000
v -2.000000 0.625000 2.899519
v 2.000000 0.625000 2.899519
v -2.000000 0.250000 3.000000
v 2.000000 0.250000 3.000000
v -2.000000 0.725000 -2.213795
v 2.000000 -0.652961 2.482649
v 2.000000 -0.725000 2.213795
v -2.000000 -0.725000 2.213795
v -2.000000 -0.652961 2.482649
v 2.000000 -0.482649 2.652961
v -2.000000 -0.482649 2.652961
v 2.000000 -0.213796 2.725000
v -2.000000 -0.213796 2.725000
v -2.000000 0.652961 2.482649
v -2.000000 0.725000 2.213795
v 2.000000 0.725000 2.213795
v 2.000000 0.652961 2.482649
v -2.000000 0.482649 2.652961
v 2.000000 0.482649 2.652961
v -2.000000 0.213796 2.725000
v 2.000000 0.213796 2.725000
vn -0.2679 -0.0000 -0.9634
vn 0.2679 -0.0000 -0.9634
vn 0.2679 -0.3687 -0.8901
vn -0.2679 -0.3687 -0.8901
vn 0.2679 -0.6813 -0.6813
vn -0.2679 -0.6813 -0.6813
vn 0.2679 -0.8901 -0.3687
vn -0.2679 -0.8901 -0.3687
vn 0.2679 -0.9634 -0.0000
vn -0.2679 -0.9634 -0.0000
vn 0.2679 -0.8901 0.3687
vn -0.2679 -0.8901 0.3687
vn 0.2679 -0.6813 0.6813
vn -0.2679 -0.6813 0.6813
vn 0.2679 -0.3687 0.8901
vn -0.2679 -0.3687 0.8901
vn 0.2679 -0.0000 0.9634
vn -0.2679 -0.0000 0.9634
vn 0.2679 0.3687 0.8901
vn -0.2679 0.3687 0.8901
vn 0.2679 0.6813 0.6813
vn -0.2679 0.6813 0.6813
vn 0.2679 0.8901 0.3687
vn -0.2679 0.8901 0.3687
vn 0.2679 0.9634 -0.0000
vn -0.2679 0.9634 -0.0000
vn 0.2679 0.8901 -0.3687
vn -0.2679 0.8901 -0.3687
vn 0.2679 0.6813 -0.6813
vn -0.2679 0.6813 -0.6813
vn 0.2679 0.3687 -0.8901
vn -0.2679 0.3687 -0.8901
vn 1.0000 -0.0000 -0.0000
vn -1.0000 -0.0000 -0.0000
vn -0.2769 0.1254 -0.9527
vn 0.2769 0.1254 -0.9527
vn 0.2769 -0.1254 -0.9527
vn -0.2769 -0.1254 -0.9527
vn 0.2769 0.9527 -0.1254
vn 0.2597 0.8363 -0.4828
vn -0.2597 0.8363 -0.4828
vn -0.2769 0.9527 -0.1254
vn 0.2597 0.4828 -0.8363
vn -0.2597 0.4828 -0.8363
vn -0.2769 -0.9527 -0.1254
vn -0.2597 -0.8363 -0.4828
vn 0.2597 -0.8363 -0.4828
vn 0.2769 -0.9527 -0.1254
vn -0.2597 -0.4828 -0.8363
vn 0.2597 -0.4828 -0.8363
vn 0.2769 -0.9527 0.1254
vn -0.2769 -0.9527 0.1254
vn 0.4141 -0.9024 0.1188
vn 0.4514 -0.7728 0.4462
vn -0.4514 -0.7728 0.4461
vn -0.4141 -0.9024 0.1188
vn 0.4514 -0.4462 0.7728
vn -0.4514 -0.4462 0.7728
vn 0.4141 -0.1188 0.9024
vn -0.4141 -0.1188 0.9024
vn -0.4141 0.9024 0.1188
vn -0.4514 0.7728 0.4462
vn 0.4514 0.7728 0.4462
vn 0.4141 0.9024 0.1188
vn -0.4514 0.4461 0.7728
vn 0.4514 0.4461 0.7728
vn -0.4141 0.1188 0.9024
vn 0.4141 0.1188 0.9024
vn -0.4141 0.9024 -0.1188
vn 0.4141 0.9024 -0.1188
vn 0.0913 -0.9873 0.1300
vn 0.0937 -0.8622 0.4978
vn -0.0937 -0.8622 0.4978
vn -0.0913 -0.9873 0.1300
vn 0.0937 -0.4978 0.8622
vn -0.0937 -0.4978 0.8622
vn 0.0913 -0.1300 0.9873
vn -0.0913 -0.1300 0.9873
vn -0.0913 0.9873 0.1300
vn -0.0937 0.8622 0.4978
vn 0.0937 0.8622 0.4978
vn 0.0913 0.9873 0.1300
vn -0.0937 0.4978 0.8622
vn 0.0937 0.4978 0.8622
vn -0.0913 0.1300 0.9873
vn 0.0913 0.1300 0.9873
vn -0.0913 0.9873 -0.1300
vn 0.0913 0.9873 -0.1300
vn -0.2769 -0.1254 0.9527
vn 0.2769 -0.1254 0.9527
vn 0.2769 0.1254 0.9527
vn -0.2769 0.1254 0.9527
vn 0.2597 -0.8363 0.4828
vn -0.2597 -0.8363 0.4828
vn 0.2597 -0.4828 0.8363
vn -0.2597 -0.4828 0.8363
vn -0.2769 0.9527 0.1254
vn -0.2597 0.8363 0.4828
vn 0.2597 0.8363 0.4828
vn 0.2769 0.9527 0.1254
vn -0.2597 0.4828 0.8363
vn 0.2597 0.4828 0.8363
vn 0.4514 0.7728 -0.4462
vn -0.4514 0.7728 -0.4462
vn 0.4514 0.4461 -0.7728
vn -0.4514 0.4462 -0.7728
vn 0.4141 0.1188 -0.9024
vn -0.4141 0.1188 -0.9024
vn -0.4141 -0.9024 -0.1188
vn -0.4514 -0.7728 -0.4462
vn 0.4514 -0.7728 -0.4462
vn 0.4141 -0.9024 -0.1188
vn -0.4514 -0.4462 -0.7728
vn 0.4514 -0.4462 -0.7728
vn -0.4141 -0.1188 -0.9024
vn 0.4141 -0.1188 -0.9024
vn 0.0937 0.8622 -0.4978
vn -0.0937 0.8622 -0.4978
vn 0.0937 0.4978 -0.8622
vn -0.0937 0.4978 -0.8622
vn 0.0913 0.1300 -0.9873
vn -0.0913 0.1300 -0.9873
vn -0.0913 -0.9873 -0.1300
vn -0.0937 -0.8622 -0.4978
vn 0.0937 -0.8622 -0.4978
vn 0.0913 -0.9873 -0.1300
vn -0.0937 -0.4978 -0.8622
vn 0.0937 -0.4978 -0.8622
vn -0.0913 -0.1300 -0.9873
vn 0.0913 -0.1300 -0.9873
vt 1.000000 0.432310
vt 0.753783 0.432310
vt 0.753783 0.384276
vt 1.000000 0.384276
vt 0.753783 0.336241
vt 1.000000 0.336241
vt 0.753783 0.288207
vt 1.000000 0.288207
vt 0.753783 0.240172
vt 1.000000 0.240172
vt 0.753783 0.192138
vt 1.000000 0.192138
vt 0.753783 0.144103
vt 1.000000 0.144103
vt 0.753783 0.096069
vt 1.000000 0.096069
vt 0.753783 0.048034
vt 1.000000 0.048034
vt 0.753783 0.000000
vt 1.000000 -0.000000
vt 1.000000 0.768551
vt 0.753784 0.768551
vt 0.753784 0.720517
vt 1.000000 0.720517
vt 0.753784 0.672482
vt 1.000000 0.672482
vt 0.753784 0.624448
vt 1.000000 0.624448
vt 0.753784 0.576413
vt 1.000000 0.576413
vt 0.753783 0.528379
vt 1.000000 0.528379
vt 0.590384 0.696405
vt 0.451860 0.753784
vt 0.301923 0.753784
vt 0.163400 0.696405
vt 0.057378 0.590384
vt -0.000000 0.451860
vt -0.000000 0.301923
vt 0.057378 0.163400
vt 0.163400 0.057379
vt 0.301923 0.000000
vt 0.451860 0.000000
vt 0.590384 0.057378
vt 0.696405 0.163400
vt 0.753783 0.301924
vt 0.753783 0.451861
vt 0.696405 0.590384
vt 0.753783 0.480344
vt 1.000000 0.480344
vt 0.451860 0.000000
vt 0.301923 0.000000
vt -0.000000 0.301923
vt -0.000000 0.451860
vt 0.000000 0.000000
vt 0.155210 0.155813
vt 0.716843 0.155237
vt 0.716843 0.221419
vt 0.155210 0.221803
vt 0.716843 0.000000
vt 0.716843 0.052899
vt 0.155210 0.053611
vt 0.155210 0.000000
vt 0.716843 0.104129
vt 0.155210 0.105029
vt 0.155210 0.371810
vt 0.155210 0.321926
vt 0.716843 0.321362
vt 0.716843 0.371486
vt 0.155210 0.272271
vt 0.716843 0.271598
vt 0.716843 0.999476
vt 0.155210 1.000000
vt 0.794058 0.000000
vt 0.794058 0.052899
vt 0.078194 0.053611
vt 0.078194 0.000000
vt 0.794058 0.104129
vt 0.078194 0.105029
vt 0.794058 0.155237
vt 0.078194 0.155813
vt 0.078194 0.371810
vt 0.078194 0.321926
vt 0.794058 0.321362
vt 0.794058 0.371486
vt 0.078194 0.272271
vt 0.794058 0.271598
vt 0.078194 0.221803
vt 0.794058 0.221419
vt 0.078194 1.000000
vt 0.794058 0.999476
vt 0.872327 0.000000
vt 0.872327 0.052899
vt 0.000000 0.053611
vt 0.000000 0.000000
vt 0.872327 0.104129
vt 0.000000 0.105029
vt 0.872327 0.155237
vt 0.000000 0.155813
vt 0.000000 0.371810
vt 0.000000 0.321926
vt 0.872327 0.321362
vt 0.872327 0.371486
vt 0.000000 0.272271
vt 0.872327 0.271598
vt 0.000000 0.221803
vt 0.872327 0.221419
vt 0.000000 1.000000
vt 0.872327 0.999476
s 1
usemtl gears
f 1/1/1 2/2/2 4/3/3 3/4/4
f 3/4/4 4/3/3 6/5/5 5/6/6
f 5/6/6 6/5/5 8/7/7 7/8/8
f 7/8/8 8/7/7 10/9/9 9/10/10
f 9/10/10 10/9/9 12/11/11 11/12/12
f 11/12/12 12/11/11 14/13/13 13/14/14
f 13/14/14 14/13/13 16/15/15 15/16/16
f 15/16/16 16/15/15 18/17/17 17/18/18
f 17/18/18 18/17/17 20/19/19 19/20/20
f 19/21/20 20/22/19 22/23/21 21/24/22
f 21/24/22 22/23/21 24/25/23 23/26/24
f 23/26/24 24/25/23 26/27/25 25/28/26
f 25/28/26 26/27/25 28/29/27 27/30/28
f 27/30/28 28/29/27 30/31/29 29/32/30
f 4/33/3 2/34/2 32/35/31 30/36/29 28/37/27 26/38/25 24/39/23 22/40/21 20/41/19 18/42/17 16/43/15 14/44/13 12/45/11 10/46/9 8/47/7 6/48/5
f 29/32/30 30/31/29 32/49/31 31/50/32
f 31/50/32 32/49/31 2/2/2 1/1/1
f 1/34/1 3/33/4 5/48/6 7/47/8 9/46/10 11/45/12 13/44/14 15/51/16 17/52/18 19/41/20 21/40/22 23/53/24 25/54/26 27/37/28 29/36/30 31/35/32
f 33/1/1 34/2/2 36/3/3 35/4/4
f 35/4/4 36/3/3 38/5/5 37/6/6
f 37/6/6 38/5/5 40/7/7 39/8/8
f 39/8/8 40/7/7 42/9/9 41/10/10
f 41/10/10 42/9/9 44/11/11 43/12/12
f 43/12/12 44/11/11 46/13/13 45/14/14
f 45/14/14 46/13/13 48/15/15 47/16/16
f 47/16/16 48/15/15 50/17/17 49/18/18
f 49/18/18 50/17/17 52/19/19 51/20/20
f 51/21/20 52/22/19 54/23/21 53/24/22
f 53/24/22 54/23/21 56/25/23 55/26/24
f 55/26/24 56/25/23 58/27/25 57/28/26
f 57/28/26 58/27/25 60/29/27 59/30/28
f 59/30/28 60/29/27 62/31/29 61/32/30
f 36/33/3 34/34/2 64/35/31 62/36/29 60/37/27 58/38/25 56/39/23 54/40/21 52/41/19 50/42/17 48/43/15 46/44/13 44/45/11 42/46/9 40/47/7 38/48/5
f 61/32/30 62/31/29 64/49/31 63/50/32
f 63/50/32 64/49/31 34/2/2 33/1/1
f 33/34/1 35/33/4 37/48/6 39/47/8 41/46/10 43/45/12 45/44/14 47/51/16 49/52/18 51/41/20 53/40/22 55/53/24 57/54/26 59/37/28 61/36/30 63/35/32
f 65/1/1 66/2/2 68/3/3 67/4/4
f 67/4/4 68/3/3 70/5/5 69/6/6
f 69/6/6 70/5/5 72/7/7 71/8/8
f 71/8/8 72/7/7 74/9/9 73/10/10
f 73/10/10 74/9/9 76/11/11 75/12/12
f 75/12/12 76/11/11 78/13/13 77/14/14
f 77/14/14 78/13/13 80/15/15 79/16/16
f 79/16/16 80/15/15 82/17/17 81/18/18
f 81/18/18 82/17/17 84/19/19 83/20/20
f 83/21/20 84/22/19 86/23/21 85/24/22
f 85/24/22 86/23/21 88/25/23 87/26/24
f 87/26/24 88/25/23 90/27/25 89/28/26
f 89/28/26 90/27/25 92/29/27 91/30/28
f 91/30/28 92/29/27 94/31/29 93/32/30
f 68/33/3 66/34/2 96/35/31 94/36/29 92/37/27 90/38/25 88/39/23 86/40/21 84/41/19 82/42/17 80/43/15 78/44/13 76/45/11 74/46/9 72/47/7 70/48/5
f 93/32/30 94/31/29 96/49/31 95/50/32
f 95/50/32 96/49/31 66/2/2 65/1/1
f 65/34/1 67/33/4 69/48/6 71/47/8 73/46/10 75/45/12 77/44/14 79/51/16 81/52/18 83/41/20 85/40/22 87/53/24 89/54/26 91/37/28 93/36/30 95/35/32
s 0
usemtl black
f 98/55/33 99/55/33 100/55/33 97/55/33
f 102/55/34 101/55/34 104/55/34 103/55/34
s 1
usemtl conveyor
f 128/56/35 127/57/36 136/58/37 135/59/38
f 169/60/39 123/61/40 124/62/41 168/63/42
f 123/61/40 125/64/43 126/65/44 124/62/41
f 125/64/43 127/57/36 128/56/35 126/65/44
f 130/66/45 129/67/46 132/68/47 131/69/48
f 129/67/46 133/70/49 134/71/50 132/68/47
f 133/70/49 135/59/38 136/58/37 134/71/50
f 122/72/51 121/73/52 130/66/45 131/69/48
f 138/74/53 137/75/54 123/61/40 169/60/39
f 139/76/55 184/77/56 168/63/42 124/62/41
f 137/75/54 140/78/57 125/64/43 123/61/40
f 141/79/58 139/76/55 124/62/41 126/65/44
f 140/78/57 142/80/59 127/57/36 125/64/43
f 143/81/60 141/79/58 126/65/44 128/56/35
f 145/82/61 144/83/62 129/67/46 130/66/45
f 147/84/63 146/85/64 131/69/48 132/68/47
f 144/83/62 148/86/65 133/70/49 129/67/46
f 149/87/66 147/84/63 132/68/47 134/71/50
f 148/86/65 150/88/67 135/59/38 133/70/49
f 151/89/68 149/87/66 134/71/50 136/58/37
f 150/88/67 143/81/60 128/56/35 135/59/38
f 142/80/59 151/89/68 136/58/37 127/57/36
f 187/90/69 145/82/61 130/66/45 121/73/52
f 146/85/64 186/91/70 122/72/51 131/69/48
f 113/92/71 115/93/72 137/75/54 138/74/53
f 108/94/73 106/95/74 184/77/56 139/76/55
f 115/93/72 116/96/75 140/78/57 137/75/54
f 107/97/76 108/94/73 139/76/55 141/79/58
f 116/96/75 114/98/77 142/80/59 140/78/57
f 105/99/78 107/97/76 141/79/58 143/81/60
f 109/100/79 111/101/80 144/83/62 145/82/61
f 120/102/81 118/103/82 146/85/64 147/84/63
f 111/101/80 112/104/83 148/86/65 144/83/62
f 119/105/84 120/102/81 147/84/63 149/87/66
f 112/104/83 110/106/85 150/88/67 148/86/65
f 117/107/86 119/105/84 149/87/66 151/89/68
f 110/106/85 105/99/78 143/81/60 150/88/67
f 114/98/77 117/107/86 151/89/68 142/80/59
f 153/108/87 109/100/79 145/82/61 187/90/69
f 118/103/82 160/109/88 186/91/70 146/85/64
f 175/56/89 174/57/90 183/58/91 182/59/92
f 122/60/51 170/61/93 171/62/94 121/63/52
f 170/61/93 172/64/95 173/65/96 171/62/94
f 172/64/95 174/57/90 175/56/89 173/65/96
f 177/66/97 176/67/98 179/68/99 178/69/100
f 176/67/98 180/70/101 181/71/102 179/68/99
f 180/70/101 182/59/92 183/58/91 181/71/102
f 169/72/39 168/73/42 177/66/97 178/69/100
f 186/74/70 185/75/103 170/61/93 122/60/51
f 188/76/104 187/77/69 121/63/52 171/62/94
f 185/75/103 189/78/105 172/64/95 170/61/93
f 190/79/106 188/76/104 171/62/94 173/65/96
f 189/78/105 191/80/107 174/57/90 172/64/95
f 192/81/108 190/79/106 173/65/96 175/56/89
f 194/82/109 193/83/110 176/67/98 177/66/97
f 196/84/111 195/85/112 178/69/100 179/68/99
f 193/83/110 197/86/113 180/70/101 176/67/98
f 198/87/114 196/84/111 179/68/99 181/71/102
f 197/86/113 199/88/115 182/59/92 180/70/101
f 200/89/116 198/87/114 181/71/102 183/58/91
f 199/88/115 192/81/108 175/56/89 182/59/92
f 191/80/107 200/89/116 183/58/91 174/57/90
f 184/90/56 194/82/109 177/66/97 168/73/42
f 195/85/112 138/91/53 169/72/39 178/69/100
f 160/92/88 162/93/117 185/75/103 186/74/70
f 155/94/118 153/95/87 187/77/69 188/76/104
f 162/93/117 163/96/119 189/78/105 185/75/103
f 154/97/120 155/94/118 188/76/104 190/79/106
f 163/96/119 161/98/121 191/80/107 189/78/105
f 152/99/122 154/97/120 190/79/106 192/81/108
f 156/100/123 158/101/124 193/83/110 194/82/109
f 167/102/125 165/103/126 195/85/112 196/84/111
f 158/101/124 159/104/127 197/86/113 193/83/110
f 166/105/128 167/102/125 196/84/111 198/87/114
f 159/104/127 157/106/129 199/88/115 197/86/113
f 164/107/130 166/105/128 198/87/114 200/89/116
f 157/106/129 152/99/122 192/81/108 199/88/115
f 161/98/121 164/107/130 200/89/116 191/80/107
f 106/108/74 156/100/123 194/82/109 184/90/56
f 165/103/126 113/109/71 138/91/53 195/85/112
