# Blender 4.3.2
# www.blender.org
mtllib bowl.mtl
o Circle
v 0.000000 0.000000 -1.000000
v -0.382683 0.000000 -0.923880
v -0.707107 0.000000 -0.707107
v -0.923880 0.000000 -0.382683
v -1.000000 0.000000 0.000000
v -0.923880 0.000000 0.382683
v -0.707107 0.000000 0.707107
v -0.382683 0.000000 0.923880
v 0.000000 0.000000 1.000000
v 0.382683 0.000000 0.923880
v 0.707107 0.000000 0.707107
v 0.923880 0.000000 0.382683
v 1.000000 0.000000 0.000000
v 0.923880 0.000000 -0.382683
v 0.707107 0.000000 -0.707107
v 0.382683 0.000000 -0.923880
v 0.000000 0.053152 -1.000000
v -0.382683 0.053152 -0.923880
v -0.707107 0.053152 -0.707107
v -0.923880 0.053152 -0.382683
v -1.000000 0.053152 0.000000
v -0.923880 0.053152 0.382683
v -0.707107 0.053152 0.707107
v -0.382683 0.053152 0.923880
v 0.000000 0.053152 1.000000
v 0.382683 0.053152 0.923880
v 0.707107 0.053152 0.707107
v 0.923880 0.053152 0.382683
v 1.000000 0.053152 0.000000
v 0.923880 0.053152 -0.382683
v 0.707107 0.053152 -0.707107
v 0.382683 0.053152 -0.923880
v -0.000000 0.186477 -1.236330
v -0.473123 0.186477 -1.142220
v -0.874217 0.186477 -0.874217
v -1.142220 0.186477 -0.473123
v -1.236330 0.186477 -0.000000
v -1.142220 0.186477 0.473123
v -0.874217 0.186477 0.874217
v -0.473123 0.186477 1.142220
v -0.000000 0.186477 1.236330
v 0.473123 0.186477 1.142220
v 0.874217 0.186477 0.874217
v 1.142220 0.186477 0.473123
v 1.236330 0.186477 -0.000000
v 1.142220 0.186477 -0.473123
v 0.874217 0.186477 -0.874217
v 0.473123 0.186477 -1.142220
v -0.000000 0.592312 -1.693368
v -0.648024 0.592312 -1.564468
v -1.197392 0.592312 -1.197392
v -1.564468 0.592312 -0.648024
v -1.693368 0.592312 -0.000000
v -1.564468 0.592312 0.648024
v -1.197392 0.592312 1.197392
v -0.648024 0.592312 1.564468
v -0.000000 0.592312 1.693368
v 0.648024 0.592312 1.564468
v 1.197392 0.592312 1.197392
v 1.564468 0.592312 0.648024
v 1.693368 0.592312 -0.000000
v 1.564468 0.592312 -0.648024
v 1.197392 0.592312 -1.197392
v 0.648024 0.592312 -1.564468
v -0.000000 1.583963 -2.388029
v -0.913859 1.583963 -2.206251
v -1.688591 1.583963 -1.688591
v -2.206251 1.583963 -0.913859
v -2.388029 1.583963 -0.000000
v -2.206251 1.583963 0.913859
v -1.688591 1.583963 1.688591
v -0.913859 1.583963 2.206251
v -0.000000 1.583963 2.388029
v 0.913859 1.583963 2.206251
v 1.688591 1.583963 1.688591
v 2.206251 1.583963 0.913859
v 2.388029 1.583963 -0.000000
v 2.206251 1.583963 -0.913859
v 1.688591 1.583963 -1.688591
v 0.913859 1.583963 -2.206251
v -0.000000 2.307052 -2.470502
v -0.945420 2.307052 -2.282447
v -1.746909 2.307052 -1.746909
v -2.282447 2.307052 -0.945420
v -2.470502 2.307052 -0.000000
v -2.282447 2.307052 0.945420
v -1.746909 2.307052 1.746909
v -0.945420 2.307052 2.282447
v -0.000000 2.307052 2.470502
v 0.945420 2.307052 2.282447
v 1.746909 2.307052 1.746909
v 2.282447 2.307052 0.945420
v 2.470502 2.307052 -0.000000
v 2.282447 2.307052 -0.945420
v 1.746909 2.307052 -1.746909
v 0.945420 2.307052 -2.282447
v -0.000000 2.307052 -2.282983
v -0.873660 2.307052 -2.109202
v -1.614313 2.307052 -1.614313
v -2.109202 2.307052 -0.873660
v -2.282983 2.307052 -0.000000
v -2.109202 2.307052 0.873660
v -1.614313 2.307052 1.614313
v -0.873660 2.307052 2.109202
v -0.000000 2.307052 2.282983
v 0.873660 2.307052 2.109202
v 1.614313 2.307052 1.614313
v 2.109202 2.307052 0.873660
v 2.282983 2.307052 -0.000000
v 2.109202 2.307052 -0.873660
v 1.614313 2.307052 -1.614313
v 0.873660 2.307052 -2.109202
v -2.195824 2.361534 0.909540
v -1.680611 2.361534 1.680611
v 2.195824 2.361534 -0.909540
v 1.680611 2.361534 -1.680611
v -0.909540 2.361534 2.195824
v 0.909540 2.361534 -2.195824
v -0.000000 2.361534 2.376743
v -0.000000 2.361534 -2.376743
v -0.909540 2.361534 -2.195824
v 0.909540 2.361534 2.195824
v -1.680611 2.361534 -1.680611
v 1.680611 2.361534 1.680611
v -2.195824 2.361534 -0.909540
v 2.195824 2.361534 0.909540
v -2.376743 2.361534 -0.000000
v 2.376743 2.361534 -0.000000
v -0.000000 1.420060 -2.108976
v -0.807070 1.420060 -1.948439
v -1.491271 1.420060 -1.491271
v -1.948439 1.420060 -0.807070
v -2.108976 1.420060 -0.000000
v -1.948439 1.420060 0.807070
v -1.491271 1.420060 1.491271
v -0.807070 1.420060 1.948439
v -0.000000 1.420060 2.108976
v 0.807070 1.420060 1.948439
v 1.491271 1.420060 1.491271
v 1.948439 1.420060 0.807070
v 2.108976 1.420060 -0.000000
v 1.948439 1.420060 -0.807070
v 1.491271 1.420060 -1.491271
v 0.807070 1.420060 -1.948439
v -0.000000 0.688889 -1.342010
v -0.513565 0.688889 -1.239855
v -0.948944 0.688889 -0.948944
v -1.239855 0.688889 -0.513565
v -1.342010 0.688889 -0.000000
v -1.239855 0.688889 0.513565
v -0.948944 0.688889 0.948944
v -0.513565 0.688889 1.239855
v -0.000000 0.688889 1.342010
v 0.513565 0.688889 1.239855
v 0.948944 0.688889 0.948944
v 1.239855 0.688889 0.513565
v 1.342010 0.688889 -0.000000
v 1.239855 0.688889 -0.513565
v 0.948944 0.688889 -0.948944
v 0.513565 0.688889 -1.239855
v 0.000000 0.535008 -0.732598
v -0.280353 0.535008 -0.676832
v -0.518025 0.535008 -0.518025
v -0.676832 0.535008 -0.280353
v -0.732598 0.535008 -0.000000
v -0.676832 0.535008 0.280353
v -0.518025 0.535008 0.518025
v -0.280353 0.535008 0.676832
v 0.000000 0.535008 0.732598
v 0.280353 0.535008 0.676832
v 0.518025 0.535008 0.518025
v 0.676832 0.535008 0.280353
v 0.732598 0.535008 -0.000000
v 0.676832 0.535008 -0.280353
v 0.518025 0.535008 -0.518025
v 0.280353 0.535008 -0.676832
v 0.000000 0.000000 -0.951927
v -0.364287 0.000000 -0.879466
v -0.673114 0.000000 -0.673114
v -0.879466 0.000000 -0.364287
v -0.951927 0.000000 0.000000
v -0.879466 0.000000 0.364287
v -0.673114 0.000000 0.673114
v -0.364287 0.000000 0.879466
v 0.000000 0.000000 0.951927
v 0.364287 0.000000 0.879466
v 0.673114 0.000000 0.673114
v 0.879466 0.000000 0.364287
v 0.951927 0.000000 0.000000
v 0.879466 0.000000 -0.364287
v 0.673114 0.000000 -0.673114
v 0.364287 0.000000 -0.879466
v 0.000000 0.050713 -0.916832
v -0.356645 0.050713 -0.845891
v -0.658994 0.050713 -0.643868
v -0.861017 0.050713 -0.341519
v -0.931958 0.050713 0.015126
v -0.861017 0.050713 0.371770
v -0.658994 0.050713 0.674119
v -0.356645 0.050713 0.876142
v 0.000000 0.050713 0.947083
v 0.356645 0.050713 0.876142
v 0.658994 0.050713 0.674119
v 0.861017 0.050713 0.371770
v 0.931958 0.050713 0.015126
v 0.861017 0.050713 -0.341519
v 0.658994 0.050713 -0.643868
v 0.356645 0.050713 -0.845891
v 1.496683 1.088138 1.496683
v 1.955511 1.088138 0.809999
v -1.955511 1.088138 -0.809999
v -2.116629 1.088138 -0.000000
v 2.116629 1.088138 -0.000000
v -1.955511 1.088138 0.809999
v 1.955511 1.088138 -0.809999
v -1.496683 1.088138 1.496683
v 1.496683 1.088138 -1.496683
v -0.809999 1.088138 1.955511
v 0.809999 1.088138 -1.955511
v -0.000000 1.088138 2.116629
v -0.000000 1.088138 -2.116629
v -0.809999 1.088138 -1.955511
v 0.809999 1.088138 1.955511
v -1.496683 1.088138 -1.496683
v -0.000000 1.945507 -2.473017
v -0.946383 1.945507 -2.284770
v 0.946383 1.945507 -2.284770
v -0.000000 1.945507 2.473017
v 0.946383 1.945507 2.284770
v -1.748687 1.945507 -1.748687
v 1.748687 1.945507 1.748687
v -2.284770 1.945507 -0.946383
v 2.284770 1.945507 0.946383
v -2.473017 1.945507 -0.000000
v 2.473017 1.945507 -0.000000
v -2.284770 1.945507 0.946383
v 2.284770 1.945507 -0.946383
v -1.748687 1.945507 1.748687
v 1.748687 1.945507 -1.748687
v -0.946383 1.945507 2.284770
vn -0.7071 -0.0000 -0.7071
vn -0.3827 -0.0000 -0.9239
vn 0.7071 -0.0000 0.7071
vn 0.3827 -0.0000 0.9239
vn -0.9239 -0.0000 -0.3827
vn 0.9239 -0.0000 0.3827
vn -1.0000 -0.0000 -0.0000
vn 1.0000 -0.0000 -0.0000
vn -0.9239 -0.0000 0.3827
vn 0.9239 -0.0000 -0.3827
vn -0.7071 -0.0000 0.7071
vn 0.7071 -0.0000 -0.7071
vn -0.3827 -0.0000 0.9239
vn 0.3827 -0.0000 -0.9239
vn -0.0000 -0.0000 1.0000
vn -0.0000 -0.0000 -1.0000
vn -0.0000 -0.8710 0.4914
vn -0.0000 -0.8077 0.5896
vn -0.2256 -0.8077 0.5447
vn -0.1880 -0.8710 0.4540
vn -0.1880 -0.8710 -0.4540
vn -0.2256 -0.8077 -0.5447
vn -0.0000 -0.8077 -0.5896
vn -0.0000 -0.8710 -0.4914
vn 0.2256 -0.8077 -0.5447
vn 0.1880 -0.8710 -0.4540
vn 0.1880 -0.8710 0.4540
vn 0.2256 -0.8077 0.5447
vn -0.3474 -0.8710 -0.3474
vn -0.4169 -0.8077 -0.4169
vn 0.3474 -0.8710 0.3474
vn 0.4169 -0.8077 0.4169
vn -0.4540 -0.8710 -0.1880
vn -0.5447 -0.8077 -0.2256
vn 0.4540 -0.8710 0.1880
vn 0.5447 -0.8077 0.2256
vn -0.4914 -0.8710 -0.0000
vn -0.5896 -0.8077 -0.0000
vn 0.4914 -0.8710 -0.0000
vn 0.5896 -0.8077 -0.0000
vn -0.4540 -0.8710 0.1880
vn -0.5447 -0.8077 0.2256
vn 0.4540 -0.8710 -0.1880
vn 0.5447 -0.8077 -0.2256
vn -0.3474 -0.8710 0.3474
vn -0.4169 -0.8077 0.4169
vn 0.3474 -0.8710 -0.3474
vn 0.4169 -0.8077 -0.4169
vn 0.6635 -0.6959 -0.2748
vn 0.7181 -0.6959 -0.0000
vn -0.5078 -0.6959 0.5078
vn -0.6635 -0.6959 0.2748
vn 0.5078 -0.6959 -0.5078
vn -0.2748 -0.6959 0.6635
vn 0.2748 -0.6959 -0.6635
vn -0.0000 -0.6959 0.7181
vn -0.2748 -0.6959 -0.6635
vn -0.0000 -0.6959 -0.7181
vn 0.2748 -0.6959 0.6635
vn -0.5078 -0.6959 -0.5078
vn 0.5078 -0.6959 0.5078
vn -0.6635 -0.6959 -0.2748
vn 0.6635 -0.6959 0.2748
vn -0.7181 -0.6959 -0.0000
vn 0.7643 -0.5618 0.3166
vn 0.8647 -0.3523 0.3582
vn 0.6618 -0.3523 0.6618
vn 0.5850 -0.5618 0.5850
vn -0.8273 -0.5618 -0.0000
vn -0.9359 -0.3523 -0.0000
vn -0.8647 -0.3523 -0.3582
vn -0.7643 -0.5618 -0.3166
vn 0.8273 -0.5618 -0.0000
vn 0.9359 -0.3523 -0.0000
vn -0.7643 -0.5618 0.3166
vn -0.8647 -0.3523 0.3582
vn 0.7643 -0.5618 -0.3166
vn 0.8647 -0.3523 -0.3582
vn -0.5850 -0.5618 0.5850
vn -0.6618 -0.3523 0.6618
vn 0.5850 -0.5618 -0.5850
vn 0.6618 -0.3523 -0.6618
vn -0.3166 -0.5618 0.7643
vn -0.3582 -0.3523 0.8647
vn 0.3166 -0.5618 -0.7643
vn 0.3582 -0.3523 -0.8647
vn -0.0000 -0.5618 0.8273
vn -0.0000 -0.3523 0.9359
vn -0.3166 -0.5618 -0.7643
vn -0.3582 -0.3523 -0.8647
vn -0.0000 -0.3523 -0.9359
vn -0.0000 -0.5618 -0.8273
vn 0.3166 -0.5618 0.7643
vn 0.3582 -0.3523 0.8647
vn -0.5850 -0.5618 -0.5850
vn -0.6618 -0.3523 -0.6618
vn -0.3804 -0.1101 -0.9183
vn -0.3827 0.0070 -0.9239
vn -0.0000 0.0070 -1.0000
vn -0.0000 -0.1101 -0.9939
vn 0.3827 0.0070 -0.9239
vn 0.3804 -0.1101 -0.9183
vn 0.3804 -0.1101 0.9183
vn 0.3827 0.0070 0.9239
vn -0.0000 0.0070 1.0000
vn -0.0000 -0.1101 0.9939
vn -0.7028 -0.1101 -0.7028
vn -0.7071 0.0070 -0.7071
vn 0.7028 -0.1101 0.7028
vn 0.7071 0.0070 0.7071
vn -0.9183 -0.1101 -0.3804
vn -0.9239 0.0070 -0.3827
vn 0.9183 -0.1101 0.3804
vn 0.9239 0.0070 0.3827
vn -0.9939 -0.1101 -0.0000
vn -1.0000 0.0070 -0.0000
vn 0.9939 -0.1101 -0.0000
vn 1.0000 0.0070 -0.0000
vn -0.9183 -0.1101 0.3804
vn -0.9239 0.0070 0.3827
vn 0.9183 -0.1101 -0.3804
vn 0.9239 0.0070 -0.3827
vn -0.7028 -0.1101 0.7028
vn -0.7071 0.0070 0.7071
vn 0.7028 -0.1101 -0.7028
vn 0.7071 0.0070 -0.7071
vn -0.3804 -0.1101 0.9183
vn -0.3827 0.0070 0.9239
vn -0.0442 0.9980 0.0442
vn 0.3553 0.8646 -0.3553
vn 0.4642 0.8646 -0.1923
vn -0.0578 0.9980 0.0239
vn 0.0442 0.9980 -0.0442
vn -0.3553 0.8646 0.3553
vn -0.4642 0.8646 0.1923
vn 0.0578 0.9980 -0.0239
vn -0.0239 0.9980 0.0578
vn 0.1923 0.8646 -0.4642
vn 0.0239 0.9980 -0.0578
vn -0.1923 0.8646 0.4642
vn -0.0000 0.9980 0.0626
vn -0.0000 0.8646 -0.5024
vn -0.0239 0.9980 -0.0578
vn 0.1923 0.8646 0.4642
vn -0.0000 0.8646 0.5024
vn -0.0000 0.9980 -0.0626
vn 0.0239 0.9980 0.0578
vn -0.1923 0.8646 -0.4642
vn -0.0442 0.9980 -0.0442
vn 0.3553 0.8646 0.3553
vn 0.0442 0.9980 0.0442
vn -0.3553 0.8646 -0.3553
vn -0.0578 0.9980 -0.0239
vn 0.4642 0.8646 0.1923
vn 0.0578 0.9980 0.0239
vn -0.4642 0.8646 -0.1923
vn -0.0626 0.9980 -0.0000
vn 0.5024 0.8646 -0.0000
vn 0.0626 0.9980 -0.0000
vn -0.5024 0.8646 -0.0000
vn -0.9066 0.1925 -0.3755
vn -0.8177 0.4655 -0.3387
vn -0.6258 0.4655 -0.6258
vn -0.6939 0.1925 -0.6939
vn 0.9813 0.1925 -0.0000
vn 0.8850 0.4655 -0.0000
vn 0.8177 0.4655 0.3387
vn 0.9066 0.1925 0.3755
vn -0.9813 0.1925 -0.0000
vn -0.8850 0.4655 -0.0000
vn 0.9066 0.1925 -0.3755
vn 0.8177 0.4655 -0.3387
vn -0.9066 0.1925 0.3755
vn -0.8177 0.4655 0.3387
vn 0.6939 0.1925 -0.6939
vn 0.6258 0.4655 -0.6258
vn -0.6939 0.1925 0.6939
vn -0.6258 0.4655 0.6258
vn 0.3755 0.1925 -0.9066
vn 0.3387 0.4655 -0.8177
vn -0.3755 0.1925 0.9066
vn -0.3387 0.4655 0.8177
vn -0.0000 0.1925 -0.9813
vn -0.0000 0.4655 -0.8850
vn 0.3755 0.1925 0.9066
vn 0.3387 0.4655 0.8177
vn -0.0000 0.4655 0.8850
vn -0.0000 0.1925 0.9813
vn -0.3755 0.1925 -0.9066
vn -0.3387 0.4655 -0.8177
vn 0.6939 0.1925 0.6939
vn 0.6258 0.4655 0.6258
vn 0.3584 0.8620 -0.3584
vn 0.4683 0.8620 -0.1940
vn -0.3584 0.8620 0.3584
vn -0.4683 0.8620 0.1940
vn 0.1940 0.8620 -0.4683
vn -0.1940 0.8620 0.4683
vn -0.0000 0.8620 -0.5069
vn 0.1940 0.8620 0.4683
vn -0.0000 0.8620 0.5069
vn -0.1940 0.8620 -0.4683
vn 0.3584 0.8620 0.3584
vn -0.3584 0.8620 -0.3584
vn 0.4683 0.8620 0.1940
vn -0.4683 0.8620 -0.1940
vn 0.5069 0.8620 -0.0000
vn -0.5069 0.8620 -0.0000
vn -0.1279 0.9904 -0.0530
vn -0.0979 0.9904 -0.0979
vn 0.1385 0.9904 -0.0000
vn 0.1279 0.9904 0.0530
vn -0.1385 0.9904 -0.0000
vn 0.1279 0.9904 -0.0530
vn -0.1279 0.9904 0.0530
vn 0.0979 0.9904 -0.0979
vn -0.0979 0.9904 0.0979
vn 0.0530 0.9904 -0.1279
vn -0.0530 0.9904 0.1279
vn -0.0000 0.9904 -0.1385
vn 0.0530 0.9904 0.1279
vn -0.0000 0.9904 0.1385
vn -0.0530 0.9904 -0.1279
vn 0.0979 0.9904 0.0979
vn -0.0000 -1.0000 -0.0000
vn -0.8115 -0.4581 0.3627
vn -0.8375 -0.4463 0.3154
vn -0.6212 -0.5141 0.5915
vn -0.5916 -0.5200 0.6161
vn 0.7118 -0.1848 -0.6776
vn 0.6777 -0.1745 -0.7143
vn 0.3669 -0.1158 -0.9230
vn 0.3925 -0.1189 -0.9120
vn -0.3283 -0.5553 0.7641
vn -0.3096 -0.5569 0.7707
vn -0.0000 -0.0951 -0.9955
vn -0.0000 -0.5691 0.8223
vn 0.3283 -0.5553 0.7641
vn 0.3096 -0.5569 0.7707
vn -0.3669 -0.1158 -0.9230
vn -0.3925 -0.1189 -0.9120
vn 0.6212 -0.5141 0.5915
vn 0.5916 -0.5200 0.6161
vn -0.6777 -0.1745 -0.7143
vn -0.7118 -0.1848 -0.6776
vn 0.8375 -0.4463 0.3154
vn 0.8115 -0.4581 0.3627
vn -0.8789 -0.2608 -0.3994
vn -0.8987 -0.2767 -0.3403
vn 0.9333 -0.3575 -0.0336
vn 0.9271 -0.3738 0.0292
vn -0.9333 -0.3575 -0.0336
vn -0.9271 -0.3738 0.0292
vn 0.8789 -0.2608 -0.3994
vn 0.8987 -0.2767 -0.3403
vt 0.000000 0.000000
s 1
usemtl white_non-metalic_(gloss)
f 3/1/1 19/1/1 18/1/2 2/1/2
f 11/1/3 27/1/3 26/1/4 10/1/4
f 4/1/5 20/1/5 19/1/1 3/1/1
f 12/1/6 28/1/6 27/1/3 11/1/3
f 5/1/7 21/1/7 20/1/5 4/1/5
f 13/1/8 29/1/8 28/1/6 12/1/6
f 6/1/9 22/1/9 21/1/7 5/1/7
f 14/1/10 30/1/10 29/1/8 13/1/8
f 7/1/11 23/1/11 22/1/9 6/1/9
f 15/1/12 31/1/12 30/1/10 14/1/10
f 8/1/13 24/1/13 23/1/11 7/1/11
f 16/1/14 32/1/14 31/1/12 15/1/12
f 9/1/15 25/1/15 24/1/13 8/1/13
f 2/1/2 18/1/2 17/1/16 1/1/16
f 1/1/16 17/1/16 32/1/14 16/1/14
f 10/1/4 26/1/4 25/1/15 9/1/15
f 25/1/17 41/1/18 40/1/19 24/1/20
f 18/1/21 34/1/22 33/1/23 17/1/24
f 17/1/24 33/1/23 48/1/25 32/1/26
f 26/1/27 42/1/28 41/1/18 25/1/17
f 19/1/29 35/1/30 34/1/22 18/1/21
f 27/1/31 43/1/32 42/1/28 26/1/27
f 20/1/33 36/1/34 35/1/30 19/1/29
f 28/1/35 44/1/36 43/1/32 27/1/31
f 21/1/37 37/1/38 36/1/34 20/1/33
f 29/1/39 45/1/40 44/1/36 28/1/35
f 22/1/41 38/1/42 37/1/38 21/1/37
f 30/1/43 46/1/44 45/1/40 29/1/39
f 23/1/45 39/1/46 38/1/42 22/1/41
f 31/1/47 47/1/48 46/1/44 30/1/43
f 24/1/20 40/1/19 39/1/46 23/1/45
f 32/1/26 48/1/25 47/1/48 31/1/47
f 46/1/44 62/1/49 61/1/50 45/1/40
f 39/1/46 55/1/51 54/1/52 38/1/42
f 47/1/48 63/1/53 62/1/49 46/1/44
f 40/1/19 56/1/54 55/1/51 39/1/46
f 48/1/25 64/1/55 63/1/53 47/1/48
f 41/1/18 57/1/56 56/1/54 40/1/19
f 34/1/22 50/1/57 49/1/58 33/1/23
f 33/1/23 49/1/58 64/1/55 48/1/25
f 42/1/28 58/1/59 57/1/56 41/1/18
f 35/1/30 51/1/60 50/1/57 34/1/22
f 43/1/32 59/1/61 58/1/59 42/1/28
f 36/1/34 52/1/62 51/1/60 35/1/30
f 44/1/36 60/1/63 59/1/61 43/1/32
f 37/1/38 53/1/64 52/1/62 36/1/34
f 45/1/40 61/1/50 60/1/63 44/1/36
f 38/1/42 54/1/52 53/1/64 37/1/38
f 210/1/65 76/1/66 75/1/67 209/1/68
f 212/1/69 69/1/70 68/1/71 211/1/72
f 213/1/73 77/1/74 76/1/66 210/1/65
f 214/1/75 70/1/76 69/1/70 212/1/69
f 215/1/77 78/1/78 77/1/74 213/1/73
f 216/1/79 71/1/80 70/1/76 214/1/75
f 217/1/81 79/1/82 78/1/78 215/1/77
f 218/1/83 72/1/84 71/1/80 216/1/79
f 219/1/85 80/1/86 79/1/82 217/1/81
f 220/1/87 73/1/88 72/1/84 218/1/83
f 222/1/89 66/1/90 65/1/91 221/1/92
f 221/1/92 65/1/91 80/1/86 219/1/85
f 223/1/93 74/1/94 73/1/88 220/1/87
f 224/1/95 67/1/96 66/1/90 222/1/89
f 209/1/68 75/1/67 74/1/94 223/1/93
f 211/1/72 68/1/71 67/1/96 224/1/95
f 226/1/97 82/1/98 81/1/99 225/1/100
f 225/1/100 81/1/99 96/1/101 227/1/102
f 229/1/103 90/1/104 89/1/105 228/1/106
f 230/1/107 83/1/108 82/1/98 226/1/97
f 231/1/109 91/1/110 90/1/104 229/1/103
f 232/1/111 84/1/112 83/1/108 230/1/107
f 233/1/113 92/1/114 91/1/110 231/1/109
f 234/1/115 85/1/116 84/1/112 232/1/111
f 235/1/117 93/1/118 92/1/114 233/1/113
f 236/1/119 86/1/120 85/1/116 234/1/115
f 237/1/121 94/1/122 93/1/118 235/1/117
f 238/1/123 87/1/124 86/1/120 236/1/119
f 239/1/125 95/1/126 94/1/122 237/1/121
f 240/1/127 88/1/128 87/1/124 238/1/123
f 227/1/102 96/1/101 95/1/126 239/1/125
f 228/1/106 89/1/105 88/1/128 240/1/127
f 114/1/129 103/1/130 102/1/131 113/1/132
f 116/1/133 111/1/134 110/1/135 115/1/136
f 117/1/137 104/1/138 103/1/130 114/1/129
f 118/1/139 112/1/140 111/1/134 116/1/133
f 119/1/141 105/1/142 104/1/138 117/1/137
f 121/1/143 98/1/144 97/1/145 120/1/146
f 120/1/146 97/1/145 112/1/140 118/1/139
f 122/1/147 106/1/148 105/1/142 119/1/141
f 123/1/149 99/1/150 98/1/144 121/1/143
f 124/1/151 107/1/152 106/1/148 122/1/147
f 125/1/153 100/1/154 99/1/150 123/1/149
f 126/1/155 108/1/156 107/1/152 124/1/151
f 127/1/157 101/1/158 100/1/154 125/1/153
f 128/1/159 109/1/160 108/1/156 126/1/155
f 113/1/132 102/1/131 101/1/158 127/1/157
f 115/1/136 110/1/135 109/1/160 128/1/159
f 94/1/131 115/1/136 128/1/159 93/1/158
f 86/1/135 113/1/132 127/1/157 85/1/160
f 93/1/158 128/1/159 126/1/155 92/1/154
f 85/1/160 127/1/157 125/1/153 84/1/156
f 92/1/154 126/1/155 124/1/151 91/1/150
f 84/1/156 125/1/153 123/1/149 83/1/152
f 91/1/150 124/1/151 122/1/147 90/1/144
f 83/1/152 123/1/149 121/1/143 82/1/148
f 90/1/144 122/1/147 119/1/141 89/1/145
f 81/1/142 120/1/146 118/1/139 96/1/138
f 82/1/148 121/1/143 120/1/146 81/1/142
f 89/1/145 119/1/141 117/1/137 88/1/140
f 96/1/138 118/1/139 116/1/133 95/1/130
f 88/1/140 117/1/137 114/1/129 87/1/134
f 95/1/130 116/1/133 115/1/136 94/1/131
f 87/1/134 114/1/129 113/1/132 86/1/135
f 108/1/161 140/1/162 139/1/163 107/1/164
f 101/1/165 133/1/166 132/1/167 100/1/168
f 109/1/169 141/1/170 140/1/162 108/1/161
f 102/1/171 134/1/172 133/1/166 101/1/165
f 110/1/173 142/1/174 141/1/170 109/1/169
f 103/1/175 135/1/176 134/1/172 102/1/171
f 111/1/177 143/1/178 142/1/174 110/1/173
f 104/1/179 136/1/180 135/1/176 103/1/175
f 112/1/181 144/1/182 143/1/178 111/1/177
f 105/1/183 137/1/184 136/1/180 104/1/179
f 98/1/185 130/1/186 129/1/187 97/1/188
f 97/1/188 129/1/187 144/1/182 112/1/181
f 106/1/189 138/1/190 137/1/184 105/1/183
f 99/1/191 131/1/192 130/1/186 98/1/185
f 107/1/164 139/1/163 138/1/190 106/1/189
f 100/1/168 132/1/167 131/1/192 99/1/191
f 135/1/176 151/1/193 150/1/194 134/1/172
f 143/1/178 159/1/195 158/1/196 142/1/174
f 136/1/180 152/1/197 151/1/193 135/1/176
f 144/1/182 160/1/198 159/1/195 143/1/178
f 137/1/184 153/1/199 152/1/197 136/1/180
f 130/1/186 146/1/200 145/1/201 129/1/187
f 129/1/187 145/1/201 160/1/198 144/1/182
f 138/1/190 154/1/202 153/1/199 137/1/184
f 131/1/192 147/1/203 146/1/200 130/1/186
f 139/1/163 155/1/204 154/1/202 138/1/190
f 132/1/167 148/1/205 147/1/203 131/1/192
f 140/1/162 156/1/206 155/1/204 139/1/163
f 133/1/166 149/1/207 148/1/205 132/1/167
f 141/1/170 157/1/208 156/1/206 140/1/162
f 134/1/172 150/1/194 149/1/207 133/1/166
f 142/1/174 158/1/196 157/1/208 141/1/170
f 156/1/206 172/1/209 171/1/210 155/1/204
f 149/1/207 165/1/211 164/1/212 148/1/205
f 157/1/208 173/1/213 172/1/209 156/1/206
f 150/1/194 166/1/214 165/1/211 149/1/207
f 158/1/196 174/1/215 173/1/213 157/1/208
f 151/1/193 167/1/216 166/1/214 150/1/194
f 159/1/195 175/1/217 174/1/215 158/1/196
f 152/1/197 168/1/218 167/1/216 151/1/193
f 160/1/198 176/1/219 175/1/217 159/1/195
f 153/1/199 169/1/220 168/1/218 152/1/197
f 146/1/200 162/1/221 161/1/222 145/1/201
f 145/1/201 161/1/222 176/1/219 160/1/198
f 154/1/202 170/1/223 169/1/220 153/1/199
f 147/1/203 163/1/224 162/1/221 146/1/200
f 155/1/204 171/1/210 170/1/223 154/1/202
f 148/1/205 164/1/212 163/1/224 147/1/203
f 162/1/221 163/1/224 164/1/212 165/1/211 166/1/214 167/1/216 168/1/218 169/1/220 170/1/223 171/1/210 172/1/209 173/1/213 174/1/215 175/1/217 176/1/219 161/1/222
f 10/1/225 186/1/225 187/1/225 11/1/225
f 3/1/225 179/1/225 180/1/225 4/1/225
f 11/1/225 187/1/225 188/1/225 12/1/225
f 4/1/225 180/1/225 181/1/225 5/1/225
f 12/1/225 188/1/225 189/1/225 13/1/225
f 5/1/225 181/1/225 182/1/225 6/1/225
f 13/1/225 189/1/225 190/1/225 14/1/225
f 6/1/225 182/1/225 183/1/225 7/1/225
f 14/1/225 190/1/225 191/1/225 15/1/225
f 7/1/225 183/1/225 184/1/225 8/1/225
f 15/1/225 191/1/225 192/1/225 16/1/225
f 8/1/225 184/1/225 185/1/225 9/1/225
f 1/1/225 177/1/225 178/1/225 2/1/225
f 16/1/225 192/1/225 177/1/225 1/1/225
f 9/1/225 185/1/225 186/1/225 10/1/225
f 2/1/225 178/1/225 179/1/225 3/1/225
f 190/1/226 206/1/227 207/1/228 191/1/229
f 183/1/230 199/1/231 200/1/232 184/1/233
f 191/1/229 207/1/228 208/1/234 192/1/235
f 184/1/233 200/1/232 201/1/236 185/1/236
f 177/1/237 193/1/237 194/1/238 178/1/239
f 192/1/235 208/1/234 193/1/237 177/1/237
f 185/1/236 201/1/236 202/1/240 186/1/241
f 178/1/239 194/1/238 195/1/242 179/1/243
f 186/1/241 202/1/240 203/1/244 187/1/245
f 179/1/243 195/1/242 196/1/246 180/1/247
f 187/1/245 203/1/244 204/1/248 188/1/249
f 180/1/247 196/1/246 197/1/250 181/1/251
f 188/1/249 204/1/248 205/1/252 189/1/253
f 181/1/251 197/1/250 198/1/254 182/1/255
f 189/1/253 205/1/252 206/1/227 190/1/226
f 182/1/255 198/1/254 199/1/231 183/1/230
f 194/1/225 193/1/225 208/1/225 207/1/225 206/1/225 205/1/225 204/1/225 203/1/225 202/1/225 201/1/225 200/1/225 199/1/225 198/1/225 197/1/225 196/1/225 195/1/225
f 52/1/62 211/1/72 224/1/95 51/1/60
f 59/1/61 209/1/68 223/1/93 58/1/59
f 51/1/60 224/1/95 222/1/89 50/1/57
f 58/1/59 223/1/93 220/1/87 57/1/56
f 49/1/58 221/1/92 219/1/85 64/1/55
f 50/1/57 222/1/89 221/1/92 49/1/58
f 57/1/56 220/1/87 218/1/83 56/1/54
f 64/1/55 219/1/85 217/1/81 63/1/53
f 56/1/54 218/1/83 216/1/79 55/1/51
f 63/1/53 217/1/81 215/1/77 62/1/49
f 55/1/51 216/1/79 214/1/75 54/1/52
f 62/1/49 215/1/77 213/1/73 61/1/50
f 54/1/52 214/1/75 212/1/69 53/1/64
f 61/1/50 213/1/73 210/1/65 60/1/63
f 53/1/64 212/1/69 211/1/72 52/1/62
f 60/1/63 210/1/65 209/1/68 59/1/61
f 73/1/88 228/1/106 240/1/127 72/1/84
f 80/1/86 227/1/102 239/1/125 79/1/82
f 72/1/84 240/1/127 238/1/123 71/1/80
f 79/1/82 239/1/125 237/1/121 78/1/78
f 71/1/80 238/1/123 236/1/119 70/1/76
f 78/1/78 237/1/121 235/1/117 77/1/74
f 70/1/76 236/1/119 234/1/115 69/1/70
f 77/1/74 235/1/117 233/1/113 76/1/66
f 69/1/70 234/1/115 232/1/111 68/1/71
f 76/1/66 233/1/113 231/1/109 75/1/67
f 68/1/71 232/1/111 230/1/107 67/1/96
f 75/1/67 231/1/109 229/1/103 74/1/94
f 67/1/96 230/1/107 226/1/97 66/1/90
f 74/1/94 229/1/103 228/1/106 73/1/88
f 65/1/91 225/1/100 227/1/102 80/1/86
f 66/1/90 226/1/97 225/1/100 65/1/91
