# Blender 4.3.2
# www.blender.org
mtllib frying pan.mtl
o Circle
v 0.000000 -0.052151 -1.000000
v -0.382683 -0.052151 -0.923880
v -0.707107 -0.052151 -0.707107
v -0.923880 -0.052151 -0.382683
v -1.000000 -0.052151 0.000000
v -0.923880 -0.052151 0.382683
v -0.707107 -0.052151 0.707107
v -0.382683 -0.052151 0.923880
v 0.000000 -0.052151 1.000000
v 0.382683 -0.052151 0.923880
v 0.707107 -0.052151 0.707107
v 0.923880 -0.052151 0.382683
v 1.000000 -0.052151 0.000000
v 0.923880 -0.052151 -0.382683
v 0.707107 -0.052151 -0.707107
v 0.382683 -0.052151 -0.923880
v -0.000000 0.066420 -1.234181
v -0.348012 0.066420 -1.164957
v -0.872698 -0.015480 -0.872698
v -1.140235 -0.015480 -0.472301
v -1.234181 -0.015480 0.000000
v -1.140235 -0.015480 0.472301
v -0.872698 -0.015480 0.872698
v 0.000000 0.084556 1.308705
v 0.872698 -0.015480 0.872698
v 1.140235 -0.015480 0.472301
v 1.234181 -0.015480 0.000000
v 1.140235 -0.015480 -0.472301
v 0.872698 -0.015480 -0.872698
v 0.348012 0.066420 -1.164957
v 0.000000 -0.074021 -0.647091
v -0.247631 -0.074021 -0.597834
v -0.457562 -0.074021 -0.457562
v -0.597834 -0.074021 -0.247631
v -0.647091 -0.074021 0.000000
v -0.597834 -0.074021 0.247631
v -0.457562 -0.074021 0.457562
v -0.247631 -0.074021 0.597834
v 0.000000 -0.074021 0.647091
v 0.247631 -0.074021 0.597834
v 0.457562 -0.074021 0.457562
v 0.597834 -0.074021 0.247631
v 0.647091 -0.074021 0.000000
v 0.597834 -0.074021 -0.247631
v 0.457562 -0.074021 -0.457562
v 0.247631 -0.074021 -0.597834
v -0.000000 0.187328 -1.234181
v -0.348012 0.187328 -1.164957
v 0.348012 0.187328 -1.164957
v -0.000000 0.003890 -1.181303
v -0.452065 0.003890 -1.091382
v -0.835307 0.003890 -0.835307
v -1.091382 0.003890 -0.452065
v -1.181303 0.003890 -0.000000
v -1.091382 0.003890 0.452065
v -0.835307 0.003890 0.835307
v -0.452065 0.003890 1.091382
v -0.000000 0.003890 1.181303
v 0.452065 0.003890 1.091382
v 0.835307 0.003890 0.835307
v 1.091382 0.003890 0.452065
v 1.181303 0.003890 -0.000000
v 1.091382 0.003890 -0.452065
v 0.835307 0.003890 -0.835307
v 0.452065 0.003890 -1.091382
v -0.000000 -0.001517 -0.073878
v -0.028272 -0.001517 -0.068254
v -0.052240 -0.001517 -0.052240
v -0.068254 -0.001517 -0.028272
v -0.073878 -0.001517 -0.000000
v -0.068254 -0.001517 0.028272
v -0.052240 -0.001517 0.052240
v -0.028272 -0.001517 0.068254
v -0.000000 -0.001517 0.073878
v 0.028272 -0.001517 0.068254
v 0.052240 -0.001517 0.052240
v 0.068254 -0.001517 0.028272
v 0.073878 -0.001517 -0.000000
v 0.068254 -0.001517 -0.028272
v 0.052240 -0.001517 -0.052240
v 0.028272 -0.001517 -0.068254
v -0.472301 -0.015480 -1.140235
v 0.000000 -0.015480 -1.234181
v 0.472301 -0.015480 -1.140235
v -0.000000 0.206646 -2.994799
v 0.000000 0.327553 -2.994799
v -0.175665 0.216847 -2.761611
v 0.175665 0.216802 -2.761610
v -0.175665 0.337710 -2.761610
v 0.175665 0.337755 -2.761611
v 0.115706 0.209743 -2.923504
v 0.115706 0.330680 -2.923505
v -0.115706 0.330651 -2.923504
v -0.115706 0.209773 -2.923505
v -0.000000 0.346820 -1.727637
v 0.193923 0.353103 -1.819936
v -0.000000 0.225912 -1.727638
v 0.193923 0.219629 -1.819936
v -0.193923 0.219629 -1.819936
v -0.193923 0.353103 -1.819936
v 0.226033 0.003890 -1.136342
v 0.014136 -0.001517 -0.071066
v 0.174006 0.187328 -1.199569
v -0.226033 0.003890 -1.136342
v -0.014136 -0.001517 -0.071066
v -0.174006 0.187328 -1.199569
v -0.191342 -0.052151 -0.961940
v -0.236150 -0.015480 -1.187208
v -0.123815 -0.074021 -0.622462
v -0.174006 0.066420 -1.199569
v 0.191342 -0.052151 -0.961940
v 0.236150 -0.015480 -1.187208
v 0.123815 -0.074021 -0.622462
v 0.174006 0.066420 -1.199569
v 0.192457 0.372633 -1.962654
v -0.192456 0.372584 -1.962651
v -0.000000 0.375842 -1.888582
v 0.192456 0.251676 -1.962651
v -0.192457 0.251725 -1.962654
v -0.867295 0.217077 -0.867295
v -0.872698 0.209583 -0.872698
v -1.133176 0.217077 -0.469377
v -1.140235 0.209583 -0.472301
v -1.226541 0.217077 -0.000000
v -1.234181 0.209583 0.000000
v -1.133176 0.217077 0.469377
v -1.140235 0.209583 0.472301
v -0.867295 0.217077 0.867295
v -0.872698 0.209583 0.872698
v -0.469377 0.217077 1.133176
v -0.000000 0.217077 1.226541
v 0.000000 0.161699 1.234181
v 0.469377 0.217077 1.133176
v 0.867295 0.217077 0.867295
v 0.872698 0.209583 0.872698
v 1.133176 0.217077 0.469377
v 1.140235 0.209583 0.472301
v 1.226541 0.217077 -0.000000
v 1.234181 0.209583 0.000000
v 1.133176 0.217077 -0.469377
v 1.140235 0.209583 -0.472301
v 0.867295 0.217077 -0.867295
v 0.872698 0.209583 -0.872698
v -0.000000 0.217077 -1.188944
v -0.000000 0.209583 -1.181303
v -0.454989 0.217077 -1.098441
v -0.452065 0.209583 -1.091382
v -0.835307 0.209583 -0.835307
v -0.840710 0.217077 -0.840710
v -1.091382 0.209583 -0.452065
v -1.098441 0.217077 -0.454989
v -1.181303 0.209583 -0.000000
v -1.188944 0.217077 -0.000000
v -1.091382 0.209583 0.452065
v -1.098441 0.217077 0.454989
v -0.835307 0.209583 0.835307
v -0.840710 0.217077 0.840710
v -0.452065 0.209583 1.091382
v -0.454989 0.217077 1.098441
v -0.000000 0.209583 1.181303
v -0.000000 0.217077 1.188944
v 0.452065 0.209583 1.091382
v 0.454989 0.217077 1.098441
v 0.835307 0.209583 0.835307
v 0.840710 0.217077 0.840710
v 1.091382 0.209583 0.452065
v 1.098441 0.217077 0.454989
v 1.181303 0.209583 -0.000000
v 1.188944 0.217077 -0.000000
v 1.091382 0.209583 -0.452065
v 1.098441 0.217077 -0.454989
v 0.835307 0.209583 -0.835307
v 0.840710 0.217077 -0.840710
v 0.452065 0.209583 -1.091382
v 0.454989 0.217077 -1.098441
v -0.472301 0.209583 -1.140235
v -0.469377 0.217077 -1.133176
v -0.000000 0.209583 -1.234181
v -0.000000 0.217077 -1.226541
v 0.469377 0.217077 -1.133176
v 0.472301 0.209583 -1.140235
v 0.234688 0.217077 -1.179858
v 0.220496 0.209583 -1.190322
v 0.226033 0.209583 -1.136342
v 0.227494 0.217077 -1.143692
v -0.234688 0.217077 -1.179858
v -0.220496 0.209583 -1.190322
v -0.226033 0.209583 -1.136342
v -0.227494 0.217077 -1.143692
v -0.093342 0.219540 -2.699671
v 0.005148 0.223416 -2.610609
v 0.094306 0.219110 -2.708992
v -0.004184 0.215235 -2.798054
v -0.062563 0.222370 -2.634764
v 0.070125 0.222065 -2.641355
v 0.063526 0.216280 -2.773899
v -0.069161 0.216585 -2.767308
v 0.093342 0.340448 -2.699671
v -0.005148 0.344323 -2.610609
v -0.094306 0.340017 -2.708992
v 0.004184 0.336142 -2.798054
v 0.062563 0.343278 -2.634764
v -0.070125 0.342973 -2.641355
v -0.063526 0.337188 -2.773899
v 0.069161 0.337493 -2.767308
v 0.133212 0.326683 -1.660965
v 0.082170 0.346820 -1.727637
v -0.082170 0.346820 -1.727637
v -0.133212 0.326683 -1.660965
v -0.133212 0.205775 -1.660965
v -0.082170 0.225912 -1.727638
v 0.082170 0.225912 -1.727638
v 0.133212 0.205775 -1.660965
v -0.123080 -0.001517 -0.618764
v -0.000000 -0.001517 -0.643246
v -0.454844 -0.001517 -0.454844
v -0.246160 -0.001517 -0.594282
v -0.594282 -0.001517 -0.246160
v -0.643246 -0.001517 -0.000000
v -0.594282 -0.001517 0.246160
v -0.454844 -0.001517 0.454844
v -0.246160 -0.001517 0.594282
v -0.000000 -0.001517 0.643246
v 0.246160 -0.001517 0.594282
v 0.454844 -0.001517 0.454844
v 0.594282 -0.001517 0.246160
v 0.643246 -0.001517 -0.000000
v 0.594282 -0.001517 -0.246160
v 0.454844 -0.001517 -0.454844
v 0.246160 -0.001517 -0.594282
v 0.123080 -0.001517 -0.618764
v -0.025772 -0.001517 -0.129566
v -0.000000 -0.001517 -0.134693
v -0.095242 -0.001517 -0.095242
v -0.051545 -0.001517 -0.124440
v -0.124440 -0.001517 -0.051545
v -0.134693 -0.001517 -0.000000
v -0.124440 -0.001517 0.051545
v -0.095242 -0.001517 0.095242
v -0.051545 -0.001517 0.124440
v -0.000000 -0.001517 0.134693
v 0.051545 -0.001517 0.124440
v 0.095242 -0.001517 0.095242
v 0.124440 -0.001517 0.051545
v 0.134693 -0.001517 -0.000000
v 0.124440 -0.001517 -0.051545
v 0.095242 -0.001517 -0.095242
v 0.051545 -0.001517 -0.124440
v 0.025772 -0.001517 -0.129566
v -0.018694 -0.001517 -0.093980
v -0.000000 -0.001517 -0.097699
v -0.069084 -0.001517 -0.069084
v -0.037388 -0.001517 -0.090262
v -0.090262 -0.001517 -0.037388
v -0.097699 -0.001517 -0.000000
v -0.090262 -0.001517 0.037388
v -0.069084 -0.001517 0.069084
v -0.037388 -0.001517 0.090262
v -0.000000 -0.001517 0.097699
v 0.037388 -0.001517 0.090262
v 0.069084 -0.001517 0.069084
v 0.090262 -0.001517 0.037388
v 0.097699 -0.001517 -0.000000
v 0.090262 -0.001517 -0.037388
v 0.069084 -0.001517 -0.069084
v 0.037388 -0.001517 -0.090262
v 0.018694 -0.001517 -0.093980
v -0.349068 -0.057595 -0.842724
v 0.000000 -0.057595 -0.912158
v 0.349068 -0.057595 -0.842724
v 0.349068 -0.057595 0.842724
v 0.000000 -0.057595 0.912158
v -0.644993 -0.057595 -0.644993
v 0.644993 -0.057595 0.644993
v -0.842724 -0.057595 -0.349068
v 0.842724 -0.057595 0.349068
v -0.912158 -0.057595 0.000000
v 0.912158 -0.057595 0.000000
v -0.842724 -0.057595 0.349068
v 0.842724 -0.057595 -0.349068
v -0.644993 -0.057595 0.644993
v 0.644993 -0.057595 -0.644993
v -0.349068 -0.057595 0.842724
v -0.174534 -0.057595 -0.877441
v 0.174534 -0.057595 -0.877441
v 0.000000 -0.015480 1.234181
v -0.472301 -0.015480 1.140235
v 0.472301 -0.015480 1.140235
v 0.000000 0.209583 1.234181
v -0.472301 0.209583 1.140235
v 0.472301 0.209583 1.140235
v 0.000000 0.161699 1.538563
v 0.000000 0.084556 1.486654
v 0.000000 0.084556 1.234181
v -0.425336 0.084556 1.149576
v 0.425336 0.084556 1.149576
v 0.000000 0.161699 1.308705
v -0.425336 0.161699 1.149576
v 0.425336 0.161699 1.149576
v 0.000000 0.084556 1.538563
v 0.000000 0.161699 1.486654
v -0.337913 0.084556 1.425827
v -0.373427 0.084556 1.383349
v 0.373427 0.084556 1.383349
v 0.337913 0.084556 1.425827
v -0.373427 0.161699 1.383349
v -0.337913 0.161699 1.425827
v 0.337913 0.161699 1.425827
v 0.373427 0.161699 1.383349
v -0.373427 0.084556 1.258504
v -0.329186 0.084556 1.224187
v 0.329186 0.084556 1.224187
v 0.373427 0.084556 1.258504
v -0.329186 0.161699 1.224187
v -0.373427 0.161699 1.258504
v 0.373427 0.161699 1.258504
v 0.329186 0.161699 1.224187
v -0.425336 0.084556 1.438981
v -0.393371 0.084556 1.476395
v 0.393371 0.084556 1.476395
v 0.425336 0.084556 1.438981
v -0.393371 0.161699 1.476395
v -0.425336 0.161699 1.438981
v 0.425336 0.161699 1.438981
v 0.393371 0.161699 1.476395
v 0.001372 0.225247 -1.962905
vn 0.0216 -0.9939 -0.1084
vn 0.0308 -0.9875 -0.1546
vn 0.0592 -0.9880 -0.1429
vn 0.0437 -0.9935 -0.1055
vn 0.0437 -0.9935 0.1055
vn 0.0592 -0.9880 0.1429
vn -0.0000 -0.9880 0.1547
vn -0.0000 -0.9935 0.1142
vn -0.0807 -0.9935 -0.0807
vn -0.1094 -0.9880 -0.1094
vn -0.0592 -0.9880 -0.1429
vn -0.0437 -0.9935 -0.1055
vn 0.0807 -0.9935 0.0807
vn 0.1094 -0.9880 0.1094
vn -0.1055 -0.9935 -0.0437
vn -0.1429 -0.9880 -0.0592
vn 0.1055 -0.9935 0.0437
vn 0.1429 -0.9880 0.0592
vn -0.1142 -0.9935 -0.0000
vn -0.1547 -0.9880 -0.0000
vn 0.1142 -0.9935 -0.0000
vn 0.1547 -0.9880 -0.0000
vn -0.1055 -0.9935 0.0437
vn -0.1429 -0.9880 0.0592
vn 0.1055 -0.9935 -0.0437
vn 0.1429 -0.9880 -0.0592
vn -0.0807 -0.9935 0.0807
vn -0.1094 -0.9880 0.1094
vn 0.0807 -0.9935 -0.0807
vn 0.1094 -0.9880 -0.1094
vn -0.0437 -0.9935 0.1055
vn -0.0592 -0.9880 0.1429
vn -0.0216 -0.9939 -0.1084
vn -0.0308 -0.9875 -0.1546
vn -0.0000 -0.9880 -0.1547
vn -0.0000 -0.9935 -0.1142
vn -0.0123 -0.9980 -0.0618
vn -0.0062 -0.9995 -0.0309
vn -0.0133 -0.9994 -0.0322
vn -0.0237 -0.9981 -0.0571
vn 0.0123 -0.9980 -0.0618
vn 0.0062 -0.9995 -0.0309
vn -0.0000 -0.9994 -0.0348
vn -0.0000 -0.9981 -0.0618
vn -0.0000 -0.9981 0.0618
vn -0.0000 -0.9994 0.0348
vn 0.0133 -0.9994 0.0322
vn 0.0237 -0.9981 0.0571
vn -0.0246 -0.9994 -0.0246
vn -0.0437 -0.9981 -0.0437
vn 0.0246 -0.9994 0.0246
vn 0.0437 -0.9981 0.0437
vn -0.0322 -0.9994 -0.0133
vn -0.0571 -0.9981 -0.0237
vn 0.0322 -0.9994 0.0133
vn 0.0571 -0.9981 0.0237
vn -0.0348 -0.9994 -0.0000
vn -0.0618 -0.9981 -0.0000
vn 0.0348 -0.9994 -0.0000
vn 0.0618 -0.9981 -0.0000
vn -0.0322 -0.9994 0.0133
vn -0.0571 -0.9981 0.0237
vn 0.0322 -0.9994 -0.0133
vn 0.0571 -0.9981 -0.0237
vn -0.0246 -0.9994 0.0246
vn -0.0437 -0.9981 0.0437
vn 0.0246 -0.9994 -0.0246
vn 0.0437 -0.9981 -0.0437
vn -0.0133 -0.9994 0.0322
vn -0.0237 -0.9981 0.0571
vn 0.0133 -0.9994 -0.0322
vn 0.0237 -0.9981 -0.0571
vn -0.2950 0.9088 0.2950
vn 0.2378 0.9417 -0.2378
vn 0.3107 0.9417 -0.1287
vn -0.3855 0.9088 0.1597
vn 0.2950 0.9088 -0.2950
vn -0.2378 0.9417 0.2378
vn -0.3107 0.9417 0.1287
vn 0.3855 0.9088 -0.1597
vn -0.1597 0.9088 0.3855
vn 0.1287 0.9417 -0.3107
vn 0.1597 0.9088 -0.3855
vn -0.1287 0.9417 0.3107
vn -0.0000 0.9088 0.4172
vn -0.0000 0.9417 -0.3363
vn 0.1951 -0.0000 0.9808
vn -0.0000 -0.0000 1.0000
vn 0.1597 0.9088 0.3855
vn -0.1287 0.9417 -0.3107
vn 0.9734 -0.0000 -0.2290
vn 0.9907 -0.0000 -0.1359
vn 0.9943 -0.0000 -0.1067
vn 0.2950 0.9088 0.2950
vn -0.2378 0.9417 -0.2378
vn -0.3855 0.9088 -0.1597
vn 0.3107 0.9417 0.1287
vn 0.2378 0.9417 0.2378
vn -0.2950 0.9088 -0.2950
vn 0.3855 0.9088 0.1597
vn -0.3107 0.9417 -0.1287
vn -0.7071 -0.0000 -0.7071
vn -0.3934 -0.0000 -0.9194
vn -0.3827 -0.0000 -0.9239
vn 0.4172 0.9088 -0.0000
vn -0.3363 0.9417 -0.0000
vn 0.3363 0.9417 -0.0000
vn -0.4172 0.9088 -0.0000
vn -0.8980 -0.0000 0.4399
vn -0.9400 -0.0000 -0.3412
vn -0.9239 -0.0000 -0.3827
vn 0.7071 -0.0000 0.7071
vn 0.3827 -0.0000 0.9239
vn 0.9239 -0.0000 0.3827
vn -1.0000 -0.0000 -0.0000
vn 1.0000 -0.0000 -0.0000
vn -0.9239 -0.0000 0.3827
vn 0.9239 -0.0000 -0.3827
vn -0.7071 -0.0000 0.7071
vn 0.7071 -0.0000 -0.7071
vn -0.3827 -0.0000 0.9239
vn 0.3827 -0.0000 -0.9239
vn 0.3934 -0.0000 -0.9194
vn -0.0000 0.9088 -0.4172
vn -0.0000 0.9417 0.3363
vn -0.0747 0.9239 0.3753
vn 0.0747 0.9239 -0.3753
vn -0.1951 -0.0000 -0.9808
vn -0.0000 -0.0000 -1.0000
vn -0.1951 -0.0000 0.9808
vn -0.0020 0.9999 0.0100
vn -0.0010 1.0000 0.0050
vn -0.0022 1.0000 0.0052
vn -0.0038 0.9999 0.0093
vn -0.0038 0.9999 -0.0093
vn -0.0022 1.0000 -0.0052
vn -0.0000 1.0000 -0.0057
vn -0.0000 0.9999 -0.0100
vn 0.0071 0.9999 0.0071
vn 0.0040 1.0000 0.0040
vn 0.0022 1.0000 0.0052
vn 0.0038 0.9999 0.0093
vn -0.0071 0.9999 -0.0071
vn -0.0040 1.0000 -0.0040
vn 0.0093 0.9999 0.0038
vn 0.0052 1.0000 0.0022
vn -0.0093 0.9999 -0.0038
vn -0.0052 1.0000 -0.0022
vn 0.0100 0.9999 -0.0000
vn 0.0057 1.0000 -0.0000
vn -0.0100 0.9999 -0.0000
vn -0.0057 1.0000 -0.0000
vn 0.0093 0.9999 -0.0038
vn 0.0052 1.0000 -0.0022
vn -0.0093 0.9999 0.0038
vn -0.0052 1.0000 0.0022
vn 0.0071 0.9999 -0.0071
vn 0.0040 1.0000 -0.0040
vn -0.0071 0.9999 0.0071
vn -0.0040 1.0000 0.0040
vn 0.0038 0.9999 -0.0093
vn 0.0022 1.0000 -0.0052
vn 0.0020 0.9999 0.0100
vn 0.0010 1.0000 0.0050
vn -0.0000 1.0000 0.0057
vn -0.0000 0.9999 0.0100
vn -0.0000 1.0000 -0.0000
vn 0.1951 -0.0000 -0.9808
vn -0.0000 0.3710 -0.9286
vn 0.1802 0.3827 -0.9061
vn 0.2129 0.3852 -0.8980
vn -0.2129 0.3839 -0.8985
vn -0.2684 0.6845 -0.6779
vn -0.1802 0.3827 -0.9061
vn -0.2129 0.3852 -0.8980
vn -0.9816 -0.0000 -0.1912
vn -0.9832 -0.0000 -0.1823
vn -0.7778 -0.0000 -0.6286
vn -0.7689 -0.0000 -0.6394
vn 0.7778 -0.0000 -0.6285
vn 0.7689 -0.0000 -0.6393
vn -0.4734 -0.0000 0.8809
vn -0.4066 -0.0000 0.9136
vn -0.9734 -0.0000 -0.2290
vn -0.9943 -0.0000 -0.1067
vn -0.9907 -0.0000 -0.1359
vn 0.9961 -0.0000 0.0881
vn 0.9483 -0.0000 0.3173
vn 0.9129 -0.0000 0.4081
vn 0.9832 -0.0000 -0.1823
vn 0.9816 -0.0000 -0.1912
vn 0.9999 -0.0000 -0.0154
vn 0.9999 -0.0000 -0.0158
vn 0.0461 0.9806 0.1903
vn 0.0473 0.9819 0.1832
vn 0.0207 0.9993 0.0307
vn -0.0001 0.9972 0.0743
vn -0.0000 0.9891 0.1474
vn 0.2684 0.6845 -0.6779
vn 0.2129 0.3839 -0.8985
vn -0.0747 0.9239 -0.3753
vn 0.0747 0.9239 0.3753
vn -0.1597 0.9088 -0.3855
vn 0.1287 0.9417 0.3107
vn -0.0001 0.9990 -0.0436
vn -0.0209 0.9993 0.0307
vn 0.4066 -0.0000 0.9136
vn 0.4734 -0.0000 0.8809
vn -0.0075 -0.9921 -0.1253
vn -0.0795 -0.9688 -0.2347
vn -0.0137 -0.9908 -0.1348
vn -0.9129 -0.0000 0.4081
vn -0.9483 -0.0000 0.3173
vn -0.9961 -0.0000 0.0881
vn -0.9999 -0.0000 -0.0158
vn -0.9999 -0.0000 -0.0154
vn -0.4951 0.7139 -0.4951
vn -0.6469 0.7139 -0.2680
vn -0.7002 0.7139 -0.0000
vn -0.6469 0.7139 0.2680
vn -0.4951 0.7139 0.4951
vn -0.2680 0.7139 0.6469
vn -0.0000 0.7139 0.7002
vn 0.2680 0.7139 0.6469
vn 0.4951 0.7139 0.4951
vn 0.6469 0.7139 0.2680
vn 0.7002 0.7139 -0.0000
vn 0.6469 0.7139 -0.2680
vn 0.4951 0.7139 -0.4951
vn 0.1380 0.7071 0.6935
vn 0.2680 0.7139 -0.6469
vn -0.0000 0.7139 -0.7002
vn -0.2680 0.7139 -0.6469
vn -0.1380 0.7071 0.6935
vn -0.9995 -0.0080 0.0296
vn -0.9995 -0.0080 -0.0290
vn -0.7242 -0.0058 0.6896
vn -0.6891 -0.0055 0.7247
vn -0.7263 -0.0058 -0.6874
vn -0.6873 -0.0055 -0.7264
vn -0.0210 -0.0002 -0.9998
vn 0.0203 0.0002 -0.9998
vn 0.6975 0.0056 -0.7166
vn 0.7153 0.0057 -0.6988
vn 0.9999 0.0080 -0.0086
vn 0.9999 0.0080 0.0078
vn 0.6997 0.0056 0.7144
vn 0.7137 0.0057 0.7004
vn 0.0165 0.0001 0.9999
vn -0.0171 -0.0001 0.9999
vn 0.9382 -0.0000 0.3462
vn -0.9382 -0.0000 0.3462
vn -0.0000 -1.0000 -0.0000
vn -0.2028 -0.0000 0.9792
vn 0.4884 -0.0000 0.8726
vn -0.5023 -0.0000 -0.8647
vn 0.5023 -0.0000 -0.8647
vn 0.9400 -0.0000 -0.3412
vn 0.8980 -0.0000 0.4399
vn -0.4884 -0.0000 0.8726
vn 0.2028 -0.0000 0.9792
vn -0.0407 -0.9990 -0.0208
vn -0.0523 -0.9983 0.0277
vn 0.0016 -0.9996 0.0280
vn -0.0015 -0.9996 0.0280
vn 0.0019 -0.9996 0.0280
vn 0.0002 -0.9998 -0.0204
vn -0.0461 0.9807 0.1903
vn -0.0473 0.9820 0.1831
vn -0.0353 0.9663 0.2548
vn 0.0353 0.9663 0.2548
vn 0.0413 -0.9989 -0.0204
vn 0.0532 -0.9982 0.0282
vn 0.0795 -0.9688 -0.2347
vn 0.0076 -0.9920 -0.1256
vn 0.0137 -0.9907 -0.1350
vn -0.0000 -0.9976 -0.0688
vt 0.000000 0.000000
s 1
usemtl Material.006
f 128/1/73 157/1/74 155/1/75 126/1/76
f 142/1/77 173/1/78 171/1/79 140/1/80
f 130/1/81 159/1/82 157/1/74 128/1/73
f 180/1/83 175/1/84 173/1/78 142/1/77
f 131/1/85 161/1/86 159/1/82 130/1/81
f 188/1/87 104/1/87 50/1/88 145/1/88
f 133/1/89 163/1/90 161/1/86 131/1/85
f 134/1/94 165/1/95 163/1/90 133/1/89
f 122/1/96 151/1/97 149/1/98 120/1/99
f 136/1/100 167/1/101 165/1/95 134/1/94
f 138/1/105 169/1/106 167/1/101 136/1/100
f 126/1/76 155/1/75 153/1/107 124/1/108
f 140/1/80 171/1/79 169/1/106 138/1/105
f 124/1/108 153/1/107 151/1/97 122/1/96
f 179/1/124 144/1/125 185/1/126 182/1/127
f 174/1/121 65/1/121 64/1/119 172/1/119
f 160/1/129 58/1/129 57/1/122 158/1/122
f 184/1/130 101/1/130 65/1/121 174/1/121
f 162/1/104 59/1/104 58/1/129 160/1/129
f 145/1/88 50/1/88 101/1/130 184/1/130
f 182/1/127 185/1/126 175/1/84 180/1/83
f 164/1/102 60/1/102 59/1/104 162/1/104
f 147/1/113 51/1/113 104/1/87 188/1/87
f 166/1/111 61/1/111 60/1/102 164/1/102
f 152/1/116 54/1/116 53/1/114 150/1/114
f 168/1/115 62/1/115 61/1/111 166/1/111
f 154/1/118 55/1/118 54/1/116 152/1/116
f 170/1/117 63/1/117 62/1/115 168/1/115
f 156/1/120 56/1/120 55/1/118 154/1/118
f 172/1/119 64/1/119 63/1/117 170/1/117
f 158/1/122 57/1/122 56/1/120 156/1/120
f 101/1/131 231/1/132 230/1/133 65/1/134
f 59/1/135 224/1/136 223/1/137 58/1/138
f 52/1/139 216/1/140 217/1/141 51/1/142
f 60/1/143 225/1/144 224/1/136 59/1/135
f 53/1/145 218/1/146 216/1/140 52/1/139
f 61/1/147 226/1/148 225/1/144 60/1/143
f 54/1/149 219/1/150 218/1/146 53/1/145
f 62/1/151 227/1/152 226/1/148 61/1/147
f 55/1/153 220/1/154 219/1/150 54/1/149
f 63/1/155 228/1/156 227/1/152 62/1/151
f 56/1/157 221/1/158 220/1/154 55/1/153
f 64/1/159 229/1/160 228/1/156 63/1/155
f 57/1/161 222/1/162 221/1/158 56/1/157
f 65/1/134 230/1/133 229/1/160 64/1/159
f 58/1/138 223/1/137 222/1/162 57/1/161
f 104/1/163 214/1/164 215/1/165 50/1/166
f 50/1/166 215/1/165 231/1/132 101/1/131
f 186/1/201 189/1/202 144/1/125 179/1/124
f 148/1/112 52/1/112 51/1/113 147/1/113
f 51/1/142 217/1/141 214/1/164 104/1/163
f 177/1/203 146/1/204 189/1/202 186/1/201
f 150/1/114 53/1/114 52/1/112 148/1/112
f 187/1/174 186/1/201 179/1/124 178/1/169
f 121/1/217 120/1/99 177/1/203 176/1/173
f 123/1/218 122/1/96 120/1/99 121/1/217
f 125/1/219 124/1/108 122/1/96 123/1/218
f 127/1/220 126/1/76 124/1/108 125/1/219
f 129/1/221 128/1/73 126/1/76 127/1/220
f 290/1/222 130/1/81 128/1/73 129/1/221
f 289/1/223 131/1/85 130/1/81 290/1/222
f 291/1/224 133/1/89 131/1/85 289/1/223
f 135/1/225 134/1/94 133/1/89 291/1/224
f 137/1/226 136/1/100 134/1/94 135/1/225
f 139/1/227 138/1/105 136/1/100 137/1/226
f 141/1/228 140/1/80 138/1/105 139/1/227
f 143/1/229 142/1/77 140/1/80 141/1/228
f 181/1/199 180/1/83 142/1/77 143/1/229
f 183/1/170 182/1/127 180/1/83 181/1/199
f 189/1/202 188/1/230 145/1/223 144/1/125
f 149/1/98 148/1/225 147/1/224 146/1/204
f 151/1/97 150/1/226 148/1/225 149/1/98
f 153/1/107 152/1/227 150/1/226 151/1/97
f 155/1/75 154/1/228 152/1/227 153/1/107
f 157/1/74 156/1/229 154/1/228 155/1/75
f 159/1/82 158/1/231 156/1/229 157/1/74
f 161/1/86 160/1/232 158/1/231 159/1/82
f 163/1/90 162/1/233 160/1/232 161/1/86
f 165/1/95 164/1/217 162/1/233 163/1/90
f 167/1/101 166/1/218 164/1/217 165/1/95
f 169/1/106 168/1/219 166/1/218 167/1/101
f 171/1/79 170/1/220 168/1/219 169/1/106
f 173/1/78 172/1/221 170/1/220 171/1/79
f 175/1/84 174/1/222 172/1/221 173/1/78
f 185/1/126 184/1/234 174/1/222 175/1/84
f 178/1/169 179/1/124 182/1/127 183/1/170
f 144/1/125 145/1/223 184/1/234 185/1/126
f 176/1/173 177/1/203 186/1/201 187/1/174
f 146/1/204 147/1/224 188/1/230 189/1/202
f 120/1/99 149/1/98 146/1/204 177/1/203
f 233/1/167 215/1/165 214/1/164 232/1/167
f 235/1/167 217/1/141 216/1/140 234/1/167
f 234/1/167 216/1/140 218/1/146 236/1/167
f 236/1/167 218/1/146 219/1/150 237/1/167
f 237/1/167 219/1/150 220/1/154 238/1/167
f 238/1/167 220/1/154 221/1/158 239/1/167
f 239/1/167 221/1/158 222/1/162 240/1/167
f 240/1/167 222/1/162 223/1/137 241/1/167
f 241/1/167 223/1/137 224/1/136 242/1/167
f 242/1/167 224/1/136 225/1/144 243/1/167
f 243/1/167 225/1/144 226/1/148 244/1/167
f 244/1/167 226/1/148 227/1/152 245/1/167
f 245/1/167 227/1/152 228/1/156 246/1/167
f 246/1/167 228/1/156 229/1/160 247/1/167
f 247/1/167 229/1/160 230/1/133 248/1/167
f 248/1/167 230/1/133 231/1/132 249/1/167
f 249/1/167 231/1/132 215/1/165 233/1/167
f 232/1/167 214/1/164 217/1/141 235/1/167
f 66/1/167 251/1/167 250/1/167 105/1/167
f 67/1/167 253/1/167 252/1/167 68/1/167
f 68/1/167 252/1/167 254/1/167 69/1/167
f 69/1/167 254/1/167 255/1/167 70/1/167
f 70/1/167 255/1/167 256/1/167 71/1/167
f 71/1/167 256/1/167 257/1/167 72/1/167
f 72/1/167 257/1/167 258/1/167 73/1/167
f 73/1/167 258/1/167 259/1/167 74/1/167
f 74/1/167 259/1/167 260/1/167 75/1/167
f 75/1/167 260/1/167 261/1/167 76/1/167
f 76/1/167 261/1/167 262/1/167 77/1/167
f 77/1/167 262/1/167 263/1/167 78/1/167
f 78/1/167 263/1/167 264/1/167 79/1/167
f 79/1/167 264/1/167 265/1/167 80/1/167
f 80/1/167 265/1/167 266/1/167 81/1/167
f 81/1/167 266/1/167 267/1/167 102/1/167
f 102/1/167 267/1/167 251/1/167 66/1/167
f 105/1/167 250/1/167 253/1/167 67/1/167
usemtl brick_orange_metalic_(rough)
f 111/1/1 112/1/2 84/1/3 16/1/4
f 10/1/5 288/1/6 286/1/7 9/1/8
f 3/1/9 19/1/10 82/1/11 2/1/12
f 11/1/13 25/1/14 288/1/6 10/1/5
f 4/1/15 20/1/16 19/1/10 3/1/9
f 12/1/17 26/1/18 25/1/14 11/1/13
f 5/1/19 21/1/20 20/1/16 4/1/15
f 13/1/21 27/1/22 26/1/18 12/1/17
f 6/1/23 22/1/24 21/1/20 5/1/19
f 14/1/25 28/1/26 27/1/22 13/1/21
f 7/1/27 23/1/28 22/1/24 6/1/23
f 15/1/29 29/1/30 28/1/26 14/1/25
f 8/1/31 287/1/32 23/1/28 7/1/27
f 16/1/4 84/1/3 29/1/30 15/1/29
f 9/1/8 286/1/7 287/1/32 8/1/31
f 107/1/33 108/1/34 83/1/35 1/1/36
f 19/1/102 121/1/102 176/1/103 82/1/104
f 316/1/109 313/1/109 304/1/110 309/1/110
f 20/1/111 123/1/111 121/1/102 19/1/102
f 25/1/112 135/1/112 291/1/113 288/1/113
f 26/1/114 137/1/114 135/1/112 25/1/112
f 21/1/115 125/1/115 123/1/111 20/1/111
f 27/1/116 139/1/116 137/1/114 26/1/114
f 22/1/117 127/1/117 125/1/115 21/1/115
f 28/1/118 141/1/118 139/1/116 27/1/116
f 23/1/119 129/1/119 127/1/117 22/1/117
f 29/1/120 143/1/120 141/1/118 28/1/118
f 287/1/121 290/1/121 129/1/119 23/1/119
f 84/1/122 181/1/123 143/1/120 29/1/120
f 18/1/128 82/1/104 176/1/103 48/1/128
f 110/1/128 108/1/128 82/1/104 18/1/128
f 114/1/168 112/1/168 83/1/129 17/1/129
f 47/1/129 178/1/169 183/1/170 103/1/171
f 49/1/168 181/1/123 84/1/122 30/1/168
f 48/1/172 176/1/173 187/1/174 106/1/175
f 103/1/171 183/1/170 181/1/199 49/1/200
f 106/1/175 187/1/174 178/1/169 47/1/129
f 17/1/129 83/1/129 108/1/128 110/1/128
f 2/1/12 82/1/11 108/1/34 107/1/33
f 30/1/168 84/1/122 112/1/168 114/1/168
f 1/1/36 83/1/35 112/1/2 111/1/1
f 103/1/171 114/1/168 17/1/129 47/1/129
f 47/1/129 17/1/129 110/1/128 106/1/175
f 295/1/130 287/1/121 286/1/88 294/1/88
f 294/1/88 286/1/88 288/1/113 296/1/87
f 132/1/88 289/1/88 290/1/121 298/1/130
f 299/1/87 291/1/113 289/1/88 132/1/88
f 298/1/130 290/1/121 287/1/121 295/1/130
f 296/1/87 288/1/113 291/1/113 299/1/87
f 299/1/116 324/1/251 321/1/251 296/1/116
f 295/1/115 318/1/252 323/1/252 298/1/115
f 314/1/167 297/1/167 132/1/167 298/1/167 323/1/167 322/1/167 292/1/167 301/1/167 307/1/167 306/1/167 315/1/167
f 312/1/253 24/1/253 294/1/253 296/1/253 321/1/253 320/1/253 300/1/253 293/1/253 305/1/253 304/1/253 313/1/253
f 297/1/88 24/1/88 312/1/254 317/1/254
f 320/1/255 325/1/255 292/1/88 300/1/88
f 308/1/256 305/1/256 293/1/129 301/1/129
f 301/1/129 293/1/129 302/1/257 307/1/257
f 306/1/258 303/1/258 310/1/259 315/1/259
f 308/1/256 309/1/110 304/1/110 305/1/256
f 306/1/258 307/1/257 302/1/257 303/1/258
f 300/1/88 292/1/88 322/1/260 319/1/260
f 293/1/253 300/1/253 319/1/253 318/1/253 295/1/253 294/1/253 24/1/253 311/1/253 310/1/253 303/1/253 302/1/253
f 301/1/167 292/1/167 325/1/167 324/1/167 299/1/167 132/1/167 297/1/167 317/1/167 316/1/167 309/1/167 308/1/167
f 316/1/109 317/1/254 312/1/254 313/1/109
f 314/1/261 315/1/259 310/1/259 311/1/261
f 314/1/261 311/1/261 24/1/88 297/1/88
f 322/1/260 323/1/252 318/1/252 319/1/260
f 324/1/251 325/1/255 320/1/255 321/1/251
usemtl light_grey_metalic_(med)
f 284/1/37 109/1/38 32/1/39 268/1/40
f 285/1/41 113/1/42 31/1/43 269/1/44
f 272/1/45 39/1/46 40/1/47 271/1/48
f 268/1/40 32/1/39 33/1/49 273/1/50
f 271/1/48 40/1/47 41/1/51 274/1/52
f 273/1/50 33/1/49 34/1/53 275/1/54
f 274/1/52 41/1/51 42/1/55 276/1/56
f 275/1/54 34/1/53 35/1/57 277/1/58
f 276/1/56 42/1/55 43/1/59 278/1/60
f 277/1/58 35/1/57 36/1/61 279/1/62
f 278/1/60 43/1/59 44/1/63 280/1/64
f 279/1/62 36/1/61 37/1/65 281/1/66
f 280/1/64 44/1/63 45/1/67 282/1/68
f 281/1/66 37/1/65 38/1/69 283/1/70
f 282/1/68 45/1/67 46/1/71 270/1/72
f 283/1/70 38/1/69 39/1/46 272/1/45
f 32/1/39 109/1/38 31/1/43 113/1/42 46/1/71 45/1/67 44/1/63 43/1/59 42/1/55 41/1/51 40/1/47 39/1/46 38/1/69 37/1/65 36/1/61 35/1/57 34/1/53 33/1/49
f 269/1/44 31/1/43 109/1/38 284/1/37
f 270/1/72 46/1/71 113/1/42 285/1/41
usemtl red_non-metalic_(rough)
f 67/1/167 68/1/167 69/1/167 70/1/167 71/1/167 72/1/167 73/1/167 74/1/167 75/1/167 76/1/167 77/1/167 78/1/167 79/1/167 80/1/167 81/1/167 102/1/167 66/1/167 105/1/167
f 251/1/167 233/1/167 232/1/167 250/1/167
f 253/1/167 235/1/167 234/1/167 252/1/167
f 252/1/167 234/1/167 236/1/167 254/1/167
f 254/1/167 236/1/167 237/1/167 255/1/167
f 255/1/167 237/1/167 238/1/167 256/1/167
f 256/1/167 238/1/167 239/1/167 257/1/167
f 257/1/167 239/1/167 240/1/167 258/1/167
f 258/1/167 240/1/167 241/1/167 259/1/167
f 259/1/167 241/1/167 242/1/167 260/1/167
f 260/1/167 242/1/167 243/1/167 261/1/167
f 261/1/167 243/1/167 244/1/167 262/1/167
f 262/1/167 244/1/167 245/1/167 263/1/167
f 263/1/167 245/1/167 246/1/167 264/1/167
f 264/1/167 246/1/167 247/1/167 265/1/167
f 265/1/167 247/1/167 248/1/167 266/1/167
f 266/1/167 248/1/167 249/1/167 267/1/167
f 267/1/167 249/1/167 233/1/167 251/1/167
f 250/1/167 232/1/167 235/1/167 253/1/167
usemtl grey_metalic_(med)
f 16/1/4 270/1/72 285/1/41 111/1/1
f 1/1/36 269/1/44 284/1/37 107/1/33
f 8/1/31 283/1/70 272/1/45 9/1/8
f 15/1/29 282/1/68 270/1/72 16/1/4
f 7/1/27 281/1/66 283/1/70 8/1/31
f 14/1/25 280/1/64 282/1/68 15/1/29
f 6/1/23 279/1/62 281/1/66 7/1/27
f 13/1/21 278/1/60 280/1/64 14/1/25
f 5/1/19 277/1/58 279/1/62 6/1/23
f 12/1/17 276/1/56 278/1/60 13/1/21
f 4/1/15 275/1/54 277/1/58 5/1/19
f 11/1/13 274/1/52 276/1/56 12/1/17
f 3/1/9 273/1/50 275/1/54 4/1/15
f 10/1/5 271/1/48 274/1/52 11/1/13
f 2/1/12 268/1/40 273/1/50 3/1/9
f 9/1/8 272/1/45 271/1/48 10/1/5
f 111/1/1 285/1/41 269/1/44 1/1/36
f 107/1/33 284/1/37 268/1/40 2/1/12
usemtl dark_grey_non-metalic_(rough)
f 30/1/91 98/1/92 96/1/93 49/1/91
f 87/1/176 89/1/177 93/1/178 94/1/179
f 85/1/129 86/1/129 92/1/180 91/1/181
f 95/1/88 97/1/88 212/1/182 207/1/183
f 48/1/184 100/1/185 99/1/186 18/1/184
f 106/1/187 110/1/187 210/1/188 209/1/189
f 92/1/180 90/1/190 88/1/191 91/1/181
f 93/1/178 86/1/129 85/1/129 94/1/179
f 118/1/192 88/1/191 90/1/190 115/1/193
f 207/1/194 96/1/195 115/1/196 117/1/197 95/1/198
f 117/1/197 199/1/205 203/1/205 200/1/205 204/1/205 201/1/205 86/1/205 93/1/205 89/1/205 116/1/206
f 208/1/207 211/1/208 97/1/88 95/1/88
f 98/1/209 30/1/210 114/1/210 213/1/210 212/1/211
f 206/1/212 213/1/213 114/1/214 103/1/214
f 100/1/185 116/1/215 119/1/216 99/1/186
f 98/1/92 118/1/192 115/1/193 96/1/93
f 115/1/196 90/1/205 92/1/205 86/1/205 201/1/205 205/1/205 198/1/205 202/1/205 199/1/205 117/1/197
f 192/1/235 198/1/236 205/1/237 196/1/238
f 195/1/239 202/1/240 198/1/236 192/1/235
f 191/1/241 199/1/242 202/1/240 195/1/239
f 194/1/243 203/1/244 199/1/242 191/1/241
f 190/1/245 200/1/246 203/1/244 194/1/243
f 204/1/247 200/1/246 190/1/245 197/1/248
f 193/1/249 201/1/250 204/1/247 197/1/248
f 196/1/238 205/1/237 201/1/250 193/1/249
f 208/1/207 209/1/189 210/1/188 211/1/208
f 206/1/212 207/1/183 212/1/182 213/1/213
f 116/1/215 89/1/177 87/1/176 119/1/216
f 119/1/262 87/1/263 94/1/263 85/1/264 193/1/265 197/1/263 190/1/263 194/1/263 191/1/266 326/1/267
f 208/1/268 100/1/269 48/1/172 106/1/175 209/1/270
f 206/1/271 103/1/171 49/1/200 96/1/195 207/1/194
f 95/1/198 117/1/197 116/1/206 100/1/269 208/1/268
f 118/1/272 326/1/267 191/1/266 195/1/273 192/1/273 196/1/273 193/1/265 85/1/264 91/1/273 88/1/273
f 210/1/274 110/1/274 18/1/274 99/1/275 211/1/276
f 211/1/276 99/1/275 119/1/262 326/1/267 97/1/277
f 98/1/209 212/1/211 97/1/277 326/1/267 118/1/272
