# Blender 4.3.2
# www.blender.org
mtllib kitchen knife.mtl
o Plane
v 0.181948 0.000000 0.045897
v 0.195421 0.000000 0.045897
v 0.181948 0.000000 -0.126593
v 0.195421 0.000000 -0.126593
v -0.417046 0.000000 0.001068
v -0.417046 0.000000 -0.126593
v 0.181948 0.000000 0.127925
v -0.417046 0.000000 0.083096
v -0.966044 0.000000 -0.058068
v -0.544380 0.000000 -0.013716
v -0.671714 0.000000 -0.028500
v -0.799047 0.000000 -0.043284
v -0.799048 0.000000 0.008460
v -0.671714 0.000000 0.039698
v -0.544380 0.000000 0.064258
v -0.544380 0.000000 -0.122777
v -0.671714 0.000000 -0.111332
v -0.799047 0.000000 -0.096071
v 0.181948 0.008890 0.045897
v 0.195421 0.008890 0.045897
v 0.181948 0.008890 -0.126593
v 0.195421 0.008890 -0.126593
v -0.417046 0.008890 0.001068
v -0.417046 0.008890 -0.126593
v -0.544380 0.008890 -0.013716
v -0.671714 0.008890 -0.028500
v -0.799047 0.008890 -0.043284
v -0.544380 0.008890 -0.122777
v -0.671714 0.008890 -0.111332
v -0.799047 0.008890 -0.096071
v 0.181948 0.008890 0.120659
v 0.181948 0.001204 0.127925
v -0.417046 0.008890 0.075824
v -0.417046 0.001204 0.083096
v -0.966044 0.001204 -0.058068
v -0.959110 0.008890 -0.059646
v -0.799048 0.008890 0.001130
v -0.799048 0.001204 0.008460
v -0.671714 0.001204 0.039698
v -0.671714 0.008890 0.032391
v -0.544380 0.008890 0.056972
v -0.544380 0.001204 0.064258
v 0.181948 -0.008890 0.045897
v 0.195421 -0.008890 0.045897
v 0.181948 -0.008890 -0.126593
v 0.195421 -0.008890 -0.126593
v -0.417046 -0.008890 0.001068
v -0.417046 -0.008890 -0.126593
v -0.544380 -0.008890 -0.013716
v -0.671714 -0.008890 -0.028500
v -0.799047 -0.008890 -0.043284
v -0.544380 -0.008890 -0.122777
v -0.671714 -0.008890 -0.111332
v -0.799047 -0.008890 -0.096071
v 0.181948 -0.008890 0.120659
v 0.181948 -0.001204 0.127925
v -0.417046 -0.008890 0.075824
v -0.417046 -0.001204 0.083096
v -0.966044 -0.001204 -0.058068
v -0.959110 -0.008890 -0.059646
v -0.799048 -0.008890 0.001130
v -0.799048 -0.001204 0.008460
v -0.671714 -0.001204 0.039698
v -0.671714 -0.008890 0.032391
v -0.544380 -0.008890 0.056972
v -0.544380 -0.001204 0.064258
vn -0.0000 -1.0000 -0.0000
vn -0.0000 1.0000 -0.0000
vn 1.0000 -0.0000 -0.0000
vn -0.3701 -0.0000 0.9290
vn -0.2219 -0.0000 -0.9751
vn -0.1463 -0.0000 0.9892
vn -0.1894 -0.0000 0.9819
vn -0.0000 -0.0000 -1.0000
vn -0.0299 -0.0000 -0.9996
vn -0.0895 -0.0000 -0.9960
vn -0.2383 -0.0000 0.9712
vn -0.1190 -0.0000 -0.9929
vn -0.0000 -0.0000 1.0000
vn -0.0543 0.6861 0.7255
vn -0.1068 0.6837 0.7219
vn -0.1750 0.6789 0.7130
vn -0.1386 0.6819 0.7182
vn -0.2967 0.5755 0.7621
vn -0.0746 -0.0000 0.9972
vn -0.0543 -0.6861 0.7255
vn -0.1068 -0.6837 0.7219
vn -0.1750 -0.6789 0.7130
vn -0.1386 -0.6819 0.7182
vn -0.2967 -0.5755 0.7621
vt 0.000000 0.000000
vt 0.000000 1.000000
vt 1.000000 1.000000
vt 1.000000 0.000000
vt 0.000000 0.041521
s 0
usemtl grey_metalic_(med)
f 1/1/1 3/2/1 4/3/1 2/4/1
f 1/1/1 5/1/1 6/2/1 3/2/1
f 1/1/1 7/1/1 8/1/1 5/1/1
f 13/1/1 9/1/1 12/1/1
f 12/1/1 9/1/1 18/2/1
f 5/1/1 10/1/1 16/2/1 6/2/1
f 10/1/1 11/1/1 17/2/1 16/2/1
f 11/1/1 12/1/1 18/2/1 17/2/1
f 8/1/1 15/1/1 10/1/1 5/1/1
f 15/1/1 14/1/1 11/1/1 10/1/1
f 14/1/1 13/1/1 12/1/1 11/1/1
f 19/1/2 20/4/2 22/3/2 21/2/2
f 19/1/2 21/2/2 24/2/2 23/1/2
f 7/1/3 1/1/3 19/1/3 31/1/3 32/1/3
f 9/1/4 13/1/4 38/1/4 35/1/4
f 18/2/5 9/1/5 35/1/5 36/5/5 30/2/5
f 23/1/2 24/2/2 28/2/2 25/1/2
f 25/1/2 28/2/2 29/2/2 26/1/2
f 26/1/2 29/2/2 30/2/2 27/1/2
f 15/1/6 8/1/6 34/1/6 42/1/6
f 14/1/7 15/1/7 42/1/7 39/1/7
f 4/3/8 3/2/8 21/2/8 22/3/8
f 6/2/9 16/2/9 28/2/9 24/2/9
f 27/1/2 30/2/2 36/1/2
f 16/2/10 17/2/10 29/2/10 28/2/10
f 13/1/11 14/1/11 39/1/11 38/1/11
f 3/2/8 6/2/8 24/2/8 21/2/8
f 17/2/12 18/2/12 30/2/12 29/2/12
f 19/1/2 23/1/2 33/1/2 31/1/2
f 37/1/2 27/1/2 36/1/2
f 1/1/13 2/4/13 20/4/13 19/1/13
f 40/1/2 26/1/2 27/1/2 37/1/2
f 33/1/2 23/1/2 25/1/2 41/1/2
f 2/4/3 4/3/3 22/3/3 20/4/3
f 41/1/2 25/1/2 26/1/2 40/1/2
f 8/1/19 7/1/19 32/1/19 34/1/19
f 43/1/1 45/2/1 46/3/1 44/4/1
f 43/1/1 47/1/1 48/2/1 45/2/1
f 7/1/3 56/1/3 55/1/3 43/1/3 1/1/3
f 9/1/4 59/1/4 62/1/4 13/1/4
f 18/2/5 54/2/5 60/5/5 59/1/5 9/1/5
f 47/1/1 49/1/1 52/2/1 48/2/1
f 49/1/1 50/1/1 53/2/1 52/2/1
f 50/1/1 51/1/1 54/2/1 53/2/1
f 15/1/6 66/1/6 58/1/6 8/1/6
f 14/1/7 63/1/7 66/1/7 15/1/7
f 4/3/8 46/3/8 45/2/8 3/2/8
f 6/2/9 48/2/9 52/2/9 16/2/9
f 51/1/1 60/1/1 54/2/1
f 16/2/10 52/2/10 53/2/10 17/2/10
f 13/1/11 62/1/11 63/1/11 14/1/11
f 3/2/8 45/2/8 48/2/8 6/2/8
f 17/2/12 53/2/12 54/2/12 18/2/12
f 43/1/1 55/1/1 57/1/1 47/1/1
f 61/1/1 60/1/1 51/1/1
f 1/1/13 43/1/13 44/4/13 2/4/13
f 64/1/1 61/1/1 51/1/1 50/1/1
f 57/1/1 65/1/1 49/1/1 47/1/1
f 2/4/3 44/4/3 46/3/3 4/3/3
f 65/1/1 64/1/1 50/1/1 49/1/1
f 8/1/19 58/1/19 56/1/19 7/1/19
usemtl light_grey_metalic_(med)
f 34/1/14 32/1/14 31/1/14 33/1/14
f 42/1/15 34/1/15 33/1/15 41/1/15
f 38/1/16 39/1/16 40/1/16 37/1/16
f 39/1/17 42/1/17 41/1/17 40/1/17
f 35/1/18 38/1/18 37/1/18 36/1/18
f 58/1/20 57/1/20 55/1/20 56/1/20
f 66/1/21 65/1/21 57/1/21 58/1/21
f 62/1/22 61/1/22 64/1/22 63/1/22
f 63/1/23 64/1/23 65/1/23 66/1/23
f 59/1/24 60/1/24 61/1/24 62/1/24
o Plane.001
v 0.195421 0.000000 0.045897
v 0.856184 0.000000 -0.077558
v 0.215660 0.000000 0.045437
v 0.836549 0.000000 -0.069425
v 0.233139 0.000000 0.052797
v 0.828416 0.000000 -0.049790
v 0.260738 0.000000 0.037342
v 0.836549 0.000000 -0.030156
v 0.856184 0.000000 -0.022023
v 0.296156 0.000000 0.005419
v 0.875818 0.000000 -0.030156
v 0.328355 0.000000 -0.000101
v 0.883951 0.000000 -0.049790
v 0.397812 0.000000 0.015999
v 0.489807 0.000000 0.033938
v 0.875818 0.000000 -0.069425
v 0.571224 0.000000 0.032558
v 0.648500 0.000000 0.014619
v 0.716117 0.000000 -0.004700
v 0.757055 0.000000 -0.009760
v 0.797993 0.000000 0.004499
v 0.835252 0.000000 0.025658
v 0.886769 0.000000 0.017379
v 0.926787 0.000000 -0.019880
v 0.930007 0.000000 -0.072777
v 0.904708 0.000000 -0.107276
v 0.878030 0.000000 -0.124755
v 0.195421 0.000000 -0.126593
v 0.246939 0.000000 0.051693
v 0.203358 0.025624 0.037778
v 0.195421 0.017687 0.045897
v 0.215660 0.017687 0.045437
v 0.217176 0.025624 0.037464
v 0.233139 0.017687 0.052797
v 0.234435 0.025624 0.044731
v 0.260738 0.017687 0.037342
v 0.255213 0.025624 0.031636
v 0.296156 0.017687 0.005419
v 0.292550 0.025624 -0.002015
v 0.328355 0.017687 -0.000101
v 0.328590 0.025624 -0.008193
v 0.397812 0.017687 0.015999
v 0.399468 0.025624 0.008235
v 0.489807 0.017687 0.033938
v 0.490507 0.025624 0.025988
v 0.571224 0.017687 0.032558
v 0.570248 0.025624 0.024637
v 0.648500 0.017687 0.014619
v 0.646511 0.025624 0.006933
v 0.716117 0.017687 -0.004700
v 0.714531 0.025624 -0.012501
v 0.757055 0.017687 -0.009760
v 0.757918 0.025624 -0.017864
v 0.797993 0.017687 0.004499
v 0.801285 0.025624 -0.002759
v 0.835252 0.017687 0.025658
v 0.836746 0.025624 0.017379
v 0.886769 0.017687 0.017379
v 0.883127 0.025624 0.009925
v 0.926787 0.017687 -0.019880
v 0.919058 0.025624 -0.023528
v 0.930007 0.017687 -0.072777
v 0.921911 0.025624 -0.070396
v 0.904708 0.017687 -0.107276
v 0.899157 0.025624 -0.101424
v 0.878030 0.017687 -0.124755
v 0.875651 0.025624 -0.116824
v 0.195421 0.017687 -0.126593
v 0.203358 0.025624 -0.118634
v 0.243304 0.025624 0.044022
v 0.246939 0.017687 0.051693
v 0.828416 0.020789 -0.049790
v 0.823183 0.025624 -0.049790
v 0.856550 0.025624 -0.082943
v 0.856184 0.020789 -0.077558
v 0.836549 0.020789 -0.069425
v 0.832849 0.025624 -0.073125
v 0.883951 0.020789 -0.049790
v 0.889011 0.025624 -0.049373
v 0.882589 0.020789 -0.046504
v 0.886740 0.025624 -0.043889
v 0.875818 0.020789 -0.030156
v 0.879519 0.025624 -0.026456
v 0.875818 0.020789 -0.069425
v 0.878926 0.025624 -0.073687
v 0.836549 0.020789 -0.030156
v 0.832849 0.025624 -0.026456
v 0.856184 0.020789 -0.022023
v 0.856184 0.025624 -0.016790
v 0.203358 -0.025624 0.037778
v 0.195421 -0.017687 0.045897
v 0.215660 -0.017687 0.045437
v 0.217176 -0.025624 0.037464
v 0.233139 -0.017687 0.052797
v 0.234435 -0.025624 0.044731
v 0.260738 -0.017687 0.037342
v 0.255213 -0.025624 0.031636
v 0.296156 -0.017687 0.005419
v 0.292550 -0.025624 -0.002015
v 0.328355 -0.017687 -0.000101
v 0.328590 -0.025624 -0.008193
v 0.397812 -0.017687 0.015999
v 0.399468 -0.025624 0.008235
v 0.489807 -0.017687 0.033938
v 0.490507 -0.025624 0.025988
v 0.571224 -0.017687 0.032558
v 0.570248 -0.025624 0.024637
v 0.648500 -0.017687 0.014619
v 0.646511 -0.025624 0.006933
v 0.716117 -0.017687 -0.004700
v 0.714531 -0.025624 -0.012501
v 0.757055 -0.017687 -0.009760
v 0.757918 -0.025624 -0.017864
v 0.797993 -0.017687 0.004499
v 0.801285 -0.025624 -0.002759
v 0.835252 -0.017687 0.025658
v 0.836746 -0.025624 0.017379
v 0.886769 -0.017687 0.017379
v 0.883127 -0.025624 0.009925
v 0.926787 -0.017687 -0.019880
v 0.919058 -0.025624 -0.023528
v 0.930007 -0.017687 -0.072777
v 0.921911 -0.025624 -0.070396
v 0.904708 -0.017687 -0.107276
v 0.899157 -0.025624 -0.101424
v 0.878030 -0.017687 -0.124755
v 0.875651 -0.025624 -0.116824
v 0.195421 -0.017687 -0.126593
v 0.203358 -0.025624 -0.118634
v 0.243304 -0.025624 0.044022
v 0.246939 -0.017687 0.051693
v 0.828416 -0.020789 -0.049790
v 0.823183 -0.025624 -0.049790
v 0.856550 -0.025624 -0.082943
v 0.856184 -0.020789 -0.077558
v 0.836549 -0.020789 -0.069425
v 0.832849 -0.025624 -0.073125
v 0.883951 -0.020789 -0.049790
v 0.889011 -0.025624 -0.049373
v 0.882589 -0.020789 -0.046504
v 0.886740 -0.025624 -0.043889
v 0.875818 -0.020789 -0.030156
v 0.879519 -0.025624 -0.026456
v 0.875818 -0.020789 -0.069425
v 0.878926 -0.025624 -0.073687
v 0.836549 -0.020789 -0.030156
v 0.832849 -0.025624 -0.026456
v 0.856184 -0.020789 -0.022023
v 0.856184 -0.025624 -0.016790
vn -0.7062 -0.0000 -0.7081
vn -0.6990 -0.0000 0.7151
vn 0.4281 -0.0000 0.9037
vn 0.6956 -0.0000 0.7184
vn 0.4390 -0.0000 0.8985
vn 0.9043 -0.0000 0.4268
vn -0.0877 -0.0000 0.9961
vn 0.1222 -0.0000 0.9925
vn 0.9594 -0.0000 -0.2821
vn 0.2505 -0.0000 0.9681
vn 1.0000 -0.0000 -0.0000
vn 0.7071 -0.0000 0.7071
vn -1.0000 -0.0000 -0.0000
vn -0.7071 -0.0000 -0.7071
vn -0.9239 -0.0000 -0.3827
vn 0.6882 -0.0000 -0.7255
vn 0.1993 -0.0000 0.9799
vn -0.1587 -0.0000 0.9873
vn 0.2872 -0.0000 -0.9579
vn -0.1059 -0.0000 0.9944
vn 0.4365 -0.0000 0.8997
vn -0.4131 -0.0000 0.9107
vn -0.0290 -0.0000 0.9996
vn -0.1776 -0.0000 0.9841
vn -0.2086 -0.0000 0.9780
vn -0.1868 -0.0000 0.9824
vn -0.4005 0.8196 0.4097
vn -0.1306 0.7150 0.6869
vn -0.1106 0.7172 0.6880
vn 0.2924 0.7305 0.6172
vn 0.4917 0.7073 0.5078
vn 0.3023 0.7212 0.6233
vn -0.0203 0.7141 0.6997
vn -0.1475 0.7072 0.6915
vn -0.0618 0.7090 0.7024
vn 0.0862 0.7091 0.6998
vn 0.1771 0.7072 0.6845
vn 0.1407 0.7082 0.6919
vn -0.0739 0.7164 0.6938
vn -0.2915 0.7086 0.6426
vn -0.1219 0.7274 0.6753
vn 0.3035 0.7226 0.6211
vn 0.6154 0.7328 0.2904
vn 0.6573 0.7285 -0.1933
vn 0.4827 0.7128 -0.5089
vn 0.1988 0.7219 -0.6629
vn -0.4073 0.8169 -0.4084
vn -0.0000 -0.0000 1.0000
vn -0.0000 -0.0000 -1.0000
vn -0.7071 -0.0000 0.7071
vn -0.0000 1.0000 -0.0000
vn 0.7071 -0.0000 -0.7071
vn 0.0114 0.7438 0.6683
vn -0.5002 0.7309 0.4642
vn -0.4692 0.7342 0.4908
vn -0.0064 0.7445 0.6676
vn -0.6533 0.7071 -0.2706
vn -0.4798 0.7345 -0.4798
vn -0.0000 0.7345 -0.6786
vn 0.4798 0.7345 -0.4798
vn 0.6786 0.7345 -0.0000
vn 0.4798 0.7345 0.4798
vn -0.6907 0.7231 -0.0078
vn -0.6916 0.7222 0.0138
vn -0.4005 -0.8196 0.4097
vn -0.1306 -0.7150 0.6869
vn -0.1106 -0.7172 0.6880
vn 0.2924 -0.7305 0.6172
vn 0.4917 -0.7073 0.5078
vn 0.3023 -0.7212 0.6233
vn -0.0203 -0.7141 0.6997
vn -0.1475 -0.7072 0.6915
vn -0.0618 -0.7090 0.7024
vn 0.0862 -0.7091 0.6998
vn 0.1771 -0.7072 0.6845
vn 0.1407 -0.7082 0.6919
vn -0.0739 -0.7164 0.6938
vn -0.2915 -0.7086 0.6426
vn -0.1219 -0.7274 0.6753
vn 0.3035 -0.7226 0.6211
vn 0.6154 -0.7328 0.2904
vn 0.6573 -0.7285 -0.1933
vn 0.4827 -0.7128 -0.5089
vn 0.1988 -0.7219 -0.6629
vn -0.4073 -0.8169 -0.4084
vn -0.0000 -1.0000 -0.0000
vn 0.0114 -0.7438 0.6683
vn -0.0064 -0.7445 0.6676
vn -0.4692 -0.7342 0.4908
vn -0.5002 -0.7309 0.4642
vn -0.6533 -0.7071 -0.2706
vn -0.4798 -0.7345 -0.4798
vn -0.0000 -0.7345 -0.6786
vn 0.4798 -0.7345 -0.4798
vn 0.6786 -0.7345 -0.0000
vn 0.4798 -0.7345 0.4798
vn -0.6907 -0.7231 -0.0078
vn -0.6916 -0.7222 0.0138
vt 0.000000 0.000000
s 1
usemtl dark_grey_non-metalic_(rough)
f 94/6/25 67/6/26 97/6/26 134/6/25
f 95/6/27 73/6/28 102/6/28 137/6/27
f 89/6/29 90/6/30 126/6/30 124/6/29
f 81/6/31 83/6/32 112/6/32 110/6/31
f 90/6/30 91/6/33 128/6/33 126/6/30
f 83/6/32 84/6/34 114/6/34 112/6/32
f 138/6/35 72/6/35 70/6/36 142/6/36
f 79/6/37 77/6/38 148/6/38 146/6/39 144/6/37
f 91/6/33 92/6/40 130/6/40 128/6/33
f 84/6/34 85/6/41 116/6/41 114/6/34
f 71/6/42 95/6/27 137/6/27 100/6/42
f 92/6/40 93/6/43 132/6/43 130/6/40
f 85/6/41 86/6/44 118/6/44 116/6/41
f 73/6/28 76/6/45 104/6/45 102/6/28
f 93/6/43 94/6/25 134/6/25 132/6/43
f 86/6/44 87/6/46 120/6/46 118/6/44
f 76/6/45 78/6/47 106/6/47 104/6/45
f 87/6/46 88/6/48 122/6/48 120/6/46
f 78/6/47 80/6/49 108/6/49 106/6/47
f 69/6/50 71/6/42 100/6/42 98/6/50
f 88/6/48 89/6/29 124/6/29 122/6/48
f 80/6/49 81/6/31 110/6/31 108/6/49
f 97/6/51 98/6/52 99/6/52 96/6/51
f 98/6/52 100/6/53 101/6/53 99/6/52
f 137/6/54 102/6/55 103/6/55 136/6/54
f 102/6/55 104/6/56 105/6/56 103/6/55
f 104/6/56 106/6/57 107/6/57 105/6/56
f 106/6/57 108/6/58 109/6/58 107/6/57
f 108/6/58 110/6/59 111/6/59 109/6/58
f 110/6/59 112/6/60 113/6/60 111/6/59
f 112/6/60 114/6/61 115/6/61 113/6/60
f 114/6/61 116/6/62 117/6/62 115/6/61
f 116/6/62 118/6/63 119/6/63 117/6/62
f 118/6/63 120/6/64 121/6/64 119/6/63
f 120/6/64 122/6/65 123/6/65 121/6/64
f 122/6/65 124/6/66 125/6/66 123/6/65
f 124/6/66 126/6/67 127/6/67 125/6/66
f 126/6/67 128/6/68 129/6/68 127/6/67
f 128/6/68 130/6/69 131/6/69 129/6/68
f 130/6/69 132/6/70 133/6/70 131/6/69
f 132/6/70 134/6/71 135/6/71 133/6/70
f 96/6/51 135/6/71 134/6/71 97/6/51
f 100/6/53 137/6/54 136/6/54 101/6/53
f 67/6/26 69/6/50 98/6/50 97/6/26
f 142/6/36 70/6/36 68/6/72 141/6/72
f 77/6/38 75/6/73 154/6/73 148/6/38
f 141/6/72 68/6/72 82/6/74 150/6/74
f 145/6/75 147/6/75 127/6/75 129/6/75 131/6/75 151/6/75
f 75/6/73 74/6/76 152/6/76 154/6/73
f 151/6/75 131/6/75 133/6/75 135/6/75 96/6/75 99/6/75 101/6/75 136/6/75 103/6/75 105/6/75 107/6/75 109/6/75 111/6/75 113/6/75 115/6/75 117/6/75 119/6/75 121/6/75 123/6/75 125/6/75 127/6/75 147/6/75 149/6/75 155/6/75 153/6/75 139/6/75 143/6/75 140/6/75
f 82/6/74 79/6/37 144/6/37 150/6/74
f 141/6/77 150/6/78 151/6/79 140/6/80
f 146/6/81 148/6/82 149/6/82 147/6/81
f 148/6/82 154/6/83 155/6/83 149/6/82
f 153/6/84 155/6/83 154/6/83 152/6/84
f 139/6/85 153/6/84 152/6/84 138/6/85
f 138/6/85 142/6/86 143/6/86 139/6/85
f 140/6/80 143/6/86 142/6/86 141/6/77
f 145/6/87 151/6/79 150/6/78 144/6/88
f 144/6/88 146/6/81 147/6/81 145/6/87
f 152/6/76 74/6/76 72/6/35 138/6/35
f 94/6/25 194/6/25 157/6/26 67/6/26
f 95/6/27 197/6/27 162/6/28 73/6/28
f 89/6/29 184/6/29 186/6/30 90/6/30
f 81/6/31 170/6/31 172/6/32 83/6/32
f 90/6/30 186/6/30 188/6/33 91/6/33
f 83/6/32 172/6/32 174/6/34 84/6/34
f 198/6/35 202/6/36 70/6/36 72/6/35
f 79/6/37 204/6/37 206/6/39 208/6/38 77/6/38
f 91/6/33 188/6/33 190/6/40 92/6/40
f 84/6/34 174/6/34 176/6/41 85/6/41
f 71/6/42 160/6/42 197/6/27 95/6/27
f 92/6/40 190/6/40 192/6/43 93/6/43
f 85/6/41 176/6/41 178/6/44 86/6/44
f 73/6/28 162/6/28 164/6/45 76/6/45
f 93/6/43 192/6/43 194/6/25 94/6/25
f 86/6/44 178/6/44 180/6/46 87/6/46
f 76/6/45 164/6/45 166/6/47 78/6/47
f 87/6/46 180/6/46 182/6/48 88/6/48
f 78/6/47 166/6/47 168/6/49 80/6/49
f 69/6/50 158/6/50 160/6/42 71/6/42
f 88/6/48 182/6/48 184/6/29 89/6/29
f 80/6/49 168/6/49 170/6/31 81/6/31
f 157/6/89 156/6/89 159/6/90 158/6/90
f 158/6/90 159/6/90 161/6/91 160/6/91
f 197/6/92 196/6/92 163/6/93 162/6/93
f 162/6/93 163/6/93 165/6/94 164/6/94
f 164/6/94 165/6/94 167/6/95 166/6/95
f 166/6/95 167/6/95 169/6/96 168/6/96
f 168/6/96 169/6/96 171/6/97 170/6/97
f 170/6/97 171/6/97 173/6/98 172/6/98
f 172/6/98 173/6/98 175/6/99 174/6/99
f 174/6/99 175/6/99 177/6/100 176/6/100
f 176/6/100 177/6/100 179/6/101 178/6/101
f 178/6/101 179/6/101 181/6/102 180/6/102
f 180/6/102 181/6/102 183/6/103 182/6/103
f 182/6/103 183/6/103 185/6/104 184/6/104
f 184/6/104 185/6/104 187/6/105 186/6/105
f 186/6/105 187/6/105 189/6/106 188/6/106
f 188/6/106 189/6/106 191/6/107 190/6/107
f 190/6/107 191/6/107 193/6/108 192/6/108
f 192/6/108 193/6/108 195/6/109 194/6/109
f 156/6/89 157/6/89 194/6/109 195/6/109
f 160/6/91 161/6/91 196/6/92 197/6/92
f 67/6/26 157/6/26 158/6/50 69/6/50
f 202/6/36 201/6/72 68/6/72 70/6/36
f 77/6/38 208/6/38 214/6/73 75/6/73
f 201/6/72 210/6/74 82/6/74 68/6/72
f 205/6/110 211/6/110 191/6/110 189/6/110 187/6/110 207/6/110
f 75/6/73 214/6/73 212/6/76 74/6/76
f 211/6/110 200/6/110 203/6/110 199/6/110 213/6/110 215/6/110 209/6/110 207/6/110 187/6/110 185/6/110 183/6/110 181/6/110 179/6/110 177/6/110 175/6/110 173/6/110 171/6/110 169/6/110 167/6/110 165/6/110 163/6/110 196/6/110 161/6/110 159/6/110 156/6/110 195/6/110 193/6/110 191/6/110
f 82/6/74 210/6/74 204/6/37 79/6/37
f 201/6/111 200/6/112 211/6/113 210/6/114
f 206/6/115 207/6/115 209/6/116 208/6/116
f 208/6/116 209/6/116 215/6/117 214/6/117
f 213/6/118 212/6/118 214/6/117 215/6/117
f 199/6/119 198/6/119 212/6/118 213/6/118
f 198/6/119 199/6/119 203/6/120 202/6/120
f 200/6/112 201/6/111 202/6/120 203/6/120
f 205/6/121 204/6/122 210/6/114 211/6/113
f 204/6/122 205/6/121 207/6/115 206/6/115
f 212/6/76 198/6/35 72/6/35 74/6/76
o Circle
v 0.358252 0.020445 -0.099296
v 0.332801 0.020445 -0.088754
v 0.322259 0.020445 -0.063303
v 0.332801 0.020445 -0.037852
v 0.358252 0.020445 -0.027309
v 0.383704 0.020445 -0.037852
v 0.394246 0.020445 -0.063303
v 0.383704 0.020445 -0.088754
v 0.358252 0.026665 -0.099296
v 0.332801 0.026665 -0.088754
v 0.322259 0.026665 -0.063303
v 0.332801 0.026665 -0.037852
v 0.358252 0.026665 -0.027309
v 0.383704 0.026665 -0.037852
v 0.394246 0.026665 -0.063303
v 0.383704 0.026665 -0.088754
v 0.718188 0.020445 -0.099296
v 0.692737 0.020445 -0.088754
v 0.682194 0.020445 -0.063303
v 0.692737 0.020445 -0.037852
v 0.718188 0.020445 -0.027309
v 0.743639 0.020445 -0.037852
v 0.754182 0.020445 -0.063303
v 0.743639 0.020445 -0.088754
v 0.718188 0.026665 -0.099296
v 0.692737 0.026665 -0.088754
v 0.682194 0.026665 -0.063303
v 0.692737 0.026665 -0.037852
v 0.718188 0.026665 -0.027309
v 0.743639 0.026665 -0.037852
v 0.754182 0.026665 -0.063303
v 0.743639 0.026665 -0.088754
v 0.358252 -0.020445 -0.099296
v 0.332801 -0.020445 -0.088754
v 0.322259 -0.020445 -0.063303
v 0.332801 -0.020445 -0.037852
v 0.358252 -0.020445 -0.027309
v 0.383704 -0.020445 -0.037852
v 0.394246 -0.020445 -0.063303
v 0.383704 -0.020445 -0.088754
v 0.358252 -0.026665 -0.099296
v 0.332801 -0.026665 -0.088754
v 0.322259 -0.026665 -0.063303
v 0.332801 -0.026665 -0.037852
v 0.358252 -0.026665 -0.027309
v 0.383704 -0.026665 -0.037852
v 0.394246 -0.026665 -0.063303
v 0.383704 -0.026665 -0.088754
v 0.718188 -0.020445 -0.099296
v 0.692737 -0.020445 -0.088754
v 0.682194 -0.020445 -0.063303
v 0.692737 -0.020445 -0.037852
v 0.718188 -0.020445 -0.027309
v 0.743639 -0.020445 -0.037852
v 0.754182 -0.020445 -0.063303
v 0.743639 -0.020445 -0.088754
v 0.718188 -0.026665 -0.099296
v 0.692737 -0.026665 -0.088754
v 0.682194 -0.026665 -0.063303
v 0.692737 -0.026665 -0.037852
v 0.718188 -0.026665 -0.027309
v 0.743639 -0.026665 -0.037852
v 0.754182 -0.026665 -0.063303
v 0.743639 -0.026665 -0.088754
vn 0.3827 -0.0000 -0.9239
vn 0.9239 -0.0000 0.3827
vn -0.3827 -0.0000 0.9239
vn -0.9239 -0.0000 -0.3827
vn 0.9239 -0.0000 -0.3827
vn 0.3827 -0.0000 0.9239
vn -0.9239 -0.0000 0.3827
vn -0.3827 -0.0000 -0.9239
vn -0.0000 1.0000 -0.0000
vn -0.0000 -1.0000 -0.0000
vt 0.000000 0.000000
s 0
usemtl counter_top
f 223/7/123 216/7/123 224/7/123 231/7/123
f 221/7/124 222/7/124 230/7/124 229/7/124
f 219/7/125 220/7/125 228/7/125 227/7/125
f 217/7/126 218/7/126 226/7/126 225/7/126
f 222/7/127 223/7/127 231/7/127 230/7/127
f 220/7/128 221/7/128 229/7/128 228/7/128
f 218/7/129 219/7/129 227/7/129 226/7/129
f 216/7/130 217/7/130 225/7/130 224/7/130
f 225/7/131 226/7/131 227/7/131 228/7/131 229/7/131 230/7/131 231/7/131 224/7/131
f 239/7/123 232/7/123 240/7/123 247/7/123
f 237/7/124 238/7/124 246/7/124 245/7/124
f 235/7/125 236/7/125 244/7/125 243/7/125
f 233/7/126 234/7/126 242/7/126 241/7/126
f 238/7/127 239/7/127 247/7/127 246/7/127
f 236/7/128 237/7/128 245/7/128 244/7/128
f 234/7/129 235/7/129 243/7/129 242/7/129
f 232/7/130 233/7/130 241/7/130 240/7/130
f 241/7/131 242/7/131 243/7/131 244/7/131 245/7/131 246/7/131 247/7/131 240/7/131
f 255/7/123 263/7/123 256/7/123 248/7/123
f 253/7/124 261/7/124 262/7/124 254/7/124
f 251/7/125 259/7/125 260/7/125 252/7/125
f 249/7/126 257/7/126 258/7/126 250/7/126
f 254/7/127 262/7/127 263/7/127 255/7/127
f 252/7/128 260/7/128 261/7/128 253/7/128
f 250/7/129 258/7/129 259/7/129 251/7/129
f 248/7/130 256/7/130 257/7/130 249/7/130
f 257/7/132 256/7/132 263/7/132 262/7/132 261/7/132 260/7/132 259/7/132 258/7/132
f 271/7/123 279/7/123 272/7/123 264/7/123
f 269/7/124 277/7/124 278/7/124 270/7/124
f 267/7/125 275/7/125 276/7/125 268/7/125
f 265/7/126 273/7/126 274/7/126 266/7/126
f 270/7/127 278/7/127 279/7/127 271/7/127
f 268/7/128 276/7/128 277/7/128 269/7/128
f 266/7/129 274/7/129 275/7/129 267/7/129
f 264/7/130 272/7/130 273/7/130 265/7/130
f 273/7/132 272/7/132 279/7/132 278/7/132 277/7/132 276/7/132 275/7/132 274/7/132
