# Blender 4.3.2
# www.blender.org
mtllib plate.mtl
o Circle
v -0.000000 0.026171 -1.078250
v -0.412628 0.026171 -0.996173
v -0.762438 0.026171 -0.762438
v -0.996173 0.026171 -0.412628
v -1.078250 0.026171 -0.000000
v -0.996173 0.026171 0.412628
v -0.762438 0.026171 0.762438
v -0.412628 0.026171 0.996173
v -0.000000 0.026171 1.078250
v 0.412628 0.026171 0.996173
v 0.762438 0.026171 0.762438
v 0.996173 0.026171 0.412628
v 1.078250 0.026171 -0.000000
v 0.996173 0.026171 -0.412628
v 0.762438 0.026171 -0.762438
v 0.412628 0.026171 -0.996173
v 0.000000 -0.086318 -0.632299
v -0.241970 -0.086318 -0.584168
v -0.447103 -0.086318 -0.447103
v -0.584168 -0.086318 -0.241970
v -0.632299 -0.086318 -0.000000
v -0.584168 -0.086318 0.241970
v -0.447103 -0.086318 0.447103
v -0.241970 -0.086318 0.584168
v 0.000000 -0.086318 0.632299
v 0.241970 -0.086318 0.584168
v 0.447103 -0.086318 0.447103
v 0.584168 -0.086318 0.241970
v 0.632299 -0.086318 -0.000000
v 0.584168 -0.086318 -0.241970
v 0.447103 -0.086318 -0.447103
v 0.241970 -0.086318 -0.584168
v -0.382683 -0.022235 -0.923880
v 0.000000 -0.022235 -1.000000
v -0.707107 -0.022235 -0.707107
v -0.923880 -0.022235 -0.382683
v -1.000000 -0.022235 0.000000
v -0.923880 -0.022235 0.382683
v -0.707107 -0.022235 0.707107
v -0.382683 -0.022235 0.923880
v 0.000000 -0.022235 1.000000
v 0.382683 -0.022235 0.923880
v 0.707107 -0.022235 0.707107
v 0.923880 -0.022235 0.382683
v 1.000000 -0.022235 0.000000
v 0.923880 -0.022235 -0.382683
v 0.707107 -0.022235 -0.707107
v 0.382683 -0.022235 -0.923880
v -0.288626 -0.086318 -0.696805
v -0.000000 -0.086318 -0.754216
v -0.533312 -0.086318 -0.533312
v -0.696805 -0.086318 -0.288626
v -0.754216 -0.086318 0.000000
v -0.696805 -0.086318 0.288626
v -0.533312 -0.086318 0.533312
v -0.288626 -0.086318 0.696805
v -0.000000 -0.086318 0.754216
v 0.288626 -0.086318 0.696805
v 0.533312 -0.086318 0.533312
v 0.696805 -0.086318 0.288626
v 0.754216 -0.086318 0.000000
v 0.696805 -0.086318 -0.288626
v 0.533312 -0.086318 -0.533312
v 0.288626 -0.086318 -0.696805
v -0.267360 -0.129741 -0.645463
v -0.000000 -0.129741 -0.698645
v -0.494016 -0.129741 -0.494016
v -0.645463 -0.129741 -0.267360
v -0.698645 -0.129741 -0.000000
v -0.645463 -0.129741 0.267360
v -0.494016 -0.129741 0.494016
v -0.267360 -0.129741 0.645463
v -0.000000 -0.129741 0.698645
v 0.267360 -0.129741 0.645463
v 0.494016 -0.129741 0.494016
v 0.645463 -0.129741 0.267360
v 0.698645 -0.129741 -0.000000
v 0.645463 -0.129741 -0.267360
v 0.494016 -0.129741 -0.494016
v 0.267360 -0.129741 -0.645463
v -0.253335 -0.129741 -0.611606
v -0.000000 -0.129741 -0.661997
v -0.468103 -0.129741 -0.468103
v -0.611606 -0.129741 -0.253335
v -0.661997 -0.129741 -0.000000
v -0.611606 -0.129741 0.253335
v -0.468103 -0.129741 0.468103
v -0.253335 -0.129741 0.611606
v -0.000000 -0.129741 0.661997
v 0.253335 -0.129741 0.611606
v 0.468103 -0.129741 0.468103
v 0.611606 -0.129741 0.253335
v 0.661997 -0.129741 -0.000000
v 0.611606 -0.129741 -0.253335
v 0.468103 -0.129741 -0.468103
v 0.253335 -0.129741 -0.611606
v -0.000000 0.086257 -1.078250
v -0.412628 0.086257 -0.996173
v -0.762438 0.086257 -0.762438
v -0.996173 0.086257 -0.412628
v -1.078250 0.086257 -0.000000
v -0.996173 0.086257 0.412628
v -0.762438 0.086257 0.762438
v -0.412628 0.086257 0.996173
v -0.000000 0.086257 1.078250
v 0.412628 0.086257 0.996173
v 0.762438 0.086257 0.762438
v 0.996173 0.086257 0.412628
v 1.078250 0.086257 -0.000000
v 0.996173 0.086257 -0.412628
v 0.762438 0.086257 -0.762438
v 0.412628 0.086257 -0.996173
v -0.000000 0.033920 -0.832315
v -0.318513 0.033920 -0.768959
v -0.588535 0.033920 -0.588535
v -0.768959 0.033920 -0.318513
v -0.832315 0.033920 0.000000
v -0.768959 0.033920 0.318513
v -0.588535 0.033920 0.588535
v -0.318513 0.033920 0.768959
v -0.000000 0.033920 0.832315
v 0.318513 0.033920 0.768959
v 0.588535 0.033920 0.588535
v 0.768959 0.033920 0.318513
v 0.832315 0.033920 0.000000
v 0.768959 0.033920 -0.318513
v 0.588535 0.033920 -0.588535
v 0.318513 0.033920 -0.768959
v -0.000000 0.020719 -0.804251
v -0.307773 0.020719 -0.743031
v -0.568691 0.020719 -0.568691
v -0.743031 0.020719 -0.307773
v -0.804251 0.020719 0.000000
v -0.743031 0.020719 0.307773
v -0.568691 0.020719 0.568691
v -0.307773 0.020719 0.743031
v -0.000000 0.020719 0.804251
v 0.307773 0.020719 0.743031
v 0.568691 0.020719 0.568691
v 0.743031 0.020719 0.307773
v 0.804251 0.020719 0.000000
v 0.743031 0.020719 -0.307773
v 0.568691 0.020719 -0.568691
v 0.307773 0.020719 -0.743031
v -0.000000 0.073926 -1.020305
v -0.000000 0.079464 -1.046329
v -0.400413 0.079464 -0.966682
v -0.390454 0.073926 -0.942639
v 0.390454 0.073926 -0.942639
v 0.400413 0.079464 -0.966682
v -0.000000 0.073926 1.020305
v -0.000000 0.079464 1.046329
v 0.400413 0.079464 0.966682
v 0.390454 0.073926 0.942639
v -0.739866 0.079464 -0.739866
v -0.721465 0.073926 -0.721465
v 0.739866 0.079464 0.739866
v 0.721465 0.073926 0.721465
v -0.966682 0.079464 -0.400413
v -0.942639 0.073926 -0.390454
v 0.966682 0.079464 0.400413
v 0.942639 0.073926 0.390454
v -1.046329 0.079464 -0.000000
v -1.020305 0.073926 -0.000000
v 1.046329 0.079464 -0.000000
v 1.020305 0.073926 -0.000000
v -0.966682 0.079464 0.400413
v -0.942639 0.073926 0.390454
v 0.966682 0.079464 -0.400413
v 0.942639 0.073926 -0.390454
v -0.739866 0.079464 0.739866
v -0.721465 0.073926 0.721465
v 0.739866 0.079464 -0.739866
v 0.721465 0.073926 -0.721465
v -0.400413 0.079464 0.966682
v -0.390454 0.073926 0.942639
vn -0.0000 -1.0000 -0.0000
vn 0.6269 -0.4627 0.6269
vn 0.3720 -0.8504 0.3720
vn 0.4860 -0.8504 0.2013
vn 0.8190 -0.4627 0.3392
vn -0.8190 -0.4627 -0.3392
vn -0.4860 -0.8504 -0.2013
vn -0.5261 -0.8504 -0.0000
vn -0.8865 -0.4627 -0.0000
vn 0.5261 -0.8504 -0.0000
vn 0.8865 -0.4627 -0.0000
vn -0.4860 -0.8504 0.2013
vn -0.8190 -0.4627 0.3392
vn 0.4860 -0.8504 -0.2013
vn 0.8190 -0.4627 -0.3392
vn -0.3720 -0.8504 0.3720
vn -0.6269 -0.4627 0.6269
vn 0.3720 -0.8504 -0.3720
vn 0.6269 -0.4627 -0.6269
vn -0.2013 -0.8504 0.4860
vn -0.3392 -0.4627 0.8190
vn 0.2013 -0.8504 -0.4860
vn 0.3392 -0.4627 -0.8190
vn -0.0000 -0.8504 0.5261
vn -0.0000 -0.4627 0.8865
vn -0.0000 -0.4627 -0.8865
vn -0.0000 -0.8504 -0.5261
vn -0.2013 -0.8504 -0.4860
vn -0.3392 -0.4627 -0.8190
vn 0.2013 -0.8504 0.4860
vn 0.3392 -0.4627 0.8190
vn -0.3720 -0.8504 -0.3720
vn -0.6269 -0.4627 -0.6269
vn -0.0965 -0.9677 -0.2331
vn -0.0000 -0.9677 -0.2523
vn -0.1784 -0.9677 -0.1784
vn -0.2331 -0.9677 -0.0965
vn -0.2523 -0.9677 -0.0000
vn -0.2331 -0.9677 0.0965
vn -0.1784 -0.9677 0.1784
vn -0.0965 -0.9677 0.2331
vn -0.0000 -0.9677 0.2523
vn 0.0965 -0.9677 0.2331
vn 0.1784 -0.9677 0.1784
vn 0.2331 -0.9677 0.0965
vn 0.2523 -0.9677 -0.0000
vn 0.2331 -0.9677 -0.0965
vn 0.1784 -0.9677 -0.1784
vn 0.0965 -0.9677 -0.2331
vn -0.2356 -0.7880 0.5688
vn -0.0000 -0.7880 0.6157
vn -0.0000 -0.5645 0.8254
vn -0.3159 -0.5645 0.7626
vn 0.5837 -0.5645 0.5837
vn 0.3159 -0.5645 0.7626
vn -0.4354 -0.7880 0.4354
vn -0.5837 -0.5645 0.5837
vn -0.5688 -0.7880 0.2356
vn -0.7626 -0.5645 0.3159
vn -0.6157 -0.7880 -0.0000
vn -0.8254 -0.5645 -0.0000
vn -0.5688 -0.7880 -0.2356
vn -0.7626 -0.5645 -0.3159
vn -0.4354 -0.7880 -0.4354
vn -0.5837 -0.5645 -0.5837
vn 0.2356 -0.7880 -0.5688
vn -0.0000 -0.7880 -0.6157
vn -0.2356 -0.7880 -0.5688
vn 0.7626 -0.5645 0.3159
vn 0.2356 -0.7880 0.5688
vn 0.8254 -0.5645 -0.0000
vn 0.4354 -0.7880 0.4354
vn 0.7626 -0.5645 -0.3159
vn 0.5688 -0.7880 0.2356
vn 0.5837 -0.5645 -0.5837
vn 0.6157 -0.7880 -0.0000
vn 0.3159 -0.5645 -0.7626
vn 0.5688 -0.7880 -0.2356
vn -0.0000 -0.5645 -0.8254
vn 0.4354 -0.7880 -0.4354
vn -0.3159 -0.5645 -0.7626
vn 0.7071 -0.0000 -0.7071
vn 0.9239 -0.0000 -0.3827
vn -0.3827 -0.0000 0.9239
vn -0.7071 -0.0000 0.7071
vn 0.3827 -0.0000 -0.9239
vn -0.0000 -0.0000 1.0000
vn -0.3827 -0.0000 -0.9239
vn -0.0000 -0.0000 -1.0000
vn 0.3827 -0.0000 0.9239
vn -0.7071 -0.0000 -0.7071
vn 0.7071 -0.0000 0.7071
vn -0.9239 -0.0000 -0.3827
vn 0.9239 -0.0000 0.3827
vn -1.0000 -0.0000 -0.0000
vn 1.0000 -0.0000 -0.0000
vn -0.9239 -0.0000 0.3827
vn -0.0000 0.9781 0.2081
vn -0.0797 0.9781 0.1923
vn 0.0797 0.9781 0.1923
vn -0.0000 0.9781 -0.2081
vn 0.0797 0.9781 -0.1923
vn -0.1472 0.9781 0.1472
vn 0.1923 0.9781 0.0797
vn 0.1472 0.9781 0.1472
vn -0.1923 0.9781 -0.0797
vn -0.1472 0.9781 -0.1472
vn 0.2081 0.9781 -0.0000
vn -0.2081 0.9781 -0.0000
vn 0.1923 0.9781 -0.0797
vn -0.1923 0.9781 0.0797
vn 0.1472 0.9781 -0.1472
vn -0.0797 0.9781 -0.1923
vn 0.3010 0.9049 -0.3010
vn 0.3933 0.9049 -0.1629
vn -0.3010 0.9049 0.3010
vn -0.3933 0.9049 0.1629
vn 0.1629 0.9049 -0.3933
vn -0.1629 0.9049 0.3933
vn -0.0000 0.9049 -0.4257
vn 0.1629 0.9049 0.3933
vn -0.0000 0.9049 0.4257
vn -0.1629 0.9049 -0.3933
vn 0.3010 0.9049 0.3010
vn -0.3010 0.9049 -0.3010
vn 0.3933 0.9049 0.1629
vn -0.3933 0.9049 -0.1629
vn 0.4257 0.9049 -0.0000
vn -0.4257 0.9049 -0.0000
vn -0.0000 1.0000 -0.0000
vt 0.500000 0.117442
vt 0.500000 0.175764
vt 0.522319 0.229647
vt 0.563559 0.270887
vt 0.617442 0.293206
vt 0.675764 0.293206
vt 0.729647 0.270887
vt 0.770887 0.229647
vt 0.793206 0.175764
vt 0.793206 0.117442
vt 0.770887 0.063559
vt 0.729647 0.022319
vt 0.675764 -0.000000
vt 0.617442 -0.000000
vt 0.563559 0.022319
vt 0.522319 0.063559
vt 0.461940 0.391614
vt 0.446559 0.381337
vt 0.381337 0.446559
vt 0.391614 0.461940
vt 0.108386 0.038060
vt 0.118663 0.053441
vt 0.203881 0.018143
vt 0.200272 -0.000000
vt 0.296119 0.481857
vt 0.299728 0.500000
vt 0.296119 0.018143
vt 0.299728 -0.000000
vt 0.203881 0.481857
vt 0.200272 0.500000
vt 0.381337 0.053441
vt 0.391614 0.038060
vt 0.118663 0.446559
vt 0.108386 0.461940
vt 0.446559 0.118663
vt 0.461940 0.108386
vt 0.053441 0.381337
vt 0.038060 0.391614
vt 0.481857 0.203881
vt 0.500000 0.200272
vt -0.000000 0.299728
vt 0.018143 0.296119
vt 0.018143 0.203881
vt -0.000000 0.200272
vt 0.481857 0.296119
vt 0.500000 0.299728
vt 0.053441 0.118663
vt 0.038060 0.108386
vt 0.075130 0.215216
vt 0.075129 0.284784
vt 0.101752 0.150944
vt 0.150944 0.101752
vt 0.215216 0.075129
vt 0.284784 0.075129
vt 0.349056 0.101752
vt 0.398248 0.150944
vt 0.424871 0.215216
vt 0.424871 0.284784
vt 0.398248 0.349056
vt 0.349056 0.398248
vt 0.284784 0.424871
vt 0.215216 0.424871
vt 0.150944 0.398248
vt 0.101752 0.349056
vt 0.387325 0.158242
vt 0.411986 0.217779
vt 0.556817 0.350989
vt 0.567082 0.349620
vt 0.567082 0.293206
vt 0.556817 0.297107
vt 0.556817 0.463194
vt 0.567082 0.467095
vt 0.567082 0.410681
vt 0.556817 0.409312
vt 0.341758 0.112675
vt 0.567082 0.504435
vt 0.577347 0.510272
vt 0.577347 0.467095
vt 0.567082 0.463194
vt 0.282221 0.088014
vt 0.577347 0.410681
vt 0.567082 0.409312
vt 0.217779 0.088014
vt 0.577347 0.349620
vt 0.567082 0.350989
vt 0.158242 0.112675
vt 0.577347 0.293206
vt 0.567082 0.297107
vt 0.112675 0.158242
vt 0.577347 0.504435
vt 0.587612 0.510272
vt 0.587612 0.467095
vt 0.577347 0.463194
vt 0.112675 0.341758
vt 0.088014 0.282221
vt 0.088014 0.217779
vt 0.096511 0.219469
vt 0.096511 0.280531
vt 0.119878 0.163056
vt 0.163056 0.119878
vt 0.219469 0.096511
vt 0.280531 0.096511
vt 0.336944 0.119878
vt 0.380122 0.163056
vt 0.403489 0.219469
vt 0.403489 0.280531
vt 0.411986 0.282221
vt 0.380122 0.336944
vt 0.387325 0.341758
vt 0.336944 0.380122
vt 0.341758 0.387325
vt 0.280531 0.403489
vt 0.282221 0.411986
vt 0.219469 0.403489
vt 0.217779 0.411986
vt 0.163056 0.380122
vt 0.158242 0.387325
vt 0.119878 0.336944
vt 0.556817 0.504435
vt 0.567082 0.510272
vt 0.587612 0.350989
vt 0.597877 0.349620
vt 0.597877 0.293206
vt 0.587612 0.297107
vt 0.587612 0.409312
vt 0.597877 0.410681
vt 0.587612 0.463194
vt 0.597877 0.467095
vt 0.587612 0.504435
vt 0.597877 0.510272
vt 0.577347 0.350989
vt 0.587612 0.349620
vt 0.587612 0.293206
vt 0.577347 0.297107
vt 0.577347 0.409312
vt 0.587612 0.410681
vt 0.514204 0.363532
vt 0.500000 0.363532
vt 0.500000 0.455418
vt 0.514204 0.455418
vt 0.528408 0.293206
vt 0.514204 0.293206
vt 0.528408 0.363532
vt 0.500000 0.293206
vt 0.542612 0.554874
vt 0.528408 0.554874
vt 0.528408 0.646760
vt 0.542612 0.646760
vt 0.556817 0.455418
vt 0.542612 0.455418
vt 0.556817 0.554874
vt 0.556817 0.646760
vt 0.528408 0.455418
vt 0.556817 0.363532
vt 0.542612 0.363532
vt 0.542612 0.363532
vt 0.528408 0.363532
vt 0.556817 0.293206
vt 0.542612 0.293206
vt 0.542612 0.293206
vt 0.514204 0.554874
vt 0.514204 0.646760
vt 0.514204 0.554874
vt 0.500000 0.554874
vt 0.500000 0.646760
vt 0.528408 0.455418
vt 0.514204 0.455418
vt -0.000000 0.799728
vt 0.007401 0.798256
vt 0.007401 0.701744
vt -0.000000 0.700272
vt 0.038060 0.891614
vt 0.044335 0.887421
vt 0.500000 0.700272
vt 0.492599 0.701744
vt 0.492599 0.798256
vt 0.500000 0.799728
vt 0.120316 0.541464
vt 0.189370 0.555200
vt 0.235914 0.442832
vt 0.177374 0.403716
vt 0.200272 1.000000
vt 0.201744 0.992599
vt 0.112579 0.955665
vt 0.108386 0.961940
vt 0.299728 0.500000
vt 0.298256 0.507401
vt 0.387421 0.544334
vt 0.391614 0.538060
vt 0.299728 1.000000
vt 0.298256 0.992599
vt 0.200272 0.500000
vt 0.201744 0.507401
vt 0.391614 0.961940
vt 0.387421 0.955665
vt 0.108386 0.538060
vt 0.112579 0.544335
vt 0.461940 0.891614
vt 0.455665 0.887421
vt 0.038060 0.608386
vt 0.044335 0.612579
vt 0.461940 0.608386
vt 0.455665 0.612579
vt 0.754282 0.789194
vt 0.745543 0.783355
vt 0.662440 0.866458
vt 0.668279 0.875197
vt 0.244653 0.448671
vt 0.327756 0.365568
vt 0.321917 0.356829
vt 0.800827 0.676826
vt 0.790518 0.674776
vt 0.199678 0.557250
vt 0.800826 0.555200
vt 0.790518 0.557250
vt 0.235914 0.789194
vt 0.244653 0.783355
vt 0.199678 0.674776
vt 0.189370 0.676826
vt 0.754282 0.442832
vt 0.745543 0.448671
vt 0.321917 0.875197
vt 0.327756 0.866458
vt 0.668279 0.356829
vt 0.662440 0.365568
vt 0.434285 0.921742
vt 0.436335 0.911433
vt 0.555911 0.310285
vt 0.553861 0.320593
vt 0.555911 0.921742
vt 0.553861 0.911433
vt 0.434285 0.310285
vt 0.436335 0.320593
vt 0.869880 0.541464
vt 0.869880 0.690562
vt 0.812822 0.828310
vt 0.282801 0.298289
vt 0.707395 0.933738
vt 0.420549 0.241231
vt 0.569647 0.990795
vt 0.569647 0.241232
vt 0.420549 0.990795
vt 0.707395 0.298288
vt 0.282801 0.933738
vt 0.812823 0.403716
vt 0.177374 0.828310
vt 0.120316 0.690562
vt 0.486565 0.797055
vt 0.486565 0.702944
vt 0.049450 0.615997
vt 0.013435 0.702944
vt 0.450550 0.884003
vt 0.115997 0.549450
vt 0.384003 0.950550
vt 0.202944 0.513435
vt 0.297056 0.986565
vt 0.297056 0.513435
vt 0.202944 0.986565
vt 0.384003 0.549450
vt 0.115997 0.950550
vt 0.450550 0.615997
vt 0.049450 0.884003
vt 0.013435 0.797056
s 1
usemtl white_non-metalic_(gloss)
f 18/1/1 17/2/1 32/3/1 31/4/1 30/5/1 29/6/1 28/7/1 27/8/1 26/9/1 25/10/1 24/11/1 23/12/1 22/13/1 21/14/1 20/15/1 19/16/1
f 11/17/2 43/18/3 44/19/4 12/20/5
f 4/21/6 36/22/7 37/23/8 5/24/9
f 12/20/5 44/19/4 45/25/10 13/26/11
f 5/24/9 37/23/8 38/27/12 6/28/13
f 13/26/11 45/25/10 46/29/14 14/30/15
f 6/28/13 38/27/12 39/31/16 7/32/17
f 14/30/15 46/29/14 47/33/18 15/34/19
f 7/32/17 39/31/16 40/35/20 8/36/21
f 15/34/19 47/33/18 48/37/22 16/38/23
f 8/36/21 40/35/20 41/39/24 9/40/25
f 1/41/26 34/42/27 33/43/28 2/44/29
f 16/38/23 48/37/22 34/42/27 1/41/26
f 9/40/25 41/39/24 42/45/30 10/46/31
f 2/44/29 33/43/28 35/47/32 3/48/33
f 10/46/31 42/45/30 43/18/3 11/17/2
f 3/48/33 35/47/32 36/22/7 4/21/6
f 49/49/34 33/43/34 34/42/35 50/50/35
f 51/51/36 35/47/36 33/43/34 49/49/34
f 52/52/37 36/22/37 35/47/36 51/51/36
f 53/53/38 37/23/38 36/22/37 52/52/37
f 54/54/39 38/27/39 37/23/38 53/53/38
f 55/55/40 39/31/40 38/27/39 54/54/39
f 56/56/41 40/35/41 39/31/40 55/55/40
f 57/57/42 41/39/42 40/35/41 56/56/41
f 58/58/43 42/45/43 41/39/42 57/57/42
f 59/59/44 43/18/44 42/45/43 58/58/43
f 60/60/45 44/19/45 43/18/44 59/59/44
f 61/61/46 45/25/46 44/19/45 60/60/45
f 62/62/47 46/29/47 45/25/46 61/61/46
f 63/63/48 47/33/48 46/29/47 62/62/47
f 64/64/49 48/37/49 47/33/48 63/63/48
f 50/50/35 34/42/35 48/37/49 64/64/49
f 56/56/50 72/65/50 73/66/51 57/57/51
f 17/67/52 82/68/52 96/69/53 32/70/53
f 19/71/54 83/72/54 81/73/55 18/74/55
f 55/55/56 71/75/56 72/65/50 56/56/50
f 32/76/53 96/77/53 95/78/57 31/79/57
f 18/74/55 81/73/55 82/68/52 17/67/52
f 54/54/58 70/80/58 71/75/56 55/55/56
f 31/79/57 95/78/57 94/81/59 30/82/59
f 53/53/60 69/83/60 70/80/58 54/54/58
f 30/82/59 94/81/59 93/84/61 29/85/61
f 52/52/62 68/86/62 69/83/60 53/53/60
f 29/85/61 93/84/61 92/87/63 28/88/63
f 51/51/64 67/89/64 68/86/62 52/52/62
f 28/90/63 92/91/63 91/92/65 27/93/65
f 64/64/66 80/94/66 66/95/67 50/50/67
f 49/49/68 65/96/68 67/89/64 51/51/64
f 81/97/1 65/96/1 66/95/1 82/98/1
f 83/99/1 67/89/1 65/96/1 81/97/1
f 84/100/1 68/86/1 67/89/1 83/99/1
f 85/101/1 69/83/1 68/86/1 84/100/1
f 86/102/1 70/80/1 69/83/1 85/101/1
f 87/103/1 71/75/1 70/80/1 86/102/1
f 88/104/1 72/65/1 71/75/1 87/103/1
f 89/105/1 73/66/1 72/65/1 88/104/1
f 90/106/1 74/107/1 73/66/1 89/105/1
f 91/108/1 75/109/1 74/107/1 90/106/1
f 92/110/1 76/111/1 75/109/1 91/108/1
f 93/112/1 77/113/1 76/111/1 92/110/1
f 94/114/1 78/115/1 77/113/1 93/112/1
f 95/116/1 79/117/1 78/115/1 94/114/1
f 96/118/1 80/94/1 79/117/1 95/116/1
f 82/98/1 66/95/1 80/94/1 96/118/1
f 20/119/69 84/120/69 83/72/54 19/71/54
f 57/57/51 73/66/51 74/107/70 58/58/70
f 21/121/71 85/122/71 84/123/69 20/124/69
f 58/58/70 74/107/70 75/109/72 59/59/72
f 22/125/73 86/126/73 85/122/71 21/121/71
f 59/59/72 75/109/72 76/111/74 60/60/74
f 23/127/75 87/128/75 86/126/73 22/125/73
f 60/60/74 76/111/74 77/113/76 61/61/76
f 24/129/77 88/130/77 87/128/75 23/127/75
f 61/61/76 77/113/76 78/115/78 62/62/78
f 25/131/79 89/132/79 88/133/77 24/134/77
f 62/62/78 78/115/78 79/117/80 63/63/80
f 26/135/81 90/136/81 89/132/79 25/131/79
f 50/50/67 66/95/67 65/96/68 49/49/68
f 63/63/80 79/117/80 80/94/66 64/64/66
f 27/93/65 91/92/65 90/136/81 26/135/81
f 15/137/19 111/138/82 110/139/83 14/140/15
f 8/141/21 104/142/84 103/137/85 7/143/17
f 16/142/23 112/144/86 111/138/82 15/137/19
f 9/145/25 105/146/87 104/147/84 8/148/21
f 2/149/29 98/150/88 97/145/89 1/151/26
f 1/151/26 97/145/89 112/148/86 16/152/23
f 10/150/31 106/153/90 105/146/87 9/145/25
f 3/154/33 99/155/91 98/150/88 2/149/29
f 11/156/2 107/157/92 106/153/90 10/150/31
f 4/158/6 100/159/93 99/155/91 3/154/33
f 12/160/5 108/141/94 107/157/92 11/156/2
f 5/146/9 101/161/95 100/162/93 4/147/6
f 13/163/11 109/164/96 108/165/94 12/162/5
f 6/166/13 102/167/97 101/161/95 5/146/9
f 14/140/15 110/139/83 109/164/96 13/163/11
f 7/143/17 103/137/85 102/167/97 6/166/13
f 97/168/98 146/169/98 150/170/99 112/171/99
f 98/172/100 147/173/100 146/169/98 97/168/98
f 105/174/101 152/175/101 175/176/102 104/177/102
f 149/178/99 128/179/99 127/180/103 174/181/103
f 100/182/104 159/183/104 155/184/105 99/185/105
f 108/186/106 161/187/106 157/188/107 107/189/107
f 101/190/108 163/191/108 159/183/104 100/182/104
f 109/192/109 165/193/109 161/187/106 108/186/106
f 102/194/110 167/195/110 163/191/108 101/190/108
f 110/196/111 169/197/111 165/193/109 109/192/109
f 103/198/112 171/199/112 167/195/110 102/194/110
f 111/200/103 173/201/103 169/197/111 110/196/111
f 104/177/102 175/176/102 171/199/112 103/198/112
f 112/171/99 150/170/99 173/201/103 111/200/103
f 106/202/113 153/203/113 152/175/101 105/174/101
f 119/204/114 135/205/114 134/206/115 118/207/115
f 127/180/116 143/208/116 142/209/117 126/210/117
f 120/211/118 136/212/118 135/205/114 119/204/114
f 128/179/119 144/213/119 143/208/116 127/180/116
f 121/214/120 137/215/120 136/212/118 120/211/118
f 114/216/121 130/217/121 129/218/122 113/219/122
f 113/219/122 129/218/122 144/213/119 128/179/119
f 122/220/123 138/221/123 137/215/120 121/214/120
f 115/222/124 131/223/124 130/217/121 114/216/121
f 123/224/125 139/225/125 138/221/123 122/220/123
f 116/226/126 132/227/126 131/223/124 115/222/124
f 124/228/127 140/229/127 139/225/125 123/224/125
f 117/230/128 133/231/128 132/227/126 116/226/126
f 125/232/129 141/233/129 140/229/127 124/228/127
f 118/207/115 134/206/115 133/231/128 117/230/128
f 126/210/117 142/209/117 141/233/129 125/232/129
f 130/217/130 131/223/130 132/227/130 133/231/130 134/206/130 135/205/130 136/212/130 137/215/130 138/221/130 139/225/130 140/229/130 141/233/130 142/209/130 143/208/130 144/213/130 129/218/130
f 107/189/107 157/188/107 153/203/113 106/202/113
f 151/234/101 121/214/101 120/211/102 176/235/102
f 176/235/102 120/211/102 119/204/112 172/236/112
f 174/181/103 127/180/103 126/210/111 170/237/111
f 172/236/112 119/204/112 118/207/110 168/238/110
f 170/237/111 126/210/111 125/232/109 166/239/109
f 168/238/110 118/207/110 117/230/108 164/240/108
f 166/239/109 125/232/109 124/228/106 162/241/106
f 164/240/108 117/230/108 116/226/104 160/242/104
f 162/241/106 124/228/106 123/224/107 158/243/107
f 160/242/104 116/226/104 115/222/105 156/244/105
f 158/243/107 123/224/107 122/220/113 154/245/113
f 156/244/105 115/222/105 114/216/100 148/246/100
f 154/245/113 122/220/113 121/214/101 151/234/101
f 99/185/105 155/184/105 147/173/100 98/172/100
f 148/246/100 114/216/100 113/219/98 145/247/98
f 176/248/102 175/176/102 152/175/101 151/249/101
f 174/250/103 173/201/103 150/170/99 149/251/99
f 172/252/112 171/199/112 175/176/102 176/248/102
f 170/253/111 169/197/111 173/201/103 174/250/103
f 168/254/110 167/195/110 171/199/112 172/252/112
f 166/255/109 165/193/109 169/197/111 170/253/111
f 164/256/108 163/191/108 167/195/110 168/254/110
f 162/257/106 161/187/106 165/193/109 166/255/109
f 160/258/104 159/183/104 163/191/108 164/256/108
f 158/259/107 157/188/107 161/187/106 162/257/106
f 156/260/105 155/184/105 159/183/104 160/258/104
f 154/261/113 153/203/113 157/188/107 158/259/107
f 148/262/100 147/173/100 155/184/105 156/260/105
f 151/249/101 152/175/101 153/203/113 154/261/113
f 149/251/99 150/170/99 146/169/98 145/263/98
f 145/263/98 146/169/98 147/173/100 148/262/100
f 145/247/98 113/219/98 128/179/99 149/178/99
