# Blender 4.3.2
# www.blender.org
mtllib sauce pan.mtl
o Circle
v 0.000000 0.000000 -1.000000
v 0.000000 0.000000 1.000000
v 0.382683 0.000000 0.923880
v 0.707107 0.000000 0.707107
v 0.923880 0.000000 0.382683
v 1.000000 0.000000 0.000000
v 0.923880 0.000000 -0.382683
v 0.707107 0.000000 -0.707107
v 0.382683 0.000000 -0.923880
v 0.000000 -0.170086 -0.899973
v 0.000000 -0.170086 0.899973
v 0.344405 -0.170086 0.831467
v 0.636377 -0.170086 0.636377
v 0.831467 -0.170086 0.344405
v 0.899973 -0.170086 0.000000
v 0.831467 -0.170086 -0.344405
v 0.636377 -0.170086 -0.636377
v 0.344405 -0.170086 -0.831467
v -0.000000 -0.204835 -0.802511
v 1.285776 1.765202 0.000000
v 1.285776 1.859525 0.000000
v -0.000000 -0.204835 0.802511
v 0.307108 -0.204835 0.741423
v 0.567461 -0.204835 0.567461
v 0.741423 -0.204835 0.307108
v 0.802511 -0.204835 -0.000000
v 0.741423 -0.204835 -0.307108
v 0.567461 -0.204835 -0.567461
v 0.307108 -0.204835 -0.741423
v 0.000000 0.049608 -0.916313
v 0.000000 0.049608 0.916313
v 0.350658 0.049608 0.846563
v 0.647931 0.049608 0.647931
v 0.846563 0.049608 0.350658
v 0.916313 0.049608 0.000000
v 0.846563 0.049608 -0.350658
v 0.647931 0.049608 -0.647931
v 0.350658 0.049608 -0.846563
v 0.707107 1.711679 0.707107
v 1.000000 1.765202 0.000000
v 0.707107 1.711679 -0.707107
v 0.382683 1.711679 -0.923880
v 0.000000 1.711679 1.000000
v 0.000000 1.711679 -1.000000
v 0.382683 1.711679 0.923880
v 0.000000 1.913048 -1.000000
v 0.000000 1.934724 -0.977899
v 0.000000 1.934724 0.977899
v 0.000000 1.913048 1.000000
v 0.374226 1.934724 0.903461
v 0.382683 1.913048 0.923880
v 0.691479 1.934724 0.691479
v 0.707107 1.913048 0.707107
v 0.903461 1.934724 0.374226
v 0.977899 1.934724 0.000000
v 1.000000 1.859525 0.000000
v 0.903461 1.934724 -0.374226
v 0.691479 1.934724 -0.691479
v 0.707107 1.913048 -0.707107
v 0.374226 1.934724 -0.903461
v 0.382683 1.913048 -0.923880
v 0.000000 1.934724 -0.938414
v 0.000000 1.913048 -0.916313
v 0.000000 1.913048 0.916313
v 0.000000 1.934724 0.938414
v 0.350658 1.913048 0.846563
v 0.359116 1.934724 0.866982
v 0.647931 1.913048 0.647931
v 0.663559 1.934724 0.663559
v 0.846563 1.913048 0.350658
v 0.866982 1.934724 0.359116
v 0.916313 1.913048 0.000000
v 0.938414 1.934724 0.000000
v 0.846563 1.913048 -0.350658
v 0.866982 1.934724 -0.359116
v 0.647931 1.913048 -0.647931
v 0.663559 1.934724 -0.663559
v 0.350658 1.913048 -0.846563
v 0.359116 1.934724 -0.866982
v 1.000000 1.711679 0.000000
v 0.923880 1.711679 -0.382683
v 0.923880 1.711679 0.382683
v 1.000000 1.913048 0.000000
v 0.923880 1.913048 0.382683
v 0.923880 1.913048 -0.382683
v 1.344120 1.765202 0.000000
v 0.934321 1.765202 0.330189
v 1.344120 1.859525 0.000000
v 0.934321 1.765202 -0.330189
v 0.934321 1.859525 -0.330189
v 0.934321 1.859525 0.330189
v 1.031196 1.765202 0.000000
v 1.031196 1.859525 0.000000
v 1.330914 1.765202 -0.280268
v 1.270086 1.765202 -0.330189
v 1.270086 1.765202 0.330189
v 1.330914 1.765202 0.280268
v 1.288695 1.765202 0.290844
v 1.330914 1.859525 0.280268
v 1.270086 1.859525 0.330189
v 1.270086 1.859525 -0.330189
v 1.330914 1.859525 -0.280268
v 1.280099 1.859525 -0.233137
v 1.233773 1.859525 -0.271155
v 1.288663 1.859525 -0.290805
v 1.233773 1.859525 0.271155
v 1.280099 1.859525 0.233137
v 1.288663 1.859525 0.290805
v 1.280099 1.765202 0.233137
v 1.233773 1.765202 0.271155
v 1.233773 1.765202 -0.271155
v 1.280099 1.765202 -0.233137
v 1.288663 1.765202 -0.290805
v 1.044937 1.765202 0.271155
v 1.013801 1.765202 0.233215
v 0.976352 1.765202 0.295695
v 1.013801 1.765202 -0.233215
v 1.044937 1.765202 -0.271155
v 0.976352 1.765202 -0.295695
v 1.013801 1.859525 0.233215
v 1.044937 1.859525 0.271155
v 0.976352 1.859525 0.295695
v 1.044937 1.859525 -0.271155
v 1.013801 1.859525 -0.233215
v 0.976352 1.859525 -0.295695
v -0.382683 0.000000 0.923880
v -0.707107 0.000000 0.707107
v -0.923880 0.000000 0.382683
v -1.000000 0.000000 0.000000
v -0.923880 0.000000 -0.382683
v -0.707107 0.000000 -0.707107
v -0.382683 0.000000 -0.923880
v -0.344405 -0.170086 0.831467
v -0.636377 -0.170086 0.636377
v -0.831467 -0.170086 0.344405
v -0.899973 -0.170086 0.000000
v -0.831467 -0.170086 -0.344405
v -0.636377 -0.170086 -0.636377
v -0.344405 -0.170086 -0.831467
v -1.285776 1.765202 0.000000
v -1.285776 1.859525 0.000000
v -0.307108 -0.204835 0.741423
v -0.567461 -0.204835 0.567461
v -0.741423 -0.204835 0.307108
v -0.802511 -0.204835 -0.000000
v -0.741423 -0.204835 -0.307108
v -0.567461 -0.204835 -0.567461
v -0.307108 -0.204835 -0.741423
v -0.350658 0.049608 0.846563
v -0.647931 0.049608 0.647931
v -0.846563 0.049608 0.350658
v -0.916313 0.049608 0.000000
v -0.846563 0.049608 -0.350658
v -0.647931 0.049608 -0.647931
v -0.350658 0.049608 -0.846563
v -0.707107 1.711679 0.707107
v -1.000000 1.765202 0.000000
v -0.707107 1.711679 -0.707107
v -0.382683 1.711679 -0.923880
v -0.382683 1.711679 0.923880
v -0.374226 1.934724 0.903461
v -0.382683 1.913048 0.923880
v -0.691479 1.934724 0.691479
v -0.707107 1.913048 0.707107
v -0.903461 1.934724 0.374226
v -0.977899 1.934724 0.000000
v -1.000000 1.859525 0.000000
v -0.903461 1.934724 -0.374226
v -0.691479 1.934724 -0.691479
v -0.707107 1.913048 -0.707107
v -0.374226 1.934724 -0.903461
v -0.382683 1.913048 -0.923880
v -0.350658 1.913048 0.846563
v -0.359116 1.934724 0.866982
v -0.647931 1.913048 0.647931
v -0.663559 1.934724 0.663559
v -0.846563 1.913048 0.350658
v -0.866982 1.934724 0.359116
v -0.916313 1.913048 0.000000
v -0.938414 1.934724 0.000000
v -0.846563 1.913048 -0.350658
v -0.866982 1.934724 -0.359116
v -0.647931 1.913048 -0.647931
v -0.663559 1.934724 -0.663559
v -0.350658 1.913048 -0.846563
v -0.359116 1.934724 -0.866982
v -1.000000 1.711679 0.000000
v -0.923880 1.711679 -0.382683
v -0.923880 1.711679 0.382683
v -1.000000 1.913048 0.000000
v -0.923880 1.913048 0.382683
v -0.923880 1.913048 -0.382683
v -1.344120 1.765202 0.000000
v -0.934321 1.765202 0.330189
v -1.344120 1.859525 0.000000
v -0.934321 1.765202 -0.330189
v -0.934321 1.859525 -0.330189
v -0.934321 1.859525 0.330189
v -1.031196 1.765202 0.000000
v -1.031196 1.859525 0.000000
v -1.330914 1.765202 -0.280268
v -1.270086 1.765202 -0.330189
v -1.288695 1.765202 -0.290844
v -1.270086 1.765202 0.330189
v -1.330914 1.765202 0.280268
v -1.288695 1.765202 0.290844
v -1.330914 1.859525 0.280268
v -1.270086 1.859525 0.330189
v -1.270086 1.859525 -0.330189
v -1.330914 1.859525 -0.280268
v -1.288695 1.859525 -0.290844
v -1.280099 1.859525 -0.233137
v -1.233773 1.859525 -0.271155
v -1.233773 1.859525 0.271155
v -1.280099 1.859525 0.233137
v -1.288663 1.859525 0.290805
v -1.280099 1.765202 0.233137
v -1.233773 1.765202 0.271155
v -1.233773 1.765202 -0.271155
v -1.280099 1.765202 -0.233137
v -1.044937 1.765202 0.271155
v -1.013801 1.765202 0.233215
v -0.976352 1.765202 0.295695
v -1.013801 1.765202 -0.233215
v -1.044937 1.765202 -0.271155
v -0.976352 1.765202 -0.295695
v -1.013801 1.859525 0.233215
v -1.044937 1.859525 0.271155
v -0.976352 1.859525 0.295695
v -1.044937 1.859525 -0.271155
v -1.013801 1.859525 -0.233215
v -0.976352 1.859525 -0.295695
vn 0.4172 0.9088 -0.0000
vn -0.3363 0.9417 -0.0000
vn -0.3107 0.9417 -0.1287
vn 0.3855 0.9088 0.1597
vn 0.3855 0.9088 -0.1597
vn -0.3107 0.9417 0.1287
vn 0.2950 0.9088 -0.2950
vn -0.2378 0.9417 0.2378
vn 0.1597 0.9088 -0.3855
vn -0.1287 0.9417 0.3107
vn 0.1597 0.9088 0.3855
vn -0.1287 0.9417 -0.3107
vn -0.0000 0.9417 -0.3363
vn -0.0000 0.9088 0.4172
vn -0.0000 0.9088 -0.4172
vn -0.0000 0.9417 0.3363
vn 0.2950 0.9088 0.2950
vn -0.2378 0.9417 -0.2378
vn 0.6095 -0.5069 0.6095
vn 0.4675 -0.7503 0.4675
vn 0.6108 -0.7503 0.2530
vn 0.7964 -0.5069 0.3299
vn 0.6611 -0.7503 -0.0000
vn 0.8620 -0.5069 -0.0000
vn 0.6108 -0.7503 -0.2530
vn 0.7964 -0.5069 -0.3299
vn 0.4675 -0.7503 -0.4675
vn 0.6095 -0.5069 -0.6095
vn 0.2530 -0.7503 -0.6108
vn 0.3299 -0.5069 -0.7964
vn -0.0000 -0.7503 -0.6611
vn -0.0000 -0.5069 -0.8620
vn -0.0000 -0.5069 0.8620
vn -0.0000 -0.7503 0.6611
vn 0.2530 -0.7503 0.6108
vn 0.3299 -0.5069 0.7964
vn 0.1764 -0.9816 -0.0731
vn 0.1350 -0.9816 -0.1350
vn 0.0731 -0.9816 -0.1764
vn -0.0000 -0.9816 -0.1909
vn -0.0000 -0.9816 0.1909
vn 0.0731 -0.9816 0.1764
vn 0.1350 -0.9816 0.1350
vn 0.1764 -0.9816 0.0731
vn 0.1909 -0.9816 -0.0000
vn 0.9239 -0.0000 0.3827
vn 0.7071 -0.0000 0.7071
vn -0.0000 1.0000 -0.0000
vn -0.0000 -1.0000 -0.0000
vn 0.7071 -0.0000 -0.7071
vn 0.9239 -0.0000 -0.3827
vn 0.3827 -0.0000 -0.9239
vn -0.0000 -0.0000 -1.0000
vn 0.3827 -0.0000 0.9239
vn -0.0000 -0.0000 1.0000
vn -1.0000 -0.0000 -0.0000
vn -0.9239 -0.0000 -0.3827
vn -0.9239 -0.0000 0.3827
vn -0.7071 -0.0000 0.7071
vn -0.3827 -0.0000 0.9239
vn -0.3827 -0.0000 -0.9239
vn -0.7071 -0.0000 -0.7071
vn 1.0000 -0.0000 -0.0000
vn 0.2680 0.7139 0.6469
vn -0.0000 0.7139 0.7002
vn 0.4951 0.7139 0.4951
vn 0.6469 0.7139 0.2680
vn 0.7002 0.7139 -0.0000
vn 0.6469 0.7139 -0.2680
vn 0.4951 0.7139 -0.4951
vn 0.2680 0.7139 -0.6469
vn -0.0000 0.7139 -0.7002
vn -0.3369 -0.0000 -0.9415
vn 0.4276 -0.0000 -0.9040
vn 0.3369 -0.0000 -0.9415
vn -0.2680 0.7139 -0.6469
vn -0.4951 0.7139 -0.4951
vn -0.6469 0.7139 -0.2680
vn -0.7002 0.7139 -0.0000
vn -0.6469 0.7139 0.2680
vn -0.4951 0.7139 0.4951
vn -0.2680 0.7139 0.6469
vn 0.9808 -0.0000 -0.1951
vn 0.9808 -0.0000 0.1951
vn 0.8937 -0.0000 -0.4487
vn 0.3369 -0.0000 0.9415
vn 0.8937 -0.0000 0.4487
vn 0.9534 -0.0000 -0.3016
vn -0.8987 -0.0000 0.4385
vn 0.4276 -0.0000 0.9040
vn -0.3369 -0.0000 0.9415
vn -0.8987 -0.0000 -0.4385
vn 0.9534 -0.0000 0.3016
vn -0.4172 0.9088 -0.0000
vn -0.3855 0.9088 0.1597
vn 0.3107 0.9417 -0.1287
vn 0.3363 0.9417 -0.0000
vn -0.3855 0.9088 -0.1597
vn 0.3107 0.9417 0.1287
vn -0.2950 0.9088 -0.2950
vn 0.2378 0.9417 0.2378
vn -0.1597 0.9088 -0.3855
vn 0.1287 0.9417 0.3107
vn -0.1597 0.9088 0.3855
vn 0.1287 0.9417 -0.3107
vn -0.2950 0.9088 0.2950
vn 0.2378 0.9417 -0.2378
vn -0.6095 -0.5069 0.6095
vn -0.7964 -0.5069 0.3299
vn -0.6108 -0.7503 0.2530
vn -0.4675 -0.7503 0.4675
vn -0.8620 -0.5069 -0.0000
vn -0.6611 -0.7503 -0.0000
vn -0.7964 -0.5069 -0.3299
vn -0.6108 -0.7503 -0.2530
vn -0.6095 -0.5069 -0.6095
vn -0.4675 -0.7503 -0.4675
vn -0.3299 -0.5069 -0.7964
vn -0.2530 -0.7503 -0.6108
vn -0.3299 -0.5069 0.7964
vn -0.2530 -0.7503 0.6108
vn -0.1350 -0.9816 -0.1350
vn -0.1764 -0.9816 -0.0731
vn -0.0731 -0.9816 -0.1764
vn -0.0731 -0.9816 0.1764
vn -0.1350 -0.9816 0.1350
vn -0.1764 -0.9816 0.0731
vn -0.1909 -0.9816 -0.0000
vn -0.4276 -0.0000 -0.9040
vn -0.9808 -0.0000 -0.1951
vn -0.9808 -0.0000 0.1951
vn -0.8937 -0.0000 -0.4487
vn -0.8937 -0.0000 0.4487
vn -0.9534 -0.0000 -0.3016
vn 0.8987 -0.0000 0.4385
vn -0.4276 -0.0000 0.9040
vn 0.8987 -0.0000 -0.4385
vn -0.9534 -0.0000 0.3016
vt 0.000000 0.000000
s 1
usemtl Basic_silver_metalic_(med)
f 55/1/1 73/1/2 71/1/3 54/1/4
f 57/1/5 75/1/6 73/1/2 55/1/1
f 58/1/7 77/1/8 75/1/6 57/1/5
f 60/1/9 79/1/10 77/1/8 58/1/7
f 50/1/11 67/1/12 65/1/13 48/1/14
f 47/1/15 62/1/16 79/1/10 60/1/9
f 52/1/17 69/1/18 67/1/12 50/1/11
f 54/1/4 71/1/3 69/1/18 52/1/17
f 4/1/19 13/1/20 14/1/21 5/1/22
f 5/1/22 14/1/21 15/1/23 6/1/24
f 6/1/24 15/1/23 16/1/25 7/1/26
f 7/1/26 16/1/25 17/1/27 8/1/28
f 8/1/28 17/1/27 18/1/29 9/1/30
f 9/1/30 18/1/29 10/1/31 1/1/32
f 2/1/33 11/1/34 12/1/35 3/1/36
f 3/1/36 12/1/35 13/1/20 4/1/19
f 16/1/25 27/1/37 28/1/38 17/1/27
f 17/1/27 28/1/38 29/1/39 18/1/29
f 18/1/29 29/1/39 19/1/40 10/1/31
f 11/1/34 22/1/41 23/1/42 12/1/35
f 12/1/35 23/1/42 24/1/43 13/1/20
f 13/1/20 24/1/43 25/1/44 14/1/21
f 14/1/21 25/1/44 26/1/45 15/1/23
f 15/1/23 26/1/45 27/1/37 16/1/25
f 82/1/46 84/1/46 53/1/47 39/1/47
f 93/1/48 56/1/48 91/1/48 122/1/48 120/1/48
f 113/1/49 94/1/49 86/1/49 20/1/49 112/1/49
f 41/1/50 59/1/50 85/1/51 81/1/51
f 42/1/52 61/1/52 59/1/50 41/1/50
f 44/1/53 46/1/53 61/1/52 42/1/52
f 45/1/54 51/1/54 49/1/55 43/1/55
f 39/1/47 53/1/47 51/1/54 45/1/54
f 72/1/56 35/1/56 34/1/57 70/1/57
f 74/1/58 36/1/58 35/1/56 72/1/56
f 76/1/59 37/1/59 36/1/58 74/1/58
f 78/1/60 38/1/60 37/1/59 76/1/59
f 66/1/61 32/1/61 31/1/53 64/1/53
f 63/1/55 30/1/55 38/1/60 78/1/60
f 68/1/62 33/1/62 32/1/61 66/1/61
f 70/1/57 34/1/57 33/1/62 68/1/62
f 4/1/47 39/1/47 45/1/54 3/1/54
f 3/1/54 45/1/54 43/1/55 2/1/55
f 1/1/53 44/1/53 42/1/52 9/1/52
f 9/1/52 42/1/52 41/1/50 8/1/50
f 8/1/50 41/1/50 81/1/51 7/1/51
f 7/1/51 81/1/51 80/1/63 6/1/63
f 6/1/63 80/1/63 82/1/46 5/1/46
f 5/1/46 82/1/46 39/1/47 4/1/47
f 51/1/64 50/1/11 48/1/14 49/1/65
f 53/1/66 52/1/17 50/1/11 51/1/64
f 84/1/67 54/1/4 52/1/17 53/1/66
f 83/1/68 55/1/1 54/1/4 84/1/67
f 85/1/69 57/1/5 55/1/1 83/1/68
f 59/1/70 58/1/7 57/1/5 85/1/69
f 61/1/71 60/1/9 58/1/7 59/1/70
f 46/1/72 47/1/15 60/1/9 61/1/71
f 106/1/73 110/1/73 114/1/74 121/1/74
f 125/1/48 90/1/48 56/1/48 93/1/48 124/1/48
f 108/1/48 99/1/48 88/1/48 21/1/48 107/1/48
f 90/1/53 101/1/75 95/1/75 89/1/53
f 92/1/49 40/1/49 89/1/49 119/1/49 117/1/49
f 67/1/12 66/1/76 64/1/72 65/1/13
f 69/1/18 68/1/77 66/1/76 67/1/12
f 71/1/3 70/1/78 68/1/77 69/1/18
f 73/1/2 72/1/79 70/1/78 71/1/3
f 75/1/6 74/1/80 72/1/79 73/1/2
f 77/1/8 76/1/81 74/1/80 75/1/6
f 79/1/10 78/1/82 76/1/81 77/1/8
f 62/1/16 63/1/65 78/1/82 79/1/10
f 40/1/63 80/1/63 81/1/51 89/1/83
f 87/1/84 82/1/46 80/1/63 40/1/63
f 56/1/63 83/1/63 84/1/46 91/1/84
f 90/1/83 85/1/51 83/1/63 56/1/63
f 91/1/84 84/1/46 82/1/46 87/1/84
f 89/1/83 81/1/51 85/1/51 90/1/83
f 94/1/85 102/1/85 88/1/63 86/1/63
f 87/1/55 96/1/86 100/1/86 91/1/55
f 86/1/63 88/1/63 99/1/87 97/1/87
f 120/1/88 115/1/88 92/1/63 93/1/63
f 20/1/49 86/1/49 97/1/49 98/1/49 109/1/49
f 103/1/89 112/1/89 20/1/56 21/1/56
f 123/1/90 118/1/90 111/1/91 104/1/91
f 98/1/49 96/1/49 87/1/49 116/1/49 114/1/49 110/1/49
f 122/1/48 91/1/48 100/1/48 108/1/48 106/1/48 121/1/48
f 105/1/48 101/1/48 90/1/48 125/1/48 123/1/48 104/1/48
f 21/1/48 88/1/48 102/1/48 105/1/48 103/1/48
f 21/1/56 20/1/56 109/1/92 107/1/92
f 94/1/49 113/1/49 95/1/49
f 96/1/49 98/1/49 97/1/49
f 99/1/48 108/1/48 100/1/48
f 101/1/48 105/1/48 102/1/48
f 101/1/75 102/1/85 94/1/85 95/1/75
f 99/1/87 100/1/86 96/1/86 97/1/87
f 93/1/63 92/1/63 117/1/93 124/1/93
f 103/1/48 105/1/48 104/1/48
f 106/1/48 108/1/48 107/1/48
f 109/1/49 98/1/49 110/1/49
f 111/1/49 113/1/49 112/1/49
f 106/1/73 107/1/92 109/1/92 110/1/73
f 103/1/89 104/1/91 111/1/91 112/1/89
f 119/1/49 89/1/49 95/1/49 113/1/49 111/1/49 118/1/49
f 114/1/49 116/1/49 115/1/49
f 117/1/49 119/1/49 118/1/49
f 120/1/48 122/1/48 121/1/48
f 123/1/48 125/1/48 124/1/48
f 120/1/88 121/1/74 114/1/74 115/1/88
f 123/1/90 124/1/93 117/1/93 118/1/90
f 116/1/49 87/1/49 40/1/49 92/1/49 115/1/49
f 166/1/94 165/1/95 178/1/96 180/1/97
f 168/1/98 166/1/94 180/1/97 182/1/99
f 169/1/100 168/1/98 182/1/99 184/1/101
f 171/1/102 169/1/100 184/1/101 186/1/103
f 161/1/104 48/1/14 65/1/13 174/1/105
f 47/1/15 171/1/102 186/1/103 62/1/16
f 163/1/106 161/1/104 174/1/105 176/1/107
f 165/1/95 163/1/106 176/1/107 178/1/96
f 127/1/108 128/1/109 135/1/110 134/1/111
f 128/1/109 129/1/112 136/1/113 135/1/110
f 129/1/112 130/1/114 137/1/115 136/1/113
f 130/1/114 131/1/116 138/1/117 137/1/115
f 131/1/116 132/1/118 139/1/119 138/1/117
f 132/1/118 1/1/32 10/1/31 139/1/119
f 2/1/33 126/1/120 133/1/121 11/1/34
f 126/1/120 127/1/108 134/1/111 133/1/121
f 137/1/115 138/1/117 147/1/122 146/1/123
f 138/1/117 139/1/119 148/1/124 147/1/122
f 139/1/119 10/1/31 19/1/40 148/1/124
f 11/1/34 133/1/121 142/1/125 22/1/41
f 133/1/121 134/1/111 143/1/126 142/1/125
f 134/1/111 135/1/110 144/1/127 143/1/126
f 135/1/110 136/1/113 145/1/128 144/1/127
f 136/1/113 137/1/115 146/1/123 145/1/128
f 189/1/58 156/1/59 164/1/59 191/1/58
f 200/1/48 227/1/48 229/1/48 198/1/48 167/1/48
f 203/1/49 220/1/49 140/1/49 193/1/49 201/1/49
f 158/1/62 188/1/57 192/1/57 170/1/62
f 159/1/61 158/1/62 170/1/62 172/1/61
f 44/1/53 159/1/61 172/1/61 46/1/53
f 160/1/60 43/1/55 49/1/55 162/1/60
f 156/1/59 160/1/60 162/1/60 164/1/59
f 179/1/63 177/1/51 151/1/51 152/1/63
f 181/1/46 179/1/63 152/1/63 153/1/46
f 183/1/47 181/1/46 153/1/46 154/1/47
f 185/1/54 183/1/47 154/1/47 155/1/54
f 173/1/52 64/1/53 31/1/53 149/1/52
f 63/1/55 185/1/54 155/1/54 30/1/55
f 175/1/50 173/1/52 149/1/52 150/1/50
f 177/1/51 175/1/50 150/1/50 151/1/51
f 127/1/59 126/1/60 160/1/60 156/1/59
f 126/1/60 2/1/55 43/1/55 160/1/60
f 1/1/53 132/1/61 159/1/61 44/1/53
f 132/1/61 131/1/62 158/1/62 159/1/61
f 131/1/62 130/1/57 188/1/57 158/1/62
f 130/1/57 129/1/56 187/1/56 188/1/57
f 129/1/56 128/1/58 189/1/58 187/1/56
f 128/1/58 127/1/59 156/1/59 189/1/58
f 162/1/82 49/1/65 48/1/14 161/1/104
f 164/1/81 162/1/82 161/1/104 163/1/106
f 191/1/80 164/1/81 163/1/106 165/1/95
f 190/1/79 191/1/80 165/1/95 166/1/94
f 192/1/78 190/1/79 166/1/94 168/1/98
f 170/1/77 192/1/78 168/1/98 169/1/100
f 172/1/76 170/1/77 169/1/100 171/1/102
f 46/1/72 172/1/76 171/1/102 47/1/15
f 214/1/75 228/1/129 221/1/129 218/1/75
f 232/1/48 231/1/48 200/1/48 167/1/48 197/1/48
f 216/1/48 215/1/48 141/1/48 195/1/48 207/1/48
f 197/1/53 196/1/53 202/1/73 209/1/73
f 199/1/49 224/1/49 226/1/49 196/1/49 157/1/49
f 174/1/105 65/1/13 64/1/72 173/1/71
f 176/1/107 174/1/105 173/1/71 175/1/70
f 178/1/96 176/1/107 175/1/70 177/1/69
f 180/1/97 178/1/96 177/1/69 179/1/68
f 182/1/99 180/1/97 179/1/68 181/1/67
f 184/1/101 182/1/99 181/1/67 183/1/66
f 186/1/103 184/1/101 183/1/66 185/1/64
f 62/1/16 186/1/103 185/1/64 63/1/65
f 157/1/56 196/1/130 188/1/57 187/1/56
f 194/1/131 157/1/56 187/1/56 189/1/58
f 167/1/56 198/1/131 191/1/58 190/1/56
f 197/1/130 167/1/56 190/1/56 192/1/57
f 198/1/131 194/1/131 189/1/58 191/1/58
f 196/1/130 197/1/130 192/1/57 188/1/57
f 201/1/132 193/1/56 195/1/56 210/1/132
f 194/1/55 198/1/55 208/1/91 204/1/91
f 193/1/56 205/1/133 207/1/133 195/1/56
f 227/1/134 200/1/56 199/1/56 222/1/134
f 140/1/49 217/1/49 206/1/49 205/1/49 193/1/49
f 212/1/135 141/1/63 140/1/63 220/1/135
f 230/1/136 213/1/86 219/1/86 225/1/136
f 206/1/49 218/1/49 221/1/49 223/1/49 194/1/49 204/1/49
f 229/1/48 228/1/48 214/1/48 216/1/48 208/1/48 198/1/48
f 211/1/48 213/1/48 230/1/48 232/1/48 197/1/48 209/1/48
f 141/1/48 212/1/48 211/1/48 210/1/48 195/1/48
f 141/1/63 215/1/137 217/1/137 140/1/63
f 201/1/49 202/1/49 203/1/49
f 204/1/49 205/1/49 206/1/49
f 207/1/48 208/1/48 216/1/48
f 209/1/48 210/1/48 211/1/48
f 209/1/73 202/1/73 201/1/132 210/1/132
f 207/1/133 205/1/133 204/1/91 208/1/91
f 200/1/56 231/1/138 224/1/138 199/1/56
f 212/1/48 213/1/48 211/1/48
f 214/1/48 215/1/48 216/1/48
f 217/1/49 218/1/49 206/1/49
f 219/1/49 220/1/49 203/1/49
f 214/1/75 218/1/75 217/1/137 215/1/137
f 212/1/135 220/1/135 219/1/86 213/1/86
f 226/1/49 225/1/49 219/1/49 203/1/49 202/1/49 196/1/49
f 221/1/49 222/1/49 223/1/49
f 224/1/49 225/1/49 226/1/49
f 227/1/48 228/1/48 229/1/48
f 230/1/48 231/1/48 232/1/48
f 227/1/134 222/1/134 221/1/129 228/1/129
f 230/1/136 225/1/136 224/1/138 231/1/138
f 223/1/49 222/1/49 199/1/49 157/1/49 194/1/49
f 31/1/48 32/1/48 33/1/48 34/1/48 35/1/48 36/1/48 37/1/48 38/1/48 30/1/48 155/1/48 154/1/48 153/1/48 152/1/48 151/1/48 150/1/48 149/1/48
f 22/1/41 142/1/125 143/1/126 144/1/127 145/1/128 146/1/123 147/1/122 148/1/124 19/1/40 29/1/39 28/1/38 27/1/37 26/1/45 25/1/44 24/1/43 23/1/42
