# Blender 4.2.0
# www.blender.org
mtllib tomato.mtl
o Tomato_Whole
v 0.002702 0.742334 -0.016207
v 0.017993 0.742399 -0.009517
v 0.017716 0.669542 -0.000557
v -0.007046 0.854196 -0.013735
v 0.014241 0.851707 -0.005344
v -0.012844 0.742409 -0.009468
v -0.037347 0.845638 0.015066
v -0.018397 0.742590 0.005923
v -0.011712 0.742826 0.020137
v -0.019235 0.667156 0.014841
v -0.012223 0.666659 0.029233
v -0.007046 0.836886 0.044460
v 0.002664 0.742953 0.025752
v 0.023598 0.742606 0.005864
v 0.016843 0.742859 0.020216
v 0.017628 0.664868 0.030134
v 0.022759 0.669056 0.014770
v 0.014553 0.839473 0.035772
v -0.028334 0.851707 -0.005344
v -0.007046 0.853274 0.017515
v -0.028646 0.839473 0.035772
v 0.023255 0.845638 0.015066
v 0.103283 0.703227 -0.105488
v 0.120013 0.702955 -0.093235
v 0.186146 0.742013 -0.154004
v 0.131577 0.703227 -0.076505
v 0.071732 0.682296 -0.051300
v 0.040535 0.683357 -0.069384
v 0.091196 0.683357 -0.018034
v 0.048484 0.665925 -0.029180
v 0.002951 0.667761 -0.046781
v 0.066109 0.667868 0.016213
v 0.002565 0.672384 -0.005804
v -0.012261 0.671408 0.000390
v -0.041666 0.667596 -0.028044
v -0.060170 0.683150 -0.068700
v -0.010429 0.683150 -0.089658
v -0.072565 0.703253 -0.137365
v -0.040800 0.703253 -0.150523
v -0.084447 0.742013 -0.223847
v -0.061339 0.665483 0.016943
v -0.093819 0.683701 -0.024894
v -0.100193 0.681952 0.014135
v -0.170925 0.703361 -0.012094
v -0.173970 0.702821 0.014135
v -0.274103 0.742013 0.014135
v -0.171615 0.703361 0.038293
v -0.096579 0.683701 0.051783
v -0.041645 0.667469 0.061340
v 0.002490 0.665724 0.035394
v 0.002952 0.667594 0.079675
v -0.010265 0.683150 0.113868
v -0.051882 0.683150 0.096630
v -0.039557 0.703253 0.177967
v -0.067339 0.703253 0.166460
v -0.081213 0.742013 0.252116
v 0.048465 0.665803 0.062028
v 0.060241 0.683305 0.108424
v 0.084657 0.682348 0.088214
v 0.116570 0.703386 0.137027
v 0.131182 0.702796 0.131378
v 0.191190 0.742013 0.183480
v 0.145109 0.703386 0.120906
v 0.097279 0.683305 0.069316
v -0.169666 0.207486 0.312514
v -0.244388 0.207486 0.263755
v -0.152644 0.129731 0.257307
v -0.083797 0.207486 0.340234
v -0.081381 0.129731 0.287667
v 0.005289 0.129731 0.292633
v -0.175195 0.287432 0.336508
v -0.258289 0.287432 0.277656
v -0.086227 0.287432 0.371971
v -0.178049 0.381082 0.345580
v -0.263073 0.381082 0.282441
v -0.087527 0.381082 0.383820
v -0.175195 0.472744 0.336508
v -0.258289 0.472744 0.277656
v -0.086227 0.472744 0.371971
v -0.167667 0.553530 0.309105
v -0.235267 0.553530 0.254634
v -0.082780 0.553530 0.336508
v -0.148879 0.623248 0.251508
v -0.193980 0.623248 0.213347
v -0.078210 0.623248 0.277656
v -0.137748 0.664044 0.160526
v -0.232141 0.623248 0.168246
v -0.080472 0.666786 0.193244
v 0.005289 0.666085 0.209719
v -0.170466 0.667194 0.102067
v -0.258289 0.623248 0.097577
v -0.097902 0.681712 0.119524
v -0.121471 0.677315 0.014078
v -0.326214 0.553530 0.014078
v -0.317141 0.553530 0.102147
v -0.364454 0.472744 0.014078
v -0.352605 0.472744 -0.077438
v -0.364454 0.381082 -0.078738
v -0.326214 0.381082 -0.169260
v -0.317141 0.287432 -0.166406
v -0.258289 0.287432 -0.249500
v -0.244388 0.207486 -0.235599
v -0.169666 0.207486 -0.284359
v -0.175195 0.287432 -0.308353
v -0.263073 0.381082 -0.254285
v -0.178049 0.381082 -0.317425
v -0.258289 0.472744 -0.249500
v -0.175195 0.472744 -0.308353
v -0.235267 0.553530 -0.226478
v -0.167667 0.553530 -0.280950
v -0.193980 0.623248 -0.185191
v -0.148879 0.623248 -0.223352
v -0.232141 0.623248 -0.140090
v -0.137748 0.668026 -0.128959
v -0.258289 0.623248 -0.069421
v -0.170466 0.667194 -0.071683
v -0.263073 0.623248 0.014078
v -0.186941 0.666493 0.014078
v -0.097902 0.681712 -0.089141
v -0.080472 0.667194 -0.161677
v -0.078210 0.623248 -0.249500
v 0.005289 0.623248 -0.254285
v -0.082780 0.553530 -0.308353
v 0.005289 0.553530 -0.317425
v 0.005289 0.472744 -0.355665
v -0.086227 0.472744 -0.343816
v 0.096805 0.472744 -0.343816
v 0.093358 0.553530 -0.308353
v 0.088788 0.623248 -0.249500
v 0.005289 0.666493 -0.178152
v 0.091050 0.667194 -0.161677
v 0.005316 0.677316 -0.112709
v 0.108535 0.681712 -0.089141
v 0.148326 0.668026 -0.128959
v 0.181044 0.667194 -0.071683
v 0.132104 0.677316 0.014078
v 0.197519 0.666493 0.014078
v 0.268867 0.623248 -0.069421
v 0.273652 0.623248 0.014078
v 0.242719 0.623248 -0.140090
v 0.159457 0.623248 -0.223352
v 0.204558 0.623248 -0.185191
v 0.178245 0.553530 -0.280950
v 0.245845 0.553530 -0.226478
v 0.268867 0.472744 -0.249500
v 0.185773 0.472744 -0.308353
v 0.188627 0.381082 -0.317425
v 0.098105 0.381082 -0.355665
v 0.005289 0.381082 -0.368455
v -0.087527 0.381082 -0.355665
v 0.273652 0.381082 -0.254285
v -0.086227 0.287432 -0.343816
v 0.005289 0.287432 -0.355665
v 0.096805 0.287432 -0.343816
v 0.185773 0.287432 -0.308353
v 0.268867 0.287432 -0.249500
v -0.083797 0.207486 -0.312078
v 0.005289 0.207486 -0.321256
v 0.094376 0.207486 -0.312078
v 0.180244 0.207486 -0.284359
v 0.254966 0.207486 -0.235599
v -0.081381 0.129731 -0.259512
v -0.152644 0.129731 -0.229151
v -0.205610 0.129731 -0.196821
v 0.005289 0.129731 -0.264478
v 0.091959 0.129731 -0.259512
v 0.163223 0.129731 -0.229151
v -0.144939 0.069653 -0.136150
v -0.237940 0.129731 -0.143856
v -0.086125 0.069854 -0.173261
v 0.096703 0.069854 -0.173261
v 0.005289 0.069854 -0.192829
v 0.248518 0.129731 -0.143856
v -0.182050 0.069854 -0.077336
v -0.268300 0.129731 -0.072592
v -0.079078 0.039997 -0.070289
v 0.089656 0.039997 -0.070289
v 0.005289 0.031298 -0.082263
v 0.192628 0.069854 -0.077336
v 0.278878 0.129731 -0.072592
v -0.273266 0.129731 0.014078
v -0.091052 0.031298 0.014078
v 0.005289 0.025281 0.014078
v 0.212196 0.069854 0.014078
v 0.283844 0.129731 0.014078
v 0.331445 0.207486 -0.075009
v 0.303725 0.207486 -0.160877
v 0.340622 0.207486 0.014078
v 0.327720 0.287432 -0.166406
v 0.363183 0.287432 -0.077438
v 0.375032 0.287433 0.014078
v 0.331445 0.207486 0.103164
v 0.278878 0.129731 0.100748
v 0.192628 0.069854 0.105492
v 0.101630 0.031298 0.014078
v 0.089656 0.039997 0.098444
v 0.005289 0.031298 0.110419
v 0.096703 0.069854 0.201416
v 0.005289 0.069854 0.220984
v 0.155517 0.069653 0.164305
v 0.248518 0.129731 0.172011
v 0.091959 0.129731 0.287667
v 0.094376 0.207486 0.340234
v 0.005289 0.207486 0.349411
v 0.180244 0.207486 0.312514
v 0.163223 0.129731 0.257307
v 0.254966 0.207486 0.263755
v 0.216188 0.129731 0.224977
v 0.096805 0.287432 0.371971
v 0.005289 0.287432 0.383820
v 0.185773 0.287433 0.336508
v 0.268867 0.287432 0.277656
v 0.098105 0.381082 0.383820
v 0.005289 0.381082 0.396610
v 0.188627 0.381082 0.345580
v 0.273652 0.381082 0.282441
v 0.096805 0.472744 0.371971
v 0.005289 0.472744 0.383820
v 0.185773 0.472744 0.336508
v 0.268867 0.472744 0.277656
v 0.093358 0.553530 0.336508
v 0.005289 0.553530 0.345580
v 0.178245 0.553530 0.309105
v 0.245845 0.553530 0.254634
v 0.088788 0.623248 0.277656
v 0.005289 0.623248 0.282441
v 0.159457 0.623248 0.251508
v 0.204558 0.623248 0.213347
v 0.091050 0.666786 0.193244
v 0.148326 0.664044 0.160526
v 0.242719 0.623248 0.168246
v 0.108535 0.681712 0.119524
v 0.005316 0.677316 0.143093
v 0.181044 0.667194 0.102067
v 0.268867 0.623248 0.097577
v 0.327720 0.553530 0.102147
v 0.336792 0.553530 0.014078
v 0.363183 0.472744 0.105594
v 0.375032 0.472744 0.014078
v 0.375032 0.381082 0.106894
v 0.387822 0.381082 0.014078
v 0.363183 0.287432 0.105594
v 0.303725 0.207486 0.189032
v 0.327720 0.287432 0.194562
v 0.375032 0.381082 -0.078738
v 0.336792 0.381082 -0.169260
v 0.336792 0.381082 0.197416
v 0.327720 0.472744 -0.166406
v 0.363183 0.472744 -0.077438
v 0.327720 0.472744 0.194562
v 0.300316 0.553530 -0.158878
v 0.327720 0.553530 -0.073991
v 0.300316 0.553530 0.187034
v -0.045817 0.656773 0.014078
v -0.036472 0.658125 0.055839
v -0.061472 0.670621 0.080839
v 0.056383 0.656773 0.014078
v 0.005289 0.644308 0.014078
v 0.005283 0.656774 0.065178
v 0.047050 0.658125 0.055839
v 0.005283 0.665499 0.095974
v 0.072050 0.670621 0.080839
v 0.005283 0.656773 -0.037022
v -0.036472 0.658125 -0.027683
v 0.005283 0.665499 -0.067817
v -0.061472 0.670621 -0.052683
v -0.076612 0.665500 0.014078
v 0.047050 0.658125 -0.027683
v 0.087179 0.665500 0.014078
v 0.072050 0.670621 -0.052683
v -0.182050 0.069854 0.105492
v -0.268300 0.129731 0.100748
v -0.201617 0.069854 0.014078
v -0.079078 0.039997 0.098444
v -0.237940 0.129731 0.172011
v -0.086125 0.069854 0.201416
v -0.320867 0.207486 0.103164
v -0.293147 0.207486 0.189032
v -0.317141 0.287432 0.194562
v -0.352605 0.287432 0.105594
v -0.330044 0.207486 0.014078
v -0.364454 0.287433 0.014078
v -0.320867 0.207486 -0.075009
v -0.293147 0.207486 -0.160877
v -0.352605 0.287432 -0.077438
v -0.377244 0.381082 0.014078
v -0.364454 0.381082 0.106894
v -0.326214 0.381082 0.197416
v -0.352605 0.472744 0.105594
v -0.317141 0.472744 0.194562
v -0.289738 0.553530 0.187034
v -0.317141 0.472744 -0.166406
v -0.289738 0.553530 -0.158878
v -0.317141 0.553530 -0.073991
vn 0.0108 -0.0571 -0.9983
vn 0.7214 -0.0183 -0.6923
vn 0.5132 0.7784 -0.3615
vn -0.0131 0.6735 -0.7391
vn 0.5954 0.6420 -0.4831
vn -0.7041 -0.0931 -0.7040
vn -0.8817 0.4613 0.0992
vn -0.9950 -0.0986 0.0156
vn -0.6860 -0.0759 0.7236
vn -0.5881 0.8029 0.0972
vn -0.3685 0.8195 0.4389
vn -0.0161 0.3287 0.9443
vn 0.0135 -0.0361 0.9993
vn 0.9999 0.0038 0.0143
vn 0.7015 0.0022 0.7126
vn 0.2582 0.8592 0.4418
vn 0.6330 0.7691 0.0883
vn 0.5838 0.4053 0.7035
vn -0.6265 0.5995 -0.4980
vn -0.0000 0.9588 0.2842
vn -0.6250 0.3477 0.6989
vn 0.8393 0.5310 0.1170
vn -0.1911 0.9362 0.2948
vn -0.2568 0.9337 0.2497
vn -0.2858 0.9170 0.2784
vn -0.2956 0.9379 0.1815
vn -0.2566 0.9306 0.2611
vn -0.1549 0.9140 0.3749
vn -0.3604 0.9207 0.1497
vn -0.1560 0.9738 0.1655
vn 0.0245 0.9905 0.1354
vn -0.1490 0.9887 0.0150
vn -0.0203 0.6846 -0.7286
vn -0.5889 0.6898 -0.4212
vn 0.0732 0.9886 0.1314
vn 0.1182 0.9518 0.2830
vn 0.1179 0.9526 0.2805
vn 0.1312 0.9398 0.3157
vn 0.1329 0.9378 0.3208
vn 0.1596 0.9088 0.3854
vn 0.2061 0.9785 0.0009
vn 0.3068 0.9444 0.1180
vn 0.3235 0.9462 0.0106
vn 0.3072 0.9497 0.0610
vn 0.3215 0.9469 0.0022
vn 0.3645 0.9312 0.0047
vn 0.3088 0.9495 -0.0549
vn 0.3155 0.9432 -0.1045
vn 0.1141 0.9795 -0.1658
vn 0.0240 0.8406 0.5411
vn 0.0422 0.9781 -0.2040
vn 0.1270 0.9425 -0.3092
vn 0.1303 0.9403 -0.3145
vn 0.1314 0.9392 -0.3173
vn 0.1294 0.9411 -0.3123
vn 0.1596 0.9088 -0.3854
vn -0.1423 0.9807 -0.1339
vn -0.1733 0.9382 -0.2998
vn -0.2406 0.9454 -0.2197
vn -0.1271 0.9180 -0.3757
vn -0.1888 0.9159 -0.3542
vn -0.2318 0.8866 -0.4003
vn -0.2587 0.9262 -0.2744
vn -0.2960 0.9466 -0.1276
vn -0.3932 -0.4479 0.8030
vn -0.6417 -0.4326 0.6333
vn -0.3783 -0.7107 0.5931
vn -0.1912 -0.4701 0.8617
vn -0.1699 -0.6874 0.7062
vn -0.0060 -0.6864 0.7272
vn -0.4655 -0.1900 0.8644
vn -0.7032 -0.1621 0.6923
vn -0.2364 -0.2387 0.9419
vn -0.4900 0.0065 0.8717
vn -0.7071 0.0008 0.7071
vn -0.2601 0.0048 0.9656
vn -0.4602 0.2181 0.8606
vn -0.6925 0.2189 0.6874
vn -0.2409 0.2639 0.9340
vn -0.4084 0.4912 0.7694
vn -0.6191 0.5013 0.6045
vn -0.1808 0.5198 0.8349
vn -0.3264 0.7713 0.5465
vn -0.4523 0.7711 0.4482
vn -0.1322 0.7668 0.6281
vn -0.2726 0.9221 0.2748
vn -0.5503 0.7686 0.3261
vn -0.1192 0.9372 0.3279
vn 0.0062 0.9338 0.3577
vn -0.3227 0.9391 0.1185
vn -0.6230 0.7695 0.1404
vn -0.0535 0.9970 0.0565
vn 0.0090 1.0000 0.0022
vn -0.8382 0.5453 -0.0069
vn -0.8295 0.5286 0.1805
vn -0.9602 0.2792 -0.0038
vn -0.9340 0.2639 -0.2409
vn -0.9656 0.0048 -0.2601
vn -0.8717 0.0065 -0.4900
vn -0.8644 -0.1900 -0.4655
vn -0.6923 -0.1621 -0.7032
vn -0.6386 -0.4126 -0.6496
vn -0.4015 -0.4277 -0.8099
vn -0.4618 -0.1975 -0.8647
vn -0.7071 0.0008 -0.7071
vn -0.4900 -0.0044 -0.8717
vn -0.6874 0.2189 -0.6925
vn -0.4723 0.2211 -0.8533
vn -0.6045 0.5013 -0.6191
vn -0.4223 0.4946 -0.7596
vn -0.3114 0.8964 -0.3153
vn -0.3203 0.7744 -0.5456
vn -0.5406 0.7784 -0.3191
vn -0.1843 0.9654 -0.1843
vn -0.6142 0.7788 -0.1274
vn -0.3391 0.9325 -0.1241
vn -0.6269 0.7790 -0.0109
vn -0.3486 0.9372 -0.0061
vn -0.0674 0.9956 -0.0649
vn -0.1241 0.9325 -0.3391
vn -0.1371 0.7781 -0.6129
vn -0.0019 0.7790 -0.6270
vn -0.1805 0.5286 -0.8295
vn 0.0069 0.5453 -0.8382
vn 0.0038 0.2792 -0.9602
vn -0.2356 0.2578 -0.9370
vn 0.2409 0.2639 -0.9340
vn 0.1808 0.5198 -0.8349
vn 0.1310 0.7707 -0.6235
vn -0.0057 0.9372 -0.3486
vn 0.1011 0.9396 -0.3269
vn 0.0092 0.9999 0.0088
vn 0.0384 0.9984 -0.0408
vn 0.2579 0.9311 -0.2579
vn 0.3270 0.9396 -0.1011
vn -0.0090 1.0000 -0.0018
vn 0.3484 0.9373 0.0049
vn 0.6222 0.7701 -0.1407
vn 0.6271 0.7789 0.0107
vn 0.5554 0.7656 -0.3246
vn 0.3234 0.7697 -0.5504
vn 0.4588 0.7630 -0.4553
vn 0.4084 0.4912 -0.7694
vn 0.6191 0.5013 -0.6045
vn 0.6925 0.2189 -0.6874
vn 0.4602 0.2181 -0.8606
vn 0.4900 0.0065 -0.8717
vn 0.2601 0.0048 -0.9656
vn -0.0000 0.0014 -1.0000
vn -0.2601 -0.0022 -0.9656
vn 0.7071 0.0008 -0.7071
vn -0.2419 -0.2452 -0.9388
vn -0.0039 -0.2611 -0.9653
vn 0.2364 -0.2388 -0.9419
vn 0.4655 -0.1900 -0.8644
vn 0.7032 -0.1621 -0.6923
vn -0.1875 -0.4576 -0.8692
vn -0.0074 -0.4860 -0.8739
vn 0.1912 -0.4701 -0.8617
vn 0.4067 -0.4638 -0.7870
vn 0.6136 -0.4685 -0.6357
vn -0.1647 -0.6823 -0.7123
vn -0.3364 -0.6990 -0.6310
vn -0.5037 -0.6980 -0.5090
vn 0.0060 -0.6864 -0.7272
vn 0.1699 -0.6873 -0.7062
vn 0.4110 -0.6905 -0.5953
vn -0.3263 -0.8871 -0.3263
vn -0.6393 -0.6961 -0.3266
vn -0.1793 -0.8832 -0.4333
vn 0.2022 -0.8852 -0.4190
vn 0.0203 -0.8694 -0.4938
vn 0.5799 -0.7121 -0.3958
vn -0.4333 -0.8832 -0.1793
vn -0.7134 -0.6767 -0.1819
vn -0.1716 -0.9701 -0.1716
vn 0.1918 -0.9625 -0.1918
vn 0.0043 -0.9789 -0.2043
vn 0.4190 -0.8852 -0.2022
vn 0.7049 -0.6927 -0.1526
vn -0.7271 -0.6864 0.0156
vn -0.2043 -0.9789 0.0043
vn -0.0000 -1.0000 -0.0000
vn 0.4938 -0.8694 -0.0203
vn 0.7271 -0.6863 -0.0156
vn 0.8692 -0.4576 -0.1875
vn 0.8099 -0.4277 -0.4015
vn 0.8739 -0.4860 -0.0074
vn 0.8647 -0.1975 -0.4618
vn 0.9388 -0.2452 -0.2419
vn 0.9653 -0.2611 -0.0039
vn 0.8617 -0.4701 0.1912
vn 0.7134 -0.6767 0.1819
vn 0.4333 -0.8832 0.1793
vn 0.2043 -0.9789 -0.0043
vn 0.1716 -0.9701 0.1716
vn -0.0043 -0.9789 0.2043
vn 0.1793 -0.8832 0.4333
vn -0.0203 -0.8694 0.4938
vn 0.3263 -0.8872 0.3263
vn 0.6393 -0.6961 0.3266
vn 0.1647 -0.6823 0.7123
vn 0.1875 -0.4576 0.8692
vn 0.0074 -0.4860 0.8739
vn 0.4015 -0.4277 0.8099
vn 0.3364 -0.6990 0.6310
vn 0.6386 -0.4126 0.6496
vn 0.5037 -0.6980 0.5090
vn 0.2419 -0.2452 0.9388
vn 0.0039 -0.2611 0.9653
vn 0.4618 -0.1975 0.8647
vn 0.6923 -0.1621 0.7032
vn 0.2601 -0.0022 0.9656
vn -0.0000 0.0014 1.0000
vn 0.4900 -0.0044 0.8717
vn 0.7071 0.0008 0.7071
vn 0.2356 0.2578 0.9370
vn -0.0038 0.2792 0.9602
vn 0.4723 0.2211 0.8533
vn 0.6874 0.2189 0.6925
vn 0.1805 0.5286 0.8295
vn -0.0069 0.5453 0.8382
vn 0.4223 0.4946 0.7596
vn 0.6045 0.5013 0.6191
vn 0.1408 0.7767 0.6139
vn 0.0023 0.7744 0.6327
vn 0.3164 0.7809 0.5387
vn 0.3114 0.8964 0.3153
vn 0.1489 0.9248 0.3502
vn 0.2442 0.9377 0.2471
vn 0.5321 0.7866 0.3132
vn 0.0692 0.9953 0.0673
vn -0.0091 1.0000 -0.0020
vn 0.3449 0.9269 0.1482
vn 0.6119 0.7802 0.1299
vn 0.8349 0.5198 0.1808
vn 0.8382 0.5453 0.0069
vn 0.9340 0.2639 0.2409
vn 0.9602 0.2792 0.0038
vn 0.9656 0.0048 0.2601
vn 1.0000 0.0014 -0.0000
vn 0.9419 -0.2388 0.2364
vn 0.8047 -0.4460 0.3919
vn 0.8644 -0.1900 0.4655
vn 0.9656 -0.0022 -0.2601
vn 0.8717 -0.0044 -0.4900
vn 0.8717 0.0065 0.4900
vn 0.8533 0.2211 -0.4723
vn 0.9370 0.2578 -0.2356
vn 0.8606 0.2181 0.4602
vn 0.7596 0.4946 -0.4223
vn 0.8295 0.5286 -0.1805
vn 0.7694 0.4912 0.4084
vn 0.2464 0.9688 0.0257
vn 0.1954 0.9561 -0.2183
vn 0.1852 0.9685 -0.1665
vn -0.2464 0.9688 -0.0257
vn -0.0000 1.0000 -0.0000
vn -0.0052 0.9691 -0.2465
vn -0.1807 0.9708 -0.1577
vn -0.0033 0.9666 -0.2562
vn -0.1682 0.9688 -0.1819
vn 0.0052 0.9691 0.2465
vn 0.1807 0.9708 0.1577
vn 0.0034 0.9649 0.2625
vn 0.1704 0.9677 0.1860
vn 0.2626 0.9649 -0.0034
vn -0.1954 0.9561 0.2183
vn -0.2621 0.9650 0.0039
vn -0.1859 0.9677 0.1703
vn -0.4190 -0.8852 0.2022
vn -0.7049 -0.6927 0.1526
vn -0.4938 -0.8694 0.0203
vn -0.1918 -0.9625 0.1918
vn -0.5836 -0.7157 0.3836
vn -0.2022 -0.8852 0.4190
vn -0.8692 -0.4576 0.1875
vn -0.8099 -0.4277 0.4015
vn -0.8647 -0.1975 0.4618
vn -0.9388 -0.2452 0.2419
vn -0.8739 -0.4860 0.0074
vn -0.9653 -0.2611 0.0039
vn -0.8617 -0.4701 -0.1912
vn -0.8047 -0.4460 -0.3919
vn -0.9419 -0.2388 -0.2364
vn -1.0000 0.0014 -0.0000
vn -0.9656 -0.0022 0.2601
vn -0.8717 -0.0044 0.4900
vn -0.9370 0.2578 0.2356
vn -0.8533 0.2211 0.4723
vn -0.7596 0.4946 0.4223
vn -0.8606 0.2181 -0.4602
vn -0.7694 0.4912 -0.4084
vn -0.8349 0.5198 -0.1808
vt 0.598956 0.621414
vt 0.598399 0.632912
vt 0.547006 0.632717
vt 0.549624 0.621402
vt 0.677305 0.620415
vt 0.674608 0.636307
vt 0.676789 0.604253
vt 0.599216 0.609602
vt 0.672917 0.588477
vt 0.598747 0.597904
vt 0.666880 0.573287
vt 0.597459 0.586536
vt 0.544010 0.599294
vt 0.542238 0.588169
vt 0.660539 0.558144
vt 0.595478 0.575744
vt 0.597832 0.644272
vt 0.669998 0.651886
vt 0.597291 0.655471
vt 0.541043 0.655175
vt 0.545392 0.644095
vt 0.665341 0.667595
vt 0.596578 0.666256
vt 0.662004 0.683732
vt 0.548467 0.610094
vt 0.540804 0.577031
vt 0.541230 0.666587
vt 0.690322 0.611179
vt 0.706119 0.613753
vt 0.695081 0.631595
vt 0.715573 0.626786
vt 0.712977 0.642762
vt 0.699771 0.652129
vt 0.683891 0.649376
vt 0.896999 0.853028
vt 0.911546 0.842374
vt 0.969045 0.895211
vt 0.921600 0.827828
vt 0.869567 0.805914
vt 0.842443 0.821637
vt 0.886490 0.776990
vt 0.849486 0.787984
vt 0.809758 0.803343
vt 0.864845 0.748256
vt 0.822603 0.761808
vt 0.809430 0.766377
vt 0.796539 0.760994
vt 0.770806 0.787208
vt 0.754885 0.821042
vt 0.798132 0.839265
vt 0.744108 0.880744
vt 0.771726 0.892184
vt 0.733777 0.955935
vt 0.790475 0.748424
vt 0.753575 0.748256
vt 0.725628 0.782955
vt 0.720087 0.749022
vt 0.658589 0.771826
vt 0.655941 0.749022
vt 0.568880 0.749022
vt 0.657989 0.728017
vt 0.723229 0.716288
vt 0.770806 0.709304
vt 0.796572 0.735907
vt 0.809365 0.730547
vt 0.809758 0.693169
vt 0.798275 0.662308
vt 0.762091 0.677296
vt 0.772807 0.606577
vt 0.748652 0.616582
vt 0.736589 0.542108
vt 0.822527 0.735118
vt 0.849486 0.708528
vt 0.859576 0.667042
vt 0.880805 0.684613
vt 0.908552 0.642173
vt 0.921256 0.647084
vt 0.973430 0.601784
vt 0.933365 0.656189
vt 0.891779 0.701044
vt 0.826988 0.748479
vt 0.912813 0.098886
vt 0.884720 0.116732
vt 0.884616 0.067547
vt 0.932835 0.139343
vt 0.896169 0.151104
vt 0.972690 0.122795
vt 0.943818 0.076686
vt 0.903090 0.187338
vt 0.861076 0.159295
vt 0.861857 0.191155
vt 0.944694 0.181400
vt 0.990032 0.172532
vt 0.905452 0.224074
vt 0.862249 0.224302
vt 0.948757 0.223709
vt 0.996032 0.223292
vt 0.903544 0.260935
vt 0.862075 0.257566
vt 0.945368 0.266121
vt 0.990795 0.274027
vt 0.897097 0.297651
vt 0.861478 0.289767
vt 0.934376 0.308591
vt 0.974586 0.323745
vt 0.886117 0.333126
vt 0.860958 0.321059
vt 0.915694 0.350363
vt 0.948045 0.370178
vt 0.860547 0.360363
vt 0.835370 0.332467
vt 0.888808 0.385905
vt 0.919176 0.409203
vt 0.831871 0.385632
vt 0.804957 0.349200
vt 0.860293 0.412622
vt 0.902232 0.434206
vt 0.801226 0.409095
vt 0.771555 0.369338
vt 0.818238 0.434138
vt 0.740799 0.316761
vt 0.786739 0.305294
vt 0.740863 0.265643
vt 0.700446 0.263024
vt 0.701728 0.224413
vt 0.662006 0.224561
vt 0.660657 0.189369
vt 0.620389 0.192138
vt 0.620372 0.160577
vt 0.584891 0.153460
vt 0.580128 0.189386
vt 0.620418 0.224643
vt 0.578832 0.224588
vt 0.620440 0.257212
vt 0.580052 0.259846
vt 0.620454 0.289017
vt 0.584655 0.296017
vt 0.620466 0.320249
vt 0.594917 0.331977
vt 0.646015 0.331957
vt 0.620475 0.359739
vt 0.676385 0.348942
vt 0.649141 0.385318
vt 0.709772 0.369320
vt 0.679763 0.409037
vt 0.620465 0.412300
vt 0.662556 0.434037
vt 0.591810 0.385337
vt 0.561175 0.409063
vt 0.578369 0.434049
vt 0.564532 0.348986
vt 0.531134 0.369392
vt 0.545985 0.305162
vt 0.499991 0.316828
vt 0.499990 0.265681
vt 0.540419 0.263066
vt 0.459555 0.263080
vt 0.454018 0.305180
vt 0.468856 0.369433
vt 0.435459 0.349023
vt 0.438790 0.409141
vt 0.408164 0.385387
vt 0.421531 0.434124
vt 0.379443 0.412327
vt 0.379508 0.359776
vt 0.350812 0.385345
vt 0.337330 0.434029
vt 0.320166 0.409040
vt 0.323587 0.348972
vt 0.290190 0.369340
vt 0.353970 0.331991
vt 0.405086 0.332010
vt 0.379537 0.320282
vt 0.415344 0.296044
vt 0.379543 0.289050
vt 0.379535 0.257248
vt 0.419936 0.259872
vt 0.421108 0.224615
vt 0.460846 0.224474
vt 0.499968 0.224381
vt 0.539103 0.224460
vt 0.379522 0.224682
vt 0.540526 0.185833
vt 0.499944 0.182900
vt 0.459348 0.185849
vt 0.419767 0.189416
vt 0.379492 0.192183
vt 0.546434 0.143694
vt 0.499902 0.130834
vt 0.453389 0.143713
vt 0.414926 0.153496
vt 0.379463 0.160628
vt 0.566432 0.100640
vt 0.595540 0.118299
vt 0.620363 0.129936
vt 0.534195 0.077649
vt 0.433322 0.100665
vt 0.465561 0.077641
vt 0.404233 0.118344
vt 0.620361 0.092466
vt 0.645185 0.118308
vt 0.595156 0.068215
vt 0.571090 0.041901
vt 0.404555 0.068266
vt 0.428602 0.041929
vt 0.354147 0.068332
vt 0.354599 0.118387
vt 0.645575 0.068234
vt 0.674268 0.100664
vt 0.620372 0.043859
vt 0.602335 0.020441
vt 0.379324 0.043942
vt 0.397346 0.020525
vt 0.325520 0.100773
vt 0.669636 0.041942
vt 0.706486 0.077710
vt 0.638436 0.020474
vt 0.620414 0.002068
vt 0.361273 0.020571
vt 0.379311 0.002173
vt 0.330082 0.042072
vt 0.293304 0.077868
vt 0.305611 0.143776
vt 0.344004 0.153526
vt 0.259272 0.130926
vt 0.339234 0.189427
vt 0.299669 0.185849
vt 0.259142 0.182864
vt 0.212917 0.143453
vt 0.193393 0.100422
vt 0.225606 0.077841
vt 0.189193 0.042084
vt 0.165162 0.068009
vt 0.158283 0.020639
vt 0.140309 0.043749
vt 0.140371 0.002361
vt 0.122428 0.020604
vt 0.115360 0.067661
vt 0.091634 0.041916
vt 0.140023 0.091760
vt 0.164323 0.117651
vt 0.087198 0.098980
vt 0.056196 0.076800
vt 0.067188 0.139405
vt 0.027352 0.122861
vt 0.103839 0.151166
vt 0.115271 0.116817
vt 0.138893 0.159361
vt 0.139534 0.128820
vt 0.055324 0.181427
vt 0.010009 0.172542
vt 0.096894 0.187377
vt 0.138107 0.191206
vt 0.051223 0.223709
vt 0.003968 0.223259
vt 0.094513 0.224097
vt 0.137689 0.224339
vt 0.054577 0.266111
vt 0.009146 0.273986
vt 0.096388 0.260947
vt 0.137865 0.257595
vt 0.065540 0.308584
vt 0.025327 0.323722
vt 0.102827 0.297660
vt 0.138442 0.289789
vt 0.084217 0.350362
vt 0.051866 0.370171
vt 0.113791 0.333135
vt 0.138951 0.321078
vt 0.111099 0.385904
vt 0.080742 0.409191
vt 0.139358 0.360379
vt 0.164544 0.332493
vt 0.139619 0.412609
vt 0.097708 0.434156
vt 0.168030 0.385660
vt 0.194966 0.349239
vt 0.198676 0.409147
vt 0.181645 0.434165
vt 0.228377 0.369393
vt 0.213199 0.305333
vt 0.259157 0.316806
vt 0.218601 0.263125
vt 0.259079 0.265692
vt 0.219889 0.224378
vt 0.259074 0.224348
vt 0.218561 0.185623
vt 0.174461 0.152822
vt 0.178828 0.188909
vt 0.298203 0.224470
vt 0.337923 0.224612
vt 0.179926 0.224417
vt 0.339138 0.259871
vt 0.299507 0.263072
vt 0.178770 0.260002
vt 0.343737 0.296028
vt 0.305073 0.305164
vt 0.174444 0.296411
vt 0.859925 0.518993
vt 0.842316 0.492157
vt 0.860122 0.475664
vt 0.877823 0.492292
vt 0.860212 0.443836
vt 0.890626 0.457020
vt 0.829754 0.456926
vt 0.157448 0.492179
vt 0.139701 0.518956
vt 0.121931 0.492190
vt 0.139683 0.475631
vt 0.109256 0.456948
vt 0.139653 0.443819
vt 0.170080 0.456955
vt 0.602739 0.492049
vt 0.620480 0.475467
vt 0.638247 0.492004
vt 0.620559 0.518831
vt 0.590024 0.456807
vt 0.620476 0.443612
vt 0.650921 0.456790
vt 0.379372 0.475515
vt 0.397120 0.492090
vt 0.379356 0.518886
vt 0.361602 0.492065
vt 0.348949 0.456812
vt 0.379412 0.443656
vt 0.409850 0.456884
vt 0.834786 0.067901
vt 0.806541 0.100320
vt 0.774309 0.077725
vt 0.810747 0.041969
vt 0.859631 0.043629
vt 0.841641 0.020518
vt 0.877512 0.020466
vt 0.859561 0.002225
vt 0.908339 0.041778
vt 0.835629 0.117561
vt 0.787012 0.143363
vt 0.825490 0.152745
vt 0.821117 0.188847
vt 0.781383 0.185551
vt 0.740625 0.130814
vt 0.740776 0.182787
vt 0.694249 0.143686
vt 0.655833 0.153456
vt 0.700234 0.185778
vt 0.740870 0.224287
vt 0.780047 0.224321
vt 0.820021 0.224367
vt 0.781351 0.263078
vt 0.821164 0.259963
vt 0.825488 0.296379
vt 0.660828 0.259829
vt 0.656245 0.295990
vt 0.694892 0.305124
s 1
usemtl Tomato
f 1/1/1 2/2/2 3/3/3
f 33/4/33 1/1/1 3/3/3
f 1/1/1 4/5/4 2/2/2
f 4/5/4 5/6/5 2/2/2
f 19/7/19 4/5/4 1/1/1
f 6/8/6 19/7/19 1/1/1
f 6/8/6 1/1/1 33/4/33
f 7/9/7 19/7/19 6/8/6
f 8/10/8 7/9/7 6/8/6
f 21/11/21 7/9/7 8/10/8
f 9/12/9 21/11/21 8/10/8
f 9/12/9 8/10/8 10/13/10
f 11/14/11 9/12/9 10/13/10
f 12/15/12 21/11/21 9/12/9
f 13/16/13 12/15/12 9/12/9
f 13/16/13 9/12/9 11/14/11
f 2/2/2 5/6/5 14/17/14
f 5/6/5 22/18/22 14/17/14
f 14/17/14 22/18/22 15/19/15
f 14/17/14 15/19/15 16/20/16
f 17/21/17 14/17/14 16/20/16
f 22/18/22 18/22/18 15/19/15
f 15/19/15 18/22/18 13/23/13
f 18/22/18 12/24/12 13/23/13
f 10/13/10 8/10/8 34/25/34
f 8/10/8 6/8/6 34/25/34
f 34/25/34 6/8/6 33/4/33
f 50/26/50 13/16/13 11/14/11
f 15/19/15 13/23/13 50/27/50
f 16/20/16 15/19/15 50/27/50
f 2/2/2 14/17/14 17/21/17
f 3/3/3 2/2/2 17/21/17
f 19/28/19 7/29/7 20/30/20
f 4/5/4 19/28/19 20/30/20
f 7/29/7 21/31/21 20/30/20
f 21/31/21 12/32/12 20/30/20
f 12/32/12 18/33/18 20/30/20
f 18/33/18 22/34/22 20/30/20
f 22/34/22 5/6/5 20/30/20
f 5/6/5 4/5/4 20/30/20
f 23/35/23 24/36/24 25/37/25
f 26/38/26 25/37/25 24/36/24
f 27/39/27 24/36/24 23/35/23
f 26/38/26 24/36/24 27/39/27
f 28/40/28 27/39/27 23/35/23
f 29/41/29 26/38/26 27/39/27
f 30/42/30 27/39/27 28/40/28
f 29/41/29 27/39/27 30/42/30
f 31/43/31 30/42/30 28/40/28
f 32/44/32 29/41/29 30/42/30
f 30/42/30 3/45/3 32/44/32
f 33/46/33 3/45/3 30/42/30
f 31/43/31 33/46/33 30/42/30
f 34/47/34 33/46/33 31/43/31
f 35/48/35 34/47/34 31/43/31
f 35/48/35 31/43/31 36/49/36
f 31/43/31 37/50/37 36/49/36
f 36/49/36 37/50/37 38/51/38
f 37/50/37 39/52/39 38/51/38
f 38/51/38 39/52/39 40/53/40
f 10/54/10 34/47/34 35/48/35
f 41/55/41 10/54/10 35/48/35
f 35/48/35 42/56/42 41/55/41
f 42/56/42 43/57/43 41/55/41
f 42/56/42 44/58/44 43/57/43
f 44/58/44 45/59/45 43/57/43
f 44/58/44 46/60/46 45/59/45
f 47/61/47 45/59/45 46/60/46
f 43/57/43 45/59/45 47/61/47
f 48/62/48 43/57/43 47/61/47
f 41/55/41 43/57/43 48/62/48
f 49/63/49 41/55/41 48/62/48
f 11/64/11 10/54/10 41/55/41
f 49/63/49 11/64/11 41/55/41
f 50/65/50 11/64/11 49/63/49
f 51/66/51 50/65/50 49/63/49
f 51/66/51 49/63/49 52/67/52
f 49/63/49 53/68/53 52/67/52
f 52/67/52 53/68/53 54/69/54
f 53/68/53 55/70/55 54/69/54
f 54/69/54 55/70/55 56/71/56
f 16/72/16 50/65/50 51/66/51
f 57/73/57 16/72/16 51/66/51
f 51/66/51 58/74/58 57/73/57
f 58/74/58 59/75/59 57/73/57
f 58/74/58 60/76/60 59/75/59
f 60/76/60 61/77/61 59/75/59
f 60/76/60 62/78/62 61/77/61
f 63/79/63 61/77/61 62/78/62
f 59/75/59 61/77/61 63/79/63
f 64/80/64 59/75/59 63/79/63
f 57/73/57 59/75/59 64/80/64
f 32/44/32 57/73/57 64/80/64
f 17/81/17 16/72/16 57/73/57
f 32/44/32 17/81/17 57/73/57
f 3/45/3 17/81/17 32/44/32
f 69/82/69 67/83/67 276/84/276
f 68/85/68 65/86/65 67/83/67
f 69/82/69 68/85/68 67/83/67
f 204/87/204 68/85/68 69/82/69
f 70/88/70 204/87/204 69/82/69
f 65/86/65 71/89/71 66/90/66
f 71/89/71 72/91/72 66/90/66
f 73/92/73 71/89/71 65/86/65
f 68/85/68 73/92/73 65/86/65
f 210/93/210 73/92/73 68/85/68
f 204/87/204 210/93/210 68/85/68
f 71/89/71 74/94/74 72/91/72
f 74/94/74 75/95/75 72/91/72
f 76/96/76 74/94/74 71/89/71
f 73/92/73 76/96/76 71/89/71
f 214/97/214 76/96/76 73/92/73
f 210/93/210 214/97/214 73/92/73
f 74/94/74 77/98/77 75/95/75
f 77/98/77 78/99/78 75/95/75
f 79/100/79 77/98/77 74/94/74
f 76/96/76 79/100/79 74/94/74
f 218/101/218 79/100/79 76/96/76
f 214/97/214 218/101/218 76/96/76
f 77/98/77 80/102/80 78/99/78
f 80/102/80 81/103/81 78/99/78
f 82/104/82 80/102/80 77/98/77
f 79/100/79 82/104/82 77/98/77
f 222/105/222 82/104/82 79/100/79
f 218/101/218 222/105/222 79/100/79
f 80/102/80 83/106/83 81/103/81
f 83/106/83 84/107/84 81/103/81
f 85/108/85 83/106/83 80/102/80
f 82/104/82 85/108/85 80/102/80
f 226/109/226 85/108/85 82/104/82
f 222/105/222 226/109/226 82/104/82
f 83/106/83 86/110/86 84/107/84
f 86/110/86 87/111/87 84/107/84
f 88/112/88 86/110/86 83/106/83
f 85/108/85 88/112/88 83/106/83
f 89/113/89 88/112/88 85/108/85
f 226/109/226 89/113/89 85/108/85
f 86/110/86 90/114/90 87/111/87
f 90/114/90 91/115/91 87/111/87
f 92/116/92 90/114/90 86/110/86
f 88/112/88 92/116/92 86/110/86
f 233/117/233 92/116/92 88/112/88
f 89/113/89 233/117/233 88/112/88
f 90/114/90 118/118/118 91/115/91
f 118/118/118 117/119/117 91/115/91
f 93/120/93 118/118/118 90/114/90
f 92/116/92 93/120/93 90/114/90
f 91/115/91 117/119/117 94/121/94
f 95/122/95 91/115/91 94/121/94
f 87/111/87 91/115/91 95/122/95
f 95/122/95 94/121/94 96/123/96
f 96/123/96 94/121/94 97/124/97
f 96/123/96 97/124/97 98/125/98
f 98/125/98 97/124/97 99/126/99
f 98/125/98 99/126/99 100/127/100
f 100/127/100 99/126/99 101/128/101
f 100/127/100 101/128/101 102/129/102
f 103/130/103 102/129/102 101/128/101
f 104/131/104 103/130/103 101/128/101
f 104/131/104 101/128/101 105/132/105
f 99/126/99 105/132/105 101/128/101
f 106/133/106 104/131/104 105/132/105
f 106/133/106 105/132/105 107/134/107
f 108/135/108 106/133/106 107/134/107
f 108/135/108 107/134/107 109/136/109
f 110/137/110 108/135/108 109/136/109
f 110/137/110 109/136/109 111/138/111
f 112/139/112 110/137/110 111/138/111
f 112/139/112 111/138/111 113/140/113
f 113/140/113 111/138/111 109/136/109
f 114/141/114 112/139/112 113/140/113
f 114/141/114 113/140/113 115/142/115
f 116/143/116 114/141/114 115/142/115
f 116/143/116 115/142/115 117/144/117
f 118/145/118 116/143/116 117/144/117
f 119/146/119 116/143/116 118/145/118
f 93/147/93 119/146/119 118/145/118
f 120/148/120 114/141/114 116/143/116
f 119/146/119 120/148/120 116/143/116
f 130/149/130 120/148/120 119/146/119
f 132/150/132 130/149/130 119/146/119
f 121/151/121 112/139/112 114/141/114
f 120/148/120 121/151/121 114/141/114
f 122/152/122 121/151/121 120/148/120
f 130/149/130 122/152/122 120/148/120
f 123/153/123 110/137/110 112/139/112
f 121/151/121 123/153/123 112/139/112
f 124/154/124 123/153/123 121/151/121
f 122/152/122 124/154/124 121/151/121
f 124/154/124 125/155/125 123/153/123
f 125/155/125 126/156/126 123/153/123
f 123/153/123 126/156/126 110/137/110
f 126/156/126 108/135/108 110/137/110
f 127/157/127 125/155/125 124/154/124
f 128/158/128 127/157/127 124/154/124
f 128/158/128 124/154/124 122/159/122
f 129/160/129 128/158/128 122/159/122
f 129/160/129 122/159/122 130/161/130
f 131/162/131 129/160/129 130/161/130
f 131/162/131 130/161/130 132/163/132
f 133/164/133 131/162/131 132/163/132
f 134/165/134 131/162/131 133/164/133
f 135/166/135 134/165/134 133/164/133
f 135/166/135 133/164/133 136/167/136
f 137/168/137 135/166/135 136/167/136
f 138/169/138 135/166/135 137/168/137
f 139/170/139 138/169/138 137/168/137
f 140/171/140 134/165/134 135/166/135
f 138/169/138 140/171/140 135/166/135
f 141/172/141 129/160/129 131/162/131
f 134/165/134 141/172/141 131/162/131
f 142/173/142 141/172/141 134/165/134
f 140/171/140 142/173/142 134/165/134
f 143/174/143 128/158/128 129/160/129
f 141/172/141 143/174/143 129/160/129
f 144/175/144 143/174/143 141/172/141
f 142/173/142 144/175/144 141/172/141
f 144/175/144 145/176/145 143/174/143
f 145/176/145 146/177/146 143/174/143
f 143/174/143 146/177/146 128/158/128
f 146/177/146 127/157/127 128/158/128
f 146/177/146 147/178/147 127/157/127
f 147/178/147 148/179/148 127/157/127
f 127/157/127 148/179/148 125/155/125
f 148/179/148 149/180/149 125/155/125
f 125/155/125 149/180/149 126/156/126
f 149/180/149 150/181/150 126/156/126
f 126/156/126 150/181/150 108/135/108
f 150/181/150 106/133/106 108/135/108
f 151/182/151 147/178/147 146/177/146
f 145/176/145 151/182/151 146/177/146
f 150/181/150 152/183/152 106/133/106
f 152/183/152 104/131/104 106/133/106
f 153/184/153 152/183/152 150/181/150
f 149/180/149 153/184/153 150/181/150
f 154/185/154 153/184/153 149/180/149
f 148/179/148 154/185/154 149/180/149
f 155/186/155 154/185/154 148/179/148
f 147/178/147 155/186/155 148/179/148
f 156/187/156 155/186/155 147/178/147
f 151/182/151 156/187/156 147/178/147
f 152/183/152 157/188/157 104/131/104
f 157/188/157 103/130/103 104/131/104
f 158/189/158 157/188/157 152/183/152
f 153/184/153 158/189/158 152/183/152
f 159/190/159 158/189/158 153/184/153
f 154/185/154 159/190/159 153/184/153
f 160/191/160 159/190/159 154/185/154
f 155/186/155 160/191/160 154/185/154
f 161/192/161 160/191/160 155/186/155
f 156/187/156 161/192/161 155/186/155
f 157/188/157 162/193/162 103/130/103
f 162/193/162 163/194/163 103/130/103
f 103/130/103 163/194/163 102/129/102
f 163/194/163 164/195/164 102/129/102
f 165/196/165 162/193/162 157/188/157
f 158/189/158 165/196/165 157/188/157
f 159/190/159 166/197/166 158/189/158
f 166/197/166 165/198/165 158/189/158
f 167/199/167 166/197/166 159/190/159
f 160/191/160 167/199/167 159/190/159
f 163/194/163 168/200/168 164/195/164
f 168/200/168 169/201/169 164/195/164
f 170/202/170 168/200/168 163/194/163
f 162/193/162 170/202/170 163/194/163
f 172/203/172 170/202/170 162/193/162
f 165/196/165 172/203/172 162/193/162
f 166/197/166 171/204/171 165/198/165
f 171/204/171 172/205/172 165/198/165
f 179/206/179 171/204/171 167/199/167 173/207/173
f 173/207/173 167/199/167 160/191/160
f 168/200/168 174/208/174 169/201/169
f 174/208/174 175/209/175 169/201/169
f 176/210/176 174/208/174 168/200/168
f 170/202/170 176/210/176 168/200/168
f 178/211/178 176/210/176 170/202/170
f 172/203/172 178/211/178 170/202/170
f 171/204/171 177/212/177 172/205/172
f 177/212/177 178/213/178 172/205/172
f 179/206/179 177/212/177 171/204/171
f 180/214/180 179/206/179 173/207/173
f 171/204/171 166/197/166 167/199/167
f 174/208/174 273/215/273 175/209/175
f 273/215/273 181/216/181 175/209/175
f 182/217/182 273/215/273 174/208/174
f 176/210/176 182/217/182 174/208/174
f 183/218/183 182/217/182 176/210/176
f 178/211/178 183/218/183 176/210/176
f 177/212/177 195/219/195 178/213/178
f 195/219/195 183/220/183 178/213/178
f 184/221/184 195/219/195 177/212/177
f 179/206/179 184/221/184 177/212/177
f 185/222/185 184/221/184 179/206/179
f 180/214/180 185/222/185 179/206/179
f 180/214/180 186/223/186 185/222/185
f 187/224/187 186/223/186 180/214/180
f 173/207/173 187/224/187 180/214/180
f 161/192/161 187/224/187 173/207/173
f 161/192/161 173/207/173 160/191/160
f 186/223/186 188/225/188 185/222/185
f 161/192/161 156/187/156 187/224/187
f 156/187/156 189/226/189 187/224/187
f 187/224/187 189/226/189 186/223/186
f 189/226/189 190/227/190 186/223/186
f 186/223/186 190/227/190 188/225/188
f 190/227/190 191/228/191 188/225/188
f 188/225/188 191/228/191 192/229/192
f 188/225/188 192/229/192 193/230/193
f 185/231/185 188/225/188 193/230/193
f 185/231/185 193/230/193 184/232/184
f 193/230/193 194/233/194 184/232/184
f 184/232/184 194/233/194 195/234/195
f 194/233/194 196/235/196 195/234/195
f 195/234/195 196/235/196 183/236/183
f 196/235/196 197/237/197 183/236/183
f 196/235/196 198/238/198 197/237/197
f 198/238/198 199/239/199 197/237/197
f 200/240/200 198/238/198 196/235/196
f 194/233/194 200/240/200 196/235/196
f 201/241/201 200/240/200 194/233/194
f 193/230/193 201/241/201 194/233/194
f 193/230/193 192/229/192 201/241/201
f 198/238/198 202/242/202 199/239/199
f 202/242/202 70/243/70 199/239/199
f 202/242/202 203/244/203 70/243/70
f 203/244/203 204/245/204 70/243/70
f 205/246/205 203/244/203 202/242/202
f 206/247/206 205/246/205 202/242/202
f 206/247/206 202/242/202 198/238/198
f 200/240/200 206/247/206 198/238/198
f 207/248/207 205/246/205 206/247/206
f 208/249/208 207/248/207 206/247/206
f 208/249/208 206/247/206 200/240/200
f 201/241/201 208/249/208 200/240/200
f 203/244/203 209/250/209 204/245/204
f 209/250/209 210/251/210 204/245/204
f 211/252/211 209/250/209 203/244/203
f 205/246/205 211/252/211 203/244/203
f 212/253/212 211/252/211 205/246/205
f 207/248/207 212/253/212 205/246/205
f 209/250/209 213/254/213 210/251/210
f 213/254/213 214/255/214 210/251/210
f 215/256/215 213/254/213 209/250/209
f 211/252/211 215/256/215 209/250/209
f 216/257/216 215/256/215 211/252/211
f 212/253/212 216/257/216 211/252/211
f 213/254/213 217/258/217 214/255/214
f 217/258/217 218/259/218 214/255/214
f 219/260/219 217/258/217 213/254/213
f 215/256/215 219/260/219 213/254/213
f 220/261/220 219/260/219 215/256/215
f 216/257/216 220/261/220 215/256/215
f 217/258/217 221/262/221 218/259/218
f 221/262/221 222/263/222 218/259/218
f 223/264/223 221/262/221 217/258/217
f 219/260/219 223/264/223 217/258/217
f 224/265/224 223/264/223 219/260/219
f 220/261/220 224/265/224 219/260/219
f 221/262/221 225/266/225 222/263/222
f 225/266/225 226/267/226 222/263/222
f 227/268/227 225/266/225 221/262/221
f 223/264/223 227/268/227 221/262/221
f 228/269/228 227/268/227 223/264/223
f 224/265/224 228/269/228 223/264/223
f 225/266/225 229/270/229 226/267/226
f 229/270/229 89/271/89 226/267/226
f 230/272/230 229/270/229 225/266/225
f 227/268/227 230/272/230 225/266/225
f 231/273/231 230/272/230 227/268/227
f 228/269/228 231/273/231 227/268/227
f 231/273/231 228/269/228 224/265/224
f 229/270/229 232/274/232 89/271/89
f 232/274/232 233/275/233 89/271/89
f 234/276/234 232/274/232 229/270/229
f 230/272/230 234/276/234 229/270/229
f 235/277/235 234/276/234 230/272/230
f 231/273/231 235/277/235 230/272/230
f 234/276/234 137/278/137 232/274/232
f 137/278/137 136/279/136 232/274/232
f 139/280/139 137/278/137 234/276/234
f 235/277/235 139/280/139 234/276/234
f 139/280/139 235/277/235 236/281/236
f 237/282/237 139/280/139 236/281/236
f 237/282/237 236/281/236 238/283/238
f 239/284/239 237/282/237 238/283/238
f 239/284/239 238/283/238 240/285/240
f 241/286/241 239/284/239 240/285/240
f 241/286/241 240/285/240 242/287/242
f 191/228/191 241/286/241 242/287/242
f 191/228/191 242/287/242 192/229/192
f 192/229/192 242/287/242 243/288/243
f 192/229/192 243/288/243 201/241/201
f 201/241/201 243/288/243 208/249/208
f 243/288/243 207/248/207 208/249/208
f 242/287/242 244/289/244 243/288/243
f 243/288/243 244/289/244 207/248/207
f 242/287/242 240/285/240 244/289/244
f 244/289/244 212/253/212 207/248/207
f 245/290/245 241/286/241 191/228/191
f 190/227/190 245/290/245 191/228/191
f 246/291/246 245/290/245 190/227/190
f 189/226/189 246/291/246 190/227/190
f 151/182/151 246/291/246 189/226/189
f 156/187/156 151/182/151 189/226/189
f 244/289/244 247/292/247 212/253/212
f 240/285/240 247/292/247 244/289/244
f 247/292/247 216/257/216 212/253/212
f 151/182/151 145/176/145 246/291/246
f 145/176/145 248/293/248 246/291/246
f 246/291/246 248/293/248 245/290/245
f 248/293/248 249/294/249 245/290/245
f 245/290/245 249/294/249 241/286/241
f 249/294/249 239/284/239 241/286/241
f 240/285/240 238/283/238 247/292/247
f 238/283/238 250/295/250 247/292/247
f 247/292/247 250/295/250 216/257/216
f 250/295/250 220/261/220 216/257/216
f 145/176/145 144/175/144 248/293/248
f 144/175/144 251/296/251 248/293/248
f 248/293/248 251/296/251 249/294/249
f 251/296/251 252/297/252 249/294/249
f 249/294/249 252/297/252 239/284/239
f 252/297/252 237/282/237 239/284/239
f 238/283/238 236/281/236 250/295/250
f 236/281/236 253/298/253 250/295/250
f 250/295/250 253/298/253 220/261/220
f 253/298/253 224/265/224 220/261/220
f 144/175/144 142/173/142 251/296/251
f 142/173/142 140/171/140 251/296/251
f 251/296/251 140/171/140 252/297/252
f 140/171/140 138/169/138 252/297/252
f 252/297/252 138/169/138 237/282/237
f 138/169/138 139/170/139 237/282/237
f 236/281/236 235/277/235 253/298/253
f 235/277/235 231/273/231 253/298/253
f 253/298/253 231/273/231 224/265/224
f 258/299/258 254/300/254 255/301/255
f 259/302/259 258/299/258 255/301/255
f 259/302/259 255/301/255 256/303/256
f 261/304/261 259/302/259 256/303/256
f 261/304/261 256/303/256 92/116/92
f 233/117/233 261/304/261 92/116/92
f 92/116/92 256/303/256 93/120/93
f 256/303/256 267/305/267 93/120/93
f 255/301/255 254/300/254 267/305/267
f 256/303/256 255/301/255 267/305/267
f 257/306/257 258/307/258 259/308/259
f 260/309/260 257/306/257 259/308/259
f 260/309/260 259/308/259 261/310/261
f 262/311/262 260/309/260 261/310/261
f 257/306/257 260/309/260 262/311/262
f 262/311/262 261/310/261 233/275/233
f 232/274/232 262/311/262 233/275/233
f 269/312/269 262/311/262 232/274/232
f 269/312/269 257/306/257 262/311/262
f 136/279/136 269/312/269 232/274/232
f 263/313/263 264/314/264 254/315/254
f 258/316/258 263/313/263 254/315/254
f 264/314/264 263/313/263 265/317/265
f 266/318/266 264/314/264 265/317/265
f 254/315/254 264/314/264 266/318/266
f 266/318/266 265/317/265 132/150/132
f 119/146/119 266/318/266 132/150/132
f 267/319/267 266/318/266 119/146/119
f 267/319/267 254/315/254 266/318/266
f 93/147/93 267/319/267 119/146/119
f 268/320/268 263/321/263 258/322/258
f 257/323/257 268/320/268 258/322/258
f 268/320/268 257/323/257 269/324/269
f 270/325/270 268/320/268 269/324/269
f 263/321/263 268/320/268 270/325/270
f 270/325/270 269/324/269 136/167/136
f 133/164/133 270/325/270 136/167/136
f 265/326/265 270/325/270 133/164/133
f 265/326/265 263/321/263 270/325/270
f 132/163/132 265/326/265 133/164/133
f 271/327/271 272/328/272 181/329/181
f 273/330/273 271/327/271 181/329/181
f 274/331/274 271/327/271 273/330/273
f 182/332/182 274/331/274 273/330/273
f 197/333/197 274/331/274 182/332/182
f 183/334/183 197/333/197 182/332/182
f 274/331/274 276/84/276 271/327/271
f 199/335/199 276/84/276 274/331/274
f 197/333/197 199/335/199 274/331/274
f 67/83/67 275/336/275 271/327/271 276/84/276
f 275/336/275 67/83/67 66/90/66
f 275/336/275 272/328/272 271/327/271
f 70/88/70 69/82/69 276/84/276
f 199/335/199 70/88/70 276/84/276
f 272/328/272 277/337/277 181/329/181
f 278/338/278 277/337/277 272/328/272
f 275/336/275 278/338/278 272/328/272
f 66/90/66 278/338/278 275/336/275
f 67/83/67 65/86/65 66/90/66
f 278/338/278 279/339/279 277/337/277
f 279/339/279 280/340/280 277/337/277
f 277/337/277 280/340/280 281/341/281
f 277/337/277 281/341/281 181/329/181
f 280/340/280 282/342/282 281/341/281
f 281/341/281 282/342/282 283/343/283
f 281/341/281 283/343/283 175/209/175
f 175/209/175 283/343/283 169/201/169
f 283/343/283 284/344/284 169/201/169
f 169/201/169 284/344/284 164/195/164
f 284/344/284 102/129/102 164/195/164
f 181/216/181 281/341/281 175/209/175
f 284/344/284 100/127/100 102/129/102
f 285/345/285 100/127/100 284/344/284
f 283/343/283 285/345/285 284/344/284
f 282/342/282 285/345/285 283/343/283
f 285/345/285 98/125/98 100/127/100
f 286/346/286 98/125/98 285/345/285
f 282/342/282 286/346/286 285/345/285
f 287/347/287 286/346/286 282/342/282
f 280/340/280 287/347/287 282/342/282
f 288/348/288 287/347/287 280/340/280
f 286/346/286 96/123/96 98/125/98
f 289/349/289 96/123/96 286/346/286
f 287/347/287 289/349/289 286/346/286
f 290/350/290 289/349/289 287/347/287
f 288/348/288 290/350/290 287/347/287
f 78/99/78 290/350/290 288/348/288
f 75/95/75 78/99/78 288/348/288
f 75/95/75 288/348/288 279/339/279
f 279/339/279 288/348/288 280/340/280
f 72/91/72 75/95/75 279/339/279
f 72/91/72 279/339/279 278/338/278
f 66/90/66 72/91/72 278/338/278
f 289/349/289 95/122/95 96/123/96
f 291/351/291 95/122/95 289/349/289
f 290/350/290 291/351/291 289/349/289
f 81/103/81 291/351/291 290/350/290
f 78/99/78 81/103/81 290/350/290
f 291/351/291 87/111/87 95/122/95
f 84/107/84 87/111/87 291/351/291
f 81/103/81 84/107/84 291/351/291
f 292/352/292 107/134/107 105/132/105
f 99/126/99 292/352/292 105/132/105
f 97/124/97 292/352/292 99/126/99
f 292/352/292 293/353/293 107/134/107
f 293/353/293 109/136/109 107/134/107
f 294/354/294 293/353/293 292/352/292
f 97/124/97 294/354/294 292/352/292
f 94/121/94 294/354/294 97/124/97
f 293/353/293 113/140/113 109/136/109
f 115/142/115 113/140/113 293/353/293
f 294/354/294 115/142/115 293/353/293
f 117/144/117 115/142/115 294/354/294
f 94/121/94 117/144/117 294/354/294
