# Blender 4.3.2
# www.blender.org
mtllib Counter 1.mtl
o Cube
v 1.000000 0.028896 -0.860861
v 1.000000 -0.947359 -0.860861
v 1.000000 0.028896 0.860861
v 1.000000 -0.947359 0.860861
v -1.000000 0.081537 -1.000000
v -1.000000 -1.000000 -1.000000
v -1.000000 0.081537 1.000000
v -1.000000 -1.000000 1.000000
v 1.000000 -0.336806 -0.860861
v 1.000000 -0.581656 -0.860861
v -1.000000 -0.529015 1.000000
v -1.000000 -0.389447 1.000000
v 1.000000 -0.336806 0.860861
v 1.000000 -0.581656 0.860861
v -1.000000 -0.529015 -1.000000
v -1.000000 -0.389447 -1.000000
v 1.000000 0.081537 -1.000000
v 1.000000 0.081537 1.000000
v 1.000000 -1.000000 1.000000
v 1.000000 -1.000000 -1.000000
v 1.000000 -0.389447 -1.000000
v 1.000000 -0.389447 1.000000
v 1.000000 -0.529015 1.000000
v 1.000000 -0.529015 -1.000000
v 0.660211 0.028896 -0.860861
v 0.660211 0.028896 0.860861
v 0.660211 -0.947359 0.860861
v 0.660211 -0.947359 -0.860861
v 0.660211 -0.336806 -0.860861
v 0.660211 -0.336806 0.860861
v 0.660211 -0.581656 0.860861
v 0.660211 -0.581656 -0.860861
vn -0.0000 1.0000 -0.0000
vn -0.0000 -0.0000 1.0000
vn -0.0000 -1.0000 -0.0000
vn -0.0000 -0.0000 -1.0000
vn -1.0000 -0.0000 -0.0000
vn 1.0000 -0.0000 -0.0000
vt 0.625000 0.500000
vt 0.875000 0.500000
vt 0.875000 0.750000
vt 0.625000 0.750000
vt 0.375000 0.750000
vt 0.483869 0.750000
vt 0.483869 1.000000
vt 0.375000 1.000000
vt 0.125000 0.500000
vt 0.375000 0.500000
vt 0.125000 0.750000
vt 0.516131 0.250000
vt 0.625000 0.250000
vt 0.516131 0.500000
vt 0.516131 0.000000
vt 0.625000 0.000000
vt 0.386579 0.506262
vt 0.472290 0.506262
vt 0.375000 0.250000
vt 0.483869 0.250000
vt 0.483869 0.500000
vt 0.516131 0.750000
vt 0.625000 1.000000
vt 0.516131 1.000000
vt 0.375000 0.000000
vt 0.483869 0.000000
vt 0.483869 0.250000
vt 0.483869 0.750000
vt 0.483869 0.500000
vt 0.527710 0.506262
vt 0.613421 0.506262
vt 0.613421 0.743738
vt 0.386579 0.743738
vt 0.527710 0.743738
vt 0.472290 0.743738
s 0
usemtl Wood_1
f 17/1/1 5/2/1 7/3/1 18/4/1
f 19/5/2 23/6/2 11/7/2 8/8/2
f 6/9/3 20/10/3 19/5/3 8/11/3
f 16/12/4 5/13/4 17/1/4 21/14/4
f 12/15/5 7/16/5 5/13/5 16/12/5
f 2/17/2 10/18/2 32/18/2 28/17/2
f 6/19/4 15/20/4 24/21/4 20/10/4
f 22/22/2 18/4/2 7/23/2 12/24/2
f 8/25/5 11/26/5 15/27/5 6/19/5
f 16/12/4 21/14/4 24/21/4 15/20/4
f 21/14/6 22/22/6 23/28/6 24/29/6
f 12/15/5 16/12/5 15/27/5 11/26/5
f 22/22/2 12/24/2 11/7/2 23/6/2
f 9/30/2 1/31/2 25/31/2 29/30/2
f 3/32/6 1/31/6 17/1/6 18/4/6
f 2/17/6 4/33/6 19/5/6 20/10/6
f 9/30/6 13/34/6 22/22/6 21/14/6
f 14/35/6 10/18/6 24/29/6 23/28/6
f 10/18/6 2/17/6 20/10/6 24/29/6
f 4/33/6 14/35/6 23/28/6 19/5/6
f 1/31/6 9/30/6 21/14/6 17/1/6
f 13/34/6 3/32/6 18/4/6 22/22/6
f 29/30/6 25/31/6 26/32/6 30/34/6
f 28/17/6 32/18/6 31/35/6 27/33/6
f 13/34/1 9/30/1 29/30/1 30/34/1
f 1/31/3 3/32/3 26/32/3 25/31/3
f 3/32/4 13/34/4 30/34/4 26/32/4
f 14/35/4 4/33/4 27/33/4 31/35/4
f 10/18/3 14/35/3 31/35/3 32/18/3
f 4/33/1 2/17/1 28/17/1 27/33/1
o Cube.001
v 0.921377 0.081537 -1.138996
v 0.925027 0.096843 -1.154302
v 1.138996 0.081537 -0.921377
v 1.154302 0.096843 -0.925027
v 1.138996 0.081537 0.921377
v 1.154302 0.096843 0.925027
v 0.921377 0.081537 1.138996
v 0.925027 0.096843 1.154302
v -1.138996 0.081537 -0.921377
v -1.154302 0.096843 -0.925027
v -0.921377 0.081537 -1.138996
v -0.925027 0.096843 -1.154302
v -0.921377 0.081537 1.138996
v -0.925027 0.096843 1.154302
v -1.138996 0.081537 0.921377
v -1.154302 0.096843 0.925027
v 1.077306 0.096843 -1.077306
v 1.065915 0.081537 -1.065915
v 1.077306 0.096843 1.077306
v 1.065915 0.081537 1.065915
v -1.077306 0.096843 1.077306
v -1.065915 0.081537 1.065915
v -1.077306 0.096843 -1.077306
v -1.065915 0.081537 -1.065915
v 1.140874 0.164218 -0.921825
v 1.154302 0.150790 -0.925027
v 0.921825 0.164218 -1.140874
v 0.925027 0.150790 -1.154302
v 0.921825 0.164218 1.140874
v 0.925027 0.150790 1.154302
v 1.140874 0.164218 0.921825
v 1.154302 0.150790 0.925027
v -0.921825 0.164218 -1.140874
v -0.925027 0.150790 -1.154302
v -1.140874 0.164218 -0.921825
v -1.154302 0.150790 -0.925027
v -1.140874 0.164218 0.921825
v -1.154302 0.150790 0.925027
v -0.921825 0.164218 1.140874
v -0.925027 0.150790 1.154302
v 1.077306 0.150790 -1.077306
v 1.067313 0.164218 -1.067313
v 1.077306 0.150790 1.077306
v 1.067313 0.164218 1.067313
v -1.077306 0.150790 1.077306
v -1.067313 0.164218 1.067313
v -1.077306 0.150790 -1.077306
v -1.067313 0.164218 -1.067313
vn -0.0000 -1.0000 -0.0000
vn 0.9038 -0.3699 0.2155
vn 0.9038 -0.3699 -0.2155
vn 0.9038 0.3699 -0.2155
vn 0.9038 0.3699 0.2155
vn -0.9038 -0.3699 -0.2155
vn -0.9038 -0.3699 0.2155
vn -0.9038 0.3699 0.2155
vn -0.9038 0.3699 -0.2155
vn -0.6573 -0.3686 0.6573
vn -0.6573 0.3686 0.6573
vn -0.0000 1.0000 -0.0000
vn -0.6573 0.3686 -0.6573
vn -0.6573 -0.3686 -0.6573
vn 0.6573 0.3686 0.6573
vn 0.6573 -0.3686 0.6573
vn 0.6573 0.3686 -0.6573
vn 0.6573 -0.3686 -0.6573
vn 0.2155 -0.3699 -0.9038
vn 0.2155 0.3699 -0.9038
vn -0.2155 0.3699 -0.9038
vn -0.2155 -0.3699 -0.9038
vn -0.2155 -0.3699 0.9038
vn 0.2155 -0.3699 0.9038
vn 0.2155 0.3699 0.9038
vn -0.2155 0.3699 0.9038
vn -0.4870 -0.7250 0.4870
vn -0.1617 -0.7168 0.6783
vn -0.4870 -0.7250 -0.4870
vn -0.6783 -0.7168 -0.1617
vn 0.4870 -0.7250 0.4870
vn 0.6783 -0.7168 0.1617
vn 0.4870 -0.7250 -0.4870
vn 0.1617 -0.7168 -0.6783
vn 0.6783 -0.7168 -0.1617
vn -0.1617 -0.7168 -0.6783
vn 0.1617 -0.7168 0.6783
vn -0.6783 -0.7168 0.1617
vn -0.4870 0.7250 0.4870
vn -0.6783 0.7168 0.1617
vn -0.4870 0.7250 -0.4870
vn -0.1617 0.7168 -0.6783
vn 0.4870 0.7250 0.4870
vn 0.1617 0.7168 0.6783
vn 0.4870 0.7250 -0.4870
vn 0.6783 0.7168 -0.1617
vn 0.6783 0.7168 0.1617
vn 0.1617 0.7168 -0.6783
vn -0.1617 0.7168 0.6783
vn -0.6783 0.7168 -0.1617
vt 0.868022 0.526742
vt 0.927824 0.541581
vt 0.958014 0.570417
vt 0.957190 0.935822
vt 0.926871 0.964307
vt 0.867003 0.978451
vt 0.104146 0.974019
vt 0.044343 0.959179
vt 0.014154 0.930343
vt 0.014978 0.564938
vt 0.045296 0.536453
vt 0.105164 0.522310
vt 0.072842 0.042630
vt 0.838721 0.042892
vt 0.838697 0.043521
vt 0.072818 0.043260
vt 0.063779 0.041368
vt 0.808773 0.041623
vt 0.808749 0.042252
vt 0.063755 0.041998
vt 0.877487 0.041646
vt 0.877463 0.042276
vt 0.015233 0.107066
vt 0.045751 0.078393
vt 0.106012 0.064157
vt 0.869240 0.068591
vt 0.929436 0.083528
vt 0.959824 0.112554
vt 0.958999 0.478136
vt 0.928481 0.506808
vt 0.868220 0.521045
vt 0.104992 0.516611
vt 0.044796 0.501674
vt 0.014408 0.472648
vt 0.009826 0.041979
vt 0.009850 0.041350
vt 0.009778 0.043238
vt 0.009802 0.042609
vt 0.072866 0.042001
vt 0.838746 0.042263
vt 0.901786 0.042284
vt 0.901762 0.042913
vt 0.063803 0.040739
vt 0.808797 0.040993
vt 0.009874 0.040720
vt 0.102628 0.977045
vt 0.039622 0.961411
vt 0.008643 0.564178
vt 0.040586 0.534167
vt 0.963524 0.936582
vt 0.931582 0.966593
vt 0.869539 0.523715
vt 0.932545 0.539349
vt 0.964352 0.569730
vt 0.103660 0.519266
vt 0.868507 0.981495
vt 0.007816 0.931030
vt 0.877511 0.041017
vt 0.964557 0.478803
vt 0.932614 0.508814
vt 0.870572 0.065936
vt 0.933578 0.081570
vt 0.103660 0.519266
vt 0.040654 0.503632
vt 0.009675 0.106399
vt 0.041618 0.076388
vt 0.008848 0.473251
vt 0.104693 0.061486
vt 0.869539 0.523715
vt 0.965384 0.111951
vt 0.901737 0.043543
s 1
usemtl counter_top
f 33/36/7 50/37/7 35/38/7 37/39/7 52/40/7 39/41/7 45/42/7 54/43/7 47/44/7 41/45/7 56/46/7 43/47/7
f 38/48/8 36/49/9 58/50/10 64/51/11
f 42/52/12 48/53/13 70/54/14 68/55/15
f 53/56/16 77/57/17 70/54/14 48/53/13
f 57/58/18 74/59/18 59/60/18 65/61/18 80/62/18 67/63/18 69/64/18 78/65/18 71/66/18 61/67/18 76/68/18 63/69/18
f 79/70/19 55/71/20 42/52/12 68/55/15
f 38/48/8 64/51/11 75/72/21 51/73/22
f 73/73/23 49/70/24 34/74/25 60/48/26
f 66/49/27 44/75/28 55/76/20 79/77/19
f 34/74/25 44/75/28 66/49/27 60/48/26
f 46/78/29 40/79/30 62/53/31 72/52/32
f 46/78/29 72/52/32 77/71/17 53/80/16
f 54/43/33 45/42/34 46/81/29 53/82/16
f 56/46/35 41/45/36 42/83/12 55/84/20
f 52/40/37 37/39/38 38/85/8 51/86/22
f 50/37/39 33/36/40 34/87/25 49/88/24
f 37/39/38 35/38/41 36/89/9 38/85/8
f 44/90/28 34/87/25 33/36/40 43/47/42
f 40/91/30 46/81/29 45/42/34 39/41/43
f 48/92/13 42/83/12 41/45/36 47/44/44
f 35/38/41 50/37/39 49/88/24 36/89/9
f 39/41/43 52/40/37 51/86/22 40/91/30
f 47/44/44 54/43/33 53/82/16 48/92/13
f 43/47/42 56/46/35 55/84/20 44/90/28
f 51/93/22 75/56/21 62/53/31 40/79/30
f 78/65/45 69/64/46 70/94/14 77/95/17
f 80/62/47 65/61/48 66/96/27 79/97/19
f 76/68/49 61/67/50 62/98/31 75/99/21
f 74/59/51 57/58/52 58/100/10 73/101/23
f 57/58/52 63/69/53 64/102/11 58/100/10
f 65/61/48 59/60/54 60/103/26 66/96/27
f 61/67/50 71/66/55 72/104/32 62/98/31
f 69/64/46 67/63/56 68/105/15 70/94/14
f 59/60/54 74/59/51 73/101/23 60/103/26
f 63/69/53 76/68/49 75/99/21 64/102/11
f 71/66/55 78/65/45 77/95/17 72/104/32
f 67/63/56 80/62/47 79/97/19 68/105/15
f 58/50/10 36/49/9 49/77/24 73/106/23
o Cube.003
v 1.000002 -0.947359 -0.860861
v 1.000002 -0.947359 0.860861
v 1.000002 -0.581656 -0.860861
v 1.000002 -0.581656 0.860861
v 1.032678 -0.929666 -0.840363
v 1.032678 -0.929666 0.840363
v 1.032678 -0.599350 -0.840363
v 1.032678 -0.599350 0.840363
v 1.016340 -0.583407 -0.857267
v 1.016340 -0.945609 -0.857267
v 1.016340 -0.945609 0.857267
v 1.016340 -0.583407 0.857267
vn -1.0000 -0.0000 -0.0000
vn 1.0000 -0.0000 -0.0000
vn 0.7190 -0.0000 -0.6950
vn 0.7190 -0.0000 0.6950
vn 0.6984 0.7157 -0.0000
vn 0.6984 -0.7157 -0.0000
vn 0.1065 -0.9943 -0.0000
vn 0.1065 0.9943 -0.0000
vn 0.2148 -0.0000 0.9766
vn 0.2148 -0.0000 -0.9766
vt 0.000000 0.000000
s 0
usemtl Wood_1
f 82/107/57 84/107/57 83/107/57 81/107/57
f 86/107/58 85/107/58 87/107/58 88/107/58
f 90/107/59 89/107/59 87/107/59 85/107/59
f 92/107/60 91/107/60 86/107/60 88/107/60
f 89/107/61 92/107/61 88/107/61 87/107/61
f 91/107/62 90/107/62 85/107/62 86/107/62
f 82/107/63 81/107/63 90/107/63 91/107/63
f 83/107/64 84/107/64 92/107/64 89/107/64
f 84/107/65 82/107/65 91/107/65 92/107/65
f 81/107/66 83/107/66 89/107/66 90/107/66
o Circle
v 1.096673 -0.764508 -0.046194
v 1.096673 -0.731844 -0.032664
v 1.096673 -0.718314 -0.000000
v 1.096673 -0.731844 0.032664
v 1.096673 -0.764508 0.046194
v 1.096673 -0.797172 0.032664
v 1.096673 -0.810702 -0.000000
v 1.096673 -0.797172 -0.032664
v 1.086984 -0.764508 -0.056582
v 1.086984 -0.724499 -0.040009
v 1.086984 -0.707926 -0.000000
v 1.086984 -0.724499 0.040009
v 1.086984 -0.764508 0.056582
v 1.086984 -0.804517 0.040009
v 1.086984 -0.821089 -0.000000
v 1.086984 -0.804517 -0.040009
v 1.058588 -0.764508 -0.056582
v 1.058588 -0.724499 -0.040009
v 1.058588 -0.707926 -0.000000
v 1.058588 -0.724499 0.040009
v 1.058588 -0.764508 0.056582
v 1.058588 -0.804517 0.040009
v 1.058588 -0.821089 -0.000000
v 1.058588 -0.804517 -0.040009
v 1.053018 -0.764508 -0.051047
v 1.053018 -0.728412 -0.036096
v 1.053018 -0.713460 -0.000000
v 1.053018 -0.728412 0.036096
v 1.053018 -0.764508 0.051047
v 1.053018 -0.800604 0.036096
v 1.053018 -0.815555 -0.000000
v 1.053018 -0.800604 -0.036096
v 1.053018 -0.764508 -0.027425
v 1.053018 -0.745115 -0.019393
v 1.053018 -0.737083 0.000000
v 1.053018 -0.745115 0.019393
v 1.053018 -0.764508 0.027425
v 1.053018 -0.783900 0.019393
v 1.053018 -0.791933 0.000000
v 1.053018 -0.783900 -0.019393
v 1.008298 -0.764508 -0.027425
v 1.008298 -0.745115 -0.019393
v 1.008298 -0.737083 0.000000
v 1.008298 -0.745115 0.019393
v 1.008298 -0.764508 0.027425
v 1.008298 -0.783900 0.019393
v 1.008298 -0.791933 0.000000
v 1.008298 -0.783900 -0.019393
vn 0.8979 -0.4402 -0.0000
vn 0.8979 -0.3112 0.3112
vn 0.3670 -0.6578 0.6578
vn 0.3670 -0.9302 -0.0000
vn 0.8979 -0.0000 0.4402
vn 0.8979 0.3112 0.3112
vn 0.3670 0.6578 0.6578
vn 0.3670 -0.0000 0.9302
vn 0.8979 0.4402 -0.0000
vn 0.8979 0.3112 -0.3112
vn 0.3670 0.6578 -0.6578
vn 0.3670 0.9302 -0.0000
vn 0.8979 -0.3112 -0.3112
vn 0.3670 -0.6578 -0.6578
vn 0.8979 -0.0000 -0.4402
vn 0.3670 -0.0000 -0.9302
vn -0.3519 -0.9360 -0.0000
vn -0.3519 -0.6619 -0.6619
vn -0.3519 -0.0000 0.9360
vn -0.3519 -0.6619 0.6619
vn -0.3519 0.9360 -0.0000
vn -0.3519 0.6619 0.6619
vn -0.3519 -0.0000 -0.9360
vn -0.3519 0.6619 -0.6619
vn -0.8881 0.3250 0.3250
vn -0.8881 -0.0000 0.4596
vn -0.8881 0.3250 -0.3250
vn -0.8881 0.4596 -0.0000
vn -0.8881 -0.4596 -0.0000
vn -0.8881 -0.3250 -0.3250
vn -0.8881 -0.3250 0.3250
vn -0.8881 -0.0000 -0.4596
vn -1.0000 -0.0000 -0.0000
vn -0.0000 -0.7071 0.7071
vn -0.0000 -0.0000 1.0000
vn -0.0000 0.7071 0.7071
vn -0.0000 1.0000 -0.0000
vn -0.0000 0.7071 -0.7071
vn -0.0000 -0.0000 -1.0000
vn -0.0000 -0.7071 -0.7071
vn -0.0000 -1.0000 -0.0000
vt 0.000000 0.000000
s 1
usemtl Wood_1
f 99/108/67 98/108/68 106/108/69 107/108/70
f 97/108/71 96/108/72 104/108/73 105/108/74
f 95/108/75 94/108/76 102/108/77 103/108/78
f 100/108/79 99/108/67 107/108/70 108/108/80
f 98/108/68 97/108/71 105/108/74 106/108/69
f 96/108/72 95/108/75 103/108/78 104/108/73
f 94/108/76 93/108/81 101/108/82 102/108/77
f 93/108/81 100/108/79 108/108/80 101/108/82
f 108/108/80 107/108/70 115/108/83 116/108/84
f 106/108/69 105/108/74 113/108/85 114/108/86
f 104/108/73 103/108/78 111/108/87 112/108/88
f 102/108/77 101/108/82 109/108/89 110/108/90
f 101/108/82 108/108/80 116/108/84 109/108/89
f 107/108/70 106/108/69 114/108/86 115/108/83
f 105/108/74 104/108/73 112/108/88 113/108/85
f 103/108/78 102/108/77 110/108/90 111/108/87
f 113/108/85 112/108/88 120/108/91 121/108/92
f 111/108/87 110/108/90 118/108/93 119/108/94
f 116/108/84 115/108/83 123/108/95 124/108/96
f 114/108/86 113/108/85 121/108/92 122/108/97
f 112/108/88 111/108/87 119/108/94 120/108/91
f 110/108/90 109/108/89 117/108/98 118/108/93
f 109/108/89 116/108/84 124/108/96 117/108/98
f 115/108/83 114/108/86 122/108/97 123/108/95
f 117/108/98 124/108/96 132/108/99 125/108/99
f 123/108/95 122/108/97 130/108/99 131/108/99
f 121/108/92 120/108/91 128/108/99 129/108/99
f 119/108/94 118/108/93 126/108/99 127/108/99
f 124/108/96 123/108/95 131/108/99 132/108/99
f 122/108/97 121/108/92 129/108/99 130/108/99
f 120/108/91 119/108/94 127/108/99 128/108/99
f 118/108/93 117/108/98 125/108/99 126/108/99
f 130/108/100 129/108/101 137/108/101 138/108/100
f 128/108/102 127/108/103 135/108/103 136/108/102
f 126/108/104 125/108/105 133/108/105 134/108/104
f 125/108/105 132/108/106 140/108/106 133/108/105
f 131/108/107 130/108/100 138/108/100 139/108/107
f 129/108/101 128/108/102 136/108/102 137/108/101
f 127/108/103 126/108/104 134/108/104 135/108/103
f 132/108/106 131/108/107 139/108/107 140/108/106
f 94/108/76 95/108/75 96/108/72 97/108/71 98/108/68 99/108/67 100/108/79 93/108/81
o Cube.002
v 1.000002 -0.336806 -0.860861
v 1.000002 -0.336806 0.860861
v 1.000002 0.028896 -0.860861
v 1.000002 0.028896 0.860861
v 1.032678 -0.319113 -0.840363
v 1.032678 -0.319113 0.840363
v 1.032678 0.011203 -0.840363
v 1.032678 0.011203 0.840363
v 1.016340 0.027146 -0.857267
v 1.016340 -0.335056 -0.857267
v 1.016340 -0.335056 0.857267
v 1.016340 0.027146 0.857267
vn -1.0000 -0.0000 -0.0000
vn 1.0000 -0.0000 -0.0000
vn 0.7190 -0.0000 -0.6950
vn 0.7190 -0.0000 0.6950
vn 0.6984 0.7157 -0.0000
vn 0.6984 -0.7157 -0.0000
vn 0.1065 -0.9943 -0.0000
vn 0.1065 0.9943 -0.0000
vn 0.2148 -0.0000 0.9766
vn 0.2148 -0.0000 -0.9766
vt 0.000000 0.000000
s 0
usemtl Wood_1
f 142/109/108 144/109/108 143/109/108 141/109/108
f 146/109/109 145/109/109 147/109/109 148/109/109
f 150/109/110 149/109/110 147/109/110 145/109/110
f 152/109/111 151/109/111 146/109/111 148/109/111
f 149/109/112 152/109/112 148/109/112 147/109/112
f 151/109/113 150/109/113 145/109/113 146/109/113
f 142/109/114 141/109/114 150/109/114 151/109/114
f 143/109/115 144/109/115 152/109/115 149/109/115
f 144/109/116 142/109/116 151/109/116 152/109/116
f 141/109/117 143/109/117 149/109/117 150/109/117
o Circle.001
v 1.096673 -0.153955 -0.046194
v 1.096673 -0.121291 -0.032664
v 1.096673 -0.107761 0.000000
v 1.096673 -0.121291 0.032664
v 1.096673 -0.153955 0.046194
v 1.096673 -0.186619 0.032664
v 1.096673 -0.200149 0.000000
v 1.096673 -0.186619 -0.032664
v 1.086984 -0.153955 -0.056582
v 1.086984 -0.113946 -0.040009
v 1.086984 -0.097373 -0.000000
v 1.086984 -0.113946 0.040009
v 1.086984 -0.153955 0.056582
v 1.086984 -0.193964 0.040009
v 1.086984 -0.210537 -0.000000
v 1.086984 -0.193964 -0.040009
v 1.058588 -0.153955 -0.056582
v 1.058588 -0.113946 -0.040009
v 1.058588 -0.097373 -0.000000
v 1.058588 -0.113946 0.040009
v 1.058588 -0.153955 0.056582
v 1.058588 -0.193964 0.040009
v 1.058588 -0.210537 -0.000000
v 1.058588 -0.193964 -0.040009
v 1.053018 -0.153955 -0.051047
v 1.053018 -0.117859 -0.036096
v 1.053018 -0.102907 -0.000000
v 1.053018 -0.117859 0.036096
v 1.053018 -0.153955 0.051047
v 1.053018 -0.190051 0.036096
v 1.053018 -0.205002 -0.000000
v 1.053018 -0.190051 -0.036096
v 1.053018 -0.153955 -0.027425
v 1.053018 -0.134562 -0.019393
v 1.053018 -0.126530 0.000000
v 1.053018 -0.134562 0.019393
v 1.053018 -0.153955 0.027425
v 1.053018 -0.173347 0.019393
v 1.053018 -0.181380 0.000000
v 1.053018 -0.173347 -0.019393
v 1.008298 -0.153955 -0.027425
v 1.008298 -0.134562 -0.019393
v 1.008298 -0.126530 0.000000
v 1.008298 -0.134562 0.019393
v 1.008298 -0.153955 0.027425
v 1.008298 -0.173347 0.019393
v 1.008298 -0.181380 0.000000
v 1.008298 -0.173347 -0.019393
vn 0.8979 -0.4402 -0.0000
vn 0.8979 -0.3112 0.3112
vn 0.3670 -0.6578 0.6578
vn 0.3670 -0.9302 -0.0000
vn 0.8979 -0.0000 0.4402
vn 0.8979 0.3112 0.3112
vn 0.3670 0.6578 0.6578
vn 0.3670 -0.0000 0.9302
vn 0.8979 0.4402 -0.0000
vn 0.8979 0.3112 -0.3112
vn 0.3670 0.6578 -0.6578
vn 0.3670 0.9302 -0.0000
vn 0.8979 -0.3112 -0.3112
vn 0.3670 -0.6578 -0.6578
vn 0.8979 -0.0000 -0.4402
vn 0.3670 -0.0000 -0.9302
vn -0.3519 -0.9360 -0.0000
vn -0.3519 -0.6619 -0.6619
vn -0.3519 -0.0000 0.9360
vn -0.3519 -0.6619 0.6619
vn -0.3519 0.9360 -0.0000
vn -0.3519 0.6619 0.6619
vn -0.3519 -0.0000 -0.9360
vn -0.3519 0.6619 -0.6619
vn -0.8881 0.3250 0.3250
vn -0.8881 -0.0000 0.4596
vn -0.8881 0.3250 -0.3250
vn -0.8881 0.4596 -0.0000
vn -0.8881 -0.4596 -0.0000
vn -0.8881 -0.3250 -0.3250
vn -0.8881 -0.3250 0.3250
vn -0.8881 -0.0000 -0.4596
vn -1.0000 -0.0000 -0.0000
vn -0.0000 -0.7071 0.7071
vn -0.0000 -0.0000 1.0000
vn -0.0000 0.7071 0.7071
vn -0.0000 1.0000 -0.0000
vn -0.0000 0.7071 -0.7071
vn -0.0000 -0.0000 -1.0000
vn -0.0000 -0.7071 -0.7071
vn -0.0000 -1.0000 -0.0000
vt 0.000000 0.000000
s 1
usemtl Wood_1
f 159/110/118 158/110/119 166/110/120 167/110/121
f 157/110/122 156/110/123 164/110/124 165/110/125
f 155/110/126 154/110/127 162/110/128 163/110/129
f 160/110/130 159/110/118 167/110/121 168/110/131
f 158/110/119 157/110/122 165/110/125 166/110/120
f 156/110/123 155/110/126 163/110/129 164/110/124
f 154/110/127 153/110/132 161/110/133 162/110/128
f 153/110/132 160/110/130 168/110/131 161/110/133
f 168/110/131 167/110/121 175/110/134 176/110/135
f 166/110/120 165/110/125 173/110/136 174/110/137
f 164/110/124 163/110/129 171/110/138 172/110/139
f 162/110/128 161/110/133 169/110/140 170/110/141
f 161/110/133 168/110/131 176/110/135 169/110/140
f 167/110/121 166/110/120 174/110/137 175/110/134
f 165/110/125 164/110/124 172/110/139 173/110/136
f 163/110/129 162/110/128 170/110/141 171/110/138
f 173/110/136 172/110/139 180/110/142 181/110/143
f 171/110/138 170/110/141 178/110/144 179/110/145
f 176/110/135 175/110/134 183/110/146 184/110/147
f 174/110/137 173/110/136 181/110/143 182/110/148
f 172/110/139 171/110/138 179/110/145 180/110/142
f 170/110/141 169/110/140 177/110/149 178/110/144
f 169/110/140 176/110/135 184/110/147 177/110/149
f 175/110/134 174/110/137 182/110/148 183/110/146
f 177/110/149 184/110/147 192/110/150 185/110/150
f 183/110/146 182/110/148 190/110/150 191/110/150
f 181/110/143 180/110/142 188/110/150 189/110/150
f 179/110/145 178/110/144 186/110/150 187/110/150
f 184/110/147 183/110/146 191/110/150 192/110/150
f 182/110/148 181/110/143 189/110/150 190/110/150
f 180/110/142 179/110/145 187/110/150 188/110/150
f 178/110/144 177/110/149 185/110/150 186/110/150
f 190/110/151 189/110/152 197/110/152 198/110/151
f 188/110/153 187/110/154 195/110/154 196/110/153
f 186/110/155 185/110/156 193/110/156 194/110/155
f 185/110/156 192/110/157 200/110/157 193/110/156
f 191/110/158 190/110/151 198/110/151 199/110/158
f 189/110/152 188/110/153 196/110/153 197/110/152
f 187/110/154 186/110/155 194/110/155 195/110/154
f 192/110/157 191/110/158 199/110/158 200/110/157
f 154/110/127 155/110/126 156/110/123 157/110/122 158/110/119 159/110/118 160/110/130 153/110/132
