# Blender 4.3.2
# www.blender.org
mtllib Counter corner 2.mtl
o Cube.004
v 1.464205 0.028896 1.254197
v 1.464205 -0.947359 1.254197
v 3.185927 0.028896 1.254197
v 3.185927 -0.947359 1.254197
v 1.325066 0.081537 3.254197
v 1.325066 -1.000000 3.254197
v 3.325066 0.081537 3.254197
v 3.325066 -1.000000 3.254197
v 1.464205 -0.336806 1.254197
v 1.464205 -0.581656 1.254197
v 3.325066 -0.529016 3.254197
v 3.325066 -0.389447 3.254197
v 3.185927 -0.336806 1.254197
v 3.185927 -0.581656 1.254197
v 1.325066 -0.529015 3.254197
v 1.325066 -0.389447 3.254197
v 1.325066 0.081537 1.254197
v 3.325066 0.081537 1.254197
v 3.325066 -1.000000 1.254197
v 1.325066 -1.000000 1.254197
v 1.325066 -0.389447 1.254197
v 3.325066 -0.389447 1.254197
v 3.325066 -0.529015 1.254197
v 1.325066 -0.529015 1.254197
v 1.464205 0.028896 1.593987
v 3.185927 0.028896 1.593987
v 3.185927 -0.947359 1.593987
v 1.464205 -0.947359 1.593987
v 1.464205 -0.336806 1.593987
v 3.185927 -0.336806 1.593987
v 3.185927 -0.581656 1.593987
v 1.464205 -0.581656 1.593987
v 1.000000 0.028896 -0.860861
v 1.000000 -0.947359 -0.860861
v 1.000000 0.028896 0.860861
v 1.000000 -0.947359 0.860861
v -1.000000 0.081537 -1.000000
v -1.000000 -1.000000 -1.000000
v -1.000000 0.081537 1.000000
v -1.000000 -1.000000 1.000000
v 1.000000 -0.336806 -0.860861
v 1.000000 -0.581656 -0.860861
v -1.000000 -0.529015 1.000000
v -1.000000 -0.389447 1.000000
v 1.000000 -0.336806 0.860861
v 1.000000 -0.581656 0.860861
v -1.000000 -0.529015 -1.000000
v -1.000000 -0.389447 -1.000000
v 1.000000 0.081537 -1.000000
v 1.000000 0.081537 1.000000
v 1.000000 -1.000000 1.000000
v 1.000000 -1.000000 -1.000000
v 1.000000 -0.389447 -1.000000
v 1.000000 -0.389447 1.000000
v 1.000000 -0.529015 1.000000
v 1.000000 -0.529015 -1.000000
v 0.660211 0.028896 -0.860861
v 0.660211 0.028896 0.860861
v 0.660211 -0.947359 0.860861
v 0.660211 -0.947359 -0.860861
v 0.660211 -0.336806 -0.860861
v 0.660211 -0.336806 0.860861
v 0.660211 -0.581656 0.860861
v 0.660211 -0.581656 -0.860861
v 0.999996 0.081537 1.254197
v 0.999996 -1.000000 1.254197
v -1.000004 -1.000000 3.254198
v -1.000004 -0.529015 3.254198
v -1.000004 0.081537 3.254198
v -1.000004 -0.389447 3.254198
v 0.999996 -0.389447 1.254197
v 0.999996 -0.529015 1.254197
vn -0.0000 1.0000 -0.0000
vn 1.0000 -0.0000 -0.0000
vn -0.0000 -1.0000 -0.0000
vn -1.0000 -0.0000 -0.0000
vn -0.0000 -0.0000 1.0000
vn -0.0000 -0.0000 -1.0000
vt 0.625000 0.500000
vt 0.875000 0.500000
vt 0.875000 0.750000
vt 0.625000 0.750000
vt 0.375000 0.750000
vt 0.483869 0.750000
vt 0.483869 1.000000
vt 0.375000 1.000000
vt 0.125000 0.500000
vt 0.375000 0.500000
vt 0.125000 0.750000
vt 0.516131 0.250000
vt 0.625000 0.250000
vt 0.516131 0.500000
vt 0.516131 0.000000
vt 0.625000 0.000000
vt 0.386579 0.506262
vt 0.472290 0.506262
vt 0.375000 0.250000
vt 0.483869 0.250000
vt 0.483869 0.500000
vt 0.516131 0.750000
vt 0.625000 1.000000
vt 0.516131 1.000000
vt 0.375000 0.000000
vt 0.483869 0.000000
vt 0.483869 0.250000
vt 0.483869 0.750000
vt 0.483869 0.500000
vt 0.527710 0.506262
vt 0.613421 0.506262
vt 0.613421 0.743738
vt 0.386579 0.743738
vt 0.527710 0.743738
vt 0.472290 0.743738
vt 0.516131 0.608869
vt 0.000000 0.000000
vt 0.483869 0.641131
s 0
usemtl Wood_1
f 17/1/1 5/2/1 7/3/1 18/4/1
f 19/5/2 23/6/2 11/7/2 8/8/2
f 6/9/3 20/10/3 19/5/3 8/11/3
f 16/12/4 5/13/4 17/1/4 21/14/4
f 12/15/5 7/16/5 5/13/5 16/12/5
f 2/17/4 28/17/4 32/18/4 10/18/4
f 6/19/4 15/20/4 24/21/4 20/10/4
f 22/22/2 18/4/2 7/23/2 12/24/2
f 8/25/5 11/26/5 15/27/5 6/19/5
f 16/12/4 21/14/4 24/21/4 15/20/4
f 21/14/6 22/22/6 23/28/6 24/29/6
f 12/15/5 16/12/5 15/27/5 11/26/5
f 22/22/2 12/24/2 11/7/2 23/6/2
f 9/30/4 29/30/4 25/31/4 1/31/4
f 3/32/6 1/31/6 17/1/6 18/4/6
f 2/17/6 4/33/6 19/5/6 20/10/6
f 9/30/6 13/34/6 22/22/6 21/14/6
f 14/35/6 10/18/6 24/29/6 23/28/6
f 10/18/6 2/17/6 20/10/6 24/29/6
f 4/33/6 14/35/6 23/28/6 19/5/6
f 1/31/6 9/30/6 21/14/6 17/1/6
f 13/34/6 3/32/6 18/4/6 22/22/6
f 29/30/5 30/34/5 26/32/5 25/31/5
f 28/17/5 27/33/5 31/35/5 32/18/5
f 13/34/3 30/34/3 29/30/3 9/30/3
f 1/31/1 25/31/1 26/32/1 3/32/1
f 3/32/2 26/32/2 30/34/2 13/34/2
f 14/35/2 31/35/2 27/33/2 4/33/2
f 10/18/1 32/18/1 31/35/1 14/35/1
f 4/33/3 27/33/3 28/17/3 2/17/3
f 49/1/1 37/2/1 39/3/1 50/4/1
f 51/5/6 40/8/6 43/7/6 55/6/6
f 38/9/3 52/10/3 51/5/3 40/11/3
f 48/12/6 37/13/6 49/1/6 53/14/6
f 44/15/4 39/16/4 37/13/4 48/12/4
f 34/17/6 60/17/6 64/18/6 42/18/6
f 38/19/6 47/20/6 56/21/6 52/10/6
f 54/22/6 44/24/6 39/23/6 50/4/6
f 40/25/4 43/26/4 47/27/4 38/19/4
f 48/12/6 53/14/6 56/21/6 47/20/6
f 53/14/2 54/22/2 55/28/2 56/29/2
f 44/15/4 48/12/4 47/27/4 43/26/4
f 54/22/6 55/6/6 43/7/6 44/24/6
f 41/30/6 61/30/6 57/31/6 33/31/6
f 35/32/2 33/31/2 49/1/2 50/4/2
f 34/17/2 36/33/2 51/5/2 52/10/2
f 41/30/2 45/34/2 54/22/2 53/14/2
f 46/35/2 42/18/2 56/29/2 55/28/2
f 42/18/2 34/17/2 52/10/2 56/29/2
f 36/33/2 46/35/2 55/28/2 51/5/2
f 33/31/2 41/30/2 53/14/2 49/1/2
f 45/34/2 35/32/2 50/4/2 54/22/2
f 61/30/4 62/34/4 58/32/4 57/31/4
f 60/17/4 59/33/4 63/35/4 64/18/4
f 45/34/3 62/34/3 61/30/3 41/30/3
f 33/31/1 57/31/1 58/32/1 35/32/1
f 35/32/5 58/32/5 62/34/5 45/34/5
f 46/35/5 63/35/5 59/33/5 36/33/5
f 42/18/1 64/18/1 63/35/1 46/35/1
f 36/33/3 59/33/3 60/17/3 34/17/3
f 15/20/5 68/20/5 67/19/5 6/19/5
f 44/15/4 70/15/4 69/16/4 39/16/4
f 71/36/6 65/1/6 17/1/6 21/14/6
f 69/37/1 5/37/1 17/37/1 65/37/1
f 39/37/1 69/37/1 65/37/1 50/37/1
f 66/37/3 20/37/3 6/37/3 67/37/3
f 51/37/3 66/37/3 67/37/3 40/37/3
f 16/12/5 5/13/5 69/13/5 70/12/5
f 15/20/5 16/12/5 70/12/5 68/20/5
f 43/7/4 40/8/4 67/8/4 68/26/4
f 44/15/4 43/7/4 68/26/4 70/15/4
f 54/22/2 50/4/2 65/1/2 71/36/2
f 55/28/2 54/22/2 71/36/2 72/38/2
f 72/38/6 71/36/6 21/14/6 24/21/6
f 51/5/2 55/28/2 72/38/2 66/5/2
f 66/5/6 72/38/6 24/21/6 20/10/6
f 4/37/6 2/37/6 10/37/6 14/37/6
f 1/37/6 3/37/6 13/37/6 9/37/6
f 33/37/2 35/37/2 45/37/2 41/37/2
f 36/37/2 34/37/2 42/37/2 46/37/2
o Cube.005
v 3.246444 0.081537 1.115201
v 3.250093 0.096843 1.099895
v 3.464062 0.081537 1.332820
v 3.479369 0.096843 1.329171
v 3.464062 0.081537 3.177399
v 3.479369 0.096843 3.177399
v 3.248268 0.081537 3.393195
v 3.248268 0.096843 3.408501
v 3.402373 0.096843 1.176891
v 3.390981 0.081537 1.188282
v 3.465941 0.164218 1.332372
v 3.479369 0.150790 1.329171
v 3.246891 0.164218 1.113323
v 3.250093 0.150790 1.099895
v 3.248268 0.164218 3.395073
v 3.248268 0.150790 3.408501
v 3.465941 0.164218 3.177399
v 3.479369 0.150790 3.177399
v 3.402373 0.150790 1.176891
v 3.392379 0.164218 1.186885
v 0.921377 0.081537 -1.138996
v 0.925027 0.096843 -1.154302
v 1.138996 0.081537 -0.921377
v 1.154302 0.096843 -0.925027
v -1.138996 0.081537 -0.923202
v -1.154303 0.096843 -0.923202
v -0.923202 0.081537 -1.138996
v -0.923202 0.096843 -1.154302
v 1.077306 0.096843 -1.077307
v 1.065915 0.081537 -1.065915
v -1.150715 0.150790 -1.150714
v -1.144001 0.164218 -1.144000
v 1.140874 0.164218 -0.921825
v 1.154302 0.150790 -0.925027
v 0.921825 0.164218 -1.140874
v 0.925027 0.150790 -1.154302
v -0.923202 0.164218 -1.140874
v -0.923202 0.150790 -1.154302
v -1.140875 0.164218 -0.923202
v -1.154303 0.150790 -0.923202
v 1.077306 0.150790 -1.077307
v 1.067313 0.164218 -1.067313
v -1.150715 0.096843 -1.150714
v -1.143062 0.081537 -1.143061
v -1.144031 0.081537 3.398224
v -1.149859 0.096843 3.404053
v -1.144746 0.164218 3.398940
v -1.149859 0.150790 3.404053
v 1.141884 0.081537 0.978583
v 1.275613 0.081537 1.112303
v 1.181136 0.081537 1.073056
v 1.151745 0.096843 0.969244
v 1.284949 0.096843 1.102455
v 1.190685 0.096843 1.063511
v 1.276788 0.164218 1.111095
v 1.143094 0.164218 0.977407
v 1.182317 0.164218 1.071876
v 1.284949 0.150790 1.102455
v 1.151745 0.150790 0.969244
v 1.190685 0.150790 1.063511
v 3.468125 0.081537 3.397256
v 3.475778 0.096843 3.404909
v 3.469064 0.164218 3.398195
v 3.475778 0.150790 3.404909
vn 0.2133 -0.3479 -0.9130
vn 0.2133 0.3479 -0.9130
vn 0.6573 0.3686 -0.6573
vn 0.6573 -0.3686 -0.6573
vn 0.9372 -0.3487 0.0040
vn 0.9038 -0.3699 -0.2155
vn 0.9038 0.3699 -0.2155
vn 0.9372 0.3488 0.0044
vn 0.4870 -0.7250 -0.4870
vn 0.1622 -0.6819 -0.7132
vn 0.7553 -0.6554 -0.0004
vn 0.6783 -0.7168 -0.1617
vn 0.4870 0.7250 -0.4870
vn 0.6783 0.7168 -0.1617
vn 0.7553 0.6554 0.0004
vn 0.1621 0.6819 -0.7132
vn -0.0040 -0.3487 -0.9372
vn 0.0004 -0.6554 -0.7553
vn 0.0009 -0.5999 -0.8001
vn -0.0092 -0.2679 -0.9634
vn 0.2155 -0.3699 -0.9038
vn 0.2155 0.3699 -0.9038
vn -0.0004 0.6554 -0.7552
vn -0.0044 0.3488 -0.9372
vn -0.0099 0.2680 -0.9634
vn -0.0008 0.6001 -0.7999
vn 0.1617 -0.7168 -0.6782
vn 0.7131 -0.6820 -0.1622
vn 0.9129 -0.3479 -0.2133
vn -0.9519 0.3063 -0.0041
vn -0.8116 0.5842 -0.0004
vn -0.7999 0.6001 -0.0008
vn -0.9634 0.2680 -0.0099
vn 0.7132 0.6820 -0.1621
vn 0.9129 0.3479 -0.2133
vn 0.1617 0.7168 -0.6782
vn -0.8117 -0.5840 0.0004
vn -0.9520 -0.3062 -0.0037
vn -0.9634 -0.2679 -0.0092
vn -0.8001 -0.5999 0.0009
vn 0.7441 0.6416 -0.1859
vn 0.9202 0.3552 -0.1643
vn 0.1643 -0.3552 -0.9202
vn 0.1643 0.3551 -0.9203
vn 0.1860 0.6414 -0.7443
vn 0.1861 -0.6417 -0.7441
vn -0.9653 -0.2611 0.0006
vn -0.9653 0.2611 0.0006
vn -0.8229 0.5681 0.0001
vn -0.8229 -0.5681 -0.0001
vn 0.0037 -0.3062 0.9520
vn 0.0041 0.3063 0.9519
vn -0.0006 0.2611 0.9653
vn -0.0006 -0.2611 0.9653
vn 0.0004 0.5842 0.8116
vn -0.0001 0.5682 0.8229
vn -0.0004 -0.5841 0.8117
vn 0.0001 -0.5681 0.8229
vn 0.9202 -0.3553 -0.1643
vn 0.7439 -0.6419 -0.1861
vn 0.6517 -0.3881 -0.6517
vn 0.5284 -0.6645 -0.5284
vn 0.6518 0.3878 -0.6518
vn 0.5286 0.6642 -0.5286
vn 0.0092 -0.2679 0.9634
vn 0.0099 0.2680 0.9634
vn 0.0008 0.6001 0.7999
vn -0.0008 -0.5999 0.8001
vn 0.9634 0.2680 0.0099
vn 0.9634 -0.2679 0.0092
vn 0.7999 0.6001 0.0008
vn 0.8001 -0.5999 -0.0008
vn -0.0000 -1.0000 -0.0000
vn -0.0000 1.0000 -0.0000
vt 0.072842 0.042630
vt 0.072818 0.043260
vt 0.009778 0.043238
vt 0.009802 0.042609
vt 0.063803 0.040739
vt 0.808797 0.040993
vt 0.808773 0.041623
vt 0.063779 0.041368
vt 0.926871 0.964307
vt 0.957190 0.935822
vt 0.963524 0.936582
vt 0.931582 0.966593
vt 0.868507 0.981495
vt 0.102628 0.977045
vt 0.104146 0.974019
vt 0.867003 0.978451
vt 0.877511 0.041017
vt 0.877487 0.041646
vt 0.044796 0.501674
vt 0.104992 0.516611
vt 0.103660 0.519266
vt 0.040654 0.503632
vt 0.868220 0.521045
vt 0.869539 0.523715
vt 0.014408 0.472648
vt 0.008848 0.473251
vt 0.103660 0.519266
vt 0.105164 0.522310
vt 0.009826 0.041979
vt 0.072866 0.042001
vt 0.869240 0.068591
vt 0.870572 0.065936
vt 0.838746 0.042263
vt 0.838721 0.042892
vt 0.927824 0.541581
vt 0.868022 0.526742
vt 0.869539 0.523715
vt 0.932545 0.539349
vt 0.958014 0.570417
vt 0.964352 0.569730
vt 0.965384 0.111951
vt 0.959824 0.112554
vt 0.045751 0.078393
vt 0.015233 0.107066
vt 0.009675 0.106399
vt 0.041618 0.076388
vt 0.106012 0.064157
vt 0.104693 0.061486
vt 0.014978 0.564938
vt 0.008643 0.564178
vt 0.838697 0.043521
vt 0.901762 0.042913
vt 0.901737 0.043543
vt 0.063755 0.041998
vt 0.014408 0.472648
vt 0.808749 0.042252
vt 0.964557 0.478803
vt 0.958999 0.478136
vt 0.014154 0.930343
vt 0.007816 0.931030
vt 0.838721 0.042892
vt 0.958014 0.570417
s 1
usemtl counter_top
f 74/39/7 86/40/8 91/41/9 81/42/10
f 78/43/11 76/44/12 84/45/13 90/46/14
f 82/47/15 73/48/16 74/49/7 81/50/10
f 76/51/12 78/52/11 77/53/17 75/54/18
f 75/54/18 82/47/15 81/50/10 76/51/12
f 81/55/10 91/56/9 84/45/13 76/44/12
f 92/57/19 83/58/20 84/59/13 91/60/9
f 83/58/20 89/61/21 90/62/14 84/59/13
f 85/63/22 92/57/19 91/60/9 86/64/8
f 100/65/23 99/66/24 116/66/25 115/65/26
f 113/42/9 101/67/10 94/68/27 108/39/28
f 109/69/29 110/70/30 103/70/31 104/69/32
f 94/68/27 100/71/23 110/72/30 108/39/28
f 102/73/15 93/74/33 94/75/27 101/76/10
f 100/65/23 94/75/27 93/74/33 99/66/24
f 95/77/34 102/73/15 101/76/10 96/78/35
f 112/79/36 111/80/37 104/80/38 103/79/39
f 114/81/19 105/82/40 106/83/41 113/84/9
f 109/69/29 107/85/42 108/86/28 110/70/30
f 107/85/42 114/81/19 113/84/9 108/86/28
f 97/87/43 98/88/44 115/88/45 116/87/46
f 106/89/41 96/72/35 101/90/10 113/91/9
f 106/83/41 105/82/40 128/82/47 131/83/48
f 98/46/44 112/92/36 103/92/39 115/46/45
f 110/72/30 100/71/23 115/71/26 103/72/31
f 86/40/8 74/39/7 125/39/49 130/40/50
f 85/63/22 86/64/8 130/64/50 127/93/51
f 74/49/7 73/48/16 122/48/52 125/49/49
f 112/92/36 98/46/44 118/46/53 120/92/54
f 111/80/37 112/79/36 120/79/54 119/80/55
f 98/88/44 97/87/43 117/87/56 118/88/53
f 80/45/57 88/94/58 120/94/59 118/45/60
f 88/95/58 87/96/61 119/96/62 120/95/59
f 79/97/63 80/98/57 118/98/60 117/97/64
f 96/72/35 106/89/41 131/89/48 124/99/65
f 121/100/66 124/78/65 126/78/67 123/78/68
f 123/49/68 126/49/67 125/49/49 122/48/52
f 127/93/51 130/64/50 132/64/69 129/64/70
f 129/83/70 132/83/69 131/83/48 128/82/47
f 130/40/50 125/39/49 126/39/67 132/40/69
f 132/89/69 126/72/67 124/99/65 131/89/48
f 95/77/34 96/78/35 124/78/65 121/100/66
f 88/94/58 80/45/57 134/45/71 136/94/72
f 87/96/61 88/95/58 136/95/72 135/96/73
f 80/98/57 79/97/63 133/97/74 134/98/71
f 78/43/11 90/46/14 136/46/75 134/43/76
f 90/62/14 89/61/21 135/61/77 136/62/75
f 77/53/17 78/52/11 134/52/76 133/53/78
f 82/47/79 75/54/79 77/53/79 133/53/79 79/97/79 117/97/79 97/87/79 116/87/79 99/66/79 93/74/79 102/73/79 95/77/79 121/100/79 123/78/79 122/48/79 73/48/79
f 92/57/80 85/63/80 127/93/80 129/64/80 128/82/80 105/82/80 114/81/80 107/85/80 109/69/80 104/69/80 111/80/80 119/80/80 87/96/80 135/96/80 89/61/80 83/58/80
