# Blender 4.3.2
# www.blender.org
mtllib Counter 2.mtl
o Cube
v 1.000000 0.028896 -0.860861
v 1.000000 -0.947359 -0.860861
v 1.000000 0.028896 0.860861
v 1.000000 -0.947359 0.860861
v -1.000000 0.081537 -1.000000
v -1.000000 -1.000000 -1.000000
v -1.000000 0.081537 1.000000
v -1.000000 -1.000000 1.000000
v 1.000000 -0.336806 -0.860861
v 1.000000 -0.581656 -0.860861
v -1.000000 -0.529015 1.000000
v -1.000000 -0.389447 1.000000
v 1.000000 -0.336806 0.860861
v 1.000000 -0.581656 0.860861
v -1.000000 -0.529015 -1.000000
v -1.000000 -0.389447 -1.000000
v 1.000000 0.081537 -1.000000
v 1.000000 0.081537 1.000000
v 1.000000 -1.000000 1.000000
v 1.000000 -1.000000 -1.000000
v 1.000000 -0.389447 -1.000000
v 1.000000 -0.389447 1.000000
v 1.000000 -0.529015 1.000000
v 1.000000 -0.529015 -1.000000
v 0.660211 0.028896 -0.860861
v 0.660211 0.028896 0.860861
v 0.660211 -0.947359 0.860861
v 0.660211 -0.947359 -0.860861
v 0.660211 -0.336806 -0.860861
v 0.660211 -0.336806 0.860861
v 0.660211 -0.581656 0.860861
v 0.660211 -0.581656 -0.860861
vn -0.0000 1.0000 -0.0000
vn -0.0000 -0.0000 1.0000
vn -0.0000 -1.0000 -0.0000
vn -0.0000 -0.0000 -1.0000
vn -1.0000 -0.0000 -0.0000
vn 1.0000 -0.0000 -0.0000
vt 0.625000 0.500000
vt 0.875000 0.500000
vt 0.875000 0.750000
vt 0.625000 0.750000
vt 0.375000 0.750000
vt 0.483869 0.750000
vt 0.483869 1.000000
vt 0.375000 1.000000
vt 0.125000 0.500000
vt 0.375000 0.500000
vt 0.125000 0.750000
vt 0.516131 0.250000
vt 0.625000 0.250000
vt 0.516131 0.500000
vt 0.516131 0.000000
vt 0.625000 0.000000
vt 0.386579 0.506262
vt 0.472290 0.506262
vt 0.375000 0.250000
vt 0.483869 0.250000
vt 0.483869 0.500000
vt 0.516131 0.750000
vt 0.625000 1.000000
vt 0.516131 1.000000
vt 0.375000 0.000000
vt 0.483869 0.000000
vt 0.483869 0.250000
vt 0.483869 0.750000
vt 0.483869 0.500000
vt 0.527710 0.506262
vt 0.613421 0.506262
vt 0.613421 0.743738
vt 0.386579 0.743738
vt 0.527710 0.743738
vt 0.472290 0.743738
vt 0.000000 0.000000
s 0
usemtl Wood_1
f 17/1/1 5/2/1 7/3/1 18/4/1
f 19/5/2 23/6/2 11/7/2 8/8/2
f 6/9/3 20/10/3 19/5/3 8/11/3
f 16/12/4 5/13/4 17/1/4 21/14/4
f 12/15/5 7/16/5 5/13/5 16/12/5
f 2/17/4 28/17/4 32/18/4 10/18/4
f 6/19/4 15/20/4 24/21/4 20/10/4
f 22/22/2 18/4/2 7/23/2 12/24/2
f 8/25/5 11/26/5 15/27/5 6/19/5
f 16/12/4 21/14/4 24/21/4 15/20/4
f 21/14/6 22/22/6 23/28/6 24/29/6
f 12/15/5 16/12/5 15/27/5 11/26/5
f 22/22/2 12/24/2 11/7/2 23/6/2
f 9/30/4 29/30/4 25/31/4 1/31/4
f 3/32/6 1/31/6 17/1/6 18/4/6
f 2/17/6 4/33/6 19/5/6 20/10/6
f 9/30/6 13/34/6 22/22/6 21/14/6
f 14/35/6 10/18/6 24/29/6 23/28/6
f 10/18/6 2/17/6 20/10/6 24/29/6
f 4/33/6 14/35/6 23/28/6 19/5/6
f 1/31/6 9/30/6 21/14/6 17/1/6
f 13/34/6 3/32/6 18/4/6 22/22/6
f 29/30/5 30/34/5 26/32/5 25/31/5
f 28/17/5 27/33/5 31/35/5 32/18/5
f 13/34/3 30/34/3 29/30/3 9/30/3
f 1/31/1 25/31/1 26/32/1 3/32/1
f 3/32/2 26/32/2 30/34/2 13/34/2
f 14/35/2 31/35/2 27/33/2 4/33/2
f 10/18/1 32/18/1 31/35/1 14/35/1
f 4/33/3 27/33/3 28/17/3 2/17/3
f 4/36/6 2/36/6 10/36/6 14/36/6
f 1/36/6 3/36/6 13/36/6 9/36/6
o Cube.001
v 0.921377 0.081537 -1.138996
v 0.925027 0.096843 -1.154302
v 1.138996 0.081537 -0.921377
v 1.154302 0.096843 -0.925027
v 1.138996 0.081537 0.921377
v 1.154302 0.096843 0.925027
v 0.921377 0.081537 1.138996
v 0.925027 0.096843 1.154302
v -1.138996 0.081537 -0.921377
v -1.154302 0.096843 -0.925027
v -0.921377 0.081537 -1.138996
v -0.925027 0.096843 -1.154302
v -0.921377 0.081537 1.138996
v -0.925027 0.096843 1.154302
v -1.138996 0.081537 0.921377
v -1.154302 0.096843 0.925027
v 1.077306 0.096843 -1.077306
v 1.065915 0.081537 -1.065915
v 1.077306 0.096843 1.077306
v 1.065915 0.081537 1.065915
v -1.077306 0.096843 1.077306
v -1.065915 0.081537 1.065915
v -1.077306 0.096843 -1.077306
v -1.065915 0.081537 -1.065915
v 1.140874 0.164218 -0.921825
v 1.154302 0.150790 -0.925027
v 0.921825 0.164218 -1.140874
v 0.925027 0.150790 -1.154302
v 0.921825 0.164218 1.140874
v 0.925027 0.150790 1.154302
v 1.140874 0.164218 0.921825
v 1.154302 0.150790 0.925027
v -0.921825 0.164218 -1.140874
v -0.925027 0.150790 -1.154302
v -1.140874 0.164218 -0.921825
v -1.154302 0.150790 -0.925027
v -1.140874 0.164218 0.921825
v -1.154302 0.150790 0.925027
v -0.921825 0.164218 1.140874
v -0.925027 0.150790 1.154302
v 1.077306 0.150790 -1.077306
v 1.067313 0.164218 -1.067313
v 1.077306 0.150790 1.077306
v 1.067313 0.164218 1.067313
v -1.077306 0.150790 1.077306
v -1.067313 0.164218 1.067313
v -1.077306 0.150790 -1.077306
v -1.067313 0.164218 -1.067313
vn -0.0000 -1.0000 -0.0000
vn 0.9038 -0.3699 0.2155
vn 0.9038 -0.3699 -0.2155
vn 0.9038 0.3699 -0.2155
vn 0.9038 0.3699 0.2155
vn -0.9038 -0.3699 -0.2155
vn -0.9038 -0.3699 0.2155
vn -0.9038 0.3699 0.2155
vn -0.9038 0.3699 -0.2155
vn -0.6573 -0.3686 0.6573
vn -0.6573 0.3686 0.6573
vn -0.0000 1.0000 -0.0000
vn -0.6573 0.3686 -0.6573
vn -0.6573 -0.3686 -0.6573
vn 0.6573 0.3686 0.6573
vn 0.6573 -0.3686 0.6573
vn 0.6573 0.3686 -0.6573
vn 0.6573 -0.3686 -0.6573
vn 0.2155 -0.3699 -0.9038
vn 0.2155 0.3699 -0.9038
vn -0.2155 0.3699 -0.9038
vn -0.2155 -0.3699 -0.9038
vn -0.2155 -0.3699 0.9038
vn 0.2155 -0.3699 0.9038
vn 0.2155 0.3699 0.9038
vn -0.2155 0.3699 0.9038
vn -0.4870 -0.7250 0.4870
vn -0.1617 -0.7168 0.6783
vn -0.4870 -0.7250 -0.4870
vn -0.6783 -0.7168 -0.1617
vn 0.4870 -0.7250 0.4870
vn 0.6783 -0.7168 0.1617
vn 0.4870 -0.7250 -0.4870
vn 0.1617 -0.7168 -0.6783
vn 0.6783 -0.7168 -0.1617
vn -0.1617 -0.7168 -0.6783
vn 0.1617 -0.7168 0.6783
vn -0.6783 -0.7168 0.1617
vn -0.4870 0.7250 0.4870
vn -0.6783 0.7168 0.1617
vn -0.4870 0.7250 -0.4870
vn -0.1617 0.7168 -0.6783
vn 0.4870 0.7250 0.4870
vn 0.1617 0.7168 0.6783
vn 0.4870 0.7250 -0.4870
vn 0.6783 0.7168 -0.1617
vn 0.6783 0.7168 0.1617
vn 0.1617 0.7168 -0.6783
vn -0.1617 0.7168 0.6783
vn -0.6783 0.7168 -0.1617
vt 0.868022 0.526742
vt 0.927824 0.541581
vt 0.958014 0.570417
vt 0.957190 0.935822
vt 0.926871 0.964307
vt 0.867003 0.978451
vt 0.104146 0.974019
vt 0.044343 0.959179
vt 0.014154 0.930343
vt 0.014978 0.564938
vt 0.045296 0.536453
vt 0.105164 0.522310
vt 0.072842 0.042630
vt 0.838721 0.042892
vt 0.838697 0.043521
vt 0.072818 0.043260
vt 0.063779 0.041368
vt 0.808773 0.041623
vt 0.808749 0.042252
vt 0.063755 0.041998
vt 0.877487 0.041646
vt 0.877463 0.042276
vt 0.015233 0.107066
vt 0.045751 0.078393
vt 0.106012 0.064157
vt 0.869240 0.068591
vt 0.929436 0.083528
vt 0.959824 0.112554
vt 0.958999 0.478136
vt 0.928481 0.506808
vt 0.868220 0.521045
vt 0.104992 0.516611
vt 0.044796 0.501674
vt 0.014408 0.472648
vt 0.009826 0.041979
vt 0.009850 0.041350
vt 0.009778 0.043238
vt 0.009802 0.042609
vt 0.072866 0.042001
vt 0.838746 0.042263
vt 0.901786 0.042284
vt 0.901762 0.042913
vt 0.063803 0.040739
vt 0.808797 0.040993
vt 0.009874 0.040720
vt 0.102628 0.977045
vt 0.039622 0.961411
vt 0.008643 0.564178
vt 0.040586 0.534167
vt 0.963524 0.936582
vt 0.931582 0.966593
vt 0.869539 0.523715
vt 0.932545 0.539349
vt 0.964352 0.569730
vt 0.103660 0.519266
vt 0.868507 0.981495
vt 0.007816 0.931030
vt 0.877511 0.041017
vt 0.964557 0.478803
vt 0.932614 0.508814
vt 0.870572 0.065936
vt 0.933578 0.081570
vt 0.103660 0.519266
vt 0.040654 0.503632
vt 0.009675 0.106399
vt 0.041618 0.076388
vt 0.008848 0.473251
vt 0.104693 0.061486
vt 0.869539 0.523715
vt 0.965384 0.111951
vt 0.901737 0.043543
s 1
usemtl counter_top
f 33/37/7 50/38/7 35/39/7 37/40/7 52/41/7 39/42/7 45/43/7 54/44/7 47/45/7 41/46/7 56/47/7 43/48/7
f 38/49/8 36/50/9 58/51/10 64/52/11
f 42/53/12 48/54/13 70/55/14 68/56/15
f 53/57/16 77/58/17 70/55/14 48/54/13
f 57/59/18 74/60/18 59/61/18 65/62/18 80/63/18 67/64/18 69/65/18 78/66/18 71/67/18 61/68/18 76/69/18 63/70/18
f 79/71/19 55/72/20 42/53/12 68/56/15
f 38/49/8 64/52/11 75/73/21 51/74/22
f 73/74/23 49/71/24 34/75/25 60/49/26
f 66/50/27 44/76/28 55/77/20 79/78/19
f 34/75/25 44/76/28 66/50/27 60/49/26
f 46/79/29 40/80/30 62/54/31 72/53/32
f 46/79/29 72/53/32 77/72/17 53/81/16
f 54/44/33 45/43/34 46/82/29 53/83/16
f 56/47/35 41/46/36 42/84/12 55/85/20
f 52/41/37 37/40/38 38/86/8 51/87/22
f 50/38/39 33/37/40 34/88/25 49/89/24
f 37/40/38 35/39/41 36/90/9 38/86/8
f 44/91/28 34/88/25 33/37/40 43/48/42
f 40/92/30 46/82/29 45/43/34 39/42/43
f 48/93/13 42/84/12 41/46/36 47/45/44
f 35/39/41 50/38/39 49/89/24 36/90/9
f 39/42/43 52/41/37 51/87/22 40/92/30
f 47/45/44 54/44/33 53/83/16 48/93/13
f 43/48/42 56/47/35 55/85/20 44/91/28
f 51/94/22 75/57/21 62/54/31 40/80/30
f 78/66/45 69/65/46 70/95/14 77/96/17
f 80/63/47 65/62/48 66/97/27 79/98/19
f 76/69/49 61/68/50 62/99/31 75/100/21
f 74/60/51 57/59/52 58/101/10 73/102/23
f 57/59/52 63/70/53 64/103/11 58/101/10
f 65/62/48 59/61/54 60/104/26 66/97/27
f 61/68/50 71/67/55 72/105/32 62/99/31
f 69/65/46 67/64/56 68/106/15 70/95/14
f 59/61/54 74/60/51 73/102/23 60/104/26
f 63/70/53 76/69/49 75/100/21 64/103/11
f 71/67/55 78/66/45 77/96/17 72/105/32
f 67/64/56 80/63/47 79/98/19 68/106/15
f 58/51/10 36/50/9 49/78/24 73/107/23
