# Blender 4.3.2
# www.blender.org
mtllib Counter corner 1.mtl
o Cube.003
v 1.000002 -0.947359 -0.860861
v 1.000002 -0.947359 0.860861
v 1.000002 -0.581656 -0.860861
v 1.000002 -0.581656 0.860861
v 1.032678 -0.929666 -0.840363
v 1.032678 -0.929666 0.840363
v 1.032678 -0.599350 -0.840363
v 1.032678 -0.599350 0.840363
v 1.016340 -0.583407 -0.857267
v 1.016340 -0.945609 -0.857267
v 1.016340 -0.945609 0.857267
v 1.016340 -0.583407 0.857267
vn -1.0000 -0.0000 -0.0000
vn 1.0000 -0.0000 -0.0000
vn 0.7190 -0.0000 -0.6950
vn 0.7190 -0.0000 0.6950
vn 0.6984 0.7157 -0.0000
vn 0.6984 -0.7157 -0.0000
vn 0.1065 -0.9943 -0.0000
vn 0.1065 0.9943 -0.0000
vn 0.2148 -0.0000 0.9766
vn 0.2148 -0.0000 -0.9766
vt 0.000000 0.000000
s 0
usemtl Wood_1
f 2/1/1 4/1/1 3/1/1 1/1/1
f 6/1/2 5/1/2 7/1/2 8/1/2
f 10/1/3 9/1/3 7/1/3 5/1/3
f 12/1/4 11/1/4 6/1/4 8/1/4
f 9/1/5 12/1/5 8/1/5 7/1/5
f 11/1/6 10/1/6 5/1/6 6/1/6
f 2/1/7 1/1/7 10/1/7 11/1/7
f 3/1/8 4/1/8 12/1/8 9/1/8
f 4/1/9 2/1/9 11/1/9 12/1/9
f 1/1/10 3/1/10 9/1/10 10/1/10
o Circle
v 1.096673 -0.764508 -0.046194
v 1.096673 -0.731844 -0.032664
v 1.096673 -0.718314 -0.000000
v 1.096673 -0.731844 0.032664
v 1.096673 -0.764508 0.046194
v 1.096673 -0.797172 0.032664
v 1.096673 -0.810702 -0.000000
v 1.096673 -0.797172 -0.032664
v 1.086984 -0.764508 -0.056582
v 1.086984 -0.724499 -0.040009
v 1.086984 -0.707926 -0.000000
v 1.086984 -0.724499 0.040009
v 1.086984 -0.764508 0.056582
v 1.086984 -0.804517 0.040009
v 1.086984 -0.821089 -0.000000
v 1.086984 -0.804517 -0.040009
v 1.058588 -0.764508 -0.056582
v 1.058588 -0.724499 -0.040009
v 1.058588 -0.707926 -0.000000
v 1.058588 -0.724499 0.040009
v 1.058588 -0.764508 0.056582
v 1.058588 -0.804517 0.040009
v 1.058588 -0.821089 -0.000000
v 1.058588 -0.804517 -0.040009
v 1.053018 -0.764508 -0.051047
v 1.053018 -0.728412 -0.036096
v 1.053018 -0.713460 -0.000000
v 1.053018 -0.728412 0.036096
v 1.053018 -0.764508 0.051047
v 1.053018 -0.800604 0.036096
v 1.053018 -0.815555 -0.000000
v 1.053018 -0.800604 -0.036096
v 1.053018 -0.764508 -0.027425
v 1.053018 -0.745115 -0.019393
v 1.053018 -0.737083 0.000000
v 1.053018 -0.745115 0.019393
v 1.053018 -0.764508 0.027425
v 1.053018 -0.783900 0.019393
v 1.053018 -0.791933 0.000000
v 1.053018 -0.783900 -0.019393
v 1.008298 -0.764508 -0.027425
v 1.008298 -0.745115 -0.019393
v 1.008298 -0.737083 0.000000
v 1.008298 -0.745115 0.019393
v 1.008298 -0.764508 0.027425
v 1.008298 -0.783900 0.019393
v 1.008298 -0.791933 0.000000
v 1.008298 -0.783900 -0.019393
vn 0.8979 -0.4402 -0.0000
vn 0.8979 -0.3112 0.3112
vn 0.3670 -0.6578 0.6578
vn 0.3670 -0.9302 -0.0000
vn 0.8979 -0.0000 0.4402
vn 0.8979 0.3112 0.3112
vn 0.3670 0.6578 0.6578
vn 0.3670 -0.0000 0.9302
vn 0.8979 0.4402 -0.0000
vn 0.8979 0.3112 -0.3112
vn 0.3670 0.6578 -0.6578
vn 0.3670 0.9302 -0.0000
vn 0.8979 -0.3112 -0.3112
vn 0.3670 -0.6578 -0.6578
vn 0.8979 -0.0000 -0.4402
vn 0.3670 -0.0000 -0.9302
vn -0.3519 -0.9360 -0.0000
vn -0.3519 -0.6619 -0.6619
vn -0.3519 -0.0000 0.9360
vn -0.3519 -0.6619 0.6619
vn -0.3519 0.9360 -0.0000
vn -0.3519 0.6619 0.6619
vn -0.3519 -0.0000 -0.9360
vn -0.3519 0.6619 -0.6619
vn -0.8881 0.3250 0.3250
vn -0.8881 -0.0000 0.4596
vn -0.8881 0.3250 -0.3250
vn -0.8881 0.4596 -0.0000
vn -0.8881 -0.4596 -0.0000
vn -0.8881 -0.3250 -0.3250
vn -0.8881 -0.3250 0.3250
vn -0.8881 -0.0000 -0.4596
vn -1.0000 -0.0000 -0.0000
vn -0.0000 -0.7071 0.7071
vn -0.0000 -0.0000 1.0000
vn -0.0000 0.7071 0.7071
vn -0.0000 1.0000 -0.0000
vn -0.0000 0.7071 -0.7071
vn -0.0000 -0.0000 -1.0000
vn -0.0000 -0.7071 -0.7071
vn -0.0000 -1.0000 -0.0000
vt 0.000000 0.000000
s 1
usemtl Wood_1
f 19/2/11 18/2/12 26/2/13 27/2/14
f 17/2/15 16/2/16 24/2/17 25/2/18
f 15/2/19 14/2/20 22/2/21 23/2/22
f 20/2/23 19/2/11 27/2/14 28/2/24
f 18/2/12 17/2/15 25/2/18 26/2/13
f 16/2/16 15/2/19 23/2/22 24/2/17
f 14/2/20 13/2/25 21/2/26 22/2/21
f 13/2/25 20/2/23 28/2/24 21/2/26
f 28/2/24 27/2/14 35/2/27 36/2/28
f 26/2/13 25/2/18 33/2/29 34/2/30
f 24/2/17 23/2/22 31/2/31 32/2/32
f 22/2/21 21/2/26 29/2/33 30/2/34
f 21/2/26 28/2/24 36/2/28 29/2/33
f 27/2/14 26/2/13 34/2/30 35/2/27
f 25/2/18 24/2/17 32/2/32 33/2/29
f 23/2/22 22/2/21 30/2/34 31/2/31
f 33/2/29 32/2/32 40/2/35 41/2/36
f 31/2/31 30/2/34 38/2/37 39/2/38
f 36/2/28 35/2/27 43/2/39 44/2/40
f 34/2/30 33/2/29 41/2/36 42/2/41
f 32/2/32 31/2/31 39/2/38 40/2/35
f 30/2/34 29/2/33 37/2/42 38/2/37
f 29/2/33 36/2/28 44/2/40 37/2/42
f 35/2/27 34/2/30 42/2/41 43/2/39
f 37/2/42 44/2/40 52/2/43 45/2/43
f 43/2/39 42/2/41 50/2/43 51/2/43
f 41/2/36 40/2/35 48/2/43 49/2/43
f 39/2/38 38/2/37 46/2/43 47/2/43
f 44/2/40 43/2/39 51/2/43 52/2/43
f 42/2/41 41/2/36 49/2/43 50/2/43
f 40/2/35 39/2/38 47/2/43 48/2/43
f 38/2/37 37/2/42 45/2/43 46/2/43
f 50/2/44 49/2/45 57/2/45 58/2/44
f 48/2/46 47/2/47 55/2/47 56/2/46
f 46/2/48 45/2/49 53/2/49 54/2/48
f 45/2/49 52/2/50 60/2/50 53/2/49
f 51/2/51 50/2/44 58/2/44 59/2/51
f 49/2/45 48/2/46 56/2/46 57/2/45
f 47/2/47 46/2/48 54/2/48 55/2/47
f 52/2/50 51/2/51 59/2/51 60/2/50
f 14/2/20 15/2/19 16/2/16 17/2/15 18/2/12 19/2/11 20/2/23 13/2/25
o Cube.002
v 1.000002 -0.336806 -0.860861
v 1.000002 -0.336806 0.860861
v 1.000002 0.028896 -0.860861
v 1.000002 0.028896 0.860861
v 1.032678 -0.319113 -0.840363
v 1.032678 -0.319113 0.840363
v 1.032678 0.011203 -0.840363
v 1.032678 0.011203 0.840363
v 1.016340 0.027146 -0.857267
v 1.016340 -0.335056 -0.857267
v 1.016340 -0.335056 0.857267
v 1.016340 0.027146 0.857267
vn -1.0000 -0.0000 -0.0000
vn 1.0000 -0.0000 -0.0000
vn 0.7190 -0.0000 -0.6950
vn 0.7190 -0.0000 0.6950
vn 0.6984 0.7157 -0.0000
vn 0.6984 -0.7157 -0.0000
vn 0.1065 -0.9943 -0.0000
vn 0.1065 0.9943 -0.0000
vn 0.2148 -0.0000 0.9766
vn 0.2148 -0.0000 -0.9766
vt 0.000000 0.000000
s 0
usemtl Wood_1
f 62/3/52 64/3/52 63/3/52 61/3/52
f 66/3/53 65/3/53 67/3/53 68/3/53
f 70/3/54 69/3/54 67/3/54 65/3/54
f 72/3/55 71/3/55 66/3/55 68/3/55
f 69/3/56 72/3/56 68/3/56 67/3/56
f 71/3/57 70/3/57 65/3/57 66/3/57
f 62/3/58 61/3/58 70/3/58 71/3/58
f 63/3/59 64/3/59 72/3/59 69/3/59
f 64/3/60 62/3/60 71/3/60 72/3/60
f 61/3/61 63/3/61 69/3/61 70/3/61
o Circle.001
v 1.096673 -0.153955 -0.046194
v 1.096673 -0.121291 -0.032664
v 1.096673 -0.107761 0.000000
v 1.096673 -0.121291 0.032664
v 1.096673 -0.153955 0.046194
v 1.096673 -0.186619 0.032664
v 1.096673 -0.200149 0.000000
v 1.096673 -0.186619 -0.032664
v 1.086984 -0.153955 -0.056582
v 1.086984 -0.113946 -0.040009
v 1.086984 -0.097373 -0.000000
v 1.086984 -0.113946 0.040009
v 1.086984 -0.153955 0.056582
v 1.086984 -0.193964 0.040009
v 1.086984 -0.210537 -0.000000
v 1.086984 -0.193964 -0.040009
v 1.058588 -0.153955 -0.056582
v 1.058588 -0.113946 -0.040009
v 1.058588 -0.097373 -0.000000
v 1.058588 -0.113946 0.040009
v 1.058588 -0.153955 0.056582
v 1.058588 -0.193964 0.040009
v 1.058588 -0.210537 -0.000000
v 1.058588 -0.193964 -0.040009
v 1.053018 -0.153955 -0.051047
v 1.053018 -0.117859 -0.036096
v 1.053018 -0.102907 -0.000000
v 1.053018 -0.117859 0.036096
v 1.053018 -0.153955 0.051047
v 1.053018 -0.190051 0.036096
v 1.053018 -0.205002 -0.000000
v 1.053018 -0.190051 -0.036096
v 1.053018 -0.153955 -0.027425
v 1.053018 -0.134562 -0.019393
v 1.053018 -0.126530 0.000000
v 1.053018 -0.134562 0.019393
v 1.053018 -0.153955 0.027425
v 1.053018 -0.173347 0.019393
v 1.053018 -0.181380 0.000000
v 1.053018 -0.173347 -0.019393
v 1.008298 -0.153955 -0.027425
v 1.008298 -0.134562 -0.019393
v 1.008298 -0.126530 0.000000
v 1.008298 -0.134562 0.019393
v 1.008298 -0.153955 0.027425
v 1.008298 -0.173347 0.019393
v 1.008298 -0.181380 0.000000
v 1.008298 -0.173347 -0.019393
vn 0.8979 -0.4402 -0.0000
vn 0.8979 -0.3112 0.3112
vn 0.3670 -0.6578 0.6578
vn 0.3670 -0.9302 -0.0000
vn 0.8979 -0.0000 0.4402
vn 0.8979 0.3112 0.3112
vn 0.3670 0.6578 0.6578
vn 0.3670 -0.0000 0.9302
vn 0.8979 0.4402 -0.0000
vn 0.8979 0.3112 -0.3112
vn 0.3670 0.6578 -0.6578
vn 0.3670 0.9302 -0.0000
vn 0.8979 -0.3112 -0.3112
vn 0.3670 -0.6578 -0.6578
vn 0.8979 -0.0000 -0.4402
vn 0.3670 -0.0000 -0.9302
vn -0.3519 -0.9360 -0.0000
vn -0.3519 -0.6619 -0.6619
vn -0.3519 -0.0000 0.9360
vn -0.3519 -0.6619 0.6619
vn -0.3519 0.9360 -0.0000
vn -0.3519 0.6619 0.6619
vn -0.3519 -0.0000 -0.9360
vn -0.3519 0.6619 -0.6619
vn -0.8881 0.3250 0.3250
vn -0.8881 -0.0000 0.4596
vn -0.8881 0.3250 -0.3250
vn -0.8881 0.4596 -0.0000
vn -0.8881 -0.4596 -0.0000
vn -0.8881 -0.3250 -0.3250
vn -0.8881 -0.3250 0.3250
vn -0.8881 -0.0000 -0.4596
vn -1.0000 -0.0000 -0.0000
vn -0.0000 -0.7071 0.7071
vn -0.0000 -0.0000 1.0000
vn -0.0000 0.7071 0.7071
vn -0.0000 1.0000 -0.0000
vn -0.0000 0.7071 -0.7071
vn -0.0000 -0.0000 -1.0000
vn -0.0000 -0.7071 -0.7071
vn -0.0000 -1.0000 -0.0000
vt 0.000000 0.000000
s 1
usemtl Wood_1
f 79/4/62 78/4/63 86/4/64 87/4/65
f 77/4/66 76/4/67 84/4/68 85/4/69
f 75/4/70 74/4/71 82/4/72 83/4/73
f 80/4/74 79/4/62 87/4/65 88/4/75
f 78/4/63 77/4/66 85/4/69 86/4/64
f 76/4/67 75/4/70 83/4/73 84/4/68
f 74/4/71 73/4/76 81/4/77 82/4/72
f 73/4/76 80/4/74 88/4/75 81/4/77
f 88/4/75 87/4/65 95/4/78 96/4/79
f 86/4/64 85/4/69 93/4/80 94/4/81
f 84/4/68 83/4/73 91/4/82 92/4/83
f 82/4/72 81/4/77 89/4/84 90/4/85
f 81/4/77 88/4/75 96/4/79 89/4/84
f 87/4/65 86/4/64 94/4/81 95/4/78
f 85/4/69 84/4/68 92/4/83 93/4/80
f 83/4/73 82/4/72 90/4/85 91/4/82
f 93/4/80 92/4/83 100/4/86 101/4/87
f 91/4/82 90/4/85 98/4/88 99/4/89
f 96/4/79 95/4/78 103/4/90 104/4/91
f 94/4/81 93/4/80 101/4/87 102/4/92
f 92/4/83 91/4/82 99/4/89 100/4/86
f 90/4/85 89/4/84 97/4/93 98/4/88
f 89/4/84 96/4/79 104/4/91 97/4/93
f 95/4/78 94/4/81 102/4/92 103/4/90
f 97/4/93 104/4/91 112/4/94 105/4/94
f 103/4/90 102/4/92 110/4/94 111/4/94
f 101/4/87 100/4/86 108/4/94 109/4/94
f 99/4/89 98/4/88 106/4/94 107/4/94
f 104/4/91 103/4/90 111/4/94 112/4/94
f 102/4/92 101/4/87 109/4/94 110/4/94
f 100/4/86 99/4/89 107/4/94 108/4/94
f 98/4/88 97/4/93 105/4/94 106/4/94
f 110/4/95 109/4/96 117/4/96 118/4/95
f 108/4/97 107/4/98 115/4/98 116/4/97
f 106/4/99 105/4/100 113/4/100 114/4/99
f 105/4/100 112/4/101 120/4/101 113/4/100
f 111/4/102 110/4/95 118/4/95 119/4/102
f 109/4/96 108/4/97 116/4/97 117/4/96
f 107/4/98 106/4/99 114/4/99 115/4/98
f 112/4/101 111/4/102 119/4/102 120/4/101
f 74/4/71 75/4/70 76/4/67 77/4/66 78/4/63 79/4/62 80/4/74 73/4/76
o Cube.004
v 1.464205 0.028896 1.254197
v 1.464205 -0.947359 1.254197
v 3.185927 0.028896 1.254197
v 3.185927 -0.947359 1.254197
v 1.325066 0.081537 3.254197
v 1.325066 -1.000000 3.254197
v 3.325066 0.081537 3.254197
v 3.325066 -1.000000 3.254197
v 1.464205 -0.336806 1.254197
v 1.464205 -0.581656 1.254197
v 3.325066 -0.529016 3.254197
v 3.325066 -0.389447 3.254197
v 3.185927 -0.336806 1.254197
v 3.185927 -0.581656 1.254197
v 1.325066 -0.529015 3.254197
v 1.325066 -0.389447 3.254197
v 1.325066 0.081537 1.254197
v 3.325066 0.081537 1.254197
v 3.325066 -1.000000 1.254197
v 1.325066 -1.000000 1.254197
v 1.325066 -0.389447 1.254197
v 3.325066 -0.389447 1.254197
v 3.325066 -0.529015 1.254197
v 1.325066 -0.529015 1.254197
v 1.464205 0.028896 1.593987
v 3.185927 0.028896 1.593987
v 3.185927 -0.947359 1.593987
v 1.464205 -0.947359 1.593987
v 1.464205 -0.336806 1.593987
v 3.185927 -0.336806 1.593987
v 3.185927 -0.581656 1.593987
v 1.464205 -0.581656 1.593987
v 1.000000 0.028896 -0.860861
v 1.000000 -0.947359 -0.860861
v 1.000000 0.028896 0.860861
v 1.000000 -0.947359 0.860861
v -1.000000 0.081537 -1.000000
v -1.000000 -1.000000 -1.000000
v -1.000000 0.081537 1.000000
v -1.000000 -1.000000 1.000000
v 1.000000 -0.336806 -0.860861
v 1.000000 -0.581656 -0.860861
v -1.000000 -0.529015 1.000000
v -1.000000 -0.389447 1.000000
v 1.000000 -0.336806 0.860861
v 1.000000 -0.581656 0.860861
v -1.000000 -0.529015 -1.000000
v -1.000000 -0.389447 -1.000000
v 1.000000 0.081537 -1.000000
v 1.000000 0.081537 1.000000
v 1.000000 -1.000000 1.000000
v 1.000000 -1.000000 -1.000000
v 1.000000 -0.389447 -1.000000
v 1.000000 -0.389447 1.000000
v 1.000000 -0.529015 1.000000
v 1.000000 -0.529015 -1.000000
v 0.660211 0.028896 -0.860861
v 0.660211 0.028896 0.860861
v 0.660211 -0.947359 0.860861
v 0.660211 -0.947359 -0.860861
v 0.660211 -0.336806 -0.860861
v 0.660211 -0.336806 0.860861
v 0.660211 -0.581656 0.860861
v 0.660211 -0.581656 -0.860861
v 0.999996 0.081537 1.254197
v 0.999996 -1.000000 1.254197
v -1.000004 -1.000000 3.254198
v -1.000004 -0.529015 3.254198
v -1.000004 0.081537 3.254198
v -1.000004 -0.389447 3.254198
v 0.999996 -0.389447 1.254197
v 0.999996 -0.529015 1.254197
vn -0.0000 1.0000 -0.0000
vn 1.0000 -0.0000 -0.0000
vn -0.0000 -1.0000 -0.0000
vn -1.0000 -0.0000 -0.0000
vn -0.0000 -0.0000 1.0000
vn -0.0000 -0.0000 -1.0000
vt 0.625000 0.500000
vt 0.875000 0.500000
vt 0.875000 0.750000
vt 0.625000 0.750000
vt 0.375000 0.750000
vt 0.483869 0.750000
vt 0.483869 1.000000
vt 0.375000 1.000000
vt 0.125000 0.500000
vt 0.375000 0.500000
vt 0.125000 0.750000
vt 0.516131 0.250000
vt 0.625000 0.250000
vt 0.516131 0.500000
vt 0.516131 0.000000
vt 0.625000 0.000000
vt 0.386579 0.506262
vt 0.472290 0.506262
vt 0.375000 0.250000
vt 0.483869 0.250000
vt 0.483869 0.500000
vt 0.516131 0.750000
vt 0.625000 1.000000
vt 0.516131 1.000000
vt 0.375000 0.000000
vt 0.483869 0.000000
vt 0.483869 0.250000
vt 0.483869 0.750000
vt 0.483869 0.500000
vt 0.527710 0.506262
vt 0.613421 0.506262
vt 0.613421 0.743738
vt 0.386579 0.743738
vt 0.527710 0.743738
vt 0.472290 0.743738
vt 0.516131 0.608869
vt 0.000000 0.000000
vt 0.483869 0.641131
s 0
usemtl Wood_1
f 137/5/103 125/6/103 127/7/103 138/8/103
f 139/9/104 143/10/104 131/11/104 128/12/104
f 126/13/105 140/14/105 139/9/105 128/15/105
f 136/16/106 125/17/106 137/5/106 141/18/106
f 132/19/107 127/20/107 125/17/107 136/16/107
f 122/21/104 130/22/104 152/22/104 148/21/104
f 126/23/106 135/24/106 144/25/106 140/14/106
f 142/26/104 138/8/104 127/27/104 132/28/104
f 128/29/107 131/30/107 135/31/107 126/23/107
f 136/16/106 141/18/106 144/25/106 135/24/106
f 141/18/108 142/26/108 143/32/108 144/33/108
f 132/19/107 136/16/107 135/31/107 131/30/107
f 142/26/104 132/28/104 131/11/104 143/10/104
f 129/34/104 121/35/104 145/35/104 149/34/104
f 123/36/108 121/35/108 137/5/108 138/8/108
f 122/21/108 124/37/108 139/9/108 140/14/108
f 129/34/108 133/38/108 142/26/108 141/18/108
f 134/39/108 130/22/108 144/33/108 143/32/108
f 130/22/108 122/21/108 140/14/108 144/33/108
f 124/37/108 134/39/108 143/32/108 139/9/108
f 121/35/108 129/34/108 141/18/108 137/5/108
f 133/38/108 123/36/108 138/8/108 142/26/108
f 149/34/108 145/35/108 146/36/108 150/38/108
f 148/21/108 152/22/108 151/39/108 147/37/108
f 133/38/103 129/34/103 149/34/103 150/38/103
f 121/35/105 123/36/105 146/36/105 145/35/105
f 123/36/106 133/38/106 150/38/106 146/36/106
f 134/39/106 124/37/106 147/37/106 151/39/106
f 130/22/105 134/39/105 151/39/105 152/22/105
f 124/37/103 122/21/103 148/21/103 147/37/103
f 169/5/103 157/6/103 159/7/103 170/8/103
f 171/9/108 160/12/108 163/11/108 175/10/108
f 158/13/105 172/14/105 171/9/105 160/15/105
f 168/16/108 157/17/108 169/5/108 173/18/108
f 164/19/106 159/20/106 157/17/106 168/16/106
f 154/21/107 162/22/107 184/22/107 180/21/107
f 158/23/108 167/24/108 176/25/108 172/14/108
f 174/26/108 164/28/108 159/27/108 170/8/108
f 160/29/106 163/30/106 167/31/106 158/23/106
f 168/16/108 173/18/108 176/25/108 167/24/108
f 173/18/104 174/26/104 175/32/104 176/33/104
f 164/19/106 168/16/106 167/31/106 163/30/106
f 174/26/108 175/10/108 163/11/108 164/28/108
f 161/34/107 153/35/107 177/35/107 181/34/107
f 155/36/104 153/35/104 169/5/104 170/8/104
f 154/21/104 156/37/104 171/9/104 172/14/104
f 161/34/104 165/38/104 174/26/104 173/18/104
f 166/39/104 162/22/104 176/33/104 175/32/104
f 162/22/104 154/21/104 172/14/104 176/33/104
f 156/37/104 166/39/104 175/32/104 171/9/104
f 153/35/104 161/34/104 173/18/104 169/5/104
f 165/38/104 155/36/104 170/8/104 174/26/104
f 181/34/104 177/35/104 178/36/104 182/38/104
f 180/21/104 184/22/104 183/39/104 179/37/104
f 165/38/103 161/34/103 181/34/103 182/38/103
f 153/35/105 155/36/105 178/36/105 177/35/105
f 155/36/108 165/38/108 182/38/108 178/36/108
f 166/39/108 156/37/108 179/37/108 183/39/108
f 162/22/105 166/39/105 183/39/105 184/22/105
f 156/37/103 154/21/103 180/21/103 179/37/103
f 135/24/107 188/24/107 187/23/107 126/23/107
f 164/19/106 190/19/106 189/20/106 159/20/106
f 191/40/108 185/5/108 137/5/108 141/18/108
f 189/41/103 125/41/103 137/41/103 185/41/103
f 159/41/103 189/41/103 185/41/103 170/41/103
f 186/41/105 140/41/105 126/41/105 187/41/105
f 171/41/105 186/41/105 187/41/105 160/41/105
f 136/16/107 125/17/107 189/17/107 190/16/107
f 135/24/107 136/16/107 190/16/107 188/24/107
f 163/11/106 160/12/106 187/12/106 188/30/106
f 164/19/106 163/11/106 188/30/106 190/19/106
f 174/26/104 170/8/104 185/5/104 191/40/104
f 175/32/104 174/26/104 191/40/104 192/42/104
f 192/42/108 191/40/108 141/18/108 144/25/108
f 171/9/104 175/32/104 192/42/104 186/9/104
f 186/9/108 192/42/108 144/25/108 140/14/108
o Cube.005
v 3.246444 0.081537 1.115201
v 3.250093 0.096843 1.099895
v 3.464062 0.081537 1.332820
v 3.479369 0.096843 1.329171
v 3.464062 0.081537 3.177399
v 3.479369 0.096843 3.177399
v 3.248268 0.081537 3.393195
v 3.248268 0.096843 3.408501
v 3.402373 0.096843 1.176891
v 3.390981 0.081537 1.188282
v 3.465941 0.164218 1.332372
v 3.479369 0.150790 1.329171
v 3.246891 0.164218 1.113323
v 3.250093 0.150790 1.099895
v 3.248268 0.164218 3.395073
v 3.248268 0.150790 3.408501
v 3.465941 0.164218 3.177399
v 3.479369 0.150790 3.177399
v 3.402373 0.150790 1.176891
v 3.392379 0.164218 1.186885
v 0.921377 0.081537 -1.138996
v 0.925027 0.096843 -1.154302
v 1.138996 0.081537 -0.921377
v 1.154302 0.096843 -0.925027
v -1.138996 0.081537 -0.923202
v -1.154303 0.096843 -0.923202
v -0.923202 0.081537 -1.138996
v -0.923202 0.096843 -1.154302
v 1.077306 0.096843 -1.077307
v 1.065915 0.081537 -1.065915
v -1.150715 0.150790 -1.150714
v -1.144001 0.164218 -1.144000
v 1.140874 0.164218 -0.921825
v 1.154302 0.150790 -0.925027
v 0.921825 0.164218 -1.140874
v 0.925027 0.150790 -1.154302
v -0.923202 0.164218 -1.140874
v -0.923202 0.150790 -1.154302
v -1.140875 0.164218 -0.923202
v -1.154303 0.150790 -0.923202
v 1.077306 0.150790 -1.077307
v 1.067313 0.164218 -1.067313
v -1.150715 0.096843 -1.150714
v -1.143062 0.081537 -1.143061
v -1.144031 0.081537 3.398224
v -1.149859 0.096843 3.404053
v -1.144746 0.164218 3.398940
v -1.149859 0.150790 3.404053
v 1.141884 0.081537 0.978583
v 1.275613 0.081537 1.112303
v 1.181136 0.081537 1.073056
v 1.151745 0.096843 0.969244
v 1.284949 0.096843 1.102455
v 1.190685 0.096843 1.063511
v 1.276788 0.164218 1.111095
v 1.143094 0.164218 0.977407
v 1.182317 0.164218 1.071876
v 1.284949 0.150790 1.102455
v 1.151745 0.150790 0.969244
v 1.190685 0.150790 1.063511
v 3.468125 0.081537 3.397256
v 3.475778 0.096843 3.404909
v 3.469064 0.164218 3.398195
v 3.475778 0.150790 3.404909
vn 0.2133 -0.3479 -0.9130
vn 0.2133 0.3479 -0.9130
vn 0.6573 0.3686 -0.6573
vn 0.6573 -0.3686 -0.6573
vn 0.9372 -0.3487 0.0040
vn 0.9038 -0.3699 -0.2155
vn 0.9038 0.3699 -0.2155
vn 0.9372 0.3488 0.0044
vn 0.4870 -0.7250 -0.4870
vn 0.1622 -0.6819 -0.7132
vn 0.7553 -0.6554 -0.0004
vn 0.6783 -0.7168 -0.1617
vn 0.4870 0.7250 -0.4870
vn 0.6783 0.7168 -0.1617
vn 0.7553 0.6554 0.0004
vn 0.1621 0.6819 -0.7132
vn -0.0040 -0.3487 -0.9372
vn 0.0004 -0.6554 -0.7553
vn 0.0009 -0.5999 -0.8001
vn -0.0092 -0.2679 -0.9634
vn 0.2155 -0.3699 -0.9038
vn 0.2155 0.3699 -0.9038
vn -0.0004 0.6554 -0.7552
vn -0.0044 0.3488 -0.9372
vn -0.0099 0.2680 -0.9634
vn -0.0008 0.6001 -0.7999
vn 0.1617 -0.7168 -0.6782
vn 0.7131 -0.6820 -0.1622
vn 0.9129 -0.3479 -0.2133
vn -0.9519 0.3063 -0.0041
vn -0.8116 0.5842 -0.0004
vn -0.7999 0.6001 -0.0008
vn -0.9634 0.2680 -0.0099
vn 0.7132 0.6820 -0.1621
vn 0.9129 0.3479 -0.2133
vn 0.1617 0.7168 -0.6782
vn -0.8117 -0.5840 0.0004
vn -0.9520 -0.3062 -0.0037
vn -0.9634 -0.2679 -0.0092
vn -0.8001 -0.5999 0.0009
vn 0.7441 0.6416 -0.1859
vn 0.9202 0.3552 -0.1643
vn 0.1643 -0.3552 -0.9202
vn 0.1643 0.3551 -0.9203
vn 0.1860 0.6414 -0.7443
vn 0.1861 -0.6417 -0.7441
vn -0.9653 -0.2611 0.0006
vn -0.9653 0.2611 0.0006
vn -0.8229 0.5681 0.0001
vn -0.8229 -0.5681 -0.0001
vn 0.0037 -0.3062 0.9520
vn 0.0041 0.3063 0.9519
vn -0.0006 0.2611 0.9653
vn -0.0006 -0.2611 0.9653
vn 0.0004 0.5842 0.8116
vn -0.0001 0.5682 0.8229
vn -0.0004 -0.5841 0.8117
vn 0.0001 -0.5681 0.8229
vn 0.9202 -0.3553 -0.1643
vn 0.7439 -0.6419 -0.1861
vn 0.6517 -0.3881 -0.6517
vn 0.5284 -0.6645 -0.5284
vn 0.6518 0.3878 -0.6518
vn 0.5286 0.6642 -0.5286
vn 0.0092 -0.2679 0.9634
vn 0.0099 0.2680 0.9634
vn 0.0008 0.6001 0.7999
vn -0.0008 -0.5999 0.8001
vn 0.9634 0.2680 0.0099
vn 0.9634 -0.2679 0.0092
vn 0.7999 0.6001 0.0008
vn 0.8001 -0.5999 -0.0008
vn -0.0000 -1.0000 -0.0000
vn -0.0000 1.0000 -0.0000
vt 0.072842 0.042630
vt 0.072818 0.043260
vt 0.009778 0.043238
vt 0.009802 0.042609
vt 0.063803 0.040739
vt 0.808797 0.040993
vt 0.808773 0.041623
vt 0.063779 0.041368
vt 0.926871 0.964307
vt 0.957190 0.935822
vt 0.963524 0.936582
vt 0.931582 0.966593
vt 0.868507 0.981495
vt 0.102628 0.977045
vt 0.104146 0.974019
vt 0.867003 0.978451
vt 0.877511 0.041017
vt 0.877487 0.041646
vt 0.044796 0.501674
vt 0.104992 0.516611
vt 0.103660 0.519266
vt 0.040654 0.503632
vt 0.868220 0.521045
vt 0.869539 0.523715
vt 0.014408 0.472648
vt 0.008848 0.473251
vt 0.103660 0.519266
vt 0.105164 0.522310
vt 0.009826 0.041979
vt 0.072866 0.042001
vt 0.869240 0.068591
vt 0.870572 0.065936
vt 0.838746 0.042263
vt 0.838721 0.042892
vt 0.927824 0.541581
vt 0.868022 0.526742
vt 0.869539 0.523715
vt 0.932545 0.539349
vt 0.958014 0.570417
vt 0.964352 0.569730
vt 0.965384 0.111951
vt 0.959824 0.112554
vt 0.045751 0.078393
vt 0.015233 0.107066
vt 0.009675 0.106399
vt 0.041618 0.076388
vt 0.106012 0.064157
vt 0.104693 0.061486
vt 0.014978 0.564938
vt 0.008643 0.564178
vt 0.838697 0.043521
vt 0.901762 0.042913
vt 0.901737 0.043543
vt 0.063755 0.041998
vt 0.014408 0.472648
vt 0.808749 0.042252
vt 0.964557 0.478803
vt 0.958999 0.478136
vt 0.014154 0.930343
vt 0.007816 0.931030
vt 0.838721 0.042892
vt 0.958014 0.570417
s 1
usemtl counter_top
f 194/43/109 206/44/110 211/45/111 201/46/112
f 198/47/113 196/48/114 204/49/115 210/50/116
f 202/51/117 193/52/118 194/53/109 201/54/112
f 196/55/114 198/56/113 197/57/119 195/58/120
f 195/58/120 202/51/117 201/54/112 196/55/114
f 201/59/112 211/60/111 204/49/115 196/48/114
f 212/61/121 203/62/122 204/63/115 211/64/111
f 203/62/122 209/65/123 210/66/116 204/63/115
f 205/67/124 212/61/121 211/64/111 206/68/110
f 220/69/125 219/70/126 236/70/127 235/69/128
f 233/46/111 221/71/112 214/72/129 228/43/130
f 229/73/131 230/74/132 223/74/133 224/73/134
f 214/72/129 220/75/125 230/76/132 228/43/130
f 222/77/117 213/78/135 214/79/129 221/80/112
f 220/69/125 214/79/129 213/78/135 219/70/126
f 215/81/136 222/77/117 221/80/112 216/82/137
f 232/83/138 231/84/139 224/84/140 223/83/141
f 234/85/121 225/86/142 226/87/143 233/88/111
f 229/73/131 227/89/144 228/90/130 230/74/132
f 227/89/144 234/85/121 233/88/111 228/90/130
f 217/91/145 218/92/146 235/92/147 236/91/148
f 226/93/143 216/76/137 221/94/112 233/95/111
f 226/87/143 225/86/142 248/86/149 251/87/150
f 218/50/146 232/96/138 223/96/141 235/50/147
f 230/76/132 220/75/125 235/75/128 223/76/133
f 206/44/110 194/43/109 245/43/151 250/44/152
f 205/67/124 206/68/110 250/68/152 247/97/153
f 194/53/109 193/52/118 242/52/154 245/53/151
f 232/96/138 218/50/146 238/50/155 240/96/156
f 231/84/139 232/83/138 240/83/156 239/84/157
f 218/92/146 217/91/145 237/91/158 238/92/155
f 200/49/159 208/98/160 240/98/161 238/49/162
f 208/99/160 207/100/163 239/100/164 240/99/161
f 199/101/165 200/102/159 238/102/162 237/101/166
f 216/76/137 226/93/143 251/93/150 244/103/167
f 241/104/168 244/82/167 246/82/169 243/82/170
f 243/53/170 246/53/169 245/53/151 242/52/154
f 247/97/153 250/68/152 252/68/171 249/68/172
f 249/87/172 252/87/171 251/87/150 248/86/149
f 250/44/152 245/43/151 246/43/169 252/44/171
f 252/93/171 246/76/169 244/103/167 251/93/150
f 215/81/136 216/82/137 244/82/167 241/104/168
f 208/98/160 200/49/159 254/49/173 256/98/174
f 207/100/163 208/99/160 256/99/174 255/100/175
f 200/102/159 199/101/165 253/101/176 254/102/173
f 198/47/113 210/50/116 256/50/177 254/47/178
f 210/66/116 209/65/123 255/65/179 256/66/177
f 197/57/119 198/56/113 254/56/178 253/57/180
f 202/51/181 195/58/181 197/57/181 253/57/181 199/101/181 237/101/181 217/91/181 236/91/181 219/70/181 213/78/181 222/77/181 215/81/181 241/104/181 243/82/181 242/52/181 193/52/181
f 212/61/182 205/67/182 247/97/182 249/68/182 248/86/182 225/86/182 234/85/182 227/89/182 229/73/182 224/73/182 231/84/182 239/84/182 207/100/182 255/100/182 209/65/182 203/62/182
o Cube.006
v 1.464205 -0.947359 1.254195
v 3.185927 -0.947359 1.254195
v 1.464205 -0.581656 1.254195
v 3.185927 -0.581656 1.254195
v 1.484703 -0.929666 1.221519
v 3.165430 -0.929666 1.221519
v 1.484703 -0.599350 1.221519
v 3.165430 -0.599350 1.221519
v 1.467799 -0.583407 1.237857
v 1.467799 -0.945609 1.237857
v 3.182333 -0.945609 1.237857
v 3.182333 -0.583407 1.237857
vn -0.0000 -0.0000 1.0000
vn -0.0000 -0.0000 -1.0000
vn -0.6950 -0.0000 -0.7190
vn 0.6950 -0.0000 -0.7190
vn -0.0000 0.7157 -0.6984
vn -0.0000 -0.7157 -0.6984
vn -0.0000 -0.9943 -0.1065
vn -0.0000 0.9943 -0.1065
vn 0.9766 -0.0000 -0.2148
vn -0.9766 -0.0000 -0.2148
vt 0.000000 0.000000
s 0
usemtl Wood_1
f 258/105/183 260/105/183 259/105/183 257/105/183
f 262/105/184 261/105/184 263/105/184 264/105/184
f 266/105/185 265/105/185 263/105/185 261/105/185
f 268/105/186 267/105/186 262/105/186 264/105/186
f 265/105/187 268/105/187 264/105/187 263/105/187
f 267/105/188 266/105/188 261/105/188 262/105/188
f 258/105/189 257/105/189 266/105/189 267/105/189
f 259/105/190 260/105/190 268/105/190 265/105/190
f 260/105/191 258/105/191 267/105/191 268/105/191
f 257/105/192 259/105/192 265/105/192 266/105/192
o Circle.002
v 2.278872 -0.764508 1.157524
v 2.292402 -0.731844 1.157524
v 2.325066 -0.718314 1.157524
v 2.357730 -0.731844 1.157524
v 2.371260 -0.764508 1.157524
v 2.357730 -0.797172 1.157524
v 2.325066 -0.810702 1.157524
v 2.292402 -0.797172 1.157524
v 2.268485 -0.764508 1.167213
v 2.285057 -0.724499 1.167213
v 2.325066 -0.707926 1.167213
v 2.365076 -0.724499 1.167213
v 2.381648 -0.764508 1.167213
v 2.365076 -0.804517 1.167213
v 2.325066 -0.821089 1.167213
v 2.285057 -0.804517 1.167213
v 2.268485 -0.764508 1.195609
v 2.285057 -0.724499 1.195609
v 2.325066 -0.707926 1.195609
v 2.365076 -0.724499 1.195609
v 2.381648 -0.764508 1.195609
v 2.365076 -0.804517 1.195609
v 2.325066 -0.821089 1.195609
v 2.285057 -0.804517 1.195609
v 2.274019 -0.764508 1.201179
v 2.288970 -0.728412 1.201179
v 2.325066 -0.713460 1.201179
v 2.361162 -0.728412 1.201179
v 2.376114 -0.764508 1.201179
v 2.361162 -0.800604 1.201179
v 2.325066 -0.815555 1.201179
v 2.288970 -0.800604 1.201179
v 2.297641 -0.764508 1.201179
v 2.305674 -0.745115 1.201179
v 2.325066 -0.737083 1.201179
v 2.344459 -0.745115 1.201179
v 2.352491 -0.764508 1.201179
v 2.344459 -0.783900 1.201179
v 2.325066 -0.791933 1.201179
v 2.305674 -0.783900 1.201179
v 2.297641 -0.764508 1.245899
v 2.305674 -0.745115 1.245899
v 2.325066 -0.737083 1.245899
v 2.344459 -0.745115 1.245899
v 2.352491 -0.764508 1.245899
v 2.344459 -0.783900 1.245899
v 2.325066 -0.791933 1.245899
v 2.305674 -0.783900 1.245899
vn -0.0000 -0.4402 -0.8979
vn 0.3112 -0.3112 -0.8979
vn 0.6578 -0.6578 -0.3670
vn -0.0000 -0.9302 -0.3670
vn 0.4402 -0.0000 -0.8979
vn 0.3112 0.3112 -0.8979
vn 0.6578 0.6578 -0.3670
vn 0.9302 -0.0000 -0.3670
vn -0.0000 0.4402 -0.8979
vn -0.3112 0.3112 -0.8979
vn -0.6578 0.6578 -0.3670
vn -0.0000 0.9302 -0.3670
vn -0.3112 -0.3112 -0.8979
vn -0.6578 -0.6578 -0.3670
vn -0.4402 -0.0000 -0.8979
vn -0.9302 -0.0000 -0.3670
vn -0.0000 -0.9360 0.3519
vn -0.6619 -0.6619 0.3519
vn 0.9360 -0.0000 0.3519
vn 0.6619 -0.6619 0.3519
vn -0.0000 0.9360 0.3519
vn 0.6619 0.6619 0.3519
vn -0.9360 -0.0000 0.3519
vn -0.6619 0.6619 0.3519
vn 0.3250 0.3250 0.8881
vn 0.4596 -0.0000 0.8881
vn -0.3250 0.3250 0.8881
vn -0.0000 0.4596 0.8881
vn -0.0000 -0.4596 0.8881
vn -0.3250 -0.3250 0.8881
vn 0.3250 -0.3250 0.8881
vn -0.4596 -0.0000 0.8881
vn -0.0000 -0.0000 1.0000
vn 0.7071 -0.7071 -0.0000
vn 1.0000 -0.0000 -0.0000
vn 0.7071 0.7071 -0.0000
vn -0.0000 1.0000 -0.0000
vn -0.7071 0.7071 -0.0000
vn -1.0000 -0.0000 -0.0000
vn -0.7071 -0.7071 -0.0000
vn -0.0000 -1.0000 -0.0000
vt 0.000000 0.000000
s 1
usemtl Wood_1
f 275/106/193 274/106/194 282/106/195 283/106/196
f 273/106/197 272/106/198 280/106/199 281/106/200
f 271/106/201 270/106/202 278/106/203 279/106/204
f 276/106/205 275/106/193 283/106/196 284/106/206
f 274/106/194 273/106/197 281/106/200 282/106/195
f 272/106/198 271/106/201 279/106/204 280/106/199
f 270/106/202 269/106/207 277/106/208 278/106/203
f 269/106/207 276/106/205 284/106/206 277/106/208
f 284/106/206 283/106/196 291/106/209 292/106/210
f 282/106/195 281/106/200 289/106/211 290/106/212
f 280/106/199 279/106/204 287/106/213 288/106/214
f 278/106/203 277/106/208 285/106/215 286/106/216
f 277/106/208 284/106/206 292/106/210 285/106/215
f 283/106/196 282/106/195 290/106/212 291/106/209
f 281/106/200 280/106/199 288/106/214 289/106/211
f 279/106/204 278/106/203 286/106/216 287/106/213
f 289/106/211 288/106/214 296/106/217 297/106/218
f 287/106/213 286/106/216 294/106/219 295/106/220
f 292/106/210 291/106/209 299/106/221 300/106/222
f 290/106/212 289/106/211 297/106/218 298/106/223
f 288/106/214 287/106/213 295/106/220 296/106/217
f 286/106/216 285/106/215 293/106/224 294/106/219
f 285/106/215 292/106/210 300/106/222 293/106/224
f 291/106/209 290/106/212 298/106/223 299/106/221
f 293/106/224 300/106/222 308/106/225 301/106/225
f 299/106/221 298/106/223 306/106/225 307/106/225
f 297/106/218 296/106/217 304/106/225 305/106/225
f 295/106/220 294/106/219 302/106/225 303/106/225
f 300/106/222 299/106/221 307/106/225 308/106/225
f 298/106/223 297/106/218 305/106/225 306/106/225
f 296/106/217 295/106/220 303/106/225 304/106/225
f 294/106/219 293/106/224 301/106/225 302/106/225
f 306/106/226 305/106/227 313/106/227 314/106/226
f 304/106/228 303/106/229 311/106/229 312/106/228
f 302/106/230 301/106/231 309/106/231 310/106/230
f 301/106/231 308/106/232 316/106/232 309/106/231
f 307/106/233 306/106/226 314/106/226 315/106/233
f 305/106/227 304/106/228 312/106/228 313/106/227
f 303/106/229 302/106/230 310/106/230 311/106/229
f 308/106/232 307/106/233 315/106/233 316/106/232
f 270/106/202 271/106/201 272/106/198 273/106/197 274/106/194 275/106/193 276/106/205 269/106/207
o Cube.007
v 1.464205 -0.336806 1.254195
v 3.185927 -0.336806 1.254195
v 1.464205 0.028896 1.254195
v 3.185927 0.028896 1.254195
v 1.484703 -0.319113 1.221519
v 3.165430 -0.319113 1.221519
v 1.484703 0.011203 1.221519
v 3.165430 0.011203 1.221519
v 1.467799 0.027146 1.237857
v 1.467799 -0.335056 1.237857
v 3.182333 -0.335056 1.237857
v 3.182333 0.027146 1.237857
vn -0.0000 -0.0000 1.0000
vn -0.0000 -0.0000 -1.0000
vn -0.6950 -0.0000 -0.7190
vn 0.6950 -0.0000 -0.7190
vn -0.0000 0.7157 -0.6984
vn -0.0000 -0.7157 -0.6984
vn -0.0000 -0.9943 -0.1065
vn -0.0000 0.9943 -0.1065
vn 0.9766 -0.0000 -0.2148
vn -0.9766 -0.0000 -0.2148
vt 0.000000 0.000000
s 0
usemtl Wood_1
f 318/107/234 320/107/234 319/107/234 317/107/234
f 322/107/235 321/107/235 323/107/235 324/107/235
f 326/107/236 325/107/236 323/107/236 321/107/236
f 328/107/237 327/107/237 322/107/237 324/107/237
f 325/107/238 328/107/238 324/107/238 323/107/238
f 327/107/239 326/107/239 321/107/239 322/107/239
f 318/107/240 317/107/240 326/107/240 327/107/240
f 319/107/241 320/107/241 328/107/241 325/107/241
f 320/107/242 318/107/242 327/107/242 328/107/242
f 317/107/243 319/107/243 325/107/243 326/107/243
o Circle.003
v 2.278872 -0.153955 1.157524
v 2.292402 -0.121291 1.157524
v 2.325066 -0.107761 1.157524
v 2.357730 -0.121291 1.157524
v 2.371260 -0.153955 1.157524
v 2.357730 -0.186619 1.157524
v 2.325066 -0.200149 1.157524
v 2.292402 -0.186619 1.157524
v 2.268485 -0.153955 1.167213
v 2.285057 -0.113946 1.167213
v 2.325066 -0.097373 1.167213
v 2.365076 -0.113946 1.167213
v 2.381648 -0.153955 1.167213
v 2.365076 -0.193964 1.167213
v 2.325066 -0.210537 1.167213
v 2.285057 -0.193964 1.167213
v 2.268485 -0.153955 1.195609
v 2.285057 -0.113946 1.195609
v 2.325066 -0.097373 1.195609
v 2.365076 -0.113946 1.195609
v 2.381648 -0.153955 1.195609
v 2.365076 -0.193964 1.195609
v 2.325066 -0.210537 1.195609
v 2.285057 -0.193964 1.195609
v 2.274019 -0.153955 1.201179
v 2.288970 -0.117859 1.201179
v 2.325066 -0.102907 1.201179
v 2.361162 -0.117859 1.201179
v 2.376114 -0.153955 1.201179
v 2.361162 -0.190051 1.201179
v 2.325066 -0.205002 1.201179
v 2.288970 -0.190051 1.201179
v 2.297641 -0.153955 1.201179
v 2.305674 -0.134562 1.201179
v 2.325066 -0.126530 1.201179
v 2.344459 -0.134562 1.201179
v 2.352491 -0.153955 1.201179
v 2.344459 -0.173347 1.201179
v 2.325066 -0.181380 1.201179
v 2.305674 -0.173347 1.201179
v 2.297641 -0.153955 1.245899
v 2.305674 -0.134562 1.245899
v 2.325066 -0.126530 1.245899
v 2.344459 -0.134562 1.245899
v 2.352491 -0.153955 1.245899
v 2.344459 -0.173347 1.245899
v 2.325066 -0.181380 1.245899
v 2.305674 -0.173347 1.245899
vn -0.0000 -0.4402 -0.8979
vn 0.3112 -0.3112 -0.8979
vn 0.6578 -0.6578 -0.3670
vn -0.0000 -0.9302 -0.3670
vn 0.4402 -0.0000 -0.8979
vn 0.3112 0.3112 -0.8979
vn 0.6578 0.6578 -0.3670
vn 0.9302 -0.0000 -0.3670
vn -0.0000 0.4402 -0.8979
vn -0.3112 0.3112 -0.8979
vn -0.6578 0.6578 -0.3670
vn -0.0000 0.9302 -0.3670
vn -0.3112 -0.3112 -0.8979
vn -0.6578 -0.6578 -0.3670
vn -0.4402 -0.0000 -0.8979
vn -0.9302 -0.0000 -0.3670
vn -0.0000 -0.9360 0.3519
vn -0.6619 -0.6619 0.3519
vn 0.9360 -0.0000 0.3519
vn 0.6619 -0.6619 0.3519
vn -0.0000 0.9360 0.3519
vn 0.6619 0.6619 0.3519
vn -0.9360 -0.0000 0.3519
vn -0.6619 0.6619 0.3519
vn 0.3250 0.3250 0.8881
vn 0.4596 -0.0000 0.8881
vn -0.3250 0.3250 0.8881
vn -0.0000 0.4596 0.8881
vn -0.0000 -0.4596 0.8881
vn -0.3250 -0.3250 0.8881
vn 0.3250 -0.3250 0.8881
vn -0.4596 -0.0000 0.8881
vn -0.0000 -0.0000 1.0000
vn 0.7071 -0.7071 -0.0000
vn 1.0000 -0.0000 -0.0000
vn 0.7071 0.7071 -0.0000
vn -0.0000 1.0000 -0.0000
vn -0.7071 0.7071 -0.0000
vn -1.0000 -0.0000 -0.0000
vn -0.7071 -0.7071 -0.0000
vn -0.0000 -1.0000 -0.0000
vt 0.000000 0.000000
s 1
usemtl Wood_1
f 335/108/244 334/108/245 342/108/246 343/108/247
f 333/108/248 332/108/249 340/108/250 341/108/251
f 331/108/252 330/108/253 338/108/254 339/108/255
f 336/108/256 335/108/244 343/108/247 344/108/257
f 334/108/245 333/108/248 341/108/251 342/108/246
f 332/108/249 331/108/252 339/108/255 340/108/250
f 330/108/253 329/108/258 337/108/259 338/108/254
f 329/108/258 336/108/256 344/108/257 337/108/259
f 344/108/257 343/108/247 351/108/260 352/108/261
f 342/108/246 341/108/251 349/108/262 350/108/263
f 340/108/250 339/108/255 347/108/264 348/108/265
f 338/108/254 337/108/259 345/108/266 346/108/267
f 337/108/259 344/108/257 352/108/261 345/108/266
f 343/108/247 342/108/246 350/108/263 351/108/260
f 341/108/251 340/108/250 348/108/265 349/108/262
f 339/108/255 338/108/254 346/108/267 347/108/264
f 349/108/262 348/108/265 356/108/268 357/108/269
f 347/108/264 346/108/267 354/108/270 355/108/271
f 352/108/261 351/108/260 359/108/272 360/108/273
f 350/108/263 349/108/262 357/108/269 358/108/274
f 348/108/265 347/108/264 355/108/271 356/108/268
f 346/108/267 345/108/266 353/108/275 354/108/270
f 345/108/266 352/108/261 360/108/273 353/108/275
f 351/108/260 350/108/263 358/108/274 359/108/272
f 353/108/275 360/108/273 368/108/276 361/108/276
f 359/108/272 358/108/274 366/108/276 367/108/276
f 357/108/269 356/108/268 364/108/276 365/108/276
f 355/108/271 354/108/270 362/108/276 363/108/276
f 360/108/273 359/108/272 367/108/276 368/108/276
f 358/108/274 357/108/269 365/108/276 366/108/276
f 356/108/268 355/108/271 363/108/276 364/108/276
f 354/108/270 353/108/275 361/108/276 362/108/276
f 366/108/277 365/108/278 373/108/278 374/108/277
f 364/108/279 363/108/280 371/108/280 372/108/279
f 362/108/281 361/108/282 369/108/282 370/108/281
f 361/108/282 368/108/283 376/108/283 369/108/282
f 367/108/284 366/108/277 374/108/277 375/108/284
f 365/108/278 364/108/279 372/108/279 373/108/278
f 363/108/280 362/108/281 370/108/281 371/108/280
f 368/108/283 367/108/284 375/108/284 376/108/283
f 330/108/253 331/108/252 332/108/249 333/108/248 334/108/245 335/108/244 336/108/256 329/108/258
