# Blender 4.3.2
# www.blender.org
mtllib extractor .mtl
o Plane
v -0.793142 0.000000 1.352740
v 0.793142 0.000000 1.352740
v -0.793142 0.000000 -1.352740
v 0.793142 0.000000 -1.352740
v -1.000000 0.438821 1.559598
v 1.000000 0.438821 1.559598
v -1.000000 0.438821 -1.559598
v 1.000000 0.438821 -1.559598
v -0.805448 0.647441 1.256175
v 0.805448 0.647441 1.256175
v -0.805448 0.647441 -1.256175
v 0.805448 0.647441 -1.256175
v 0.081160 0.000000 -1.352740
v 0.081160 0.000000 1.352740
v -1.174558 1.493933 -1.256175
v -1.174558 1.976236 -1.256175
v -1.174558 1.493933 1.256175
v -1.174558 1.976236 1.256175
v -0.805448 1.976236 1.256175
v -0.805448 1.976236 -1.256175
v 0.082419 1.493933 1.256175
v 0.082419 1.493933 -1.256175
v 0.082419 0.647441 -1.256175
v 0.082419 0.647441 1.256175
v 0.102327 0.438821 -1.559598
v 0.102327 0.438821 1.559598
v -0.793142 0.420096 -1.352740
v -0.793142 0.420096 1.352740
v 0.793142 0.420096 1.352740
v 0.793142 0.420096 -1.352740
v 0.081160 0.420096 1.352740
v 0.081160 0.420096 -1.352740
v 0.082419 1.624464 1.256175
v -0.269353 1.976236 1.256175
v -0.269353 1.976236 -1.256175
v 0.082419 1.624464 -1.256175
v -0.805448 1.142160 1.256175
v -0.453676 1.493933 1.256175
v -0.805448 1.845705 1.256175
v -0.805448 1.142160 -1.256175
v -0.805448 1.845705 -1.256175
v -0.453676 1.493933 -1.256175
v 0.102327 0.045489 -1.559598
v 0.097673 -0.017283 -1.514109
v 0.102327 0.045489 1.559598
v 0.097673 -0.017283 1.514109
v -1.000000 0.045489 -1.559598
v -0.954511 -0.017283 -1.514109
v -0.954511 -0.017283 1.514109
v -1.000000 0.045489 1.559598
v 0.954511 -0.017283 1.514109
v 1.000000 0.045489 1.559598
v 0.954511 -0.017283 -1.514109
v 1.000000 0.045489 -1.559598
vn -0.0000 0.8240 -0.5666
vn -0.3380 0.8626 -0.3764
vn -0.4442 0.8455 -0.2965
vn -0.0000 -0.9943 -0.1065
vn -0.0534 -0.9971 -0.0534
vn 0.3488 -0.8698 0.3488
vn -0.0000 -0.9137 0.4064
vn -0.3380 0.8626 0.3764
vn -0.0000 0.8240 0.5666
vn -0.4442 0.8455 0.2965
vn 0.3380 0.8626 0.3764
vn 0.4442 0.8455 0.2965
vn -0.0000 -0.0000 -1.0000
vn -0.7071 -0.0000 0.7071
vn -0.0000 -0.0000 1.0000
vn 0.7071 -0.0000 0.7071
vn 0.7071 -0.0000 -0.7071
vn -0.7071 -0.0000 -0.7071
vn 0.0534 -0.9971 -0.0534
vn -0.3488 -0.8698 0.3488
vn -0.0534 -0.9971 0.0534
vn -0.0000 -0.9943 0.1065
vn -0.0000 -0.9137 -0.4064
vn 0.3488 -0.8698 -0.3488
vn 0.3380 0.8626 -0.3764
vn 0.4442 0.8455 -0.2965
vn 0.4938 -0.7157 0.4938
vn -0.0000 -0.5868 0.8097
vn -0.3488 -0.8698 -0.3488
vn -0.4938 -0.7157 -0.4938
vn -0.0000 -0.5868 -0.8097
vn -0.4938 -0.7157 0.4938
vn 0.4938 -0.7157 -0.4938
vn 0.0534 -0.9971 0.0534
vn 0.3827 0.9239 -0.0000
vn 0.7071 0.7071 -0.0000
vn -0.6899 -0.7239 -0.0000
vn -0.0000 1.0000 -0.0000
vn 1.0000 -0.0000 -0.0000
vn -1.0000 -0.0000 -0.0000
vn -0.0000 -1.0000 -0.0000
vt 0.551164 1.000000
vt 0.000000 1.000000
vt 0.540580 0.066318
vt 0.896571 0.066318
vt 0.977255 0.014584
vt 0.548836 0.014584
vt 0.000000 0.000000
vt 0.551164 0.000000
vt 1.000000 0.000000
vt 0.218371 1.000000
vt 0.332793 1.000000
vt 0.551164 0.000000
vt 1.000000 1.000000
vt 0.551164 1.000000
vt 0.103429 0.933682
vt 0.540580 0.933682
vt 0.540580 0.933682
vt 0.540580 0.066318
vt 0.218371 0.000000
vt 0.103429 0.066318
vt 0.548836 0.014584
vt 0.022745 0.014584
vt 0.896571 0.933682
vt 0.548836 0.985416
vt 0.977255 0.985416
vt 0.218371 1.000000
vt 0.218371 0.000000
vt 0.332793 0.000000
vt 0.548836 0.985416
vt 0.022745 0.985416
vt 0.977255 0.014584
vt 0.977255 0.985416
vt 0.022745 0.985416
vt 0.022745 0.014584
s 1
usemtl grey_metalic_(med)
f 25/1/1 7/2/2 11/2/3 23/1/1
f 14/3/4 2/4/5 51/5/6 46/6/7
f 5/7/8 26/8/9 24/8/9 9/7/10
f 26/8/9 6/9/11 10/9/12 24/8/9
f 22/1/13 42/10/13 41/2/13 20/2/13 35/11/13 36/1/13
f 50/7/14 45/12/15 26/8/15 5/7/14
f 45/12/15 52/9/16 6/9/16 26/8/15
f 20/2/13 41/2/13 15/2/13 16/2/13
f 54/13/17 43/14/13 25/1/13 8/13/17
f 17/7/15 39/7/15 19/7/15 18/7/15
f 3/15/16 13/16/15 32/17/15 27/15/16
f 2/4/18 14/3/13 31/18/13 29/4/18
f 9/7/15 24/8/15 21/8/15 38/19/15 37/7/15
f 1/20/19 14/3/4 46/21/7 49/22/20
f 4/23/21 13/16/22 44/24/23 53/25/24
f 13/16/15 4/23/14 30/23/14 32/17/15
f 14/3/13 1/20/17 28/20/17 31/18/13
f 43/14/13 47/2/18 7/2/18 25/1/13
f 8/13/25 25/1/1 23/1/1 12/13/26
f 23/1/13 11/2/13 40/2/13 42/26/13 22/1/13
f 17/7/15 37/7/15 38/19/15 39/7/15
f 40/2/13 15/2/13 41/2/13 42/10/13
f 39/7/15 38/27/15 21/8/15 33/8/15 34/28/15 19/7/15
f 46/6/7 51/5/6 52/9/27 45/12/28
f 44/29/23 48/30/29 47/2/30 43/14/31
f 49/22/20 46/21/7 45/12/28 50/7/32
f 53/25/24 44/24/23 43/14/31 54/13/33
f 13/16/22 3/15/34 48/30/29 44/29/23
f 51/31/6 53/32/24 54/13/33 52/9/27
f 48/33/29 49/34/20 50/7/32 47/2/30
f 35/7/35 34/7/35 33/7/36 36/7/36
f 40/2/37 37/7/37 17/7/37 15/2/37
f 19/7/38 20/7/38 16/7/38 18/7/38
f 1/20/17 3/15/16 27/15/16 28/20/17
f 52/9/16 54/13/17 8/13/17 6/9/16
f 47/2/18 50/7/14 5/7/14 7/2/18
f 24/7/39 23/7/39 22/7/39 21/7/39
f 11/2/40 9/7/40 37/7/40 40/2/40
f 21/7/39 22/7/39 36/7/39 33/7/39
f 35/7/35 20/7/38 19/7/38 34/7/35
f 12/7/38 23/7/38 24/7/38 10/7/38
f 15/2/40 17/7/40 18/7/40 16/2/40
f 7/2/2 5/7/8 9/7/10 11/2/3
f 6/9/11 8/13/25 12/13/26 10/9/12
f 2/4/5 4/23/21 53/32/24 51/31/6
f 3/15/34 1/20/19 49/34/20 48/33/29
f 4/23/14 2/4/18 29/4/18 30/23/14
f 28/20/41 27/15/41 32/17/41 30/23/41 29/4/41 31/18/41
o Circle
v 1.000000 0.242155 0.544695
v 1.000000 0.300512 0.568868
v 1.000000 0.324685 0.627225
v 1.000000 0.300512 0.685582
v 1.000000 0.242155 0.709755
v 1.000000 0.183798 0.685582
v 1.000000 0.159626 0.627225
v 1.000000 0.183798 0.568868
v 1.000000 0.242155 0.231083
v 1.000000 0.300512 0.255255
v 1.000000 0.324685 0.313613
v 1.000000 0.300512 0.371970
v 1.000000 0.242155 0.396142
v 1.000000 0.183798 0.371970
v 1.000000 0.159626 0.313613
v 1.000000 0.183798 0.255255
v 1.000000 0.242155 -0.082530
v 1.000000 0.300512 -0.058357
v 1.000000 0.324685 0.000000
v 1.000000 0.300512 0.058357
v 1.000000 0.242155 0.082530
v 1.000000 0.183798 0.058357
v 1.000000 0.159626 0.000000
v 1.000000 0.183798 -0.058357
v 1.000000 0.242155 -0.396142
v 1.000000 0.300512 -0.371970
v 1.000000 0.324685 -0.313613
v 1.000000 0.300512 -0.255255
v 1.000000 0.242155 -0.231083
v 1.000000 0.183798 -0.255255
v 1.000000 0.159626 -0.313613
v 1.000000 0.183798 -0.371970
v 1.000000 0.242155 -0.709755
v 1.000000 0.300512 -0.685582
v 1.000000 0.324685 -0.627225
v 1.000000 0.300512 -0.568868
v 1.000000 0.242155 -0.544695
v 1.000000 0.183798 -0.568868
v 1.000000 0.159626 -0.627225
v 1.000000 0.183798 -0.685582
v 1.054716 0.242155 0.556294
v 1.044000 0.242155 0.544695
v 1.044000 0.300512 0.568868
v 1.054716 0.292311 0.577069
v 1.044000 0.324685 0.627225
v 1.054716 0.313086 0.627225
v 1.044000 0.300512 0.685582
v 1.054716 0.292311 0.677381
v 1.044000 0.242155 0.709755
v 1.054716 0.242155 0.698156
v 1.044000 0.183798 0.685582
v 1.054716 0.191999 0.677381
v 1.044000 0.159626 0.627225
v 1.054716 0.171224 0.627225
v 1.044000 0.183798 0.568868
v 1.054716 0.191999 0.577069
v 1.054716 0.242155 0.242681
v 1.044000 0.242155 0.231083
v 1.044000 0.300512 0.255255
v 1.054716 0.292311 0.263457
v 1.044000 0.324685 0.313613
v 1.054716 0.313086 0.313613
v 1.044000 0.300512 0.371970
v 1.054716 0.292311 0.363769
v 1.044000 0.242155 0.396142
v 1.054716 0.242155 0.384544
v 1.044000 0.183798 0.371970
v 1.054716 0.191999 0.363769
v 1.044000 0.159626 0.313613
v 1.054716 0.171224 0.313613
v 1.044000 0.183798 0.255255
v 1.054716 0.191999 0.263457
v 1.054716 0.242155 -0.070931
v 1.044000 0.242155 -0.082530
v 1.044000 0.300512 -0.058357
v 1.054716 0.292311 -0.050156
v 1.044000 0.324685 0.000000
v 1.054716 0.313086 0.000000
v 1.044000 0.300512 0.058357
v 1.054716 0.292311 0.050156
v 1.044000 0.242155 0.082530
v 1.054716 0.242155 0.070931
v 1.044000 0.183798 0.058357
v 1.054716 0.191999 0.050156
v 1.044000 0.159626 0.000000
v 1.054716 0.171224 0.000000
v 1.044000 0.183798 -0.058357
v 1.054716 0.191999 -0.050156
v 1.054716 0.242155 -0.384544
v 1.044000 0.242155 -0.396142
v 1.044000 0.300512 -0.371970
v 1.054716 0.292311 -0.363768
v 1.044000 0.324685 -0.313613
v 1.054716 0.313086 -0.313613
v 1.044000 0.300512 -0.255255
v 1.054716 0.292311 -0.263457
v 1.044000 0.242155 -0.231083
v 1.054716 0.242155 -0.242681
v 1.044000 0.183798 -0.255255
v 1.054716 0.191999 -0.263457
v 1.044000 0.159626 -0.313613
v 1.054716 0.171224 -0.313613
v 1.044000 0.183798 -0.371970
v 1.054716 0.191999 -0.363768
v 1.054716 0.242155 -0.698156
v 1.044000 0.242155 -0.709755
v 1.044000 0.300512 -0.685582
v 1.054716 0.292311 -0.677381
v 1.044000 0.324685 -0.627225
v 1.054716 0.313086 -0.627225
v 1.044000 0.300512 -0.568868
v 1.054716 0.292311 -0.577069
v 1.044000 0.242155 -0.544695
v 1.054716 0.242155 -0.556294
v 1.044000 0.183798 -0.568868
v 1.054716 0.191999 -0.577069
v 1.044000 0.159626 -0.627225
v 1.054716 0.171224 -0.627225
v 1.044000 0.183798 -0.685582
v 1.054716 0.191999 -0.677381
vn -0.0000 0.7071 0.7071
vn -0.0000 -0.0000 1.0000
vn -0.0000 -1.0000 -0.0000
vn -0.0000 -0.7071 -0.7071
vn -0.0000 0.7071 -0.7071
vn -0.0000 1.0000 -0.0000
vn -0.0000 -0.7071 0.7071
vn 1.0000 -0.0000 -0.0000
vn -0.0000 -0.0000 -1.0000
vn 0.7345 0.4798 -0.4798
vn 0.7345 -0.0000 -0.6786
vn 0.7345 0.6786 -0.0000
vn 0.7345 0.4798 0.4798
vn 0.7345 -0.0000 0.6786
vn 0.7345 -0.4798 0.4798
vn 0.7345 -0.6786 -0.0000
vn 0.7345 -0.4798 -0.4798
vt 0.000000 0.000000
s 1
usemtl grey_metalic_(med)
f 74/35/42 75/35/43 135/35/43 133/35/42
f 61/35/44 62/35/45 109/35/45 107/35/44
f 75/35/43 76/35/48 137/35/48 135/35/43
f 114/35/49 116/35/49 118/35/49 120/35/49 122/35/49 124/35/49 126/35/49 111/35/49
f 76/35/48 77/35/44 139/35/44 137/35/48
f 55/35/50 56/35/46 97/35/46 96/35/50
f 77/35/44 78/35/45 141/35/45 139/35/44
f 64/35/46 65/35/47 115/35/47 113/35/46
f 146/35/49 148/35/49 150/35/49 152/35/49 154/35/49 156/35/49 158/35/49 143/35/49
f 65/35/47 66/35/42 117/35/42 115/35/47
f 71/35/50 72/35/46 129/35/46 128/35/50
f 66/35/42 67/35/43 119/35/43 117/35/42
f 80/35/46 81/35/47 147/35/47 145/35/46
f 67/35/43 68/35/48 121/35/48 119/35/43
f 81/35/47 82/35/42 149/35/42 147/35/47
f 68/35/48 69/35/44 123/35/44 121/35/48
f 82/35/42 83/35/43 151/35/43 149/35/42
f 69/35/44 70/35/45 125/35/45 123/35/44
f 56/35/46 57/35/47 99/35/47 97/35/46
f 83/35/43 84/35/48 153/35/48 151/35/43
f 130/35/49 132/35/49 134/35/49 136/35/49 138/35/49 140/35/49 142/35/49 127/35/49
f 57/35/47 58/35/42 101/35/42 99/35/47
f 84/35/48 85/35/44 155/35/44 153/35/48
f 63/35/50 64/35/46 113/35/46 112/35/50
f 58/35/42 59/35/43 103/35/43 101/35/42
f 85/35/44 86/35/45 157/35/45 155/35/44
f 72/35/46 73/35/47 131/35/47 129/35/46
f 59/35/43 60/35/48 105/35/48 103/35/43
f 73/35/47 74/35/42 133/35/42 131/35/47
f 60/35/48 61/35/44 107/35/44 105/35/48
f 79/35/50 80/35/46 145/35/46 144/35/50
f 62/35/45 55/35/50 96/35/50 109/35/45
f 70/35/45 63/35/50 112/35/50 125/35/45
f 78/35/45 71/35/50 128/35/50 141/35/45
f 86/35/45 79/35/50 144/35/50 157/35/45
f 98/35/51 95/35/52 96/35/52 97/35/51
f 100/35/53 98/35/51 97/35/51 99/35/53
f 102/35/54 100/35/53 99/35/53 101/35/54
f 104/35/55 102/35/54 101/35/54 103/35/55
f 106/35/56 104/35/55 103/35/55 105/35/56
f 108/35/57 106/35/56 105/35/56 107/35/57
f 110/35/58 108/35/57 107/35/57 109/35/58
f 95/35/52 110/35/58 109/35/58 96/35/52
f 114/35/51 111/35/52 112/35/52 113/35/51
f 116/35/53 114/35/51 113/35/51 115/35/53
f 118/35/54 116/35/53 115/35/53 117/35/54
f 120/35/55 118/35/54 117/35/54 119/35/55
f 122/35/56 120/35/55 119/35/55 121/35/56
f 124/35/57 122/35/56 121/35/56 123/35/57
f 126/35/58 124/35/57 123/35/57 125/35/58
f 111/35/52 126/35/58 125/35/58 112/35/52
f 130/35/51 127/35/52 128/35/52 129/35/51
f 132/35/53 130/35/51 129/35/51 131/35/53
f 134/35/54 132/35/53 131/35/53 133/35/54
f 136/35/55 134/35/54 133/35/54 135/35/55
f 138/35/56 136/35/55 135/35/55 137/35/56
f 140/35/57 138/35/56 137/35/56 139/35/57
f 142/35/58 140/35/57 139/35/57 141/35/58
f 127/35/52 142/35/58 141/35/58 128/35/52
f 146/35/51 143/35/52 144/35/52 145/35/51
f 148/35/53 146/35/51 145/35/51 147/35/53
f 150/35/54 148/35/53 147/35/53 149/35/54
f 152/35/55 150/35/54 149/35/54 151/35/55
f 154/35/56 152/35/55 151/35/55 153/35/56
f 156/35/57 154/35/56 153/35/56 155/35/57
f 158/35/58 156/35/57 155/35/57 157/35/58
f 143/35/52 158/35/58 157/35/58 144/35/52
f 98/35/49 100/35/49 102/35/49 104/35/49 106/35/49 108/35/49 110/35/49 95/35/49
usemtl red_non-metalic_(rough)
f 88/35/46 89/35/47 163/35/47 161/35/46
f 89/35/47 90/35/42 165/35/42 163/35/47
f 90/35/42 91/35/43 167/35/43 165/35/42
f 91/35/43 92/35/48 169/35/48 167/35/43
f 92/35/48 93/35/44 171/35/44 169/35/48
f 93/35/44 94/35/45 173/35/45 171/35/44
f 87/35/50 88/35/46 161/35/46 160/35/50
f 162/35/49 164/35/49 166/35/49 168/35/49 170/35/49 172/35/49 174/35/49 159/35/49
f 94/35/45 87/35/50 160/35/50 173/35/45
f 162/35/51 159/35/52 160/35/52 161/35/51
f 164/35/53 162/35/51 161/35/51 163/35/53
f 166/35/54 164/35/53 163/35/53 165/35/54
f 168/35/55 166/35/54 165/35/54 167/35/55
f 170/35/56 168/35/55 167/35/55 169/35/56
f 172/35/57 170/35/56 169/35/56 171/35/57
f 174/35/58 172/35/57 171/35/57 173/35/58
f 159/35/52 174/35/58 173/35/58 160/35/52
