# Blender 4.3.2
# www.blender.org
mtllib wall Counter 1.mtl
o Cube
v 1.000000 0.028896 -0.860861
v 1.000000 -0.947359 -0.860861
v 1.000000 0.028896 0.860861
v 1.000000 -0.947359 0.860861
v -1.000000 0.081537 -1.000000
v -1.000000 -1.000000 -1.000000
v -1.000000 0.081537 1.000000
v -1.000000 -1.000000 1.000000
v 1.000000 -0.336806 -0.860861
v 1.000000 -0.581656 -0.860861
v -1.000000 -0.529015 1.000000
v -1.000000 -0.389447 1.000000
v 1.000000 -0.336806 0.860861
v 1.000000 -0.581656 0.860861
v -1.000000 -0.529015 -1.000000
v -1.000000 -0.389447 -1.000000
v 1.000000 0.081537 -1.000000
v 1.000000 0.081537 1.000000
v 1.000000 -1.000000 1.000000
v 1.000000 -1.000000 -1.000000
v 1.000000 -0.389447 -1.000000
v 1.000000 -0.389447 1.000000
v 1.000000 -0.529015 1.000000
v 1.000000 -0.529015 -1.000000
v 0.660211 0.028896 -0.860861
v 0.660211 0.028896 0.860861
v 0.660211 -0.947359 0.860861
v 0.660211 -0.947359 -0.860861
v 0.660211 -0.336806 -0.860861
v 0.660211 -0.336806 0.860861
v 0.660211 -0.581656 0.860861
v 0.660211 -0.581656 -0.860861
vn -0.0000 1.0000 -0.0000
vn -0.0000 -0.0000 1.0000
vn -0.0000 -1.0000 -0.0000
vn -0.0000 -0.0000 -1.0000
vn -1.0000 -0.0000 -0.0000
vn 1.0000 -0.0000 -0.0000
vt 0.625000 0.500000
vt 0.875000 0.500000
vt 0.875000 0.750000
vt 0.625000 0.750000
vt 0.375000 0.750000
vt 0.483869 0.750000
vt 0.483869 1.000000
vt 0.375000 1.000000
vt 0.125000 0.500000
vt 0.375000 0.500000
vt 0.125000 0.750000
vt 0.516131 0.250000
vt 0.625000 0.250000
vt 0.516131 0.500000
vt 0.516131 0.000000
vt 0.625000 0.000000
vt 0.386579 0.506262
vt 0.472290 0.506262
vt 0.375000 0.250000
vt 0.483869 0.250000
vt 0.483869 0.500000
vt 0.516131 0.750000
vt 0.625000 1.000000
vt 0.516131 1.000000
vt 0.375000 0.000000
vt 0.483869 0.000000
vt 0.483869 0.250000
vt 0.483869 0.750000
vt 0.483869 0.500000
vt 0.527710 0.506262
vt 0.613421 0.506262
vt 0.613421 0.743738
vt 0.386579 0.743738
vt 0.527710 0.743738
vt 0.472290 0.743738
s 0
usemtl Wood_1
f 17/1/1 5/2/1 7/3/1 18/4/1
f 19/5/2 23/6/2 11/7/2 8/8/2
f 6/9/3 20/10/3 19/5/3 8/11/3
f 16/12/4 5/13/4 17/1/4 21/14/4
f 12/15/5 7/16/5 5/13/5 16/12/5
f 2/17/2 10/18/2 32/18/2 28/17/2
f 6/19/4 15/20/4 24/21/4 20/10/4
f 22/22/2 18/4/2 7/23/2 12/24/2
f 8/25/5 11/26/5 15/27/5 6/19/5
f 16/12/4 21/14/4 24/21/4 15/20/4
f 21/14/6 22/22/6 23/28/6 24/29/6
f 12/15/5 16/12/5 15/27/5 11/26/5
f 22/22/2 12/24/2 11/7/2 23/6/2
f 9/30/2 1/31/2 25/31/2 29/30/2
f 3/32/6 1/31/6 17/1/6 18/4/6
f 2/17/6 4/33/6 19/5/6 20/10/6
f 9/30/6 13/34/6 22/22/6 21/14/6
f 14/35/6 10/18/6 24/29/6 23/28/6
f 10/18/6 2/17/6 20/10/6 24/29/6
f 4/33/6 14/35/6 23/28/6 19/5/6
f 1/31/6 9/30/6 21/14/6 17/1/6
f 13/34/6 3/32/6 18/4/6 22/22/6
f 29/30/6 25/31/6 26/32/6 30/34/6
f 28/17/6 32/18/6 31/35/6 27/33/6
f 13/34/1 9/30/1 29/30/1 30/34/1
f 1/31/3 3/32/3 26/32/3 25/31/3
f 3/32/4 13/34/4 30/34/4 26/32/4
f 14/35/4 4/33/4 27/33/4 31/35/4
f 10/18/3 14/35/3 31/35/3 32/18/3
f 4/33/1 2/17/1 28/17/1 27/33/1
o Cube.001
v 0.921377 0.081537 -1.138996
v 0.925027 0.096843 -1.154302
v 1.138996 0.081537 -0.921377
v 1.154302 0.096843 -0.925027
v 1.138996 0.081537 0.921377
v 1.154302 0.096843 0.925027
v 0.921377 0.081537 1.138996
v 0.925027 0.096843 1.154302
v -1.138997 0.081537 -0.923202
v -1.154304 0.096843 -0.923202
v -0.923202 0.081537 -1.138996
v -0.923202 0.096843 -1.154302
v -0.923202 0.081537 1.138996
v -0.923202 0.096843 1.154302
v -1.138996 0.081537 0.923202
v -1.154302 0.096843 0.923202
v 1.077306 0.096843 -1.077306
v 1.065915 0.081537 -1.065915
v 1.077306 0.096843 1.077306
v 1.065915 0.081537 1.065915
v 1.140874 0.164218 -0.921825
v 1.154302 0.150790 -0.925027
v 0.921825 0.164218 -1.140874
v 0.925027 0.150790 -1.154302
v 0.921825 0.164218 1.140874
v 0.925027 0.150790 1.154302
v 1.140874 0.164218 0.921825
v 1.154302 0.150790 0.925027
v -0.923202 0.164218 -1.140874
v -0.923202 0.150790 -1.154302
v -1.140876 0.164218 -0.923202
v -1.154304 0.150790 -0.923202
v -1.140874 0.164218 0.923202
v -1.154302 0.150790 0.923202
v -0.923202 0.164218 1.140874
v -0.923202 0.150790 1.154302
v 1.077306 0.150790 -1.077306
v 1.067313 0.164218 -1.067313
v 1.077306 0.150790 1.077306
v 1.067313 0.164218 1.067313
v -1.143059 0.081537 -1.143059
v -1.150712 0.096843 -1.150712
v -1.143058 0.081537 1.143059
v -1.150711 0.096843 1.150712
v -1.143998 0.164218 -1.143998
v -1.150712 0.150790 -1.150711
v -1.143997 0.164218 1.143998
v -1.150711 0.150790 1.150712
vn 0.9038 -0.3699 0.2155
vn 0.9038 -0.3699 -0.2155
vn 0.9038 0.3699 -0.2155
vn 0.9038 0.3699 0.2155
vn -0.9372 -0.3487 -0.0040
vn -0.9372 -0.3487 0.0040
vn -0.9372 0.3488 0.0044
vn -0.9372 0.3488 -0.0044
vn 0.6573 0.3686 0.6573
vn 0.6573 -0.3686 0.6573
vn 0.6573 0.3686 -0.6573
vn 0.6573 -0.3686 -0.6573
vn 0.2155 -0.3699 -0.9038
vn 0.2155 0.3699 -0.9038
vn -0.0040 -0.3487 -0.9372
vn -0.0044 0.3488 -0.9372
vn -0.0040 -0.3487 0.9372
vn 0.2155 -0.3699 0.9038
vn 0.2155 0.3699 0.9038
vn -0.0044 0.3488 0.9372
vn 0.4870 -0.7250 0.4870
vn 0.6783 -0.7168 0.1617
vn 0.4870 -0.7250 -0.4870
vn 0.1617 -0.7168 -0.6783
vn 0.6783 -0.7168 -0.1617
vn 0.0004 -0.6554 -0.7553
vn 0.0004 -0.6554 0.7553
vn 0.1617 -0.7168 0.6783
vn -0.7553 -0.6554 0.0004
vn -0.7553 -0.6554 -0.0004
vn 0.4870 0.7250 0.4870
vn 0.1617 0.7168 0.6783
vn 0.4870 0.7250 -0.4870
vn 0.6783 0.7168 -0.1617
vn 0.6783 0.7168 0.1617
vn -0.0004 0.6554 -0.7553
vn 0.1617 0.7168 -0.6783
vn -0.0004 0.6554 0.7552
vn -0.7553 0.6554 0.0004
vn -0.7553 0.6554 -0.0004
vn -0.0092 -0.2679 -0.9634
vn -0.0099 0.2680 -0.9634
vn -0.0008 0.6001 0.7999
vn -0.0099 0.2680 0.9634
vn -0.0092 -0.2679 0.9634
vn 0.0008 -0.5999 -0.8001
vn 0.0008 -0.5999 0.8001
vn -0.0008 0.6001 -0.7999
vn -0.9634 -0.2679 0.0092
vn -0.9634 0.2680 0.0099
vn -0.7999 0.6001 0.0008
vn -0.8001 -0.5999 -0.0008
vn -0.9634 0.2680 -0.0099
vn -0.9634 -0.2679 -0.0092
vn -0.7999 0.6001 -0.0008
vn -0.8001 -0.5999 0.0008
vn -0.0000 1.0000 -0.0000
vn -0.0000 -1.0000 -0.0000
vt 0.072842 0.042630
vt 0.838721 0.042892
vt 0.838697 0.043521
vt 0.072818 0.043260
vt 0.063779 0.041368
vt 0.808773 0.041623
vt 0.808749 0.042252
vt 0.063755 0.041998
vt 0.009778 0.043238
vt 0.009802 0.042609
vt 0.009826 0.041979
vt 0.072866 0.042001
vt 0.838746 0.042263
vt 0.063803 0.040739
vt 0.808797 0.040993
vt 0.926871 0.964307
vt 0.957190 0.935822
vt 0.963524 0.936582
vt 0.931582 0.966593
vt 0.927824 0.541581
vt 0.868022 0.526742
vt 0.869539 0.523715
vt 0.932545 0.539349
vt 0.958014 0.570417
vt 0.964352 0.569730
vt 0.103660 0.519266
vt 0.105164 0.522310
vt 0.868507 0.981495
vt 0.102628 0.977045
vt 0.104146 0.974019
vt 0.867003 0.978451
vt 0.007816 0.931030
vt 0.008643 0.564178
vt 0.014978 0.564938
vt 0.014154 0.930343
vt 0.877511 0.041017
vt 0.877487 0.041646
vt 0.044796 0.501674
vt 0.104992 0.516611
vt 0.103660 0.519266
vt 0.040654 0.503632
vt 0.045751 0.078393
vt 0.015233 0.107066
vt 0.009675 0.106399
vt 0.041618 0.076388
vt 0.014408 0.472648
vt 0.008848 0.473251
vt 0.869240 0.068591
vt 0.106012 0.064157
vt 0.104693 0.061486
vt 0.870572 0.065936
vt 0.868220 0.521045
vt 0.869539 0.523715
vt 0.958999 0.478136
vt 0.959824 0.112554
vt 0.965384 0.111951
vt 0.964557 0.478803
vt 0.901762 0.042913
vt 0.901737 0.043543
s 1
usemtl counter_top
f 38/36/7 36/37/8 54/38/9 60/39/10
f 42/40/11 48/41/12 66/42/13 64/43/14
f 38/36/7 60/39/10 71/44/15 51/45/16
f 69/45/17 49/46/18 34/47/19 56/36/20
f 34/47/19 44/48/21 62/37/22 56/36/20
f 46/49/23 40/50/24 58/41/25 68/40/26
f 52/51/27 37/52/28 38/53/7 51/54/16
f 50/55/29 33/56/30 34/57/19 49/58/18
f 37/52/28 35/59/31 36/60/8 38/53/7
f 44/61/21 34/57/19 33/56/30 43/62/32
f 40/63/24 46/64/23 45/65/33 39/66/34
f 48/67/12 42/68/11 41/69/35 47/70/36
f 35/59/31 50/55/29 49/58/18 36/60/8
f 39/66/34 52/51/27 51/54/16 40/63/24
f 51/71/16 71/72/15 58/41/25 40/50/24
f 72/73/37 57/74/38 58/75/25 71/76/15
f 70/77/39 53/78/40 54/79/9 69/80/17
f 53/78/40 59/81/41 60/82/10 54/79/9
f 61/83/42 55/84/43 56/85/20 62/86/22
f 57/74/38 67/87/44 68/88/26 58/75/25
f 65/89/45 63/90/46 64/91/14 66/92/13
f 55/84/43 70/77/39 69/80/17 56/85/20
f 59/81/41 72/73/37 71/76/15 60/82/10
f 54/38/9 36/37/8 49/93/18 69/94/17
f 62/37/22 44/48/21 74/48/47 78/37/48
f 68/88/26 67/87/44 79/87/49 80/88/50
f 46/49/23 68/40/26 80/40/50 76/49/51
f 44/61/21 43/62/32 73/62/52 74/61/47
f 45/65/33 46/64/23 76/64/51 75/65/53
f 61/83/42 62/86/22 78/86/48 77/83/54
f 66/42/13 48/41/12 76/41/55 80/42/56
f 65/89/45 66/92/13 80/92/56 79/89/57
f 48/67/12 47/70/36 75/70/58 76/67/55
f 42/40/11 64/43/14 78/43/59 74/40/60
f 64/91/14 63/90/46 77/90/61 78/91/59
f 41/69/35 42/68/11 74/68/60 73/69/62
f 72/73/63 59/81/63 53/78/63 70/77/63 55/84/63 61/83/63 77/83/63 63/90/63 65/89/63 79/89/63 67/87/63 57/74/63
f 52/51/64 39/66/64 45/65/64 75/65/64 47/70/64 41/69/64 73/69/64 43/62/64 33/56/64 50/55/64 35/59/64 37/52/64
o Cube.003
v 1.000002 -0.947359 -0.860861
v 1.000002 -0.947359 0.860861
v 1.000002 -0.581656 -0.860861
v 1.000002 -0.581656 0.860861
v 1.032678 -0.929666 -0.840363
v 1.032678 -0.929666 0.840363
v 1.032678 -0.599350 -0.840363
v 1.032678 -0.599350 0.840363
v 1.016340 -0.583407 -0.857267
v 1.016340 -0.945609 -0.857267
v 1.016340 -0.945609 0.857267
v 1.016340 -0.583407 0.857267
vn -1.0000 -0.0000 -0.0000
vn 1.0000 -0.0000 -0.0000
vn 0.7190 -0.0000 -0.6950
vn 0.7190 -0.0000 0.6950
vn 0.6984 0.7157 -0.0000
vn 0.6984 -0.7157 -0.0000
vn 0.1065 -0.9943 -0.0000
vn 0.1065 0.9943 -0.0000
vn 0.2148 -0.0000 0.9766
vn 0.2148 -0.0000 -0.9766
vt 0.000000 0.000000
s 0
usemtl Wood_1
f 82/95/65 84/95/65 83/95/65 81/95/65
f 86/95/66 85/95/66 87/95/66 88/95/66
f 90/95/67 89/95/67 87/95/67 85/95/67
f 92/95/68 91/95/68 86/95/68 88/95/68
f 89/95/69 92/95/69 88/95/69 87/95/69
f 91/95/70 90/95/70 85/95/70 86/95/70
f 82/95/71 81/95/71 90/95/71 91/95/71
f 83/95/72 84/95/72 92/95/72 89/95/72
f 84/95/73 82/95/73 91/95/73 92/95/73
f 81/95/74 83/95/74 89/95/74 90/95/74
o Circle
v 1.096673 -0.764508 -0.046194
v 1.096673 -0.731844 -0.032664
v 1.096673 -0.718314 -0.000000
v 1.096673 -0.731844 0.032664
v 1.096673 -0.764508 0.046194
v 1.096673 -0.797172 0.032664
v 1.096673 -0.810702 -0.000000
v 1.096673 -0.797172 -0.032664
v 1.086984 -0.764508 -0.056582
v 1.086984 -0.724499 -0.040009
v 1.086984 -0.707926 -0.000000
v 1.086984 -0.724499 0.040009
v 1.086984 -0.764508 0.056582
v 1.086984 -0.804517 0.040009
v 1.086984 -0.821089 -0.000000
v 1.086984 -0.804517 -0.040009
v 1.058588 -0.764508 -0.056582
v 1.058588 -0.724499 -0.040009
v 1.058588 -0.707926 -0.000000
v 1.058588 -0.724499 0.040009
v 1.058588 -0.764508 0.056582
v 1.058588 -0.804517 0.040009
v 1.058588 -0.821089 -0.000000
v 1.058588 -0.804517 -0.040009
v 1.053018 -0.764508 -0.051047
v 1.053018 -0.728412 -0.036096
v 1.053018 -0.713460 -0.000000
v 1.053018 -0.728412 0.036096
v 1.053018 -0.764508 0.051047
v 1.053018 -0.800604 0.036096
v 1.053018 -0.815555 -0.000000
v 1.053018 -0.800604 -0.036096
v 1.053018 -0.764508 -0.027425
v 1.053018 -0.745115 -0.019393
v 1.053018 -0.737083 0.000000
v 1.053018 -0.745115 0.019393
v 1.053018 -0.764508 0.027425
v 1.053018 -0.783900 0.019393
v 1.053018 -0.791933 0.000000
v 1.053018 -0.783900 -0.019393
v 1.008298 -0.764508 -0.027425
v 1.008298 -0.745115 -0.019393
v 1.008298 -0.737083 0.000000
v 1.008298 -0.745115 0.019393
v 1.008298 -0.764508 0.027425
v 1.008298 -0.783900 0.019393
v 1.008298 -0.791933 0.000000
v 1.008298 -0.783900 -0.019393
vn 0.8979 -0.4402 -0.0000
vn 0.8979 -0.3112 0.3112
vn 0.3670 -0.6578 0.6578
vn 0.3670 -0.9302 -0.0000
vn 0.8979 -0.0000 0.4402
vn 0.8979 0.3112 0.3112
vn 0.3670 0.6578 0.6578
vn 0.3670 -0.0000 0.9302
vn 0.8979 0.4402 -0.0000
vn 0.8979 0.3112 -0.3112
vn 0.3670 0.6578 -0.6578
vn 0.3670 0.9302 -0.0000
vn 0.8979 -0.3112 -0.3112
vn 0.3670 -0.6578 -0.6578
vn 0.8979 -0.0000 -0.4402
vn 0.3670 -0.0000 -0.9302
vn -0.3519 -0.9360 -0.0000
vn -0.3519 -0.6619 -0.6619
vn -0.3519 -0.0000 0.9360
vn -0.3519 -0.6619 0.6619
vn -0.3519 0.9360 -0.0000
vn -0.3519 0.6619 0.6619
vn -0.3519 -0.0000 -0.9360
vn -0.3519 0.6619 -0.6619
vn -0.8881 0.3250 0.3250
vn -0.8881 -0.0000 0.4596
vn -0.8881 0.3250 -0.3250
vn -0.8881 0.4596 -0.0000
vn -0.8881 -0.4596 -0.0000
vn -0.8881 -0.3250 -0.3250
vn -0.8881 -0.3250 0.3250
vn -0.8881 -0.0000 -0.4596
vn -1.0000 -0.0000 -0.0000
vn -0.0000 -0.7071 0.7071
vn -0.0000 -0.0000 1.0000
vn -0.0000 0.7071 0.7071
vn -0.0000 1.0000 -0.0000
vn -0.0000 0.7071 -0.7071
vn -0.0000 -0.0000 -1.0000
vn -0.0000 -0.7071 -0.7071
vn -0.0000 -1.0000 -0.0000
vt 0.000000 0.000000
s 1
usemtl Wood_1
f 99/96/75 98/96/76 106/96/77 107/96/78
f 97/96/79 96/96/80 104/96/81 105/96/82
f 95/96/83 94/96/84 102/96/85 103/96/86
f 100/96/87 99/96/75 107/96/78 108/96/88
f 98/96/76 97/96/79 105/96/82 106/96/77
f 96/96/80 95/96/83 103/96/86 104/96/81
f 94/96/84 93/96/89 101/96/90 102/96/85
f 93/96/89 100/96/87 108/96/88 101/96/90
f 108/96/88 107/96/78 115/96/91 116/96/92
f 106/96/77 105/96/82 113/96/93 114/96/94
f 104/96/81 103/96/86 111/96/95 112/96/96
f 102/96/85 101/96/90 109/96/97 110/96/98
f 101/96/90 108/96/88 116/96/92 109/96/97
f 107/96/78 106/96/77 114/96/94 115/96/91
f 105/96/82 104/96/81 112/96/96 113/96/93
f 103/96/86 102/96/85 110/96/98 111/96/95
f 113/96/93 112/96/96 120/96/99 121/96/100
f 111/96/95 110/96/98 118/96/101 119/96/102
f 116/96/92 115/96/91 123/96/103 124/96/104
f 114/96/94 113/96/93 121/96/100 122/96/105
f 112/96/96 111/96/95 119/96/102 120/96/99
f 110/96/98 109/96/97 117/96/106 118/96/101
f 109/96/97 116/96/92 124/96/104 117/96/106
f 115/96/91 114/96/94 122/96/105 123/96/103
f 117/96/106 124/96/104 132/96/107 125/96/107
f 123/96/103 122/96/105 130/96/107 131/96/107
f 121/96/100 120/96/99 128/96/107 129/96/107
f 119/96/102 118/96/101 126/96/107 127/96/107
f 124/96/104 123/96/103 131/96/107 132/96/107
f 122/96/105 121/96/100 129/96/107 130/96/107
f 120/96/99 119/96/102 127/96/107 128/96/107
f 118/96/101 117/96/106 125/96/107 126/96/107
f 130/96/108 129/96/109 137/96/109 138/96/108
f 128/96/110 127/96/111 135/96/111 136/96/110
f 126/96/112 125/96/113 133/96/113 134/96/112
f 125/96/113 132/96/114 140/96/114 133/96/113
f 131/96/115 130/96/108 138/96/108 139/96/115
f 129/96/109 128/96/110 136/96/110 137/96/109
f 127/96/111 126/96/112 134/96/112 135/96/111
f 132/96/114 131/96/115 139/96/115 140/96/114
f 94/96/84 95/96/83 96/96/80 97/96/79 98/96/76 99/96/75 100/96/87 93/96/89
o Cube.002
v 1.000002 -0.336806 -0.860861
v 1.000002 -0.336806 0.860861
v 1.000002 0.028896 -0.860861
v 1.000002 0.028896 0.860861
v 1.032678 -0.319113 -0.840363
v 1.032678 -0.319113 0.840363
v 1.032678 0.011203 -0.840363
v 1.032678 0.011203 0.840363
v 1.016340 0.027146 -0.857267
v 1.016340 -0.335056 -0.857267
v 1.016340 -0.335056 0.857267
v 1.016340 0.027146 0.857267
vn -1.0000 -0.0000 -0.0000
vn 1.0000 -0.0000 -0.0000
vn 0.7190 -0.0000 -0.6950
vn 0.7190 -0.0000 0.6950
vn 0.6984 0.7157 -0.0000
vn 0.6984 -0.7157 -0.0000
vn 0.1065 -0.9943 -0.0000
vn 0.1065 0.9943 -0.0000
vn 0.2148 -0.0000 0.9766
vn 0.2148 -0.0000 -0.9766
vt 0.000000 0.000000
s 0
usemtl Wood_1
f 142/97/116 144/97/116 143/97/116 141/97/116
f 146/97/117 145/97/117 147/97/117 148/97/117
f 150/97/118 149/97/118 147/97/118 145/97/118
f 152/97/119 151/97/119 146/97/119 148/97/119
f 149/97/120 152/97/120 148/97/120 147/97/120
f 151/97/121 150/97/121 145/97/121 146/97/121
f 142/97/122 141/97/122 150/97/122 151/97/122
f 143/97/123 144/97/123 152/97/123 149/97/123
f 144/97/124 142/97/124 151/97/124 152/97/124
f 141/97/125 143/97/125 149/97/125 150/97/125
o Circle.001
v 1.096673 -0.153955 -0.046194
v 1.096673 -0.121291 -0.032664
v 1.096673 -0.107761 0.000000
v 1.096673 -0.121291 0.032664
v 1.096673 -0.153955 0.046194
v 1.096673 -0.186619 0.032664
v 1.096673 -0.200149 0.000000
v 1.096673 -0.186619 -0.032664
v 1.086984 -0.153955 -0.056582
v 1.086984 -0.113946 -0.040009
v 1.086984 -0.097373 -0.000000
v 1.086984 -0.113946 0.040009
v 1.086984 -0.153955 0.056582
v 1.086984 -0.193964 0.040009
v 1.086984 -0.210537 -0.000000
v 1.086984 -0.193964 -0.040009
v 1.058588 -0.153955 -0.056582
v 1.058588 -0.113946 -0.040009
v 1.058588 -0.097373 -0.000000
v 1.058588 -0.113946 0.040009
v 1.058588 -0.153955 0.056582
v 1.058588 -0.193964 0.040009
v 1.058588 -0.210537 -0.000000
v 1.058588 -0.193964 -0.040009
v 1.053018 -0.153955 -0.051047
v 1.053018 -0.117859 -0.036096
v 1.053018 -0.102907 -0.000000
v 1.053018 -0.117859 0.036096
v 1.053018 -0.153955 0.051047
v 1.053018 -0.190051 0.036096
v 1.053018 -0.205002 -0.000000
v 1.053018 -0.190051 -0.036096
v 1.053018 -0.153955 -0.027425
v 1.053018 -0.134562 -0.019393
v 1.053018 -0.126530 0.000000
v 1.053018 -0.134562 0.019393
v 1.053018 -0.153955 0.027425
v 1.053018 -0.173347 0.019393
v 1.053018 -0.181380 0.000000
v 1.053018 -0.173347 -0.019393
v 1.008298 -0.153955 -0.027425
v 1.008298 -0.134562 -0.019393
v 1.008298 -0.126530 0.000000
v 1.008298 -0.134562 0.019393
v 1.008298 -0.153955 0.027425
v 1.008298 -0.173347 0.019393
v 1.008298 -0.181380 0.000000
v 1.008298 -0.173347 -0.019393
vn 0.8979 -0.4402 -0.0000
vn 0.8979 -0.3112 0.3112
vn 0.3670 -0.6578 0.6578
vn 0.3670 -0.9302 -0.0000
vn 0.8979 -0.0000 0.4402
vn 0.8979 0.3112 0.3112
vn 0.3670 0.6578 0.6578
vn 0.3670 -0.0000 0.9302
vn 0.8979 0.4402 -0.0000
vn 0.8979 0.3112 -0.3112
vn 0.3670 0.6578 -0.6578
vn 0.3670 0.9302 -0.0000
vn 0.8979 -0.3112 -0.3112
vn 0.3670 -0.6578 -0.6578
vn 0.8979 -0.0000 -0.4402
vn 0.3670 -0.0000 -0.9302
vn -0.3519 -0.9360 -0.0000
vn -0.3519 -0.6619 -0.6619
vn -0.3519 -0.0000 0.9360
vn -0.3519 -0.6619 0.6619
vn -0.3519 0.9360 -0.0000
vn -0.3519 0.6619 0.6619
vn -0.3519 -0.0000 -0.9360
vn -0.3519 0.6619 -0.6619
vn -0.8881 0.3250 0.3250
vn -0.8881 -0.0000 0.4596
vn -0.8881 0.3250 -0.3250
vn -0.8881 0.4596 -0.0000
vn -0.8881 -0.4596 -0.0000
vn -0.8881 -0.3250 -0.3250
vn -0.8881 -0.3250 0.3250
vn -0.8881 -0.0000 -0.4596
vn -1.0000 -0.0000 -0.0000
vn -0.0000 -0.7071 0.7071
vn -0.0000 -0.0000 1.0000
vn -0.0000 0.7071 0.7071
vn -0.0000 1.0000 -0.0000
vn -0.0000 0.7071 -0.7071
vn -0.0000 -0.0000 -1.0000
vn -0.0000 -0.7071 -0.7071
vn -0.0000 -1.0000 -0.0000
vt 0.000000 0.000000
s 1
usemtl Wood_1
f 159/98/126 158/98/127 166/98/128 167/98/129
f 157/98/130 156/98/131 164/98/132 165/98/133
f 155/98/134 154/98/135 162/98/136 163/98/137
f 160/98/138 159/98/126 167/98/129 168/98/139
f 158/98/127 157/98/130 165/98/133 166/98/128
f 156/98/131 155/98/134 163/98/137 164/98/132
f 154/98/135 153/98/140 161/98/141 162/98/136
f 153/98/140 160/98/138 168/98/139 161/98/141
f 168/98/139 167/98/129 175/98/142 176/98/143
f 166/98/128 165/98/133 173/98/144 174/98/145
f 164/98/132 163/98/137 171/98/146 172/98/147
f 162/98/136 161/98/141 169/98/148 170/98/149
f 161/98/141 168/98/139 176/98/143 169/98/148
f 167/98/129 166/98/128 174/98/145 175/98/142
f 165/98/133 164/98/132 172/98/147 173/98/144
f 163/98/137 162/98/136 170/98/149 171/98/146
f 173/98/144 172/98/147 180/98/150 181/98/151
f 171/98/146 170/98/149 178/98/152 179/98/153
f 176/98/143 175/98/142 183/98/154 184/98/155
f 174/98/145 173/98/144 181/98/151 182/98/156
f 172/98/147 171/98/146 179/98/153 180/98/150
f 170/98/149 169/98/148 177/98/157 178/98/152
f 169/98/148 176/98/143 184/98/155 177/98/157
f 175/98/142 174/98/145 182/98/156 183/98/154
f 177/98/157 184/98/155 192/98/158 185/98/158
f 183/98/154 182/98/156 190/98/158 191/98/158
f 181/98/151 180/98/150 188/98/158 189/98/158
f 179/98/153 178/98/152 186/98/158 187/98/158
f 184/98/155 183/98/154 191/98/158 192/98/158
f 182/98/156 181/98/151 189/98/158 190/98/158
f 180/98/150 179/98/153 187/98/158 188/98/158
f 178/98/152 177/98/157 185/98/158 186/98/158
f 190/98/159 189/98/160 197/98/160 198/98/159
f 188/98/161 187/98/162 195/98/162 196/98/161
f 186/98/163 185/98/164 193/98/164 194/98/163
f 185/98/164 192/98/165 200/98/165 193/98/164
f 191/98/166 190/98/159 198/98/159 199/98/166
f 189/98/160 188/98/161 196/98/161 197/98/160
f 187/98/162 186/98/163 194/98/163 195/98/162
f 192/98/165 191/98/166 199/98/166 200/98/165
f 154/98/135 155/98/134 156/98/131 157/98/130 158/98/127 159/98/126 160/98/138 153/98/140
