# Blender 4.3.2
# www.blender.org
mtllib wall Counter 2.mtl
o Cube
v 1.000000 0.028896 -0.860861
v 1.000000 -0.947359 -0.860861
v 1.000000 0.028896 0.860861
v 1.000000 -0.947359 0.860861
v -1.000000 0.081537 -1.000000
v -1.000000 -1.000000 -1.000000
v -1.000000 0.081537 1.000000
v -1.000000 -1.000000 1.000000
v 1.000000 -0.336806 -0.860861
v 1.000000 -0.581656 -0.860861
v -1.000000 -0.529015 1.000000
v -1.000000 -0.389447 1.000000
v 1.000000 -0.336806 0.860861
v 1.000000 -0.581656 0.860861
v -1.000000 -0.529015 -1.000000
v -1.000000 -0.389447 -1.000000
v 1.000000 0.081537 -1.000000
v 1.000000 0.081537 1.000000
v 1.000000 -1.000000 1.000000
v 1.000000 -1.000000 -1.000000
v 1.000000 -0.389447 -1.000000
v 1.000000 -0.389447 1.000000
v 1.000000 -0.529015 1.000000
v 1.000000 -0.529015 -1.000000
v 0.660211 0.028896 -0.860861
v 0.660211 0.028896 0.860861
v 0.660211 -0.947359 0.860861
v 0.660211 -0.947359 -0.860861
v 0.660211 -0.336806 -0.860861
v 0.660211 -0.336806 0.860861
v 0.660211 -0.581656 0.860861
v 0.660211 -0.581656 -0.860861
vn -0.0000 1.0000 -0.0000
vn -0.0000 -0.0000 1.0000
vn -0.0000 -1.0000 -0.0000
vn -0.0000 -0.0000 -1.0000
vn -1.0000 -0.0000 -0.0000
vn 1.0000 -0.0000 -0.0000
vt 0.625000 0.500000
vt 0.875000 0.500000
vt 0.875000 0.750000
vt 0.625000 0.750000
vt 0.375000 0.750000
vt 0.483869 0.750000
vt 0.483869 1.000000
vt 0.375000 1.000000
vt 0.125000 0.500000
vt 0.375000 0.500000
vt 0.125000 0.750000
vt 0.516131 0.250000
vt 0.625000 0.250000
vt 0.516131 0.500000
vt 0.516131 0.000000
vt 0.625000 0.000000
vt 0.386579 0.506262
vt 0.472290 0.506262
vt 0.375000 0.250000
vt 0.483869 0.250000
vt 0.483869 0.500000
vt 0.516131 0.750000
vt 0.625000 1.000000
vt 0.516131 1.000000
vt 0.375000 0.000000
vt 0.483869 0.000000
vt 0.483869 0.250000
vt 0.483869 0.750000
vt 0.483869 0.500000
vt 0.527710 0.506262
vt 0.613421 0.506262
vt 0.613421 0.743738
vt 0.386579 0.743738
vt 0.527710 0.743738
vt 0.472290 0.743738
vt 0.000000 0.000000
s 0
usemtl Wood_1
f 17/1/1 5/2/1 7/3/1 18/4/1
f 19/5/2 23/6/2 11/7/2 8/8/2
f 6/9/3 20/10/3 19/5/3 8/11/3
f 16/12/4 5/13/4 17/1/4 21/14/4
f 12/15/5 7/16/5 5/13/5 16/12/5
f 2/17/4 28/17/4 32/18/4 10/18/4
f 6/19/4 15/20/4 24/21/4 20/10/4
f 22/22/2 18/4/2 7/23/2 12/24/2
f 8/25/5 11/26/5 15/27/5 6/19/5
f 16/12/4 21/14/4 24/21/4 15/20/4
f 21/14/6 22/22/6 23/28/6 24/29/6
f 12/15/5 16/12/5 15/27/5 11/26/5
f 22/22/2 12/24/2 11/7/2 23/6/2
f 9/30/4 29/30/4 25/31/4 1/31/4
f 3/32/6 1/31/6 17/1/6 18/4/6
f 2/17/6 4/33/6 19/5/6 20/10/6
f 9/30/6 13/34/6 22/22/6 21/14/6
f 14/35/6 10/18/6 24/29/6 23/28/6
f 10/18/6 2/17/6 20/10/6 24/29/6
f 4/33/6 14/35/6 23/28/6 19/5/6
f 1/31/6 9/30/6 21/14/6 17/1/6
f 13/34/6 3/32/6 18/4/6 22/22/6
f 29/30/5 30/34/5 26/32/5 25/31/5
f 28/17/5 27/33/5 31/35/5 32/18/5
f 13/34/3 30/34/3 29/30/3 9/30/3
f 1/31/1 25/31/1 26/32/1 3/32/1
f 3/32/2 26/32/2 30/34/2 13/34/2
f 14/35/2 31/35/2 27/33/2 4/33/2
f 10/18/1 32/18/1 31/35/1 14/35/1
f 4/33/3 27/33/3 28/17/3 2/17/3
f 1/36/6 3/36/6 13/36/6 9/36/6
f 4/36/6 2/36/6 10/36/6 14/36/6
o Cube.001
v 0.921377 0.081537 -1.138996
v 0.925027 0.096843 -1.154302
v 1.138996 0.081537 -0.921377
v 1.154302 0.096843 -0.925027
v 1.138996 0.081537 0.921377
v 1.154302 0.096843 0.925027
v 0.921377 0.081537 1.138996
v 0.925027 0.096843 1.154302
v -1.138997 0.081537 -0.923202
v -1.154304 0.096843 -0.923202
v -0.923202 0.081537 -1.138996
v -0.923202 0.096843 -1.154302
v -0.923202 0.081537 1.138996
v -0.923202 0.096843 1.154302
v -1.138996 0.081537 0.923202
v -1.154302 0.096843 0.923202
v 1.077306 0.096843 -1.077306
v 1.065915 0.081537 -1.065915
v 1.077306 0.096843 1.077306
v 1.065915 0.081537 1.065915
v 1.140874 0.164218 -0.921825
v 1.154302 0.150790 -0.925027
v 0.921825 0.164218 -1.140874
v 0.925027 0.150790 -1.154302
v 0.921825 0.164218 1.140874
v 0.925027 0.150790 1.154302
v 1.140874 0.164218 0.921825
v 1.154302 0.150790 0.925027
v -0.923202 0.164218 -1.140874
v -0.923202 0.150790 -1.154302
v -1.140876 0.164218 -0.923202
v -1.154304 0.150790 -0.923202
v -1.140874 0.164218 0.923202
v -1.154302 0.150790 0.923202
v -0.923202 0.164218 1.140874
v -0.923202 0.150790 1.154302
v 1.077306 0.150790 -1.077306
v 1.067313 0.164218 -1.067313
v 1.077306 0.150790 1.077306
v 1.067313 0.164218 1.067313
v -1.143059 0.081537 -1.143059
v -1.150712 0.096843 -1.150712
v -1.143058 0.081537 1.143059
v -1.150711 0.096843 1.150712
v -1.143998 0.164218 -1.143998
v -1.150712 0.150790 -1.150711
v -1.143997 0.164218 1.143998
v -1.150711 0.150790 1.150712
vn 0.9038 -0.3699 0.2155
vn 0.9038 -0.3699 -0.2155
vn 0.9038 0.3699 -0.2155
vn 0.9038 0.3699 0.2155
vn -0.9372 -0.3487 -0.0040
vn -0.9372 -0.3487 0.0040
vn -0.9372 0.3488 0.0044
vn -0.9372 0.3488 -0.0044
vn 0.6573 0.3686 0.6573
vn 0.6573 -0.3686 0.6573
vn 0.6573 0.3686 -0.6573
vn 0.6573 -0.3686 -0.6573
vn 0.2155 -0.3699 -0.9038
vn 0.2155 0.3699 -0.9038
vn -0.0040 -0.3487 -0.9372
vn -0.0044 0.3488 -0.9372
vn -0.0040 -0.3487 0.9372
vn 0.2155 -0.3699 0.9038
vn 0.2155 0.3699 0.9038
vn -0.0044 0.3488 0.9372
vn 0.4870 -0.7250 0.4870
vn 0.6783 -0.7168 0.1617
vn 0.4870 -0.7250 -0.4870
vn 0.1617 -0.7168 -0.6783
vn 0.6783 -0.7168 -0.1617
vn 0.0004 -0.6554 -0.7553
vn 0.0004 -0.6554 0.7553
vn 0.1617 -0.7168 0.6783
vn -0.7553 -0.6554 0.0004
vn -0.7553 -0.6554 -0.0004
vn 0.4870 0.7250 0.4870
vn 0.1617 0.7168 0.6783
vn 0.4870 0.7250 -0.4870
vn 0.6783 0.7168 -0.1617
vn 0.6783 0.7168 0.1617
vn -0.0004 0.6554 -0.7553
vn 0.1617 0.7168 -0.6783
vn -0.0004 0.6554 0.7552
vn -0.7553 0.6554 0.0004
vn -0.7553 0.6554 -0.0004
vn -0.0092 -0.2679 -0.9634
vn -0.0099 0.2680 -0.9634
vn -0.0008 0.6001 0.7999
vn -0.0099 0.2680 0.9634
vn -0.0092 -0.2679 0.9634
vn 0.0008 -0.5999 -0.8001
vn 0.0008 -0.5999 0.8001
vn -0.0008 0.6001 -0.7999
vn -0.9634 -0.2679 0.0092
vn -0.9634 0.2680 0.0099
vn -0.7999 0.6001 0.0008
vn -0.8001 -0.5999 -0.0008
vn -0.9634 0.2680 -0.0099
vn -0.9634 -0.2679 -0.0092
vn -0.7999 0.6001 -0.0008
vn -0.8001 -0.5999 0.0008
vn -0.0000 1.0000 -0.0000
vn -0.0000 -1.0000 -0.0000
vt 0.072842 0.042630
vt 0.838721 0.042892
vt 0.838697 0.043521
vt 0.072818 0.043260
vt 0.063779 0.041368
vt 0.808773 0.041623
vt 0.808749 0.042252
vt 0.063755 0.041998
vt 0.009778 0.043238
vt 0.009802 0.042609
vt 0.009826 0.041979
vt 0.072866 0.042001
vt 0.838746 0.042263
vt 0.063803 0.040739
vt 0.808797 0.040993
vt 0.926871 0.964307
vt 0.957190 0.935822
vt 0.963524 0.936582
vt 0.931582 0.966593
vt 0.927824 0.541581
vt 0.868022 0.526742
vt 0.869539 0.523715
vt 0.932545 0.539349
vt 0.958014 0.570417
vt 0.964352 0.569730
vt 0.103660 0.519266
vt 0.105164 0.522310
vt 0.868507 0.981495
vt 0.102628 0.977045
vt 0.104146 0.974019
vt 0.867003 0.978451
vt 0.007816 0.931030
vt 0.008643 0.564178
vt 0.014978 0.564938
vt 0.014154 0.930343
vt 0.877511 0.041017
vt 0.877487 0.041646
vt 0.044796 0.501674
vt 0.104992 0.516611
vt 0.103660 0.519266
vt 0.040654 0.503632
vt 0.045751 0.078393
vt 0.015233 0.107066
vt 0.009675 0.106399
vt 0.041618 0.076388
vt 0.014408 0.472648
vt 0.008848 0.473251
vt 0.869240 0.068591
vt 0.106012 0.064157
vt 0.104693 0.061486
vt 0.870572 0.065936
vt 0.868220 0.521045
vt 0.869539 0.523715
vt 0.958999 0.478136
vt 0.959824 0.112554
vt 0.965384 0.111951
vt 0.964557 0.478803
vt 0.901762 0.042913
vt 0.901737 0.043543
s 1
usemtl counter_top
f 38/37/7 36/38/8 54/39/9 60/40/10
f 42/41/11 48/42/12 66/43/13 64/44/14
f 38/37/7 60/40/10 71/45/15 51/46/16
f 69/46/17 49/47/18 34/48/19 56/37/20
f 34/48/19 44/49/21 62/38/22 56/37/20
f 46/50/23 40/51/24 58/42/25 68/41/26
f 52/52/27 37/53/28 38/54/7 51/55/16
f 50/56/29 33/57/30 34/58/19 49/59/18
f 37/53/28 35/60/31 36/61/8 38/54/7
f 44/62/21 34/58/19 33/57/30 43/63/32
f 40/64/24 46/65/23 45/66/33 39/67/34
f 48/68/12 42/69/11 41/70/35 47/71/36
f 35/60/31 50/56/29 49/59/18 36/61/8
f 39/67/34 52/52/27 51/55/16 40/64/24
f 51/72/16 71/73/15 58/42/25 40/51/24
f 72/74/37 57/75/38 58/76/25 71/77/15
f 70/78/39 53/79/40 54/80/9 69/81/17
f 53/79/40 59/82/41 60/83/10 54/80/9
f 61/84/42 55/85/43 56/86/20 62/87/22
f 57/75/38 67/88/44 68/89/26 58/76/25
f 65/90/45 63/91/46 64/92/14 66/93/13
f 55/85/43 70/78/39 69/81/17 56/86/20
f 59/82/41 72/74/37 71/77/15 60/83/10
f 54/39/9 36/38/8 49/94/18 69/95/17
f 62/38/22 44/49/21 74/49/47 78/38/48
f 68/89/26 67/88/44 79/88/49 80/89/50
f 46/50/23 68/41/26 80/41/50 76/50/51
f 44/62/21 43/63/32 73/63/52 74/62/47
f 45/66/33 46/65/23 76/65/51 75/66/53
f 61/84/42 62/87/22 78/87/48 77/84/54
f 66/43/13 48/42/12 76/42/55 80/43/56
f 65/90/45 66/93/13 80/93/56 79/90/57
f 48/68/12 47/71/36 75/71/58 76/68/55
f 42/41/11 64/44/14 78/44/59 74/41/60
f 64/92/14 63/91/46 77/91/61 78/92/59
f 41/70/35 42/69/11 74/69/60 73/70/62
f 72/74/63 59/82/63 53/79/63 70/78/63 55/85/63 61/84/63 77/84/63 63/91/63 65/90/63 79/90/63 67/88/63 57/75/63
f 52/52/64 39/67/64 45/66/64 75/66/64 47/71/64 41/70/64 73/70/64 43/63/64 33/57/64 50/56/64 35/60/64 37/53/64
