# Blender 4.3.2
# www.blender.org
mtllib bin.mtl
o Cube
v 0.818545 1.139137 -0.546481
v 0.546481 1.139137 -0.818545
v 0.546481 1.139137 0.818545
v 0.818545 1.139137 0.546481
v -0.546481 1.139137 -0.818545
v -0.818545 1.139137 -0.546481
v -0.818545 1.139137 0.546481
v -0.546481 1.139137 0.818545
v 0.621642 1.139137 -1.000000
v 1.000000 1.139137 -0.621642
v -0.621642 1.139137 1.000000
v -1.000000 1.139137 0.621642
v 1.000000 1.139137 0.621642
v 0.621642 1.139137 1.000000
v -1.000000 1.139137 -0.621642
v -0.621642 1.139137 -1.000000
v 0.546481 -0.482001 -0.818545
v 0.818545 -0.482001 -0.546481
v -0.546481 -0.482001 0.818545
v -0.818545 -0.482001 0.546481
v 0.818545 -0.482001 0.546481
v 0.546481 -0.482001 0.818545
v -0.818545 -0.482001 -0.546481
v -0.546481 -0.482001 -0.818545
v 0.546481 0.915795 0.818545
v -0.546481 0.915795 0.818545
v 0.818545 0.915795 -0.546481
v 0.818545 0.915795 0.546481
v -0.818545 0.915795 -0.546481
v -0.546481 0.915795 -0.818545
v -0.818545 0.915795 0.546481
v 0.546481 0.915795 -0.818545
v 0.525447 1.137637 -0.787039
v 0.787039 1.137541 -0.525447
v -0.525447 1.137637 0.787039
v -0.787039 1.137637 0.525447
v 0.787039 1.137541 0.525447
v 0.525447 1.137637 0.787039
v -0.787039 1.137637 -0.525447
v -0.525447 1.137637 -0.787039
v -0.525447 0.917416 0.787039
v 0.787039 0.917416 0.525447
v -0.525447 0.917416 -0.787039
v -0.787039 0.917416 0.525447
v 0.525447 0.917416 -0.787039
v 0.525447 0.917416 0.787039
v 0.787039 0.917416 -0.525447
v -0.787039 0.917416 -0.525447
v 1.000000 0.961103 -0.621642
v 0.621642 0.961103 -1.000000
v -0.621642 0.961103 1.000000
v -1.000000 0.961103 0.621642
v 0.621642 0.961103 1.000000
v 1.000000 0.961103 0.621642
v -0.621642 0.961103 -1.000000
v -1.000000 0.961103 -0.621642
v 0.649876 1.139137 -1.045419
v 1.045419 1.139137 -0.649876
v -0.649876 1.139137 1.045419
v -1.045419 1.139137 0.649876
v 1.045419 1.139137 0.649876
v 0.649876 1.139137 1.045419
v -1.045419 1.139137 -0.649876
v -0.649876 1.139137 -1.045419
v 0.649876 0.985462 -1.045419
v 0.635834 0.961103 -1.022830
v -0.635834 0.961103 1.022830
v -0.649876 0.985462 1.045419
v 1.022830 0.961103 0.635834
v 1.045419 0.985462 0.649876
v -1.022830 0.961103 -0.635834
v -1.045419 0.985462 -0.649876
v 1.045419 0.985462 -0.649876
v 1.022830 0.961103 -0.635834
v -1.045419 0.985462 0.649876
v -1.022830 0.961103 0.635834
v 0.649876 0.985462 1.045419
v 0.635834 0.961103 1.022830
v -0.635834 0.961103 -1.022830
v -0.649876 0.985462 -1.045419
v 0.594995 -1.000000 -0.935668
v 0.621642 -0.935668 -1.000000
v 0.935668 -1.000000 -0.594995
v 1.000000 -0.935668 -0.621642
v 0.935668 -1.000000 0.594995
v 1.000000 -0.935668 0.621642
v 0.594995 -1.000000 0.935668
v 0.621642 -0.935668 1.000000
v -0.935668 -1.000000 -0.594995
v -1.000000 -0.935668 -0.621642
v -0.594995 -1.000000 -0.935668
v -0.621642 -0.935668 -1.000000
v -0.594995 -1.000000 0.935668
v -0.621642 -0.935668 1.000000
v -0.935668 -1.000000 0.594995
v -1.000000 -0.935668 0.621642
vn -0.3827 -0.0000 -0.9239
vn 0.3827 -0.0000 -0.9239
vn -0.0000 1.0000 -0.0000
vn 0.3021 -0.6168 -0.7268
vn -0.3021 -0.6168 -0.7268
vn -0.9239 -0.0000 -0.3827
vn -0.0000 -1.0000 -0.0000
vn 0.3827 -0.0000 0.9239
vn -0.3827 -0.0000 0.9239
vn -0.9239 -0.0000 0.3827
vn -0.0064 0.9999 0.0139
vn -0.0143 0.9999 0.0065
vn 0.0062 0.9999 -0.0137
vn 0.0137 0.9999 -0.0062
vn -0.0143 0.9999 -0.0065
vn -0.0064 0.9999 -0.0139
vn 0.0137 0.9999 0.0062
vn 0.0062 0.9999 0.0137
vn -0.7268 -0.6168 -0.3021
vn -0.7268 -0.6168 0.3021
vn 0.3021 -0.6168 0.7268
vn 0.7268 -0.6168 0.3021
vn 0.9239 -0.0000 0.3827
vn 0.7268 -0.6168 -0.3021
vn 0.9239 -0.0000 -0.3827
vn -0.3021 -0.6168 0.7268
vn -0.0421 -0.9990 -0.0139
vn -0.0421 -0.9990 0.0139
vn 0.0128 0.9992 -0.0390
vn 0.0390 0.9992 -0.0128
vn 0.0139 -0.9990 0.0421
vn 0.0421 -0.9990 0.0139
vn -0.0132 0.9991 0.0394
vn -0.0410 0.9991 0.0133
vn 0.0421 -0.9990 -0.0139
vn 0.0139 -0.9990 -0.0421
vn -0.0132 0.9991 -0.0394
vn 0.0390 0.9992 0.0128
vn -0.0410 0.9991 -0.0133
vn -0.0139 -0.9990 -0.0421
vn 0.0128 0.9992 0.0390
vn -0.0139 -0.9990 0.0421
vn -0.2744 -0.7341 -0.6211
vn 0.2744 -0.7341 -0.6211
vn 0.2360 -0.7304 -0.6409
vn -0.2360 -0.7304 -0.6409
vn -0.6409 -0.7304 -0.2360
vn -0.6211 -0.7341 -0.2744
vn 0.2360 -0.7304 0.6409
vn 0.6409 -0.7304 0.2360
vn 0.6211 -0.7341 0.2744
vn 0.2744 -0.7341 0.6211
vn -0.2744 -0.7341 0.6211
vn -0.6211 -0.7341 0.2744
vn -0.6409 -0.7304 0.2360
vn -0.2360 -0.7304 0.6409
vn 0.6409 -0.7304 -0.2360
vn 0.6211 -0.7341 -0.2744
vn 0.6269 -0.7345 -0.2597
vn 0.2597 -0.7345 -0.6269
vn -0.6269 -0.7345 0.2597
vn -0.2597 -0.7345 0.6269
vn 0.2597 -0.7345 0.6269
vn 0.6269 -0.7345 0.2597
vn -0.2597 -0.7345 -0.6269
vn -0.6269 -0.7345 -0.2597
vt 0.383042 0.297295
vt 0.620138 0.297295
vt 0.620138 0.452705
vt 0.383042 0.452705
vt 0.672295 0.750000
vt 0.827705 0.750000
vt 0.875000 0.702705
vt 0.818310 0.727318
vt 0.681690 0.727318
vt 0.818310 0.727318
vt 0.625000 0.297295
vt 0.620803 0.297295
vt 0.620803 0.202705
vt 0.625000 0.202705
vt 0.133042 0.550626
vt 0.175626 0.508042
vt 0.324374 0.508042
vt 0.366958 0.550626
vt 0.366958 0.699374
vt 0.324374 0.741958
vt 0.175626 0.741958
vt 0.133042 0.699374
vt 0.875000 0.547295
vt 0.383042 0.797295
vt 0.620138 0.797295
vt 0.620138 0.952705
vt 0.383042 0.952705
vt 0.383042 0.047295
vt 0.620138 0.047295
vt 0.620138 0.202705
vt 0.383042 0.202705
vt 0.681690 0.522682
vt 0.647682 0.556690
vt 0.625000 0.547295
vt 0.672295 0.500000
vt 0.852318 0.693310
vt 0.647682 0.693310
vt 0.625000 0.702705
vt 0.852318 0.556690
vt 0.818310 0.522682
vt 0.827705 0.500000
vt 0.647682 0.693310
vt 0.818310 0.522682
vt 0.383042 0.547295
vt 0.620138 0.547295
vt 0.620138 0.702705
vt 0.383042 0.702705
vt 0.620803 0.797295
vt 0.625000 0.797295
vt 0.625000 0.952705
vt 0.620803 0.952705
vt 0.383042 0.702705
vt 0.383042 0.000000
vt 0.620138 0.000000
vt 0.383042 0.047295
vt 0.620803 0.797295
vt 0.620803 0.702705
vt 0.620803 0.297295
vt 0.625000 0.452705
vt 0.620803 0.452705
vt 0.620803 0.000000
vt 0.625000 0.000000
vt 0.625000 0.047295
vt 0.620803 0.047295
vt 0.620803 0.547295
vt 0.620803 0.452705
vt 0.620803 0.047295
vt 0.620803 0.202705
vt 0.620803 0.547295
vt 0.620803 0.702705
vt 0.327705 0.500000
vt 0.375000 0.547295
vt 0.172295 0.750000
vt 0.125000 0.702705
vt 0.375000 0.702705
vt 0.327705 0.750000
vt 0.125000 0.547295
vt 0.172295 0.500000
vt 0.383042 0.547295
vt 0.383042 0.452705
s 1
usemtl bright_green_non-metalic_(rough)
f 92/1/1 55/2/1 50/3/2 82/4/2
f 14/5/3 11/6/3 59/6/3 62/5/3
f 11/6/3 12/7/3 60/7/3 59/6/3
f 26/8/4 25/9/5 22/9/1 19/10/2
f 64/11/1 80/12/1 72/13/6 63/14/6
f 89/15/7 91/16/7 81/17/7 83/18/7 85/19/7 87/20/7 93/21/7 95/22/7
f 12/7/3 15/23/3 63/23/3 60/7/3
f 88/24/8 53/25/8 51/26/9 94/27/9
f 96/28/10 52/29/10 56/30/6 90/31/6
f 51/26/7 53/25/7 78/25/7 67/26/7
f 2/32/11 1/33/12 10/34/3 9/35/3
f 8/10/13 7/36/14 12/7/3 11/6/3
f 4/37/15 3/9/16 14/5/3 13/38/3
f 6/39/17 5/40/18 16/41/3 15/23/3
f 5/40/18 2/32/11 9/35/3 16/41/3
f 1/33/12 4/37/15 13/38/3 10/34/3
f 7/36/14 6/39/17 15/23/3 12/7/3
f 3/9/16 8/10/13 11/6/3 14/5/3
f 17/32/3 24/40/3 23/39/3 20/36/3 19/10/3 22/9/3 21/37/3 18/33/3
f 28/42/19 27/33/20 18/33/10 21/37/6
f 30/43/21 29/39/22 23/39/23 24/40/8
f 31/36/24 26/8/4 19/10/2 20/36/25
f 29/39/22 31/36/24 20/36/25 23/39/23
f 32/32/26 30/43/21 24/40/8 17/32/9
f 25/9/5 28/42/19 21/37/6 22/9/1
f 27/33/20 32/32/26 17/32/9 18/33/10
f 27/33/20 28/42/19 42/42/27 47/33/28
f 7/36/14 8/10/13 35/10/29 36/36/30
f 29/39/22 30/43/21 43/43/31 48/39/32
f 1/33/12 2/32/11 33/32/33 34/33/34
f 26/8/4 31/36/24 44/36/35 41/8/36
f 8/10/13 3/9/16 38/9/37 35/10/29
f 31/36/24 29/39/22 48/39/32 44/36/35
f 6/39/17 7/36/14 36/36/30 39/39/38
f 34/33/10 33/32/9 45/32/9 47/33/10
f 38/9/1 37/37/6 42/42/6 46/9/1
f 33/32/9 40/40/8 43/43/8 45/32/9
f 39/39/23 36/36/25 44/36/25 48/39/23
f 36/36/25 35/10/2 41/8/2 44/36/25
f 40/40/8 39/39/23 48/39/23 43/43/8
f 37/37/6 34/33/10 47/33/10 42/42/6
f 35/10/2 38/9/1 46/9/1 41/8/2
f 3/9/16 4/37/15 37/37/39 38/9/37
f 25/9/5 26/8/4 41/8/36 46/9/40
f 5/40/18 6/39/17 39/39/38 40/40/41
f 32/32/26 27/33/20 47/33/28 45/32/42
f 2/32/11 5/40/18 40/40/41 33/32/33
f 28/42/19 25/9/5 46/9/40 42/42/27
f 4/37/15 1/33/12 34/33/34 37/37/39
f 30/43/21 32/32/26 45/32/42 43/43/31
f 84/44/25 49/45/25 54/46/23 86/47/23
f 15/23/3 16/41/3 64/41/3 63/23/3
f 10/34/3 13/38/3 61/38/3 58/34/3
f 77/48/8 62/49/8 59/50/9 68/51/9
f 53/25/8 88/24/8 86/52/23 54/46/23
f 55/2/1 92/1/1 90/31/6 56/30/6
f 94/53/9 51/54/9 52/29/10 96/55/10
f 56/30/7 52/29/7 76/29/7 71/30/7
f 62/49/8 77/56/8 70/57/23 61/38/23
f 54/46/7 49/45/7 74/45/7 69/46/7
f 52/29/7 51/54/7 67/54/7 76/29/7
f 49/45/7 50/3/7 66/3/7 74/45/7
f 55/2/7 56/30/7 71/30/7 79/2/7
f 53/25/7 54/46/7 69/46/7 78/25/7
f 80/58/1 64/11/1 57/59/2 65/60/2
f 68/61/9 59/62/9 60/63/10 75/64/10
f 9/35/3 10/34/3 58/34/3 57/35/3
f 13/38/3 14/5/3 62/5/3 61/38/3
f 58/34/25 73/65/25 65/66/2 57/59/2
f 75/67/10 60/63/10 63/14/6 72/68/6
f 16/41/3 9/35/3 57/35/3 64/41/3
f 73/69/25 58/34/25 61/38/23 70/70/23
f 80/58/43 65/60/44 66/3/45 79/2/46
f 79/2/46 71/30/47 72/13/48 80/12/43
f 78/25/49 69/46/50 70/57/51 77/56/52
f 68/61/53 75/64/54 76/29/55 67/54/56
f 74/45/57 66/3/45 65/66/44 73/65/58
f 73/69/58 70/70/51 69/46/50 74/45/57
f 77/48/52 68/51/53 67/26/56 78/25/49
f 75/67/54 72/68/48 71/30/47 76/29/55
f 50/3/7 55/2/7 79/2/7 66/3/7
f 83/18/59 81/17/60 82/71/60 84/72/59
f 95/22/61 93/21/62 94/73/62 96/74/61
f 87/20/63 85/19/64 86/75/64 88/76/63
f 91/16/65 89/15/66 90/77/66 92/78/65
f 81/17/60 91/16/65 92/78/65 82/71/60
f 85/19/64 83/18/59 84/44/59 86/47/64
f 96/74/61 90/77/66 89/15/66 95/22/61
f 88/76/63 94/73/62 93/21/62 87/20/63
f 49/45/25 84/79/25 82/80/2 50/3/2
o Cube.001
v 0.661815 1.171551 -1.064623
v 1.054359 1.142021 -0.655711
v -0.656045 1.163278 1.054693
v -1.055112 1.163278 0.655626
v 1.054359 1.150295 0.655626
v 0.661815 1.164162 1.064623
v -1.055112 1.157684 -0.655711
v -0.661815 1.157684 -1.064623
v 0.655292 0.987315 -1.054778
v 1.054359 0.995588 -0.655711
v -0.656045 0.988199 1.054693
v -1.055112 0.987315 0.655626
v 1.064623 0.987315 0.661815
v 0.661815 0.988199 1.064623
v -1.055112 0.995588 -0.655711
v -0.656045 0.966059 -1.054778
v 0.489968 1.162662 -0.734504
v 0.741346 1.162566 -0.494942
v -0.494942 1.161778 0.741346
v -0.741346 1.162662 0.494942
v 0.741346 1.162566 0.494942
v 0.489968 1.162662 0.734419
v -0.741346 1.170051 -0.494942
v -0.494942 1.148795 -0.741346
v 0.489968 0.180185 -0.734504
v 0.734085 0.169669 -0.490387
v -0.494942 0.202888 0.741346
v -0.734838 0.203267 0.490303
v 0.734085 0.188786 0.490303
v 0.494942 0.209092 0.741346
v -0.734838 0.183978 -0.490387
v -0.490721 0.167092 -0.734504
v -0.612780 0.162970 0.612361
v 0.863219 1.142021 -0.863219
v -0.863219 1.163278 0.863219
v 0.863219 1.150295 0.863219
v -0.863219 1.164162 -0.863219
v -0.000376 1.164162 -1.054778
v 1.054359 1.142021 -0.000042
v -1.064623 1.157684 0.000000
v -0.000376 1.155888 1.054693
v 0.863219 0.981721 -0.863219
v -0.855578 0.995588 0.855160
v 0.863219 0.966059 0.863219
v -0.863219 0.995588 -0.863219
v 0.000000 0.973448 -1.064623
v 1.064623 0.995588 0.000000
v -1.055112 0.988199 -0.000042
v -0.000376 0.973448 1.054693
v -1.055112 1.076181 -0.655711
v -0.656045 1.061429 -1.054778
v -0.656045 1.075296 1.054693
v -1.055112 1.062314 0.655626
v 0.661815 1.061429 -1.064623
v 1.054359 1.083570 0.655626
v 0.655292 1.083570 1.054693
v 1.064623 1.075296 -0.661815
v 0.612027 1.170003 -0.612445
v -0.612780 1.156184 0.612361
v 0.618144 1.147862 0.618144
v -0.618144 1.148795 -0.618144
v 0.000000 1.154389 -0.741346
v 0.741346 1.162566 0.000000
v -0.741346 1.162662 0.000000
v 0.000000 1.156184 0.741346
v 0.894222 1.216707 0.572964
v 0.894222 1.209317 -0.573049
v -0.573383 1.209365 -0.894641
v -0.894975 1.209365 -0.573049
v -0.894975 1.230622 0.572964
v -0.573383 1.208481 0.894556
v 0.572630 1.209365 -0.894641
v 0.578378 1.216755 0.902985
v -0.679745 0.175486 0.556543
v 0.489968 0.745951 -0.734504
v -0.490721 0.758933 -0.734504
v 0.489968 0.758933 0.734419
v 0.741346 0.745854 0.494942
v 0.734085 0.744970 -0.490387
v -0.490721 0.753340 0.734419
v -0.741346 0.753340 -0.494942
v -0.734838 0.751544 0.490303
v 0.612027 0.155426 -0.612445
v -0.556543 0.185390 0.679745
v 0.618144 0.179925 0.618144
v -0.612780 0.163987 -0.612445
v 0.000000 0.066723 -0.741346
v 0.741346 0.050596 0.000000
v -0.741346 0.064228 0.000000
v -0.000376 0.059828 0.734419
v -0.741346 0.527015 0.000000
v -0.618144 0.745066 -0.618144
v 0.734085 0.533461 -0.000042
v -0.000376 0.539359 0.734419
v 0.618144 0.759770 -0.618144
v 0.612027 0.745018 0.612361
v -0.000376 0.534890 -0.734504
v 1.054359 1.075296 -0.000042
v 0.000000 1.054040 1.064623
v 0.854825 1.054040 -0.855244
v 0.863219 1.069703 0.863219
v 0.000000 1.069703 -1.064623
v -1.064623 1.083570 0.000000
v -0.855578 1.054040 0.855160
v -0.855578 1.083570 -0.855244
v 0.740681 1.208457 0.740681
v -0.000376 1.223233 -0.894641
v -0.894975 1.201092 -0.000042
v -0.740681 1.222348 0.740681
v -0.740681 1.222348 -0.740681
v 0.902985 1.216707 0.000000
v 0.000000 1.222348 0.902985
v 0.740681 1.201068 -0.740681
v 0.963921 1.142021 -0.762517
v -0.955345 1.149410 0.755393
v 0.762517 1.150295 0.963921
v -0.762517 1.142021 -0.963921
v 0.327458 1.155888 -1.054778
v 1.054359 1.163278 0.327792
v -1.055112 1.142021 0.327792
v 0.330907 1.171551 1.064623
v 0.963921 0.981721 -0.762517
v -0.955345 0.966059 0.755393
v 0.762517 0.988199 0.963921
v -0.762517 0.988199 -0.963921
v 0.327458 0.987315 -1.054778
v 1.054359 0.995588 0.327792
v -1.055112 0.995588 0.327792
v 0.327458 0.987315 1.054693
v -1.055112 1.025712 -0.655711
v -0.656045 1.111898 -1.054778
v -0.661815 1.018323 1.064623
v -1.055112 1.127560 0.655626
v 0.661815 1.127560 -1.064623
v 1.064623 1.039579 0.661815
v 0.655292 1.106304 1.054693
v 1.054359 1.127560 -0.655711
v 0.673056 1.154316 -0.551416
v -0.673809 1.156184 0.551332
v 0.550997 1.161754 0.673390
v -0.556543 1.154389 -0.679745
v 0.247471 1.162662 -0.741346
v 0.734085 1.169955 0.245130
v -0.734838 1.162662 0.245130
v 0.244796 1.154389 0.734419
v 0.814153 1.215417 0.531633
v 0.983804 1.193456 -0.620096
v -0.536660 1.208100 -0.822165
v -0.983804 1.193480 -0.620096
v -0.822165 1.215489 0.536660
v -0.620096 1.192596 0.983804
v 0.531299 1.223762 -0.814572
v 0.536660 1.194232 0.822165
v 0.489968 0.416118 -0.734504
v -0.490721 0.947373 -0.734504
v 0.494942 0.466737 0.741346
v 0.734085 0.946392 0.490303
v 0.741346 0.432626 -0.494942
v -0.490721 0.450571 0.734419
v -0.741346 0.960356 -0.494942
v -0.741346 0.428890 0.494942
v 0.673056 0.146582 -0.551416
v 0.550997 0.173991 0.673390
v -0.551750 0.166910 -0.673475
v 0.244796 0.095717 -0.734504
v 0.741346 0.100680 0.247471
v -0.741346 0.100365 0.247471
v 0.247471 0.082223 0.741346
v 0.755059 1.163278 -0.955011
v -0.755812 1.149410 0.954926
v 0.954592 1.149410 0.755393
v -0.963921 1.142021 -0.762517
v -0.328211 1.149410 -1.054778
v 1.054359 1.164162 -0.327876
v -1.064623 1.171551 -0.330907
v -0.330907 1.142021 1.064623
v 0.755059 0.973448 -0.955011
v -0.755812 0.966059 0.954926
v 0.954592 0.995588 0.755393
v -0.963921 0.974332 -0.762517
v -0.328211 0.995588 -1.054778
v 1.064623 0.979926 -0.330907
v -1.064623 0.987315 -0.330907
v -0.330907 0.995588 1.064623
v -1.055112 1.106304 -0.655711
v -0.656045 1.017439 -1.054778
v -0.661815 1.098031 1.064623
v -1.064623 1.039579 0.661815
v 0.661815 1.023916 -1.064623
v 1.064623 1.106304 0.661815
v 0.655292 1.010049 1.054693
v 1.054359 1.025712 -0.655711
v 0.550997 1.156160 -0.673475
v -0.551750 1.162662 0.673390
v 0.679745 1.154316 0.556543
v -0.679745 1.161778 -0.556543
v -0.245549 1.161778 -0.734504
v 0.734085 1.147814 -0.245215
v -0.734838 1.147911 -0.245215
v -0.247471 1.156184 0.741346
v 0.983804 1.178705 0.620096
v 0.814153 1.194160 -0.531718
v -0.620096 1.185207 -0.983804
v -0.814906 1.208100 -0.531718
v -0.975043 1.171340 0.614295
v -0.532052 1.202506 0.814488
v 0.620096 1.171340 -0.983804
v 0.613961 1.187002 0.974625
v 0.489968 0.954762 -0.734504
v -0.490721 0.417422 -0.734504
v 0.494942 0.939099 0.741346
v 0.741346 0.441495 0.494942
v 0.741346 0.946392 -0.494942
v -0.490721 0.952966 0.734419
v -0.734838 0.391280 -0.490387
v -0.734838 0.946488 0.490303
v 0.550997 0.166798 -0.673475
v 0.679745 0.198596 0.556543
v -0.673809 0.146761 -0.551416
v -0.247471 0.092912 -0.741346
v 0.741346 0.088469 -0.247471
v -0.741346 0.088160 -0.247471
v -0.247471 0.089475 0.741346
v -0.734838 0.282322 -0.000042
v -0.741346 0.946488 0.000000
v -0.741346 0.566337 0.247471
v -0.741346 0.593586 -0.247471
v -0.618144 0.377391 -0.618144
v -0.618144 0.946488 -0.618144
v -0.679745 0.758933 -0.556543
v -0.556543 0.751544 -0.679745
v 0.734085 0.272384 -0.000042
v 0.741346 0.939003 0.000000
v 0.741346 0.582453 -0.247471
v 0.734085 0.558994 0.245130
v -0.000376 0.295452 0.734419
v 0.000000 0.952966 0.741346
v 0.244796 0.611293 0.734419
v -0.245549 0.576143 0.734419
v 0.618144 0.395920 -0.618144
v 0.612027 0.954714 -0.612445
v 0.550997 0.767183 -0.673475
v 0.679745 0.745878 -0.556543
v 0.618144 0.404158 0.618144
v 0.618144 0.946440 0.618144
v 0.679745 0.758861 0.556543
v 0.550997 0.753316 0.673390
v 0.000000 0.271372 -0.741346
v 0.000000 0.952966 -0.741346
v -0.245549 0.548623 -0.734504
v 0.247471 0.589519 -0.741346
v 1.054359 1.018323 -0.000042
v 1.064623 1.119287 0.000000
v 1.054359 1.083570 0.327792
v 1.064623 1.069703 -0.330907
v 0.000000 1.039579 1.064623
v 0.000000 1.105420 1.064623
v -0.330907 1.062314 1.064623
v 0.330907 1.083570 1.064623
v 0.863219 1.023916 -0.863219
v 0.863219 1.120171 -0.863219
v 0.963921 1.062314 -0.762517
v 0.762517 1.062314 -0.963921
v 0.863219 1.023916 0.863219
v 0.863219 1.113693 0.863219
v 0.755059 1.076181 0.954926
v 0.963921 1.054040 0.762517
v -0.000376 1.031306 -1.054778
v -0.000376 1.127560 -1.054778
v 0.330907 1.076181 -1.064623
v -0.330907 1.075296 -1.064623
v -1.064623 1.032190 0.000000
v -1.055112 1.106304 -0.000042
v -1.064623 1.062314 -0.330907
v -1.055112 1.083570 0.327792
v -0.855578 1.039579 0.855160
v -0.863219 1.105420 0.863219
v -0.955345 1.076181 0.755393
v -0.755812 1.062314 0.954926
v -0.855578 1.010049 -0.855244
v -0.863219 1.127560 -0.863219
v -0.762517 1.069703 -0.963921
v -0.963921 1.076181 -0.762517
v 0.821833 1.214923 0.659530
v 0.659530 1.209353 0.821833
v 0.801950 1.171327 0.801950
v 0.672726 1.223726 0.673060
v -0.286880 1.201092 -0.894641
v 0.289189 1.201092 -0.902985
v 0.000000 1.178729 -0.983804
v 0.000000 1.194232 -0.822165
v -0.894975 1.216755 0.286461
v -0.894975 1.208481 -0.286546
v -0.975043 1.179613 -0.000042
v -0.814906 1.194232 -0.000042
v -0.659530 1.208481 0.821833
v -0.814577 1.222348 0.653362
v -0.801950 1.178729 0.801950
v -0.679413 1.215489 0.679413
v -0.814577 1.209365 -0.653447
v -0.659530 1.208481 -0.821833
v -0.794879 1.179613 -0.794545
v -0.679413 1.194232 -0.679413
v 0.902985 1.209317 -0.289189
v 0.902985 1.209317 0.289189
v 0.983804 1.178705 0.000000
v 0.814153 1.223690 -0.000042
v 0.289189 1.201092 0.902985
v -0.289189 1.216755 0.902985
v 0.000000 1.193480 0.983804
v -0.000376 1.223762 0.814488
v 0.653028 1.214947 -0.814243
v 0.821833 1.216719 -0.659530
v 0.801950 1.193468 -0.801950
v 0.679413 1.223726 -0.679413
v 0.743440 1.209841 -0.602432
v 0.892877 1.200851 -0.711023
v 0.711023 1.192590 -0.892877
v -0.268330 1.208100 0.822165
v -0.310048 1.185207 0.983804
v 0.310048 1.200869 0.983804
v 0.814153 1.216301 0.265796
v 0.983804 1.200845 0.310048
v 0.974291 1.192572 -0.307211
v -0.608036 1.194232 -0.750789
v -0.711023 1.178729 -0.892877
v -0.884961 1.193480 -0.704462
v -0.744193 1.215489 0.602347
v -0.884961 1.179613 0.704377
v -0.711023 1.193480 0.892877
v -0.814906 1.208100 -0.265880
v -0.983804 1.171340 -0.310048
v -0.975043 1.193480 0.307126
v 0.265461 1.208100 -0.814572
v 0.310048 1.192596 -0.983804
v -0.310048 1.193480 -0.983804
v 0.602013 1.202488 0.743774
v 0.704043 1.185201 0.884542
v 0.884208 1.192578 0.704377
v -0.963921 1.113693 -0.762517
v -0.762517 1.105420 -0.963921
v -0.755812 1.025712 -0.955011
v -0.762517 1.105420 0.963921
v -0.955345 1.105420 0.755393
v -0.963921 1.023916 0.762517
v -1.064623 1.105420 0.330907
v -1.055112 1.105420 -0.327876
v -1.055112 1.018323 -0.327876
v -0.328211 1.120171 -1.054778
v 0.330907 1.120171 -1.064623
v 0.330907 1.017439 -1.064623
v 0.954592 1.113693 0.755393
v 0.762517 1.113693 0.963921
v 0.762517 1.018323 0.963921
v 0.755059 1.119287 -0.955011
v 0.963921 1.111898 -0.762517
v 0.954592 1.017439 -0.755477
v 0.327458 1.105420 1.054693
v -0.330907 1.111898 1.064623
v -0.328211 1.018323 1.054693
v 1.054359 1.106304 -0.327876
v 1.064623 1.111898 0.330907
v 1.064623 1.018323 0.330907
v 0.244796 0.961240 -0.734504
v -0.247471 0.939099 -0.741346
v -0.245549 0.284616 -0.734504
v 0.550997 0.954738 0.673390
v 0.679745 0.947301 0.556543
v 0.673056 0.387708 0.551332
v 0.673056 0.952894 -0.551416
v 0.550997 0.947349 -0.673475
v 0.550997 0.400939 -0.673475
v -0.247471 0.939099 0.741346
v 0.244796 0.961240 0.734419
v 0.244796 0.323080 0.734419
v 0.734085 0.952870 0.245130
v 0.741346 0.954666 -0.247471
v 0.734085 0.288339 -0.245215
v -0.556543 0.960356 -0.679745
v -0.673809 0.968629 -0.551416
v -0.673809 0.384479 -0.551416
v -0.734838 0.960356 -0.245215
v -0.734838 0.954762 0.245130
v -0.741346 0.307524 0.247471
v -0.734838 0.297314 -0.245215
v -0.556543 0.391813 -0.679745
v 0.741346 0.314583 0.247471
v -0.247471 0.327596 0.741346
v 0.673056 0.383115 -0.551416
v 0.556543 0.412668 0.679745
v 0.247471 0.325228 -0.741346
v 1.054359 1.023916 -0.327876
v 0.330907 1.023916 1.064623
v 0.762517 1.010049 -0.963921
v 0.954592 1.025712 0.755393
v -0.328211 1.018323 -1.054778
v -1.064623 1.018323 0.330907
v -0.755812 1.039579 0.954926
v -0.963921 1.039579 -0.762517
v 0.750789 1.223708 0.608036
v -0.268330 1.223762 -0.822165
v -0.814906 1.216373 0.265796
v -0.602766 1.208100 0.743774
v -0.744193 1.194232 -0.602432
v 0.814153 1.201549 -0.265880
v 0.265461 1.209895 0.814488
v 0.608036 1.209877 -0.750789
v -0.675326 0.948097 0.552664
v -0.612780 0.949727 0.612361
v -0.552997 0.951344 0.675044
v -0.676756 0.752025 0.553919
v -0.612780 0.752442 0.612361
v -0.554168 0.752928 0.676596
v -0.678236 0.413531 0.555218
v -0.612780 0.407382 0.612361
v -0.555304 0.430682 0.678103
v 0.274047 0.043041 0.675007
v 0.310350 0.022043 0.616997
v 0.339944 0.014086 0.557207
v 0.366783 -0.007508 0.491065
v 0.370666 -0.055049 0.248324
v 0.370459 -0.086977 0.000475
v 0.370590 -0.055504 -0.246773
v 0.366714 -0.000114 -0.489739
v 0.336133 0.003825 -0.551224
v 0.305744 0.039364 -0.612091
v 0.275303 0.068971 -0.673203
v -0.003211 0.021175 0.669158
v 0.002225 -0.008993 0.607443
v -0.000255 -0.024505 0.548303
v -0.000657 -0.041061 0.481770
v -0.000110 -0.088406 0.238890
v -0.000311 -0.116577 -0.008719
v 0.000001 -0.091142 -0.256110
v -0.000267 -0.037446 -0.498932
v -0.000458 -0.032496 -0.559718
v -0.000105 0.009129 -0.620094
v 0.000031 0.040184 -0.680661
v -0.279924 0.056744 0.677655
v -0.305562 0.025534 0.612696
v -0.340554 0.012701 0.554979
v -0.368477 0.009579 0.488463
v -0.371872 -0.046537 0.244423
v -0.372340 -0.072806 -0.004330
v -0.372588 -0.049169 -0.252904
v -0.369810 0.013100 -0.496830
v -0.339369 0.009217 -0.558198
v -0.308613 0.048350 -0.619012
v -0.277995 0.073195 -0.680102
vn -0.1484 0.9758 0.1609
vn -0.0609 0.9863 0.1533
vn -0.1550 0.8462 0.5098
vn -0.3679 0.8617 0.3493
vn 0.0289 0.9580 -0.2853
vn -0.0955 0.9774 -0.1889
vn -0.1394 0.9216 -0.3622
vn 0.0173 0.8281 -0.5603
vn -0.3137 0.9491 -0.0279
vn -0.2092 0.9691 0.1304
vn -0.4033 0.8943 0.1936
vn -0.5548 0.8316 -0.0255
vn 0.2464 0.9544 0.1687
vn 0.2034 0.9779 0.0484
vn 0.4474 0.8874 0.1110
vn 0.3532 0.9091 0.2209
vn 0.2264 0.9593 -0.1690
vn 0.0868 0.9764 -0.1978
vn 0.1902 0.8883 -0.4181
vn 0.3541 0.8718 -0.3384
vn 0.3016 0.9530 -0.0301
vn 0.2434 0.9642 -0.1050
vn 0.4789 0.8559 -0.1952
vn 0.5139 0.8577 -0.0181
vn 0.0007 0.9617 0.2740
vn 0.0514 0.9821 0.1811
vn 0.1283 0.8553 0.5019
vn 0.0159 0.8357 0.5490
vn -0.1947 0.9637 -0.1826
vn -0.1828 0.9788 -0.0927
vn -0.5080 0.8404 -0.1891
vn -0.4538 0.7744 -0.4409
vn -0.7126 0.0300 -0.7009
vn -0.7181 0.0689 -0.6925
vn -0.9277 0.0791 -0.3647
vn -0.9351 0.0133 -0.3542
vn -0.7198 0.0135 0.6940
vn -0.7198 -0.0537 0.6921
vn -0.4086 -0.0590 0.9108
vn -0.4054 0.0035 0.9141
vn -0.9980 -0.0635 0.0046
vn -0.9652 -0.2613 0.0008
vn -0.8963 -0.2376 0.3744
vn -0.9198 0.0222 0.3918
vn -0.0060 -0.0437 -0.9990
vn -0.0066 0.0603 -0.9982
vn -0.3477 0.0650 -0.9354
vn -0.3647 -0.0239 -0.9308
vn 0.7118 -0.0402 0.7012
vn 0.7103 -0.0000 0.7039
vn 0.9089 -0.0755 0.4101
vn 0.9155 0.0131 0.4022
vn 0.6995 -0.0881 -0.7092
vn 0.6682 -0.2231 -0.7097
vn 0.3484 -0.3129 -0.8836
vn 0.3792 -0.1476 -0.9135
vn 0.0078 -0.0463 0.9989
vn -0.0003 -0.1023 0.9948
vn 0.3761 0.1263 0.9179
vn 0.3538 0.0822 0.9317
vn 0.9994 0.0333 -0.0005
vn 0.9769 0.2134 -0.0084
vn 0.9119 0.1672 -0.3748
vn 0.9277 -0.0478 -0.3702
vn -0.0102 0.0043 0.9999
vn -0.0177 0.0154 0.9997
vn -0.3734 0.0084 0.9277
vn -0.3941 0.0031 0.9191
vn -0.7100 -0.0009 -0.7042
vn -0.7000 0.0176 -0.7139
vn -0.3812 0.0013 -0.9245
vn -0.3824 -0.0136 -0.9239
vn -0.7138 0.0129 0.7002
vn -0.7106 0.0171 0.7034
vn -0.9191 0.0089 0.3939
vn -0.9209 0.0030 0.3899
vn -0.0073 -0.0106 -0.9999
vn -0.0138 -0.0058 -0.9999
vn 0.3506 -0.0184 -0.9364
vn 0.3642 -0.0126 -0.9312
vn -1.0000 -0.0048 0.0055
vn -1.0000 -0.0034 0.0016
vn -0.9402 0.0097 -0.3405
vn -0.9192 0.0029 -0.3938
vn 0.6828 0.0129 0.7305
vn 0.6886 0.0263 0.7247
vn 0.3333 -0.0009 0.9428
vn 0.3495 0.0008 0.9369
vn 0.6919 -0.0015 -0.7220
vn 0.6855 0.0030 -0.7281
vn 0.9308 0.0150 -0.3652
vn 0.9254 -0.0024 -0.3791
vn 1.0000 -0.0021 0.0046
vn 0.9997 -0.0242 0.0017
vn 0.9212 -0.0084 0.3891
vn 0.9223 0.0094 0.3863
vn 1.0000 0.0028 -0.0011
vn 1.0000 -0.0029 0.0007
vn 0.9997 -0.0230 0.0062
vn 1.0000 -0.0032 0.0070
vn 1.0000 -0.0008 -0.0087
vn 1.0000 -0.0049 -0.0044
vn 1.0000 0.0070 0.0040
vn 1.0000 -0.0042 -0.0002
vn 1.0000 -0.0048 -0.0009
vn 1.0000 0.0076 0.0051
vn 0.9213 0.0003 0.3889
vn 0.9195 -0.0035 0.3930
vn 0.7229 0.0119 0.6908
vn 0.7238 0.0094 0.6900
vn 0.7223 0.0259 0.6911
vn 0.7221 0.0169 0.6916
vn 0.7077 0.0025 0.7065
vn 0.7145 -0.0026 0.6997
vn 0.7225 -0.0014 0.6914
vn 0.7226 -0.0014 0.6912
vn 0.6837 0.0055 0.7297
vn 0.6740 -0.0000 0.7387
vn 0.3466 0.0046 0.9380
vn 0.3539 0.0079 0.9353
vn -1.0000 -0.0049 -0.0043
vn -0.9998 -0.0198 -0.0022
vn -0.9996 -0.0257 0.0068
vn -0.9999 -0.0136 0.0045
vn -1.0000 -0.0037 0.0014
vn -1.0000 0.0075 -0.0037
vn -1.0000 0.0040 -0.0058
vn -0.9999 0.0006 -0.0111
vn -1.0000 0.0034 -0.0029
vn -0.9999 -0.0073 0.0106
vn -0.9270 -0.0084 -0.3750
vn -0.9370 0.0005 -0.3494
vn 0.0142 -0.0099 -0.9999
vn 0.0179 -0.0142 -0.9997
vn -0.0060 -0.0073 -1.0000
vn -0.0071 -0.0071 -0.9999
vn -0.0050 0.0009 -1.0000
vn 0.0042 0.0009 -1.0000
vn -0.0074 0.0021 -1.0000
vn -0.0107 0.0066 -0.9999
vn 0.0087 0.0118 -0.9999
vn 0.0017 -0.0008 -1.0000
vn 0.3685 0.0005 -0.9296
vn 0.3895 0.0103 -0.9210
vn -0.6805 0.0042 0.7327
vn -0.6875 0.0096 0.7261
vn -0.7082 0.0176 0.7058
vn -0.6979 0.0117 0.7161
vn -0.6980 -0.0059 0.7160
vn -0.6816 -0.0059 0.7317
vn -0.6890 -0.0141 0.7247
vn -0.6996 -0.0155 0.7144
vn -0.6901 -0.0106 0.7237
vn -0.7167 -0.0061 0.6974
vn -0.9220 0.0048 0.3871
vn -0.9144 -0.0012 0.4049
vn -0.7115 -0.0037 -0.7027
vn -0.7244 -0.0105 -0.6893
vn -0.7038 0.0007 -0.7104
vn -0.7059 -0.0055 -0.7083
vn -0.7166 0.0050 -0.6975
vn -0.7006 0.0028 -0.7136
vn -0.6916 0.0032 -0.7223
vn -0.6724 0.0109 -0.7401
vn -0.6974 0.0044 -0.7167
vn -0.7081 -0.0020 -0.7061
vn -0.3880 0.0019 -0.9217
vn -0.4013 0.0014 -0.9159
vn 0.0089 -0.0126 0.9999
vn 0.0103 -0.0165 0.9998
vn -0.0020 -0.0008 1.0000
vn 0.0053 -0.0059 1.0000
vn 0.0083 0.0035 1.0000
vn 0.0058 0.0029 1.0000
vn 0.0082 -0.0030 1.0000
vn 0.0001 0.0041 1.0000
vn -0.0097 0.0057 0.9999
vn -0.0077 -0.0047 1.0000
vn -0.3901 -0.0044 0.9208
vn -0.3883 0.0012 0.9215
vn 0.9996 0.0283 -0.0091
vn 0.9980 -0.0628 -0.0059
vn 0.9885 0.1512 -0.0023
vn 0.9974 0.0717 -0.0015
vn 0.9989 -0.0464 -0.0005
vn 0.9952 -0.0977 -0.0065
vn 0.9975 -0.0712 -0.0003
vn 0.9994 0.0330 -0.0049
vn 0.9962 0.0868 -0.0011
vn 0.9998 -0.0213 0.0056
vn 0.9252 -0.0240 -0.3786
vn 0.9326 0.0892 -0.3498
vn -0.0029 -0.0421 0.9991
vn -0.0000 -0.0000 1.0000
vn -0.0003 -0.0959 0.9954
vn -0.0031 -0.0903 0.9959
vn -0.0038 0.0245 0.9997
vn -0.0064 -0.0735 0.9973
vn -0.0008 -0.0109 0.9999
vn 0.0056 0.0640 0.9979
vn 0.0054 0.0487 0.9988
vn 0.0138 0.0922 0.9956
vn 0.3740 0.0290 0.9270
vn 0.3611 -0.0715 0.9298
vn 0.7228 0.0265 -0.6905
vn 0.7225 0.1606 -0.6724
vn 0.7119 -0.0017 -0.7023
vn 0.7163 0.0388 -0.6967
vn 0.7188 0.0047 -0.6952
vn 0.7065 -0.0641 -0.7048
vn 0.7070 0.0121 -0.7071
vn 0.6851 -0.0241 -0.7280
vn 0.7139 0.0238 -0.6998
vn 0.7199 0.0574 -0.6917
vn 0.3919 0.0252 -0.9197
vn 0.4066 0.0587 -0.9117
vn 0.6804 0.1035 0.7255
vn 0.6872 0.1057 0.7188
vn 0.7351 -0.0000 0.6779
vn 0.7202 -0.0100 0.6937
vn 0.6795 -0.1135 0.7249
vn 0.6764 -0.0324 0.7358
vn 0.7065 -0.0120 0.7076
vn 0.7221 -0.0074 0.6917
vn 0.7217 0.0656 0.6891
vn 0.7207 -0.0147 0.6931
vn 0.9260 -0.0592 0.3728
vn 0.9121 0.0009 0.4100
vn -0.0031 -0.1020 -0.9948
vn 0.0013 -0.1320 -0.9912
vn -0.0065 0.0600 -0.9982
vn -0.0068 -0.0484 -0.9988
vn -0.0114 0.0874 -0.9961
vn -0.0077 -0.0005 -1.0000
vn -0.0073 -0.0063 -1.0000
vn -0.0067 0.1045 -0.9945
vn -0.0008 0.0415 -0.9991
vn -0.0078 0.0003 -1.0000
vn -0.3645 -0.0347 -0.9306
vn -0.3493 -0.0455 -0.9359
vn -0.9999 -0.0122 -0.0091
vn -0.9967 0.0815 -0.0056
vn -0.9905 -0.1374 -0.0014
vn -0.9974 -0.0720 0.0012
vn -0.9990 0.0436 -0.0093
vn -0.9989 0.0455 -0.0122
vn -0.9976 0.0695 -0.0006
vn -0.9995 0.0298 -0.0032
vn -1.0000 0.0025 0.0056
vn -0.9990 0.0445 0.0077
vn -0.9200 0.1207 0.3730
vn -0.9213 0.0087 0.3887
vn -0.6939 0.0230 0.7197
vn -0.6881 -0.1536 0.7091
vn -0.6859 -0.0539 0.7257
vn -0.6894 0.0187 0.7241
vn -0.7290 -0.0341 0.6837
vn -0.7080 0.0666 0.7030
vn -0.7051 -0.0414 0.7079
vn -0.7191 -0.0645 0.6919
vn -0.6966 -0.0575 0.7152
vn -0.7078 -0.0997 0.6993
vn -0.3766 -0.0988 0.9211
vn -0.3929 -0.0429 0.9186
vn -0.7003 0.0671 -0.7107
vn -0.6681 0.2492 -0.7011
vn -0.6705 0.2644 -0.6932
vn -0.6896 0.1222 -0.7138
vn -0.6932 -0.0704 -0.7173
vn -0.7006 -0.0872 -0.7082
vn -0.6986 -0.0928 -0.7095
vn -0.7066 -0.0626 -0.7048
vn -0.7252 -0.0357 -0.6876
vn -0.7121 -0.0326 -0.7013
vn -0.9352 0.0093 -0.3540
vn -0.9356 0.0128 -0.3528
vn 0.2396 0.9357 0.2588
vn 0.3222 0.9360 0.1415
vn 0.1730 0.9829 0.0624
vn 0.1417 0.9769 0.1601
vn 0.2577 0.9456 0.1984
vn 0.2292 0.9415 0.2470
vn 0.1246 0.9740 0.1890
vn 0.0977 0.9897 0.1047
vn -0.2297 0.9592 -0.1650
vn -0.2327 0.9550 -0.1839
vn -0.4402 0.7821 -0.4410
vn -0.3691 0.8692 -0.3289
vn -0.0011 0.9502 -0.3116
vn -0.1360 0.9523 -0.2732
vn -0.0638 0.9913 -0.1148
vn -0.0045 0.9885 -0.1514
vn 0.0079 0.9590 -0.2833
vn -0.0028 0.9457 -0.3252
vn 0.0065 0.9951 -0.0988
vn -0.0007 0.9876 -0.1571
vn -0.0245 0.9576 0.2872
vn 0.0137 0.9530 0.3026
vn 0.0122 0.8685 0.4955
vn -0.0398 0.8556 0.5162
vn -0.3780 0.9258 -0.0039
vn -0.3141 0.9407 0.1284
vn -0.2225 0.9700 0.0978
vn -0.1448 0.9889 -0.0326
vn -0.2408 0.9704 0.0163
vn -0.2845 0.9587 -0.0063
vn -0.1341 0.9908 -0.0189
vn -0.1487 0.9887 0.0176
vn 0.2835 0.9587 0.0218
vn 0.2778 0.9605 -0.0178
vn 0.4967 0.8677 -0.0194
vn 0.5202 0.8539 0.0156
vn -0.2254 0.9495 0.2184
vn -0.1181 0.9451 0.3048
vn -0.0271 0.9944 0.1018
vn -0.0552 0.9937 0.0975
vn -0.2739 0.9303 0.2442
vn -0.2563 0.9405 0.2230
vn -0.1086 0.9852 0.1323
vn -0.1320 0.9820 0.1350
vn 0.2509 0.9385 -0.2372
vn 0.2258 0.9567 -0.1835
vn 0.3738 0.8510 -0.3688
vn 0.3918 0.8363 -0.3835
vn -0.2211 0.9488 -0.2256
vn -0.2438 0.9611 -0.1302
vn -0.1122 0.9934 -0.0240
vn -0.0290 0.9988 -0.0400
vn -0.2252 0.9458 -0.2340
vn -0.2251 0.9418 -0.2498
vn -0.0411 0.9973 -0.0613
vn -0.0759 0.9940 -0.0785
vn 0.2182 0.9457 0.2407
vn 0.2514 0.9413 0.2252
vn 0.3239 0.9019 0.2857
vn 0.3044 0.8861 0.3496
vn 0.3432 0.9392 0.0098
vn 0.3511 0.9271 -0.1313
vn 0.0778 0.9968 0.0184
vn 0.1011 0.9948 -0.0128
vn 0.3546 0.9350 -0.0031
vn 0.3755 0.9268 -0.0081
vn 0.1718 0.9851 -0.0115
vn 0.1629 0.9866 0.0015
vn -0.2651 0.9642 0.0101
vn -0.2917 0.9563 -0.0219
vn -0.5898 0.8071 -0.0289
vn -0.5639 0.8258 0.0044
vn 0.0013 0.9627 0.2706
vn 0.1397 0.9654 0.2202
vn 0.0568 0.9941 0.0928
vn 0.0202 0.9967 0.0783
vn -0.0055 0.9247 0.3807
vn -0.0155 0.9360 0.3517
vn 0.0065 0.9912 0.1321
vn -0.0223 0.9923 0.1221
vn -0.0219 0.9465 -0.3220
vn 0.0019 0.9447 -0.3278
vn -0.0086 0.7831 -0.6218
vn -0.0156 0.8195 -0.5729
vn 0.1858 0.9606 -0.2065
vn 0.0567 0.9743 -0.2181
vn 0.0509 0.9800 -0.1926
vn 0.1031 0.9888 -0.1078
vn 0.2510 0.9356 -0.2485
vn 0.2297 0.9438 -0.2377
vn 0.0796 0.9919 -0.0988
vn 0.0524 0.9982 -0.0298
vn -0.1485 0.9588 0.2422
vn -0.1510 0.9788 0.1387
vn -0.3679 0.8593 0.3553
vn -0.2951 0.8603 0.4156
vn 0.3971 0.8367 -0.3771
vn 0.3589 0.8678 -0.3436
vn 0.4486 0.8689 -0.2094
vn 0.2141 0.9534 -0.2127
vn 0.0498 0.9810 -0.1874
vn 0.0092 0.8917 0.4526
vn -0.0311 0.8983 0.4382
vn -0.1689 0.9150 0.3665
vn 0.0045 0.9426 0.3339
vn 0.1526 0.9633 0.2207
vn 0.4358 0.9001 0.0025
vn 0.4371 0.8994 -0.0070
vn 0.3544 0.9204 0.1650
vn 0.4366 0.8996 0.0065
vn -0.2339 0.9470 -0.2202
vn -0.1945 0.9548 -0.2247
vn -0.1690 0.9351 -0.3115
vn -0.2723 0.9170 -0.2914
vn -0.2681 0.9431 -0.1967
vn -0.1807 0.9717 0.1523
vn -0.2301 0.9543 0.1908
vn -0.2402 0.9662 0.0933
vn -0.2944 0.9170 0.2692
vn -0.1875 0.9822 0.0097
vn -0.2642 0.9644 0.0096
vn -0.3691 0.9294 0.0045
vn -0.0007 0.9603 -0.2790
vn -0.0041 0.9324 -0.3614
vn 0.0038 0.9126 -0.4088
vn 0.2414 0.9546 0.1748
vn 0.2269 0.9467 0.2285
vn 0.2641 0.9258 0.2706
vn -0.7071 -0.0000 -0.7071
vn -0.7340 -0.0000 -0.6791
vn -0.9410 -0.0452 -0.3354
vn -0.3471 -0.1413 -0.9271
vn -0.6881 -0.0665 -0.7226
vn -0.7180 0.0546 0.6939
vn -0.6843 0.1535 0.7129
vn -0.3749 0.1626 0.9127
vn -0.9215 0.0715 0.3818
vn -0.7343 -0.0000 0.6789
vn -0.9966 -0.0825 -0.0016
vn -0.9980 0.0626 0.0028
vn -0.9928 -0.1194 -0.0082
vn -0.0059 0.0678 -0.9977
vn 0.0073 -0.0642 -0.9979
vn 0.4100 0.0677 -0.9095
vn -0.0151 0.1284 -0.9916
vn 0.7356 -0.0000 0.6774
vn 0.7212 0.0718 0.6890
vn 0.9028 0.1937 0.3839
vn 0.3524 -0.1510 0.9236
vn 0.6896 -0.0636 0.7214
vn 0.6763 -0.0000 -0.7366
vn 0.7106 -0.0000 -0.7036
vn 0.9415 -0.0000 -0.3369
vn 0.7358 -0.0000 -0.6772
vn 0.0066 0.0599 0.9982
vn -0.0008 -0.0827 0.9966
vn -0.0003 0.1133 0.9936
vn 0.9804 0.1969 -0.0097
vn 0.9980 0.0633 -0.0069
vn 0.9708 0.2398 -0.0000
vn -0.0002 0.0005 1.0000
vn -0.0141 0.0169 0.9998
vn -0.3799 0.0093 0.9250
vn 0.3654 0.0108 0.9308
vn 0.0071 -0.0082 0.9999
vn -0.6711 -0.0000 -0.7413
vn -0.6920 -0.0103 -0.7218
vn -0.3988 -0.0196 -0.9168
vn -0.9405 0.0196 -0.3391
vn -0.7253 0.0106 -0.6883
vn -0.7071 -0.0000 0.7071
vn -0.6738 -0.0000 0.7389
vn -0.9101 -0.0099 0.4142
vn -0.0141 -0.0000 -0.9999
vn 0.0074 0.0083 -0.9999
vn 0.4098 0.0164 -0.9120
vn -0.0072 -0.0083 -0.9999
vn -0.9999 -0.0085 -0.0081
vn -0.9999 0.0083 -0.0072
vn -0.9998 -0.0176 -0.0000
vn 0.7246 0.0102 0.6891
vn 0.6916 0.0100 0.7222
vn 0.9206 0.0106 0.3903
vn 0.7058 0.0196 0.7081
vn 1.0000 -0.0000 -0.0005
vn 1.0000 -0.0000 -0.0000
vn 0.9249 0.0033 -0.3803
vn 0.9267 -0.0114 -0.3757
vn 0.9233 0.0158 -0.3837
vn 0.9999 0.0076 -0.0066
vn 0.7298 -0.0111 -0.6836
vn 0.7159 -0.0081 -0.6982
vn 0.7049 -0.0041 -0.7093
vn 0.7076 -0.0035 -0.7066
vn 0.7231 0.0046 -0.6907
vn 0.7149 -0.0003 -0.6992
vn 0.7074 -0.0049 -0.7068
vn 0.7075 -0.0049 -0.7067
vn 0.6990 -0.0001 -0.7152
vn 0.6908 0.0046 -0.7230
vn 0.7070 -0.0039 -0.7072
vn 0.7073 -0.0038 -0.7069
vn 0.6988 -0.0069 -0.7153
vn -0.3513 0.7108 -0.6093
vn -0.3802 0.7690 -0.5139
vn -0.2103 0.8367 -0.5057
vn -0.1936 0.8012 -0.5662
vn 0.0175 0.8826 -0.4699
vn 0.0151 0.8598 -0.5104
vn 0.2266 0.8272 -0.5142
vn 0.1996 0.8233 -0.5313
vn 0.3488 0.7659 -0.5401
vn 0.3453 0.7525 -0.5609
vn -0.4383 0.8421 -0.3144
vn -0.2588 0.9029 -0.3431
vn 0.0034 0.9428 -0.3335
vn 0.2274 0.8882 -0.3993
vn 0.3815 0.8279 -0.4111
vn -0.4335 0.8081 -0.3987
vn -0.2795 0.9089 -0.3096
vn 0.0092 0.9714 -0.2371
vn 0.2722 0.9323 -0.2381
vn 0.4370 0.8825 -0.1738
vn -0.4226 0.8414 -0.3368
vn -0.2759 0.9107 -0.3074
vn 0.0161 0.9763 -0.2160
vn 0.2963 0.9344 -0.1978
vn 0.4193 0.8789 -0.2274
vn -0.3926 0.8964 -0.2060
vn -0.2394 0.9538 -0.1814
vn 0.0164 0.9875 -0.1568
vn 0.2484 0.9514 -0.1819
vn 0.3808 0.9004 -0.2105
vn -0.3614 0.9323 -0.0118
vn -0.2232 0.9747 -0.0081
vn 0.0141 0.9999 -0.0029
vn 0.2339 0.9722 -0.0096
vn 0.3537 0.9352 -0.0151
vn -0.3661 0.9094 0.1977
vn -0.2323 0.9557 0.1809
vn 0.0113 0.9860 0.1665
vn 0.2416 0.9538 0.1785
vn 0.3638 0.9107 0.1957
vn -0.3857 0.8948 0.2247
vn -0.2712 0.9432 0.1919
vn 0.0110 0.9888 0.1489
vn 0.2842 0.9484 0.1406
vn 0.3876 0.9003 0.1979
vn -0.3833 0.8850 0.2643
vn -0.2286 0.9157 0.3304
vn 0.0075 0.9458 0.3246
vn 0.2377 0.9207 0.3096
vn 0.3926 0.9047 0.1656
vn -0.3120 0.7969 0.5173
vn -0.2059 0.8307 0.5172
vn 0.0033 0.8593 0.5114
vn 0.2145 0.8324 0.5109
vn 0.3129 0.7805 0.5412
vn -0.2958 0.8176 0.4940
vn -0.2006 0.8584 0.4721
vn 0.0005 0.9038 0.4280
vn 0.2082 0.8903 0.4050
vn 0.3111 0.8559 0.4131
vn -0.2884 0.8248 0.4864
vn -0.1825 0.8746 0.4492
vn -0.0030 0.9163 0.4006
vn 0.1778 0.9105 0.3733
vn 0.2961 0.8825 0.3653
vt 0.000000 0.000000
s 1
usemtl dark_grey_non-metalic_(rough)
f 503/81/67 248/81/68 113/81/69 289/81/70
f 502/81/71 249/81/72 118/81/73 241/81/74
f 501/81/75 298/81/76 114/81/77 294/81/78
f 500/81/79 300/81/80 119/81/81 292/81/82
f 499/81/83 302/81/84 115/81/85 290/81/86
f 498/81/87 246/81/88 116/81/89 240/81/90
f 497/81/91 244/81/92 120/81/93 293/81/94
f 496/81/95 242/81/96 117/81/97 291/81/98
f 495/81/99 276/81/100 111/81/101 226/81/102
f 494/81/103 274/81/104 107/81/105 228/81/106
f 493/81/107 224/81/108 108/81/109 284/81/110
f 492/81/111 277/81/112 112/81/113 282/81/114
f 491/81/115 275/81/116 109/81/117 231/81/118
f 490/81/119 273/81/120 105/81/121 285/81/122
f 489/81/123 225/81/124 110/81/125 287/81/126
f 488/81/127 278/81/128 106/81/129 288/81/130
f 487/81/131 261/81/132 121/81/133 250/81/134
f 486/81/135 259/81/136 126/81/137 252/81/138
f 485/81/139 258/81/140 122/81/141 254/81/142
f 484/81/143 319/81/144 123/81/145 255/81/146
f 483/81/147 262/81/148 125/81/149 308/81/150
f 482/81/151 260/81/152 128/81/153 306/81/154
f 510/81/155 170/81/156 124/81/157 257/81/158
f 481/81/159 318/81/160 127/81/161 311/81/162
f 480/81/163 263/81/164 185/81/165 320/81/166
f 479/81/167 322/81/168 187/81/169 321/81/170
f 478/81/171 323/81/172 177/81/173 256/81/174
f 477/81/175 315/81/176 182/81/177 324/81/178
f 476/81/179 326/81/180 188/81/181 325/81/182
f 475/81/183 327/81/184 172/81/185 251/81/186
f 474/81/187 317/81/188 184/81/189 328/81/190
f 473/81/191 330/81/192 189/81/193 329/81/194
f 472/81/195 331/81/196 174/81/197 253/81/198
f 471/81/199 264/81/200 186/81/201 332/81/202
f 470/81/203 334/81/204 190/81/205 333/81/206
f 469/81/207 335/81/208 176/81/209 310/81/210
f 468/81/211 313/81/212 179/81/213 336/81/214
f 467/81/215 338/81/216 191/81/217 337/81/218
f 466/81/219 339/81/220 175/81/221 309/81/222
f 465/81/223 314/81/224 181/81/225 340/81/226
f 464/81/227 342/81/228 192/81/229 341/81/230
f 463/81/231 343/81/232 173/81/233 307/81/234
f 462/81/235 316/81/236 183/81/237 344/81/238
f 461/81/239 346/81/240 193/81/241 345/81/242
f 460/81/243 347/81/244 171/81/245 305/81/246
f 459/81/247 223/81/248 143/81/249 348/81/250
f 458/81/251 350/81/252 194/81/253 349/81/254
f 457/81/255 351/81/256 153/81/257 233/81/258
f 456/81/259 280/81/260 145/81/261 352/81/262
f 455/81/263 354/81/264 195/81/265 353/81/266
f 454/81/267 355/81/268 152/81/269 232/81/270
f 453/81/271 218/81/272 138/81/273 356/81/274
f 452/81/275 358/81/276 196/81/277 357/81/278
f 451/81/279 359/81/280 150/81/281 230/81/282
f 450/81/283 220/81/284 140/81/285 360/81/286
f 449/81/287 362/81/288 197/81/289 361/81/290
f 448/81/291 363/81/292 151/81/293 286/81/294
f 447/81/295 222/81/296 142/81/297 364/81/298
f 446/81/299 366/81/300 198/81/301 365/81/302
f 445/81/303 367/81/304 147/81/305 227/81/306
f 444/81/307 279/81/308 144/81/309 368/81/310
f 443/81/311 370/81/312 199/81/313 369/81/314
f 442/81/315 371/81/316 149/81/317 229/81/318
f 441/81/319 219/81/320 139/81/321 372/81/322
f 440/81/323 374/81/324 200/81/325 373/81/326
f 439/81/327 375/81/328 148/81/329 283/81/330
f 438/81/331 221/81/332 141/81/333 376/81/334
f 437/81/335 378/81/336 201/81/337 377/81/338
f 436/81/339 379/81/340 146/81/341 281/81/342
f 435/81/343 297/81/344 162/81/345 380/81/346
f 434/81/347 382/81/348 202/81/349 381/81/350
f 433/81/351 383/81/352 156/81/353 236/81/354
f 432/81/355 299/81/356 164/81/357 384/81/358
f 431/81/359 386/81/360 203/81/361 385/81/362
f 430/81/363 387/81/364 158/81/365 238/81/366
f 429/81/367 301/81/368 166/81/369 388/81/370
f 428/81/371 390/81/372 204/81/373 389/81/374
f 427/81/375 391/81/376 160/81/377 295/81/378
f 426/81/379 247/81/380 167/81/381 392/81/382
f 425/81/383 394/81/384 205/81/385 393/81/386
f 424/81/387 395/81/388 155/81/389 235/81/390
f 423/81/391 245/81/392 165/81/393 396/81/394
f 422/81/395 398/81/396 206/81/397 397/81/398
f 421/81/399 399/81/400 157/81/401 237/81/402
f 420/81/403 243/81/404 163/81/405 400/81/406
f 419/81/407 402/81/408 207/81/409 401/81/410
f 418/81/411 403/81/412 159/81/413 239/81/414
f 417/81/415 304/81/416 169/81/417 404/81/418
f 416/81/419 406/81/420 208/81/421 405/81/422
f 415/81/423 407/81/424 161/81/425 296/81/426
f 414/81/427 303/81/428 168/81/429 408/81/430
f 413/81/431 410/81/432 209/81/433 409/81/434
f 412/81/435 411/81/436 154/81/437 234/81/438
f 409/81/434 209/81/433 411/81/436 412/81/435
f 163/81/405 409/81/434 412/81/435 298/81/76
f 298/81/76 412/81/435 234/81/438 114/81/77
f 210/81/439 130/81/440 410/81/432 413/81/431
f 98/81/441 210/81/439 413/81/431 243/81/404
f 243/81/404 413/81/431 409/81/434 163/81/405
f 265/81/442 97/81/443 303/81/428 414/81/427
f 130/81/440 265/81/442 414/81/427 410/81/432
f 410/81/432 414/81/427 408/81/430 209/81/433
f 405/81/422 208/81/421 407/81/424 415/81/423
f 167/81/381 405/81/422 415/81/423 302/81/84
f 302/81/84 415/81/423 296/81/426 115/81/85
f 272/81/444 137/81/445 406/81/420 416/81/419
f 99/81/446 272/81/444 416/81/419 247/81/380
f 247/81/380 416/81/419 405/81/422 167/81/381
f 217/81/447 102/81/448 304/81/416 417/81/415
f 137/81/445 217/81/447 417/81/415 406/81/420
f 406/81/420 417/81/415 404/81/418 208/81/421
f 401/81/410 207/81/409 403/81/412 418/81/411
f 162/81/345 401/81/410 418/81/411 242/81/96
f 242/81/96 418/81/411 239/81/414 117/81/97
f 215/81/449 135/81/450 402/81/408 419/81/407
f 101/81/451 215/81/449 419/81/407 297/81/344
f 297/81/344 419/81/407 401/81/410 162/81/345
f 270/81/452 98/81/441 243/81/404 420/81/403
f 135/81/450 270/81/452 420/81/403 402/81/408
f 402/81/408 420/81/403 400/81/406 207/81/409
f 397/81/398 206/81/397 399/81/400 421/81/399
f 164/81/357 397/81/398 421/81/399 244/81/92
f 244/81/92 421/81/399 237/81/402 120/81/93
f 213/81/453 133/81/454 398/81/396 422/81/395
f 104/81/455 213/81/453 422/81/395 299/81/356
f 299/81/356 422/81/395 397/81/398 164/81/357
f 268/81/456 103/81/457 245/81/392 423/81/391
f 133/81/454 268/81/456 423/81/391 398/81/396
f 398/81/396 423/81/391 396/81/394 206/81/397
f 393/81/386 205/81/385 395/81/388 424/81/387
f 166/81/369 393/81/386 424/81/387 246/81/88
f 246/81/88 424/81/387 235/81/390 116/81/89
f 211/81/458 131/81/459 394/81/384 425/81/383
f 100/81/460 211/81/458 425/81/383 301/81/368
f 301/81/368 425/81/383 393/81/386 166/81/369
f 266/81/461 99/81/446 247/81/380 426/81/379
f 131/81/459 266/81/461 426/81/379 394/81/384
f 394/81/384 426/81/379 392/81/382 205/81/385
f 389/81/374 204/81/373 391/81/376 427/81/375
f 165/81/393 389/81/374 427/81/375 300/81/80
f 300/81/80 427/81/375 295/81/378 119/81/81
f 271/81/462 136/81/463 390/81/372 428/81/371
f 103/81/457 271/81/462 428/81/371 245/81/392
f 245/81/392 428/81/371 389/81/374 165/81/393
f 216/81/464 100/81/460 301/81/368 429/81/367
f 136/81/463 216/81/464 429/81/367 390/81/372
f 390/81/372 429/81/367 388/81/370 204/81/373
f 385/81/362 203/81/361 387/81/364 430/81/363
f 168/81/429 385/81/362 430/81/363 248/81/68
f 248/81/68 430/81/363 238/81/366 113/81/69
f 214/81/465 134/81/466 386/81/360 431/81/359
f 97/81/443 214/81/465 431/81/359 303/81/428
f 303/81/428 431/81/359 385/81/362 168/81/429
f 269/81/467 104/81/455 299/81/356 432/81/355
f 134/81/466 269/81/467 432/81/355 386/81/360
f 386/81/360 432/81/355 384/81/358 203/81/361
f 381/81/350 202/81/349 383/81/352 433/81/351
f 169/81/417 381/81/350 433/81/351 249/81/72
f 249/81/72 433/81/351 236/81/354 118/81/73
f 212/81/468 132/81/469 382/81/348 434/81/347
f 102/81/448 212/81/468 434/81/347 304/81/416
f 304/81/416 434/81/347 381/81/350 169/81/417
f 267/81/470 101/81/451 297/81/344 435/81/343
f 132/81/469 267/81/470 435/81/343 382/81/348
f 382/81/348 435/81/343 380/81/346 202/81/349
f 377/81/338 201/81/337 379/81/340 436/81/339
f 133/81/471 377/81/338 436/81/339 268/81/472
f 268/81/472 436/81/339 281/81/342 103/81/473
f 227/81/306 147/81/305 378/81/336 437/81/335
f 104/81/474 227/81/306 437/81/335 213/81/475
f 213/81/475 437/81/335 377/81/338 133/81/471
f 282/81/114 112/81/113 221/81/332 438/81/331
f 147/81/305 282/81/114 438/81/331 378/81/336
f 378/81/336 438/81/331 376/81/334 201/81/337
f 373/81/326 200/81/325 375/81/328 439/81/327
f 131/81/476 373/81/326 439/81/327 266/81/477
f 266/81/477 439/81/327 283/81/330 99/81/478
f 229/81/318 149/81/317 374/81/324 440/81/323
f 100/81/479 229/81/318 440/81/323 211/81/480
f 211/81/480 440/81/323 373/81/326 131/81/476
f 284/81/110 108/81/109 219/81/320 441/81/319
f 149/81/317 284/81/110 441/81/319 374/81/324
f 374/81/324 441/81/319 372/81/322 200/81/325
f 369/81/314 199/81/313 371/81/316 442/81/315
f 136/81/481 369/81/314 442/81/315 216/81/482
f 216/81/482 442/81/315 229/81/318 100/81/479
f 281/81/342 146/81/341 370/81/312 443/81/311
f 103/81/473 281/81/342 443/81/311 271/81/483
f 271/81/483 443/81/311 369/81/314 136/81/481
f 226/81/102 111/81/101 279/81/308 444/81/307
f 146/81/341 226/81/102 444/81/307 370/81/312
f 370/81/312 444/81/307 368/81/310 199/81/313
f 365/81/302 198/81/301 367/81/304 445/81/303
f 134/81/484 365/81/302 445/81/303 269/81/485
f 269/81/485 445/81/303 227/81/306 104/81/474
f 230/81/282 150/81/281 366/81/300 446/81/299
f 97/81/486 230/81/282 446/81/299 214/81/487
f 214/81/487 446/81/299 365/81/302 134/81/484
f 285/81/122 105/81/121 222/81/296 447/81/295
f 150/81/281 285/81/122 447/81/295 366/81/300
f 366/81/300 447/81/295 364/81/298 198/81/301
f 361/81/290 197/81/289 363/81/292 448/81/291
f 132/81/488 361/81/290 448/81/291 267/81/489
f 267/81/489 448/81/291 286/81/294 101/81/490
f 232/81/270 152/81/269 362/81/288 449/81/287
f 102/81/491 232/81/270 449/81/287 212/81/492
f 212/81/492 449/81/287 361/81/290 132/81/488
f 287/81/126 110/81/125 220/81/284 450/81/283
f 152/81/269 287/81/126 450/81/283 362/81/288
f 362/81/288 450/81/283 360/81/286 197/81/289
f 357/81/278 196/81/277 359/81/280 451/81/279
f 130/81/493 357/81/278 451/81/279 265/81/494
f 265/81/494 451/81/279 230/81/282 97/81/486
f 233/81/258 153/81/257 358/81/276 452/81/275
f 98/81/495 233/81/258 452/81/275 210/81/496
f 210/81/496 452/81/275 357/81/278 130/81/493
f 288/81/130 106/81/129 218/81/272 453/81/271
f 153/81/257 288/81/130 453/81/271 358/81/276
f 358/81/276 453/81/271 356/81/274 196/81/277
f 353/81/266 195/81/265 355/81/268 454/81/267
f 137/81/497 353/81/266 454/81/267 217/81/498
f 217/81/498 454/81/267 232/81/270 102/81/491
f 283/81/330 148/81/329 354/81/264 455/81/263
f 99/81/478 283/81/330 455/81/263 272/81/499
f 272/81/499 455/81/263 353/81/266 137/81/497
f 228/81/106 107/81/105 280/81/260 456/81/259
f 148/81/329 228/81/106 456/81/259 354/81/264
f 354/81/264 456/81/259 352/81/262 195/81/265
f 349/81/254 194/81/253 351/81/256 457/81/255
f 135/81/500 349/81/254 457/81/255 270/81/501
f 270/81/501 457/81/255 233/81/258 98/81/495
f 286/81/294 151/81/293 350/81/252 458/81/251
f 101/81/490 286/81/294 458/81/251 215/81/502
f 215/81/502 458/81/251 349/81/254 135/81/500
f 231/81/118 109/81/117 223/81/248 459/81/247
f 151/81/293 231/81/118 459/81/247 350/81/252
f 350/81/252 459/81/247 348/81/250 194/81/253
f 345/81/242 193/81/241 347/81/244 460/81/243
f 158/81/503 345/81/242 460/81/243 238/81/504
f 238/81/504 460/81/243 305/81/246 113/81/505
f 251/81/186 172/81/185 346/81/240 461/81/239
f 120/81/506 251/81/186 461/81/239 293/81/507
f 293/81/507 461/81/239 345/81/242 158/81/503
f 306/81/154 128/81/153 316/81/236 462/81/235
f 172/81/185 306/81/154 462/81/235 346/81/240
f 346/81/240 462/81/235 344/81/238 193/81/241
f 341/81/230 192/81/229 343/81/232 463/81/231
f 156/81/508 341/81/230 463/81/231 236/81/509
f 236/81/509 463/81/231 307/81/234 118/81/510
f 253/81/198 174/81/197 342/81/228 464/81/227
f 117/81/511 253/81/198 464/81/227 291/81/512
f 291/81/512 464/81/227 341/81/230 156/81/508
f 308/81/150 125/81/149 314/81/224 465/81/223
f 174/81/197 308/81/150 465/81/223 342/81/228
f 342/81/228 465/81/223 340/81/226 192/81/229
f 337/81/218 191/81/217 339/81/220 466/81/219
f 154/81/513 337/81/218 466/81/219 234/81/514
f 234/81/514 466/81/219 309/81/222 114/81/515
f 305/81/246 171/81/245 338/81/216 467/81/215
f 113/81/505 305/81/246 467/81/215 289/81/513
f 289/81/513 467/81/215 337/81/218 154/81/513
f 250/81/134 121/81/133 313/81/212 468/81/211
f 171/81/245 250/81/134 468/81/211 338/81/216
f 338/81/216 468/81/211 336/81/214 191/81/217
f 333/81/206 190/81/205 335/81/208 469/81/207
f 161/81/516 333/81/206 469/81/207 296/81/517
f 296/81/517 469/81/207 310/81/210 115/81/518
f 307/81/234 173/81/233 334/81/204 470/81/203
f 118/81/510 307/81/234 470/81/203 241/81/519
f 241/81/519 470/81/203 333/81/206 161/81/516
f 252/81/138 126/81/137 264/81/200 471/81/199
f 173/81/233 252/81/138 471/81/199 334/81/204
f 334/81/204 471/81/199 332/81/202 190/81/205
f 329/81/194 189/81/193 331/81/196 472/81/195
f 159/81/520 329/81/194 472/81/195 239/81/521
f 239/81/521 472/81/195 253/81/198 117/81/511
f 309/81/222 175/81/221 330/81/192 473/81/191
f 114/81/515 309/81/222 473/81/191 294/81/522
f 294/81/522 473/81/191 329/81/194 159/81/520
f 254/81/142 122/81/141 317/81/188 474/81/187
f 175/81/221 254/81/142 474/81/187 330/81/192
f 330/81/192 474/81/187 328/81/190 189/81/193
f 325/81/182 188/81/181 327/81/184 475/81/183
f 157/81/523 325/81/182 475/81/183 237/81/524
f 237/81/524 475/81/183 251/81/186 120/81/506
f 256/81/174 177/81/173 326/81/180 476/81/179
f 119/81/525 256/81/174 476/81/179 292/81/526
f 292/81/526 476/81/179 325/81/182 157/81/523
f 311/81/162 127/81/161 315/81/176 477/81/175
f 177/81/173 311/81/162 477/81/175 326/81/180
f 326/81/180 477/81/175 324/81/178 188/81/181
f 321/81/170 187/81/169 323/81/172 478/81/171
f 160/81/527 321/81/170 478/81/171 295/81/528
f 295/81/528 478/81/171 256/81/174 119/81/525
f 312/81/529 178/81/530 322/81/168 479/81/167
f 116/81/531 312/81/529 479/81/167 240/81/532
f 240/81/532 479/81/167 321/81/170 160/81/527
f 257/81/158 124/81/157 263/81/164 480/81/163
f 178/81/530 257/81/158 480/81/163 322/81/168
f 322/81/168 480/81/163 320/81/166 187/81/169
f 320/81/166 185/81/165 318/81/160 481/81/159
f 187/81/169 320/81/166 481/81/159 323/81/172
f 323/81/172 481/81/159 311/81/162 177/81/173
f 324/81/178 182/81/177 260/81/152 482/81/151
f 188/81/181 324/81/178 482/81/151 327/81/184
f 327/81/184 482/81/151 306/81/154 172/81/185
f 328/81/190 184/81/189 262/81/148 483/81/147
f 189/81/193 328/81/190 483/81/147 331/81/196
f 331/81/196 483/81/147 308/81/150 174/81/197
f 332/81/202 186/81/201 319/81/144 484/81/143
f 190/81/205 332/81/202 484/81/143 335/81/208
f 335/81/208 484/81/143 255/81/146 176/81/209
f 336/81/214 179/81/213 258/81/140 485/81/139
f 191/81/217 336/81/214 485/81/139 339/81/220
f 339/81/220 485/81/139 254/81/142 175/81/221
f 340/81/226 181/81/225 259/81/136 486/81/135
f 192/81/229 340/81/226 486/81/135 343/81/232
f 343/81/232 486/81/135 252/81/138 173/81/233
f 344/81/238 183/81/237 261/81/132 487/81/131
f 193/81/241 344/81/238 487/81/131 347/81/244
f 347/81/244 487/81/131 250/81/134 171/81/245
f 348/81/250 143/81/249 278/81/128 488/81/127
f 194/81/253 348/81/250 488/81/127 351/81/256
f 351/81/256 488/81/127 288/81/130 153/81/257
f 352/81/262 145/81/261 225/81/124 489/81/123
f 195/81/265 352/81/262 489/81/123 355/81/268
f 355/81/268 489/81/123 287/81/126 152/81/269
f 356/81/274 138/81/273 273/81/120 490/81/119
f 196/81/277 356/81/274 490/81/119 359/81/280
f 359/81/280 490/81/119 285/81/122 150/81/281
f 360/81/286 140/81/285 275/81/116 491/81/115
f 197/81/289 360/81/286 491/81/115 363/81/292
f 363/81/292 491/81/115 231/81/118 151/81/293
f 364/81/298 142/81/297 277/81/112 492/81/111
f 198/81/301 364/81/298 492/81/111 367/81/304
f 367/81/304 492/81/111 282/81/114 147/81/305
f 368/81/310 144/81/309 224/81/108 493/81/107
f 199/81/313 368/81/310 493/81/107 371/81/316
f 371/81/316 493/81/107 284/81/110 149/81/317
f 372/81/322 139/81/321 274/81/104 494/81/103
f 200/81/325 372/81/322 494/81/103 375/81/328
f 375/81/328 494/81/103 228/81/106 148/81/329
f 376/81/334 141/81/333 276/81/100 495/81/99
f 201/81/337 376/81/334 495/81/99 379/81/340
f 379/81/340 495/81/99 226/81/102 146/81/341
f 380/81/346 162/81/345 242/81/96 496/81/95
f 202/81/349 380/81/346 496/81/95 383/81/352
f 383/81/352 496/81/95 291/81/98 156/81/353
f 384/81/358 164/81/357 244/81/92 497/81/91
f 203/81/361 384/81/358 497/81/91 387/81/364
f 387/81/364 497/81/91 293/81/94 158/81/365
f 388/81/370 166/81/369 246/81/88 498/81/87
f 204/81/373 388/81/370 498/81/87 391/81/376
f 391/81/376 498/81/87 240/81/90 160/81/377
f 392/81/382 167/81/381 302/81/84 499/81/83
f 205/81/385 392/81/382 499/81/83 395/81/388
f 395/81/388 499/81/83 290/81/86 155/81/389
f 396/81/394 165/81/393 300/81/80 500/81/79
f 206/81/397 396/81/394 500/81/79 399/81/400
f 399/81/400 500/81/79 292/81/82 157/81/401
f 400/81/406 163/81/405 298/81/76 501/81/75
f 207/81/409 400/81/406 501/81/75 403/81/412
f 403/81/412 501/81/75 294/81/78 159/81/413
f 404/81/418 169/81/417 249/81/72 502/81/71
f 208/81/421 404/81/418 502/81/71 407/81/424
f 407/81/424 502/81/71 241/81/74 161/81/425
f 408/81/430 168/81/429 248/81/68 503/81/67
f 209/81/433 408/81/430 503/81/67 411/81/436
f 411/81/436 503/81/67 289/81/70 154/81/437
f 255/81/146 123/81/145 180/81/533 512/81/534
f 512/81/534 180/81/533 129/81/535 511/81/536
f 511/81/536 129/81/535 170/81/156 510/81/155
f 290/81/537 506/81/538 505/81/539 155/81/540
f 155/81/540 505/81/539 504/81/541 235/81/542
f 235/81/542 504/81/541 312/81/529 116/81/531
f 115/81/518 310/81/210 506/81/538 290/81/537
f 506/81/538 509/81/543 508/81/544 505/81/539
f 505/81/539 508/81/544 507/81/545 504/81/541
f 504/81/541 507/81/545 178/81/530 312/81/529
f 310/81/210 176/81/209 509/81/543 506/81/538
f 509/81/543 512/81/534 511/81/536 508/81/544
f 508/81/544 511/81/536 510/81/155 507/81/545
f 507/81/545 510/81/155 257/81/158 178/81/530
f 176/81/209 255/81/146 512/81/534 509/81/543
f 126/81/546 259/81/547 513/81/548 264/81/549
f 264/81/549 513/81/548 524/81/550 186/81/551
f 186/81/551 524/81/550 535/81/552 319/81/553
f 319/81/553 535/81/552 180/81/554 123/81/555
f 259/81/547 181/81/556 514/81/557 513/81/548
f 513/81/548 514/81/557 525/81/558 524/81/550
f 524/81/550 525/81/558 536/81/559 535/81/552
f 535/81/552 536/81/559 129/81/560 180/81/554
f 181/81/556 314/81/561 515/81/562 514/81/557
f 514/81/557 515/81/562 526/81/563 525/81/558
f 525/81/558 526/81/563 537/81/564 536/81/559
f 536/81/559 537/81/564 170/81/565 129/81/560
f 314/81/561 125/81/566 516/81/567 515/81/562
f 515/81/562 516/81/567 527/81/568 526/81/563
f 526/81/563 527/81/568 538/81/569 537/81/564
f 537/81/564 538/81/569 124/81/570 170/81/565
f 125/81/566 262/81/571 517/81/572 516/81/567
f 516/81/567 517/81/572 528/81/573 527/81/568
f 527/81/568 528/81/573 539/81/574 538/81/569
f 538/81/569 539/81/574 263/81/575 124/81/570
f 262/81/571 184/81/576 518/81/577 517/81/572
f 517/81/572 518/81/577 529/81/578 528/81/573
f 528/81/573 529/81/578 540/81/579 539/81/574
f 539/81/574 540/81/579 185/81/580 263/81/575
f 184/81/576 317/81/581 519/81/582 518/81/577
f 518/81/577 519/81/582 530/81/583 529/81/578
f 529/81/578 530/81/583 541/81/584 540/81/579
f 540/81/579 541/81/584 318/81/585 185/81/580
f 317/81/581 122/81/586 520/81/587 519/81/582
f 519/81/582 520/81/587 531/81/588 530/81/583
f 530/81/583 531/81/588 542/81/589 541/81/584
f 541/81/584 542/81/589 127/81/590 318/81/585
f 122/81/586 258/81/591 521/81/592 520/81/587
f 520/81/587 521/81/592 532/81/593 531/81/588
f 531/81/588 532/81/593 543/81/594 542/81/589
f 542/81/589 543/81/594 315/81/595 127/81/590
f 258/81/591 179/81/596 522/81/597 521/81/592
f 521/81/592 522/81/597 533/81/598 532/81/593
f 532/81/593 533/81/598 544/81/599 543/81/594
f 543/81/594 544/81/599 182/81/600 315/81/595
f 179/81/596 313/81/601 523/81/602 522/81/597
f 522/81/597 523/81/602 534/81/603 533/81/598
f 533/81/598 534/81/603 545/81/604 544/81/599
f 544/81/599 545/81/604 260/81/605 182/81/600
f 313/81/601 121/81/606 261/81/607 523/81/602
f 523/81/602 261/81/607 183/81/608 534/81/603
f 534/81/603 183/81/608 316/81/609 545/81/604
f 545/81/604 316/81/609 128/81/610 260/81/605
o Plane
v 1.000276 -0.417376 0.417376
v 1.000276 -0.417376 -0.417376
v 1.000276 0.417376 0.417376
v 1.000276 0.417376 -0.417376
vn 1.0000 -0.0000 -0.0000
vt 0.000000 0.001667
vt 1.000000 0.001667
vt 1.000000 0.995232
vt 0.000000 0.995232
s 0
usemtl Material.002
f 546/82/611 547/83/611 549/84/611 548/85/611
o Plane.001
v -1.000276 -0.417376 -0.417375
v -1.000276 -0.417376 0.417376
v -1.000276 0.417376 -0.417376
v -1.000276 0.417376 0.417376
vn -1.0000 -0.0000 -0.0000
vt 0.000000 0.001667
vt 1.000000 0.001667
vt 1.000000 0.995232
vt 0.000000 0.995232
s 0
usemtl Material.002
f 550/86/612 551/87/612 553/88/612 552/89/612
