# Blender 4.3.2
# www.blender.org
mtllib hob.mtl
o Cube
v 1.000000 -0.165067 -0.533082
v -0.000759 0.140089 -0.471246
v 1.000000 -0.165067 0.533082
v -0.181066 0.140089 -0.435381
v -1.000000 0.165067 -0.533082
v -0.333922 0.140089 -0.333246
v -1.000000 -0.165067 -0.533082
v -0.436058 0.140089 -0.180389
v -1.000000 0.165067 0.533082
v -0.471923 0.140089 -0.000083
v -1.000000 -0.165067 0.533082
v -0.436058 0.140089 0.180224
v -0.333922 0.140089 0.333080
v 0.687807 0.135243 -0.011915
v -0.181066 0.140089 0.435216
v 0.948429 -0.015480 -0.011915
v -0.000759 0.140089 0.471081
v 0.948429 -0.015480 0.432919
v 0.179547 0.140089 0.435216
v 0.687807 0.135243 0.432919
v 1.000000 -0.045304 -0.533082
v 0.332404 0.140089 0.333080
v 0.636237 0.165067 -0.533082
v 0.434539 0.140089 0.180224
v 0.636237 0.165067 0.533082
v 0.470404 0.140089 -0.000083
v 0.434539 0.140089 -0.180389
v 1.000000 -0.045304 0.533082
v 0.332404 0.140089 -0.333246
v 0.179547 0.140089 -0.435381
v -0.471668 0.165067 -0.000083
v -0.435803 0.165067 -0.180389
v -0.333667 0.165067 -0.333246
v -0.180811 0.165067 -0.435381
v 0.318722 0.165067 -0.342558
v 0.179802 0.165067 -0.435381
v -0.000504 0.165067 -0.471246
v -0.435803 0.165067 0.180224
v -0.333667 0.165067 0.333080
v 0.179802 0.165067 0.435216
v 0.193739 0.165067 0.425903
v -0.000504 0.165067 0.471081
v -0.180811 0.165067 0.435216
v 0.332659 0.165067 -0.333246
v 0.470660 0.165067 -0.000083
v 0.434794 0.165067 -0.180389
v 0.332659 0.165067 0.333080
v 0.434794 0.165067 0.180224
v 0.750000 -0.165067 0.533082
v -0.750000 -0.165067 0.533082
v 0.750000 -0.165067 -0.533082
v -0.750000 -0.165067 -0.533082
v -1.000000 -0.165067 -0.266541
v -1.000000 -0.165067 0.266541
v -1.000000 0.165067 -0.266541
v -1.000000 0.165067 0.266541
v 1.000000 -0.165067 -0.266541
v 1.000000 -0.165067 0.266541
v 0.750000 -0.229469 -0.266541
v -0.750000 -0.229469 -0.266541
v 1.000000 -0.229469 -0.266541
v -1.000000 -0.229469 -0.266541
v -0.750000 -0.165067 -0.266541
v 0.750000 -0.229469 0.266541
v -0.750000 -0.165067 0.266541
v -0.750000 -0.229469 0.266541
v 0.750000 -0.229469 -0.533082
v 1.000000 -0.229469 -0.533082
v 0.750000 -0.229469 0.533082
v 1.000000 -0.229469 0.533082
v 1.000000 -0.229469 0.266541
v -1.000000 -0.229469 -0.533082
v -0.750000 -0.229469 -0.533082
v -1.000000 -0.229469 0.266541
v -1.000000 -0.229469 0.533082
v 0.750000 -0.165067 -0.266541
v -0.750000 -0.229469 0.533082
v 0.750000 -0.165067 0.266541
v 0.938474 -0.032693 0.432919
v 0.677853 0.118029 0.432919
v 0.677853 0.118029 -0.011915
v 0.938474 -0.032693 -0.011915
vn -0.0000 -0.0000 1.0000
vn -1.0000 -0.0000 -0.0000
vn 1.0000 -0.0000 -0.0000
vn -0.0000 1.0000 -0.0000
vn -0.0000 -0.0000 -1.0000
vn 0.5006 0.8657 -0.0000
vn 0.5556 -0.0057 -0.8315
vn -0.5556 0.0057 0.8315
vn 0.1951 -0.0020 -0.9808
vn 0.1951 -0.0020 0.9808
vn -0.1951 0.0020 0.9808
vn -0.1951 0.0020 -0.9808
vn 0.5556 -0.0057 0.8315
vn -0.5556 0.0057 -0.8315
vn 0.8314 -0.0085 0.5556
vn -0.8314 0.0085 -0.5556
vn 0.9807 -0.0100 0.1951
vn -0.9807 0.0100 -0.1951
vn 0.9807 -0.0100 -0.1951
vn -0.9807 0.0100 0.1951
vn 0.8314 -0.0085 -0.5556
vn -0.8314 0.0085 0.5556
vn -0.0000 -1.0000 -0.0000
vn -0.8657 0.5006 -0.0000
vn 0.8657 -0.5006 -0.0000
vt 0.556961 0.750000
vt 0.625000 0.818039
vt 0.625000 1.000000
vt 0.375000 1.000000
vt 0.375000 0.968750
vt 0.375000 0.781250
vt 0.375000 0.750000
vt 0.375000 0.187500
vt 0.625000 0.187500
vt 0.625000 0.250000
vt 0.375000 0.250000
vt 0.375000 0.500000
vt 0.375000 0.562500
vt 0.693039 0.750000
vt 0.693039 0.500000
vt 0.729487 0.547397
vt 0.727989 0.549507
vt 0.717013 0.584143
vt 0.713159 0.625000
vt 0.717013 0.665857
vt 0.727989 0.700493
vt 0.742918 0.721527
vt 0.875000 0.500000
vt 0.875000 0.562500
vt 0.875000 0.687500
vt 0.875000 0.750000
vt 0.744416 0.723637
vt 0.763793 0.731764
vt 0.783170 0.723637
vt 0.799596 0.700493
vt 0.810572 0.665857
vt 0.814427 0.625000
vt 0.810572 0.584143
vt 0.799596 0.549507
vt 0.783169 0.526363
vt 0.763793 0.518236
vt 0.744416 0.526363
vt 0.625000 0.431961
vt 0.556961 0.500000
vt 0.375000 0.468750
vt 0.375000 0.281250
vt 0.673747 0.523487
vt 0.576253 0.523487
vt 0.576253 0.726513
vt 0.673747 0.726513
vt 0.000000 0.000000
vt 0.343750 0.562500
vt 0.343750 0.687500
vt 0.343750 0.750000
vt 0.156250 0.750000
vt 0.156250 0.687500
vt 0.125000 0.562500
vt 0.156250 0.562500
vt 0.125000 0.687500
vt 0.343750 0.500000
vt 0.156250 0.500000
vt 0.375000 0.687500
vt 0.375000 0.000000
vt 0.375000 0.062500
vt 0.125000 0.500000
vt 0.625000 0.062500
vt 0.625000 0.000000
vt 0.125000 0.750000
s 0
usemtl grey_metalic_(med)
f 28/1/1 25/2/1 9/3/1 11/4/1 50/5/1 49/6/1 3/7/1
f 53/8/2 55/9/2 5/10/2 7/11/2
f 1/12/3 57/13/3 61/13/3 68/12/3
f 25/14/4 23/15/4 35/16/4 44/17/4 46/18/4 45/19/4 48/20/4 47/21/4 41/22/4
f 35/16/4 23/15/4 5/23/4 55/24/4 56/25/4 9/26/4 25/14/4 41/22/4 40/27/4 42/28/4 43/29/4 39/30/4 38/31/4 31/32/4 32/33/4 33/34/4 34/35/4 37/36/4 36/37/4
f 5/10/5 23/38/5 21/39/5 1/12/5 51/40/5 52/41/5 7/11/5
f 14/42/6 16/43/6 21/39/6 23/15/6
f 18/44/6 20/45/6 25/14/6 28/1/6
f 43/46/7 15/46/7 13/46/7 39/46/7
f 30/46/8 29/46/8 44/46/8 35/46/8 36/46/8
f 17/46/9 15/46/9 43/46/9 42/46/9
f 34/46/10 4/46/10 2/46/10 37/46/10
f 37/46/11 2/46/11 30/46/11 36/46/11
f 19/46/12 17/46/12 42/46/12 40/46/12
f 33/46/13 6/46/13 4/46/13 34/46/13
f 22/46/14 19/46/14 40/46/14 41/46/14 47/46/14
f 32/46/15 8/46/15 6/46/15 33/46/15
f 24/46/16 22/46/16 47/46/16 48/46/16
f 31/46/17 10/46/17 8/46/17 32/46/17
f 26/46/18 24/46/18 48/46/18 45/46/18
f 38/46/19 12/46/19 10/46/19 31/46/19
f 27/46/20 26/46/20 45/46/20 46/46/20
f 39/46/21 13/46/21 12/46/21 38/46/21
f 29/46/22 27/46/22 46/46/22 44/46/22
f 13/46/4 15/46/4 17/46/4 19/46/4 22/46/4 24/46/4 26/46/4 27/46/4 29/46/4 30/46/4 2/46/4 4/46/4 6/46/4 8/46/4 10/46/4 12/46/4
f 57/13/1 76/47/1 59/47/1 61/13/1
f 78/48/23 49/49/23 50/50/23 65/51/23
f 53/52/23 63/53/23 65/51/23 54/54/23
f 76/47/2 51/55/2 67/55/2 59/47/2
f 76/47/23 78/48/23 65/51/23 63/53/23
f 3/7/1 49/6/1 69/6/1 70/7/1
f 51/40/5 1/12/5 68/12/5 67/40/5
f 51/55/23 76/47/23 63/53/23 52/56/23
f 50/5/1 11/4/1 75/4/1 77/5/1
f 54/54/5 65/51/5 66/51/5 74/54/5
f 58/57/3 3/7/3 70/7/3 71/57/3
f 52/56/3 63/53/3 60/53/3 73/56/3
f 65/51/3 50/50/3 77/50/3 66/51/3
f 7/11/5 52/41/5 73/41/5 72/11/5
f 78/48/5 58/57/5 71/57/5 64/48/5
f 53/8/2 7/11/2 72/11/2 62/8/2
f 16/43/6 18/44/6 28/1/6 21/39/6
f 63/53/1 53/52/1 62/52/1 60/53/1
f 20/45/6 14/42/6 23/15/6 25/14/6
f 49/49/2 78/48/2 64/48/2 69/49/2
f 1/12/3 21/39/3 28/1/3 3/7/3 58/57/3 57/13/3
f 67/55/23 68/12/23 61/13/23 59/47/23
f 76/47/23 57/13/23 58/57/23 78/48/23
f 11/58/2 54/59/2 74/59/2 75/58/2
f 72/60/23 73/56/23 60/53/23 62/52/23
f 54/59/2 56/61/2 55/9/2 53/8/2
f 11/58/2 9/62/2 56/61/2 54/59/2
f 74/54/23 66/51/23 77/50/23 75/63/23
f 64/48/23 71/57/23 70/7/23 69/49/23
f 20/45/5 18/44/5 79/44/5 80/45/5
f 79/44/6 82/43/6 81/42/6 80/45/6
f 18/44/24 16/43/24 82/43/24 79/44/24
f 16/43/1 14/42/1 81/42/1 82/43/1
f 14/42/25 20/45/25 80/45/25 81/42/25
o Circle
v 0.000000 0.157310 -0.455310
v -0.174240 0.157310 -0.420652
v -0.321953 0.157310 -0.321953
v -0.420652 0.157310 -0.174240
v -0.455310 0.157310 0.000000
v -0.420652 0.157310 0.174240
v -0.321953 0.157310 0.321953
v -0.174240 0.157310 0.420652
v 0.000000 0.157310 0.455310
v 0.174240 0.157310 0.420652
v 0.321953 0.157310 0.321953
v 0.420652 0.157310 0.174240
v 0.455310 0.157310 0.000000
v 0.420652 0.157310 -0.174240
v 0.321953 0.157310 -0.321953
v 0.174240 0.157310 -0.420652
v 0.000000 0.242384 -0.209642
v -0.080226 0.242384 -0.193684
v -0.148239 0.242384 -0.148239
v -0.193684 0.242384 -0.080226
v -0.209642 0.242384 0.000000
v -0.193684 0.242384 0.080226
v -0.148239 0.242384 0.148239
v -0.080226 0.242384 0.193684
v 0.000000 0.242384 0.209642
v 0.080226 0.242384 0.193684
v 0.148239 0.242384 0.148239
v 0.193684 0.242384 0.080226
v 0.209642 0.242384 0.000000
v 0.193684 0.242384 -0.080226
v 0.148239 0.242384 -0.148239
v 0.080226 0.242384 -0.193684
v -0.071608 0.228294 -0.172878
v 0.000000 0.228294 -0.187122
v -0.132315 0.228294 -0.132315
v -0.172878 0.228294 -0.071608
v -0.187122 0.228294 0.000000
v -0.172878 0.228294 0.071608
v -0.132315 0.228294 0.132315
v -0.071608 0.228294 0.172878
v 0.000000 0.228294 0.187122
v 0.071608 0.228294 0.172878
v 0.132315 0.228294 0.132315
v 0.172878 0.228294 0.071608
v 0.187122 0.228294 0.000000
v 0.172878 0.228294 -0.071608
v 0.132315 0.228294 -0.132315
v 0.071608 0.228294 -0.172878
v -0.080226 0.228294 -0.193684
v 0.000000 0.228294 -0.209642
v -0.148239 0.228294 -0.148239
v -0.193684 0.228294 -0.080226
v -0.209642 0.228294 0.000000
v -0.193684 0.228294 0.080226
v -0.148239 0.228294 0.148239
v -0.080226 0.228294 0.193684
v 0.000000 0.228294 0.209642
v 0.080226 0.228294 0.193684
v 0.148239 0.228294 0.148239
v 0.193684 0.228294 0.080226
v 0.209642 0.228294 0.000000
v 0.193684 0.228294 -0.080226
v 0.148239 0.228294 -0.148239
v 0.080226 0.228294 -0.193684
v -0.071608 0.237866 -0.172878
v -0.069344 0.240375 -0.167412
v 0.000000 0.240375 -0.181205
v 0.000000 0.237866 -0.187122
v -0.132315 0.237866 -0.132315
v -0.128132 0.240375 -0.128132
v -0.172878 0.237866 -0.071608
v -0.167412 0.240375 -0.069344
v -0.187122 0.237866 0.000000
v -0.181205 0.240375 0.000000
v -0.172878 0.237866 0.071608
v -0.167412 0.240375 0.069344
v -0.132315 0.237866 0.132315
v -0.128132 0.240375 0.128132
v -0.071608 0.237866 0.172878
v -0.069344 0.240375 0.167412
v 0.000000 0.237866 0.187122
v 0.000000 0.240375 0.181205
v 0.071608 0.237866 0.172878
v 0.069344 0.240375 0.167412
v 0.132315 0.237866 0.132315
v 0.128132 0.240375 0.128132
v 0.172878 0.237866 0.071608
v 0.167412 0.240375 0.069344
v 0.187122 0.237866 0.000000
v 0.181205 0.240375 0.000000
v 0.172878 0.237866 -0.071608
v 0.167412 0.240375 -0.069344
v 0.132315 0.237866 -0.132315
v 0.128132 0.240375 -0.128132
v 0.071608 0.237866 -0.172878
v 0.069344 0.240375 -0.167412
v -0.174240 0.231397 -0.420652
v -0.154407 0.242384 -0.372771
v -0.000000 0.242384 -0.403484
v 0.000000 0.231397 -0.455310
v -0.321953 0.231397 -0.321953
v -0.285307 0.242384 -0.285307
v -0.420652 0.231397 -0.174240
v -0.372771 0.242384 -0.154407
v -0.455310 0.231397 0.000000
v -0.403484 0.242384 0.000000
v -0.420652 0.231397 0.174240
v -0.372771 0.242384 0.154407
v -0.321953 0.231397 0.321953
v -0.285307 0.242384 0.285307
v -0.174240 0.231397 0.420652
v -0.154407 0.242384 0.372771
v 0.000000 0.231397 0.455310
v -0.000000 0.242384 0.403484
v 0.174240 0.231397 0.420652
v 0.154407 0.242384 0.372771
v 0.321953 0.231397 0.321953
v 0.285307 0.242384 0.285307
v 0.420652 0.231397 0.174240
v 0.372771 0.242384 0.154407
v 0.455310 0.231397 0.000000
v 0.403484 0.242384 0.000000
v 0.420652 0.231397 -0.174240
v 0.372771 0.242384 -0.154407
v 0.321953 0.231397 -0.321953
v 0.285307 0.242384 -0.285307
v 0.174240 0.231397 -0.420652
v 0.154407 0.242384 -0.372771
vn -0.0000 1.0000 -0.0000
vn -1.0000 -0.0000 -0.0000
vn -0.9239 -0.0000 0.3827
vn -0.0000 -0.0000 -1.0000
vn -0.3827 -0.0000 -0.9239
vn -0.7071 -0.0000 -0.7071
vn -0.9239 -0.0000 -0.3827
vn -0.7071 -0.0000 0.7071
vn -0.3827 -0.0000 0.9239
vn -0.0000 -0.0000 1.0000
vn 0.3827 -0.0000 0.9239
vn 0.7071 -0.0000 0.7071
vn 0.9239 -0.0000 0.3827
vn 1.0000 -0.0000 -0.0000
vn 0.9239 -0.0000 -0.3827
vn 0.7071 -0.0000 -0.7071
vn 0.3827 -0.0000 -0.9239
vn -0.1494 0.9206 -0.3607
vn -0.0000 0.9206 -0.3904
vn -0.2761 0.9206 -0.2761
vn -0.3607 0.9206 -0.1494
vn -0.3904 0.9206 -0.0000
vn -0.3607 0.9206 0.1494
vn -0.2761 0.9206 0.2761
vn -0.1494 0.9206 0.3607
vn -0.0000 0.9206 0.3904
vn 0.1494 0.9206 0.3607
vn 0.2761 0.9206 0.2761
vn 0.3607 0.9206 0.1494
vn 0.3904 0.9206 -0.0000
vn 0.3607 0.9206 -0.1494
vn 0.2761 0.9206 -0.2761
vn 0.1494 0.9206 -0.3607
vn -0.0794 0.9783 -0.1916
vn -0.0000 0.9783 -0.2074
vn -0.1467 0.9783 -0.1467
vn -0.1916 0.9783 -0.0794
vn -0.2074 0.9783 -0.0000
vn -0.1916 0.9783 0.0794
vn -0.1467 0.9783 0.1467
vn -0.0794 0.9783 0.1916
vn -0.0000 0.9783 0.2074
vn 0.0794 0.9783 0.1916
vn 0.1467 0.9783 0.1467
vn 0.1916 0.9783 0.0794
vn 0.2074 0.9783 -0.0000
vn 0.1916 0.9783 -0.0794
vn 0.1467 0.9783 -0.1467
vn 0.0794 0.9783 -0.1916
vt 0.000000 0.000000
s 1
usemtl dark_grey_non-metalic_(rough)
f 107/64/26 106/64/26 194/64/26 196/64/26
f 108/64/26 107/64/26 196/64/26 198/64/26
f 101/64/26 100/64/26 180/64/26 184/64/26
f 102/64/26 101/64/26 184/64/26 186/64/26
f 109/64/26 108/64/26 198/64/26 200/64/26
f 99/64/26 114/64/26 210/64/26 181/64/26
f 110/64/26 109/64/26 200/64/26 202/64/26
f 103/64/26 102/64/26 186/64/26 188/64/26
f 111/64/26 110/64/26 202/64/26 204/64/26
f 104/64/26 103/64/26 188/64/26 190/64/26
f 112/64/26 111/64/26 204/64/26 206/64/26
f 105/64/26 104/64/26 190/64/26 192/64/26
f 113/64/26 112/64/26 206/64/26 208/64/26
f 106/64/26 105/64/26 192/64/26 194/64/26
f 114/64/26 113/64/26 208/64/26 210/64/26
f 111/64/27 112/64/28 144/64/28 143/64/27
f 83/64/29 84/64/30 179/64/30 182/64/29
f 84/64/30 85/64/31 183/64/31 179/64/30
f 85/64/31 86/64/32 185/64/32 183/64/31
f 86/64/32 87/64/27 187/64/27 185/64/32
f 87/64/27 88/64/28 189/64/28 187/64/27
f 88/64/28 89/64/33 191/64/33 189/64/28
f 89/64/33 90/64/34 193/64/34 191/64/33
f 90/64/34 91/64/35 195/64/35 193/64/34
f 91/64/35 92/64/36 197/64/36 195/64/35
f 92/64/36 93/64/37 199/64/37 197/64/36
f 93/64/37 94/64/38 201/64/38 199/64/37
f 94/64/38 95/64/39 203/64/39 201/64/38
f 95/64/39 96/64/40 205/64/40 203/64/39
f 96/64/40 97/64/41 207/64/41 205/64/40
f 97/64/41 98/64/42 209/64/42 207/64/41
f 98/64/42 83/64/29 182/64/29 209/64/42
f 104/64/40 105/64/41 137/64/41 136/64/40
f 112/64/28 113/64/33 145/64/33 144/64/28
f 105/64/41 106/64/42 138/64/42 137/64/41
f 113/64/33 114/64/34 146/64/34 145/64/33
f 106/64/42 107/64/29 139/64/29 138/64/42
f 99/64/35 100/64/36 131/64/36 132/64/35
f 114/64/34 99/64/35 132/64/35 146/64/34
f 107/64/29 108/64/30 140/64/30 139/64/29
f 100/64/36 101/64/37 133/64/37 131/64/36
f 108/64/30 109/64/31 141/64/31 140/64/30
f 101/64/37 102/64/38 134/64/38 133/64/37
f 109/64/31 110/64/32 142/64/32 141/64/31
f 102/64/38 103/64/39 135/64/39 134/64/38
f 110/64/32 111/64/27 143/64/27 142/64/32
f 103/64/39 104/64/40 136/64/40 135/64/39
f 115/64/26 116/64/26 132/64/26 131/64/26
f 117/64/26 115/64/26 131/64/26 133/64/26
f 118/64/26 117/64/26 133/64/26 134/64/26
f 119/64/26 118/64/26 134/64/26 135/64/26
f 120/64/26 119/64/26 135/64/26 136/64/26
f 121/64/26 120/64/26 136/64/26 137/64/26
f 122/64/26 121/64/26 137/64/26 138/64/26
f 123/64/26 122/64/26 138/64/26 139/64/26
f 124/64/26 123/64/26 139/64/26 140/64/26
f 125/64/26 124/64/26 140/64/26 141/64/26
f 126/64/26 125/64/26 141/64/26 142/64/26
f 127/64/26 126/64/26 142/64/26 143/64/26
f 128/64/26 127/64/26 143/64/26 144/64/26
f 129/64/26 128/64/26 144/64/26 145/64/26
f 130/64/26 129/64/26 145/64/26 146/64/26
f 116/64/26 130/64/26 146/64/26 132/64/26
f 115/64/30 117/64/31 151/64/31 147/64/30
f 123/64/35 124/64/36 165/64/36 163/64/35
f 148/64/26 152/64/26 154/64/26 156/64/26 158/64/26 160/64/26 162/64/26 164/64/26 166/64/26 168/64/26 170/64/26 172/64/26 174/64/26 176/64/26 178/64/26 149/64/26
f 117/64/31 118/64/32 153/64/32 151/64/31
f 124/64/36 125/64/37 167/64/37 165/64/36
f 130/64/42 116/64/29 150/64/29 177/64/42
f 125/64/37 126/64/38 169/64/38 167/64/37
f 118/64/32 119/64/27 155/64/27 153/64/32
f 126/64/38 127/64/39 171/64/39 169/64/38
f 119/64/27 120/64/28 157/64/28 155/64/27
f 127/64/39 128/64/40 173/64/40 171/64/39
f 120/64/28 121/64/33 159/64/33 157/64/28
f 128/64/40 129/64/41 175/64/41 173/64/40
f 121/64/33 122/64/34 161/64/34 159/64/33
f 129/64/41 130/64/42 177/64/42 175/64/41
f 122/64/34 123/64/35 163/64/35 161/64/34
f 148/64/43 149/64/44 150/64/44 147/64/43
f 152/64/45 148/64/43 147/64/43 151/64/45
f 154/64/46 152/64/45 151/64/45 153/64/46
f 156/64/47 154/64/46 153/64/46 155/64/47
f 158/64/48 156/64/47 155/64/47 157/64/48
f 160/64/49 158/64/48 157/64/48 159/64/49
f 162/64/50 160/64/49 159/64/49 161/64/50
f 164/64/51 162/64/50 161/64/50 163/64/51
f 166/64/52 164/64/51 163/64/51 165/64/52
f 168/64/53 166/64/52 165/64/52 167/64/53
f 170/64/54 168/64/53 167/64/53 169/64/54
f 172/64/55 170/64/54 169/64/54 171/64/55
f 174/64/56 172/64/55 171/64/55 173/64/56
f 176/64/57 174/64/56 173/64/56 175/64/57
f 178/64/58 176/64/57 175/64/57 177/64/58
f 149/64/44 178/64/58 177/64/58 150/64/44
f 116/64/29 115/64/30 147/64/30 150/64/29
f 180/64/59 181/64/60 182/64/60 179/64/59
f 184/64/61 180/64/59 179/64/59 183/64/61
f 186/64/62 184/64/61 183/64/61 185/64/62
f 188/64/63 186/64/62 185/64/62 187/64/63
f 190/64/64 188/64/63 187/64/63 189/64/64
f 192/64/65 190/64/64 189/64/64 191/64/65
f 194/64/66 192/64/65 191/64/65 193/64/66
f 196/64/67 194/64/66 193/64/66 195/64/67
f 198/64/68 196/64/67 195/64/67 197/64/68
f 200/64/69 198/64/68 197/64/68 199/64/69
f 202/64/70 200/64/69 199/64/69 201/64/70
f 204/64/71 202/64/70 201/64/70 203/64/71
f 206/64/72 204/64/71 203/64/71 205/64/72
f 208/64/73 206/64/72 205/64/72 207/64/73
f 210/64/74 208/64/73 207/64/73 209/64/74
f 181/64/60 210/64/74 209/64/74 182/64/60
f 100/64/26 99/64/26 181/64/26 180/64/26
o Cube.001
v 0.945101 -0.021234 0.432919
v 0.684479 0.129488 0.432919
v 0.684479 0.129488 -0.011915
v 0.945101 -0.021234 -0.011915
vn 0.5006 0.8657 -0.0000
vt 0.576253 0.726513
vt 0.576253 0.523487
vt 0.673747 0.523487
vt 0.673747 0.726513
s 0
usemtl red_non-metalic_(rough)
f 211/65/75 214/66/75 213/67/75 212/68/75
o Cube.002
v 0.743261 0.097774 -0.188852
v 0.888081 0.014022 -0.188852
v 0.888081 0.014022 -0.356145
v 0.743261 0.097774 -0.356145
v 0.815671 0.055898 -0.390793
v 0.713268 0.115120 -0.272498
v 0.815671 0.055898 -0.154204
v 0.918074 -0.003323 -0.272498
v 0.815671 0.055898 -0.272498
v 0.846112 0.108536 -0.375877
v 0.838443 0.095275 -0.390793
v 0.766033 0.137151 -0.356145
v 0.782832 0.145131 -0.345598
v 0.736040 0.154496 -0.272498
v 0.756621 0.160290 -0.272498
v 0.846112 0.108536 -0.169120
v 0.838443 0.095275 -0.154204
v 0.910853 0.053399 -0.188852
v 0.909392 0.071940 -0.199399
v 0.935603 0.056782 -0.272498
v 0.940846 0.036053 -0.272498
v 0.910853 0.053399 -0.356145
v 0.909392 0.071940 -0.345598
v 0.766033 0.137151 -0.188852
v 0.782832 0.145131 -0.199399
vn -0.5006 -0.8657 -0.0000
vn -0.7998 0.4625 -0.3827
vn 0.3313 -0.1916 -0.9239
vn 0.3313 -0.1916 0.9239
vn -0.3313 0.1916 0.9239
vn -0.7998 0.4625 0.3827
vn 0.7998 -0.4625 0.3827
vn 0.5006 0.8657 -0.0000
vn 0.7998 -0.4625 -0.3827
vn 0.0885 0.7214 -0.6869
vn -0.2598 0.9228 -0.2845
vn 0.5811 0.4365 0.6869
vn 0.9294 0.2351 -0.2845
vn 0.5811 0.4365 -0.6869
vn -0.2598 0.9228 0.2845
vn 0.0885 0.7214 0.6869
vn 0.9294 0.2351 0.2845
vn -0.3313 0.1916 -0.9239
vt 0.625000 0.511743
vt 0.625000 0.500000
vt 0.556961 0.500000
vt 0.566607 0.511743
vt 0.683393 0.511743
vt 0.693039 0.500000
vt 0.673747 0.523487
vt 0.625000 0.523487
vt 0.576253 0.523487
vt 0.673747 0.523487
vt 0.683393 0.511743
vt 0.666516 0.521506
vt 0.625000 0.522006
vt 0.583484 0.521506
vt 0.573970 0.511743
vt 0.569430 0.501981
vt 0.625000 0.501481
vt 0.680570 0.501981
vt 0.676030 0.511743
s 0
usemtl grey_metalic_(med)
f 223/69/76 219/70/76 217/71/76 222/72/76
f 220/73/76 218/74/76 219/70/76 223/69/76
f 215/75/76 220/73/76 223/69/76 221/76/76
f 221/76/76 223/69/76 222/72/76 216/77/76
f 218/74/77 220/73/77 228/73/77 226/74/77
f 217/71/78 219/70/78 225/70/78 236/71/78
f 221/76/79 216/77/79 232/77/79 231/76/79
f 215/75/80 221/76/80 231/76/80 238/78/80
f 220/73/81 215/75/81 238/78/81 228/79/81
f 216/77/82 222/72/82 235/72/82 232/77/82
f 239/80/83 230/81/83 233/82/83 234/83/83 237/84/83 224/85/83 227/86/83 229/87/83
f 222/72/84 217/71/84 236/71/84 235/72/84
f 225/70/85 226/74/85 227/86/85 224/85/85
f 229/87/86 227/86/86 226/74/86 228/73/86
f 231/76/87 232/77/87 233/82/87 230/81/87
f 235/72/88 236/71/88 237/84/88 234/83/88
f 236/71/89 225/70/89 224/85/89 237/84/89
f 239/80/90 229/87/90 228/79/90 238/78/90
f 238/78/91 231/76/91 230/81/91 239/80/91
f 232/77/92 235/72/92 234/83/92 233/82/92
f 219/70/93 218/74/93 226/74/93 225/70/93
o Circle.002
v 0.793315 0.069738 -0.387787
v 0.724089 0.112790 -0.354020
v 0.695414 0.130623 -0.272498
v 0.724089 0.112790 -0.190977
v 0.793315 0.069738 -0.157210
v 0.691687 0.140939 -0.272498
v 0.720361 0.123106 -0.354020
v 0.789587 0.080054 -0.387787
v 0.720361 0.123106 -0.190977
v 0.789587 0.080054 -0.157210
v 0.793587 0.068984 -0.404627
v 0.714250 0.118325 -0.365927
v 0.681387 0.138762 -0.272498
v 0.714250 0.118325 -0.179070
v 0.793587 0.068984 -0.140370
v 0.677115 0.150586 -0.272498
v 0.709977 0.130148 -0.365927
v 0.789315 0.080808 -0.404627
v 0.709977 0.130148 -0.179070
v 0.789315 0.080808 -0.140370
vn 0.0096 -0.8084 -0.5885
vn 0.4067 -0.9136 -0.0000
vn 0.9405 0.3398 -0.0000
vn 0.8411 0.3039 -0.4474
vn 0.0096 -0.8084 0.5885
vn 0.4904 -0.7486 0.4462
vn 0.7990 0.2887 0.5275
vn 0.8411 0.3039 0.4474
vn 0.4904 -0.7486 -0.4462
vn 0.7990 0.2887 -0.5275
vn -0.7008 -0.5985 0.3881
vn -0.8411 -0.3039 0.4474
vn -0.9405 -0.3398 -0.0000
vn -0.8013 -0.5982 -0.0000
vn -0.7008 -0.5985 -0.3881
vn -0.8411 -0.3039 -0.4474
vn 0.1944 0.0702 -0.9784
vn 0.3610 -0.7090 -0.6059
vn 0.3610 -0.7090 0.6059
vn 0.1944 0.0702 0.9784
vn 0.5450 0.8382 0.0205
vn 0.5452 0.8381 0.0202
vn 0.5520 0.8338 -0.0000
vn 0.5380 0.8424 0.0290
vn 0.5450 0.8382 -0.0205
vn 0.5452 0.8381 -0.0202
vn 0.5380 0.8424 -0.0290
vt 0.000000 0.000000
s 1
usemtl grey_metalic_(med).001
f 243/88/94 242/88/95 245/88/96 248/88/97
f 241/88/98 240/88/99 247/88/100 246/88/101
f 244/88/102 243/88/94 248/88/97 249/88/103
f 242/88/95 241/88/98 246/88/101 245/88/96
f 253/88/104 258/88/105 255/88/106 252/88/107
f 251/88/108 256/88/109 257/88/110 250/88/111
f 254/88/112 259/88/113 258/88/105 253/88/104
f 252/88/107 255/88/106 256/88/109 251/88/108
f 244/88/102 254/88/112 253/88/104 243/88/94
f 240/88/99 250/88/111 257/88/110 247/88/100
f 241/88/98 251/88/108 250/88/111 240/88/99
f 242/88/95 252/88/107 251/88/108 241/88/98
f 249/88/103 259/88/113 254/88/112 244/88/102
f 243/88/94 253/88/104 252/88/107 242/88/95
usemtl Material.003
f 248/88/118 258/88/119 259/88/120 249/88/120
usemtl Material.002
f 245/88/116 255/88/116 258/88/119 248/88/118
usemtl Material.001
f 246/88/114 256/88/115 255/88/116 245/88/116
usemtl Pure_red_non-metalic_(rough)
f 247/88/117 257/88/117 256/88/115 246/88/114
o Cube.004
v 0.946330 -0.019110 0.432919
v 0.685708 0.131613 0.432919
v 0.685708 0.131613 -0.011915
v 0.946330 -0.019110 -0.011915
vn 0.5006 0.8657 -0.0000
vt 0.576253 0.726513
vt 0.576253 0.523487
vt 0.673747 0.523487
vt 0.673747 0.726513
s 0
usemtl bright_green_non-metalic_(rough)
f 260/89/121 263/90/121 262/91/121 261/92/121
