# Blender 4.3.2
# www.blender.org
mtllib butcher knife.mtl
o Plane
v 0.181948 0.000000 0.045897
v -0.879699 0.000000 -0.054783
v -0.920024 0.000000 -0.039898
v 0.195421 0.000000 0.045897
v 0.181948 0.000000 -0.126593
v -0.936727 0.000000 -0.003963
v 0.195421 0.000000 -0.126593
v -0.920024 0.000000 0.031973
v -0.879699 0.000000 0.046858
v -0.417046 0.000000 -0.126317
v -0.966044 0.000000 -0.080992
v -0.839373 0.000000 0.031973
v -0.822670 0.000000 -0.003963
v -0.544380 0.000000 -0.126043
v -0.839373 0.000000 -0.039898
v -0.671714 0.000000 -0.123570
v -0.799047 0.000000 -0.111209
v 0.181948 0.008890 0.045897
v 0.195421 0.008890 0.045897
v 0.181948 0.008890 -0.126593
v 0.195421 0.008890 -0.126593
v -0.417046 0.008890 0.001068
v -0.417046 0.008890 -0.126317
v -0.544380 0.008890 -0.013716
v -0.671714 0.008890 -0.028500
v -0.799047 0.008890 -0.043284
v -0.544380 0.008890 -0.126043
v -0.671714 0.008890 -0.123570
v -0.799047 0.008890 -0.111209
v -0.966044 0.000000 0.309804
v -0.966044 0.008890 -0.080992
v 0.195421 0.000000 0.309804
v 0.181948 0.000000 0.309804
v -0.417046 0.002418 0.309804
v -0.417046 0.008890 0.281923
v 0.195421 0.008890 0.281923
v 0.195421 0.002418 0.309804
v 0.181948 0.002418 0.309804
v 0.181948 0.008890 0.281923
v -0.544380 0.002418 0.309804
v -0.544380 0.008890 0.281923
v -0.671714 0.008890 0.281923
v -0.671714 0.002418 0.309804
v -0.966044 0.002418 0.309804
v -0.966044 0.008890 0.281923
v -0.799047 0.002418 0.309804
v -0.799047 0.008890 0.281923
v -0.936727 0.008890 -0.003963
v -0.920024 0.008890 0.031973
v -0.920024 0.008890 -0.039898
v -0.822670 0.008890 -0.003963
v -0.831774 0.008890 -0.023549
v -0.839373 0.008890 -0.039898
v -0.839373 0.008890 0.031973
v -0.879699 0.008890 -0.054783
v -0.879699 0.008890 0.046858
v 0.181948 -0.008890 0.045897
v 0.195421 -0.008890 0.045897
v 0.181948 -0.008890 -0.126593
v 0.195421 -0.008890 -0.126593
v -0.417046 -0.008890 0.001068
v -0.417046 -0.008890 -0.126317
v -0.544380 -0.008890 -0.013716
v -0.671714 -0.008890 -0.028500
v -0.799047 -0.008890 -0.043284
v -0.544380 -0.008890 -0.126043
v -0.671714 -0.008890 -0.123570
v -0.799047 -0.008890 -0.111209
v -0.966044 -0.008890 -0.080992
v -0.417046 -0.002418 0.309804
v -0.417046 -0.008890 0.281923
v 0.195421 -0.008890 0.281923
v 0.195421 -0.002418 0.309804
v 0.181948 -0.002418 0.309804
v 0.181948 -0.008890 0.281923
v -0.544380 -0.002418 0.309804
v -0.544380 -0.008890 0.281923
v -0.671714 -0.008890 0.281923
v -0.671714 -0.002418 0.309804
v -0.966044 -0.002418 0.309804
v -0.966044 -0.008890 0.281923
v -0.799047 -0.002418 0.309804
v -0.799047 -0.008890 0.281923
v -0.936727 -0.008890 -0.003963
v -0.920024 -0.008890 0.031973
v -0.920024 -0.008890 -0.039898
v -0.822670 -0.008890 -0.003963
v -0.831774 -0.008890 -0.023549
v -0.839373 -0.008890 -0.039898
v -0.839373 -0.008890 0.031973
v -0.879699 -0.008890 -0.054783
v -0.879699 -0.008890 0.046858
vn -0.0000 1.0000 -0.0000
vn -0.1375 -0.0000 -0.9905
vn -0.1781 -0.0000 -0.9840
vn -1.0000 -0.0000 -0.0000
vn -0.0000 -0.0000 -1.0000
vn -0.0002 -0.0000 -1.0000
vn -0.0013 -0.0000 -1.0000
vn -0.0108 -0.0000 -0.9999
vn -0.0581 -0.0000 -0.9983
vn -0.0000 -0.0000 1.0000
vn -0.0000 0.6633 0.7484
vn 1.0000 -0.0000 -0.0000
vn -0.0000 0.9741 0.2261
vn -0.6777 -0.0000 0.7353
vn -0.6777 -0.0000 -0.7353
vn 0.6777 -0.0000 -0.7353
vn 0.6777 -0.0000 0.7353
vn -0.9068 -0.0000 0.4215
vn -0.0000 -1.0000 -0.0000
vn -0.0000 -0.6633 0.7484
vn -0.0000 -0.9741 0.2261
vt 0.000000 0.000000
vt 1.000000 0.000000
vt 1.000000 1.000000
vt 0.000000 1.000000
vt 0.000000 0.041521
vt 0.000000 0.011295
s 1
usemtl grey_metalic_(med)
f 25/1/1 26/1/1 47/1/1 42/1/1
f 31/1/1 45/1/1 47/1/1 26/1/1 52/1/1 51/1/1 54/1/1 56/1/1 49/1/1 48/1/1 50/1/1
f 53/1/1 52/1/1 26/1/1 31/1/1 50/1/1 55/1/1
f 18/1/1 19/2/1 21/3/1 20/4/1
f 18/1/1 20/4/1 23/4/1 22/1/1
f 24/1/1 25/1/1 42/1/1 41/1/1
f 17/4/2 11/1/3 31/5/3 29/4/2
f 22/1/1 23/4/1 27/4/1 24/1/1
f 24/1/1 27/4/1 28/4/1 25/1/1
f 25/1/1 28/4/1 29/4/1 26/1/1
f 39/1/4 18/1/4 1/1/4 33/1/4 38/1/4
f 7/3/5 5/4/6 20/4/6 21/3/5
f 10/4/7 14/4/8 27/4/8 23/4/7
f 31/1/1 26/1/1 29/4/1
f 14/4/8 16/4/9 28/4/9 27/4/8
f 5/4/6 10/4/7 23/4/7 20/4/6
f 16/4/9 17/4/2 29/4/2 28/4/9
f 33/1/10 32/2/10 37/2/11 38/1/11
f 44/1/11 30/1/10 33/1/10 38/1/11 34/1/11 40/1/11 43/1/11 46/1/11
f 45/5/4 31/5/4 11/1/4 30/1/4 44/6/4
f 4/2/12 7/3/12 21/3/12 19/2/12
f 19/2/1 18/1/1 39/1/1 36/2/1
f 32/2/12 4/2/12 19/2/12 36/2/12 37/2/12
f 22/1/1 24/1/1 41/1/1 35/1/1
f 18/1/1 22/1/1 35/1/1 39/1/1
f 55/1/10 2/1/10 15/1/14 53/1/14
f 13/1/4 12/1/15 54/1/15 51/1/4
f 9/1/5 8/1/16 49/1/16 56/1/5
f 48/1/12 6/1/12 3/1/17 50/1/17
f 15/1/14 13/1/4 51/1/4 52/1/18 53/1/14
f 12/1/15 9/1/5 56/1/5 54/1/15
f 49/1/16 8/1/16 6/1/12 48/1/12
f 50/1/17 3/1/17 2/1/10 55/1/10
f 64/1/19 78/1/19 83/1/19 65/1/19
f 69/1/19 86/1/19 84/1/19 85/1/19 92/1/19 90/1/19 87/1/19 88/1/19 65/1/19 83/1/19 81/1/19
f 89/1/19 91/1/19 86/1/19 69/1/19 65/1/19 88/1/19
f 57/1/19 59/4/19 60/3/19 58/2/19
f 57/1/19 61/1/19 62/4/19 59/4/19
f 63/1/19 77/1/19 78/1/19 64/1/19
f 17/4/2 68/4/2 69/5/3 11/1/3
f 61/1/19 63/1/19 66/4/19 62/4/19
f 63/1/19 64/1/19 67/4/19 66/4/19
f 64/1/19 65/1/19 68/4/19 67/4/19
f 75/1/4 74/1/4 33/1/4 1/1/4 57/1/4
f 7/3/5 60/3/5 59/4/6 5/4/6
f 10/4/7 62/4/7 66/4/8 14/4/8
f 69/1/19 68/4/19 65/1/19
f 14/4/8 66/4/8 67/4/9 16/4/9
f 5/4/6 59/4/6 62/4/7 10/4/7
f 16/4/9 67/4/9 68/4/2 17/4/2
f 33/1/10 74/1/20 73/2/20 32/2/10
f 80/1/20 82/1/20 79/1/20 76/1/20 70/1/20 74/1/20 33/1/10 30/1/10
f 81/5/4 80/6/4 30/1/4 11/1/4 69/5/4
f 4/2/12 58/2/12 60/3/12 7/3/12
f 58/2/19 72/2/19 75/1/19 57/1/19
f 32/2/12 73/2/12 72/2/12 58/2/12 4/2/12
f 61/1/19 71/1/19 77/1/19 63/1/19
f 57/1/19 75/1/19 71/1/19 61/1/19
f 91/1/10 89/1/14 15/1/14 2/1/10
f 13/1/4 87/1/4 90/1/15 12/1/15
f 9/1/5 92/1/5 85/1/16 8/1/16
f 84/1/12 86/1/17 3/1/17 6/1/12
f 15/1/14 89/1/14 88/1/18 87/1/4 13/1/4
f 12/1/15 90/1/15 92/1/5 9/1/5
f 85/1/16 84/1/12 6/1/12 8/1/16
f 86/1/17 91/1/10 2/1/10 3/1/17
usemtl light_grey_metalic_(med)
f 44/1/11 46/1/11 47/1/13 45/1/13
f 41/1/13 42/1/13 43/1/11 40/1/11
f 34/1/11 38/1/11 39/1/13 35/1/13
f 35/1/13 41/1/13 40/1/11 34/1/11
f 38/1/11 37/2/11 36/2/13 39/1/13
f 42/1/13 47/1/13 46/1/11 43/1/11
f 80/1/20 81/1/21 83/1/21 82/1/20
f 77/1/21 76/1/20 79/1/20 78/1/21
f 70/1/20 71/1/21 75/1/21 74/1/20
f 71/1/21 70/1/20 76/1/20 77/1/21
f 74/1/20 75/1/21 72/2/21 73/2/20
f 78/1/21 79/1/20 82/1/20 83/1/21
o Plane.001
v 0.195421 0.000000 0.045897
v 0.856184 0.000000 -0.077558
v 0.215660 0.000000 0.045437
v 0.836549 0.000000 -0.069425
v 0.233139 0.000000 0.052797
v 0.828416 0.000000 -0.049790
v 0.260738 0.000000 0.037342
v 0.836549 0.000000 -0.030156
v 0.856184 0.000000 -0.022023
v 0.296156 0.000000 0.005419
v 0.875818 0.000000 -0.030156
v 0.328355 0.000000 -0.000101
v 0.883951 0.000000 -0.049790
v 0.397812 0.000000 0.015999
v 0.489807 0.000000 0.033938
v 0.875818 0.000000 -0.069425
v 0.571224 0.000000 0.032558
v 0.648500 0.000000 0.014619
v 0.716117 0.000000 -0.004700
v 0.757055 0.000000 -0.009760
v 0.797993 0.000000 0.004499
v 0.835252 0.000000 0.025658
v 0.886769 0.000000 0.017379
v 0.926787 0.000000 -0.019880
v 0.930007 0.000000 -0.072777
v 0.904708 0.000000 -0.107276
v 0.878030 0.000000 -0.124755
v 0.195421 0.000000 -0.126593
v 0.246939 0.000000 0.051693
v 0.203358 0.025624 0.037778
v 0.195421 0.017687 0.045897
v 0.215660 0.017687 0.045437
v 0.217176 0.025624 0.037464
v 0.233139 0.017687 0.052797
v 0.234435 0.025624 0.044731
v 0.260738 0.017687 0.037342
v 0.255213 0.025624 0.031636
v 0.296156 0.017687 0.005419
v 0.292550 0.025624 -0.002015
v 0.328355 0.017687 -0.000101
v 0.328590 0.025624 -0.008193
v 0.397812 0.017687 0.015999
v 0.399468 0.025624 0.008235
v 0.489807 0.017687 0.033938
v 0.490507 0.025624 0.025988
v 0.571224 0.017687 0.032558
v 0.570248 0.025624 0.024637
v 0.648500 0.017687 0.014619
v 0.646511 0.025624 0.006933
v 0.716117 0.017687 -0.004700
v 0.714531 0.025624 -0.012501
v 0.757055 0.017687 -0.009760
v 0.757918 0.025624 -0.017864
v 0.797993 0.017687 0.004499
v 0.801285 0.025624 -0.002759
v 0.835252 0.017687 0.025658
v 0.836746 0.025624 0.017379
v 0.886769 0.017687 0.017379
v 0.883127 0.025624 0.009925
v 0.926787 0.017687 -0.019880
v 0.919058 0.025624 -0.023528
v 0.930007 0.017687 -0.072777
v 0.921911 0.025624 -0.070396
v 0.904708 0.017687 -0.107276
v 0.899157 0.025624 -0.101424
v 0.878030 0.017687 -0.124755
v 0.875651 0.025624 -0.116824
v 0.195421 0.017687 -0.126593
v 0.203358 0.025624 -0.118634
v 0.243304 0.025624 0.044022
v 0.246939 0.017687 0.051693
v 0.828416 0.020789 -0.049790
v 0.823183 0.025624 -0.049790
v 0.856550 0.025624 -0.082943
v 0.856184 0.020789 -0.077558
v 0.836549 0.020789 -0.069425
v 0.832849 0.025624 -0.073125
v 0.883951 0.020789 -0.049790
v 0.889011 0.025624 -0.049373
v 0.882589 0.020789 -0.046504
v 0.886740 0.025624 -0.043889
v 0.875818 0.020789 -0.030156
v 0.879519 0.025624 -0.026456
v 0.875818 0.020789 -0.069425
v 0.878926 0.025624 -0.073687
v 0.836549 0.020789 -0.030156
v 0.832849 0.025624 -0.026456
v 0.856184 0.020789 -0.022023
v 0.856184 0.025624 -0.016790
v 0.203358 -0.025624 0.037778
v 0.195421 -0.017687 0.045897
v 0.215660 -0.017687 0.045437
v 0.217176 -0.025624 0.037464
v 0.233139 -0.017687 0.052797
v 0.234435 -0.025624 0.044731
v 0.260738 -0.017687 0.037342
v 0.255213 -0.025624 0.031636
v 0.296156 -0.017687 0.005419
v 0.292550 -0.025624 -0.002015
v 0.328355 -0.017687 -0.000101
v 0.328590 -0.025624 -0.008193
v 0.397812 -0.017687 0.015999
v 0.399468 -0.025624 0.008235
v 0.489807 -0.017687 0.033938
v 0.490507 -0.025624 0.025988
v 0.571224 -0.017687 0.032558
v 0.570248 -0.025624 0.024637
v 0.648500 -0.017687 0.014619
v 0.646511 -0.025624 0.006933
v 0.716117 -0.017687 -0.004700
v 0.714531 -0.025624 -0.012501
v 0.757055 -0.017687 -0.009760
v 0.757918 -0.025624 -0.017864
v 0.797993 -0.017687 0.004499
v 0.801285 -0.025624 -0.002759
v 0.835252 -0.017687 0.025658
v 0.836746 -0.025624 0.017379
v 0.886769 -0.017687 0.017379
v 0.883127 -0.025624 0.009925
v 0.926787 -0.017687 -0.019880
v 0.919058 -0.025624 -0.023528
v 0.930007 -0.017687 -0.072777
v 0.921911 -0.025624 -0.070396
v 0.904708 -0.017687 -0.107276
v 0.899157 -0.025624 -0.101424
v 0.878030 -0.017687 -0.124755
v 0.875651 -0.025624 -0.116824
v 0.195421 -0.017687 -0.126593
v 0.203358 -0.025624 -0.118634
v 0.243304 -0.025624 0.044022
v 0.246939 -0.017687 0.051693
v 0.828416 -0.020789 -0.049790
v 0.823183 -0.025624 -0.049790
v 0.856550 -0.025624 -0.082943
v 0.856184 -0.020789 -0.077558
v 0.836549 -0.020789 -0.069425
v 0.832849 -0.025624 -0.073125
v 0.883951 -0.020789 -0.049790
v 0.889011 -0.025624 -0.049373
v 0.882589 -0.020789 -0.046504
v 0.886740 -0.025624 -0.043889
v 0.875818 -0.020789 -0.030156
v 0.879519 -0.025624 -0.026456
v 0.875818 -0.020789 -0.069425
v 0.878926 -0.025624 -0.073687
v 0.836549 -0.020789 -0.030156
v 0.832849 -0.025624 -0.026456
v 0.856184 -0.020789 -0.022023
v 0.856184 -0.025624 -0.016790
vn -0.7062 -0.0000 -0.7081
vn -0.6990 -0.0000 0.7151
vn 0.4281 -0.0000 0.9037
vn 0.6956 -0.0000 0.7184
vn 0.4390 -0.0000 0.8985
vn 0.9043 -0.0000 0.4268
vn -0.0877 -0.0000 0.9961
vn 0.1222 -0.0000 0.9925
vn 0.9594 -0.0000 -0.2821
vn 0.2505 -0.0000 0.9681
vn 1.0000 -0.0000 -0.0000
vn 0.7071 -0.0000 0.7071
vn -1.0000 -0.0000 -0.0000
vn -0.7071 -0.0000 -0.7071
vn -0.9239 -0.0000 -0.3827
vn 0.6882 -0.0000 -0.7255
vn 0.1993 -0.0000 0.9799
vn -0.1587 -0.0000 0.9873
vn 0.2872 -0.0000 -0.9579
vn -0.1059 -0.0000 0.9944
vn 0.4365 -0.0000 0.8997
vn -0.4131 -0.0000 0.9107
vn -0.0290 -0.0000 0.9996
vn -0.1776 -0.0000 0.9841
vn -0.2086 -0.0000 0.9780
vn -0.1868 -0.0000 0.9824
vn -0.4005 0.8196 0.4097
vn -0.1306 0.7150 0.6869
vn -0.1106 0.7172 0.6880
vn 0.2924 0.7305 0.6172
vn 0.4917 0.7073 0.5078
vn 0.3023 0.7212 0.6233
vn -0.0203 0.7141 0.6997
vn -0.1475 0.7072 0.6915
vn -0.0618 0.7090 0.7024
vn 0.0862 0.7091 0.6998
vn 0.1771 0.7072 0.6845
vn 0.1407 0.7082 0.6919
vn -0.0739 0.7164 0.6938
vn -0.2915 0.7086 0.6426
vn -0.1219 0.7274 0.6753
vn 0.3035 0.7226 0.6211
vn 0.6154 0.7328 0.2904
vn 0.6573 0.7285 -0.1933
vn 0.4827 0.7128 -0.5089
vn 0.1988 0.7219 -0.6629
vn -0.4073 0.8169 -0.4084
vn -0.0000 -0.0000 1.0000
vn -0.0000 -0.0000 -1.0000
vn -0.7071 -0.0000 0.7071
vn -0.0000 1.0000 -0.0000
vn 0.7071 -0.0000 -0.7071
vn 0.0114 0.7438 0.6683
vn -0.5002 0.7309 0.4642
vn -0.4692 0.7342 0.4908
vn -0.0064 0.7445 0.6676
vn -0.6533 0.7071 -0.2706
vn -0.4798 0.7345 -0.4798
vn -0.0000 0.7345 -0.6786
vn 0.4798 0.7345 -0.4798
vn 0.6786 0.7345 -0.0000
vn 0.4798 0.7345 0.4798
vn -0.6907 0.7231 -0.0078
vn -0.6916 0.7222 0.0138
vn -0.4005 -0.8196 0.4097
vn -0.1306 -0.7150 0.6869
vn -0.1106 -0.7172 0.6880
vn 0.2924 -0.7305 0.6172
vn 0.4917 -0.7073 0.5078
vn 0.3023 -0.7212 0.6233
vn -0.0203 -0.7141 0.6997
vn -0.1475 -0.7072 0.6915
vn -0.0618 -0.7090 0.7024
vn 0.0862 -0.7091 0.6998
vn 0.1771 -0.7072 0.6845
vn 0.1407 -0.7082 0.6919
vn -0.0739 -0.7164 0.6938
vn -0.2915 -0.7086 0.6426
vn -0.1219 -0.7274 0.6753
vn 0.3035 -0.7226 0.6211
vn 0.6154 -0.7328 0.2904
vn 0.6573 -0.7285 -0.1933
vn 0.4827 -0.7128 -0.5089
vn 0.1988 -0.7219 -0.6629
vn -0.4073 -0.8169 -0.4084
vn -0.0000 -1.0000 -0.0000
vn 0.0114 -0.7438 0.6683
vn -0.0064 -0.7445 0.6676
vn -0.4692 -0.7342 0.4908
vn -0.5002 -0.7309 0.4642
vn -0.6533 -0.7071 -0.2706
vn -0.4798 -0.7345 -0.4798
vn -0.0000 -0.7345 -0.6786
vn 0.4798 -0.7345 -0.4798
vn 0.6786 -0.7345 -0.0000
vn 0.4798 -0.7345 0.4798
vn -0.6907 -0.7231 -0.0078
vn -0.6916 -0.7222 0.0138
vt 0.000000 0.000000
s 1
usemtl dark_grey_non-metalic_(rough)
f 120/7/22 93/7/23 123/7/23 160/7/22
f 121/7/24 99/7/25 128/7/25 163/7/24
f 115/7/26 116/7/27 152/7/27 150/7/26
f 107/7/28 109/7/29 138/7/29 136/7/28
f 116/7/27 117/7/30 154/7/30 152/7/27
f 109/7/29 110/7/31 140/7/31 138/7/29
f 164/7/32 98/7/32 96/7/33 168/7/33
f 105/7/34 103/7/35 174/7/35 172/7/36 170/7/34
f 117/7/30 118/7/37 156/7/37 154/7/30
f 110/7/31 111/7/38 142/7/38 140/7/31
f 97/7/39 121/7/24 163/7/24 126/7/39
f 118/7/37 119/7/40 158/7/40 156/7/37
f 111/7/38 112/7/41 144/7/41 142/7/38
f 99/7/25 102/7/42 130/7/42 128/7/25
f 119/7/40 120/7/22 160/7/22 158/7/40
f 112/7/41 113/7/43 146/7/43 144/7/41
f 102/7/42 104/7/44 132/7/44 130/7/42
f 113/7/43 114/7/45 148/7/45 146/7/43
f 104/7/44 106/7/46 134/7/46 132/7/44
f 95/7/47 97/7/39 126/7/39 124/7/47
f 114/7/45 115/7/26 150/7/26 148/7/45
f 106/7/46 107/7/28 136/7/28 134/7/46
f 123/7/48 124/7/49 125/7/49 122/7/48
f 124/7/49 126/7/50 127/7/50 125/7/49
f 163/7/51 128/7/52 129/7/52 162/7/51
f 128/7/52 130/7/53 131/7/53 129/7/52
f 130/7/53 132/7/54 133/7/54 131/7/53
f 132/7/54 134/7/55 135/7/55 133/7/54
f 134/7/55 136/7/56 137/7/56 135/7/55
f 136/7/56 138/7/57 139/7/57 137/7/56
f 138/7/57 140/7/58 141/7/58 139/7/57
f 140/7/58 142/7/59 143/7/59 141/7/58
f 142/7/59 144/7/60 145/7/60 143/7/59
f 144/7/60 146/7/61 147/7/61 145/7/60
f 146/7/61 148/7/62 149/7/62 147/7/61
f 148/7/62 150/7/63 151/7/63 149/7/62
f 150/7/63 152/7/64 153/7/64 151/7/63
f 152/7/64 154/7/65 155/7/65 153/7/64
f 154/7/65 156/7/66 157/7/66 155/7/65
f 156/7/66 158/7/67 159/7/67 157/7/66
f 158/7/67 160/7/68 161/7/68 159/7/67
f 122/7/48 161/7/68 160/7/68 123/7/48
f 126/7/50 163/7/51 162/7/51 127/7/50
f 93/7/23 95/7/47 124/7/47 123/7/23
f 168/7/33 96/7/33 94/7/69 167/7/69
f 103/7/35 101/7/70 180/7/70 174/7/35
f 167/7/69 94/7/69 108/7/71 176/7/71
f 171/7/72 173/7/72 153/7/72 155/7/72 157/7/72 177/7/72
f 101/7/70 100/7/73 178/7/73 180/7/70
f 177/7/72 157/7/72 159/7/72 161/7/72 122/7/72 125/7/72 127/7/72 162/7/72 129/7/72 131/7/72 133/7/72 135/7/72 137/7/72 139/7/72 141/7/72 143/7/72 145/7/72 147/7/72 149/7/72 151/7/72 153/7/72 173/7/72 175/7/72 181/7/72 179/7/72 165/7/72 169/7/72 166/7/72
f 108/7/71 105/7/34 170/7/34 176/7/71
f 167/7/74 176/7/75 177/7/76 166/7/77
f 172/7/78 174/7/79 175/7/79 173/7/78
f 174/7/79 180/7/80 181/7/80 175/7/79
f 179/7/81 181/7/80 180/7/80 178/7/81
f 165/7/82 179/7/81 178/7/81 164/7/82
f 164/7/82 168/7/83 169/7/83 165/7/82
f 166/7/77 169/7/83 168/7/83 167/7/74
f 171/7/84 177/7/76 176/7/75 170/7/85
f 170/7/85 172/7/78 173/7/78 171/7/84
f 178/7/73 100/7/73 98/7/32 164/7/32
f 120/7/22 220/7/22 183/7/23 93/7/23
f 121/7/24 223/7/24 188/7/25 99/7/25
f 115/7/26 210/7/26 212/7/27 116/7/27
f 107/7/28 196/7/28 198/7/29 109/7/29
f 116/7/27 212/7/27 214/7/30 117/7/30
f 109/7/29 198/7/29 200/7/31 110/7/31
f 224/7/32 228/7/33 96/7/33 98/7/32
f 105/7/34 230/7/34 232/7/36 234/7/35 103/7/35
f 117/7/30 214/7/30 216/7/37 118/7/37
f 110/7/31 200/7/31 202/7/38 111/7/38
f 97/7/39 186/7/39 223/7/24 121/7/24
f 118/7/37 216/7/37 218/7/40 119/7/40
f 111/7/38 202/7/38 204/7/41 112/7/41
f 99/7/25 188/7/25 190/7/42 102/7/42
f 119/7/40 218/7/40 220/7/22 120/7/22
f 112/7/41 204/7/41 206/7/43 113/7/43
f 102/7/42 190/7/42 192/7/44 104/7/44
f 113/7/43 206/7/43 208/7/45 114/7/45
f 104/7/44 192/7/44 194/7/46 106/7/46
f 95/7/47 184/7/47 186/7/39 97/7/39
f 114/7/45 208/7/45 210/7/26 115/7/26
f 106/7/46 194/7/46 196/7/28 107/7/28
f 183/7/86 182/7/86 185/7/87 184/7/87
f 184/7/87 185/7/87 187/7/88 186/7/88
f 223/7/89 222/7/89 189/7/90 188/7/90
f 188/7/90 189/7/90 191/7/91 190/7/91
f 190/7/91 191/7/91 193/7/92 192/7/92
f 192/7/92 193/7/92 195/7/93 194/7/93
f 194/7/93 195/7/93 197/7/94 196/7/94
f 196/7/94 197/7/94 199/7/95 198/7/95
f 198/7/95 199/7/95 201/7/96 200/7/96
f 200/7/96 201/7/96 203/7/97 202/7/97
f 202/7/97 203/7/97 205/7/98 204/7/98
f 204/7/98 205/7/98 207/7/99 206/7/99
f 206/7/99 207/7/99 209/7/100 208/7/100
f 208/7/100 209/7/100 211/7/101 210/7/101
f 210/7/101 211/7/101 213/7/102 212/7/102
f 212/7/102 213/7/102 215/7/103 214/7/103
f 214/7/103 215/7/103 217/7/104 216/7/104
f 216/7/104 217/7/104 219/7/105 218/7/105
f 218/7/105 219/7/105 221/7/106 220/7/106
f 182/7/86 183/7/86 220/7/106 221/7/106
f 186/7/88 187/7/88 222/7/89 223/7/89
f 93/7/23 183/7/23 184/7/47 95/7/47
f 228/7/33 227/7/69 94/7/69 96/7/33
f 103/7/35 234/7/35 240/7/70 101/7/70
f 227/7/69 236/7/71 108/7/71 94/7/69
f 231/7/107 237/7/107 217/7/107 215/7/107 213/7/107 233/7/107
f 101/7/70 240/7/70 238/7/73 100/7/73
f 237/7/107 226/7/107 229/7/107 225/7/107 239/7/107 241/7/107 235/7/107 233/7/107 213/7/107 211/7/107 209/7/107 207/7/107 205/7/107 203/7/107 201/7/107 199/7/107 197/7/107 195/7/107 193/7/107 191/7/107 189/7/107 222/7/107 187/7/107 185/7/107 182/7/107 221/7/107 219/7/107 217/7/107
f 108/7/71 236/7/71 230/7/34 105/7/34
f 227/7/108 226/7/109 237/7/110 236/7/111
f 232/7/112 233/7/112 235/7/113 234/7/113
f 234/7/113 235/7/113 241/7/114 240/7/114
f 239/7/115 238/7/115 240/7/114 241/7/114
f 225/7/116 224/7/116 238/7/115 239/7/115
f 224/7/116 225/7/116 229/7/117 228/7/117
f 226/7/109 227/7/108 228/7/117 229/7/117
f 231/7/118 230/7/119 236/7/111 237/7/110
f 230/7/119 231/7/118 233/7/112 232/7/112
f 238/7/73 224/7/32 98/7/32 100/7/73
o Circle
v 0.358252 0.020445 -0.099296
v 0.332801 0.020445 -0.088754
v 0.322259 0.020445 -0.063303
v 0.332801 0.020445 -0.037852
v 0.358252 0.020445 -0.027309
v 0.383704 0.020445 -0.037852
v 0.394246 0.020445 -0.063303
v 0.383704 0.020445 -0.088754
v 0.358252 0.026665 -0.099296
v 0.332801 0.026665 -0.088754
v 0.322259 0.026665 -0.063303
v 0.332801 0.026665 -0.037852
v 0.358252 0.026665 -0.027309
v 0.383704 0.026665 -0.037852
v 0.394246 0.026665 -0.063303
v 0.383704 0.026665 -0.088754
v 0.718188 0.020445 -0.099296
v 0.692737 0.020445 -0.088754
v 0.682194 0.020445 -0.063303
v 0.692737 0.020445 -0.037852
v 0.718188 0.020445 -0.027309
v 0.743639 0.020445 -0.037852
v 0.754182 0.020445 -0.063303
v 0.743639 0.020445 -0.088754
v 0.718188 0.026665 -0.099296
v 0.692737 0.026665 -0.088754
v 0.682194 0.026665 -0.063303
v 0.692737 0.026665 -0.037852
v 0.718188 0.026665 -0.027309
v 0.743639 0.026665 -0.037852
v 0.754182 0.026665 -0.063303
v 0.743639 0.026665 -0.088754
v 0.358252 -0.020445 -0.099296
v 0.332801 -0.020445 -0.088754
v 0.322259 -0.020445 -0.063303
v 0.332801 -0.020445 -0.037852
v 0.358252 -0.020445 -0.027309
v 0.383704 -0.020445 -0.037852
v 0.394246 -0.020445 -0.063303
v 0.383704 -0.020445 -0.088754
v 0.358252 -0.026665 -0.099296
v 0.332801 -0.026665 -0.088754
v 0.322259 -0.026665 -0.063303
v 0.332801 -0.026665 -0.037852
v 0.358252 -0.026665 -0.027309
v 0.383704 -0.026665 -0.037852
v 0.394246 -0.026665 -0.063303
v 0.383704 -0.026665 -0.088754
v 0.718188 -0.020445 -0.099296
v 0.692737 -0.020445 -0.088754
v 0.682194 -0.020445 -0.063303
v 0.692737 -0.020445 -0.037852
v 0.718188 -0.020445 -0.027309
v 0.743639 -0.020445 -0.037852
v 0.754182 -0.020445 -0.063303
v 0.743639 -0.020445 -0.088754
v 0.718188 -0.026665 -0.099296
v 0.692737 -0.026665 -0.088754
v 0.682194 -0.026665 -0.063303
v 0.692737 -0.026665 -0.037852
v 0.718188 -0.026665 -0.027309
v 0.743639 -0.026665 -0.037852
v 0.754182 -0.026665 -0.063303
v 0.743639 -0.026665 -0.088754
vn 0.3827 -0.0000 -0.9239
vn 0.9239 -0.0000 0.3827
vn -0.3827 -0.0000 0.9239
vn -0.9239 -0.0000 -0.3827
vn 0.9239 -0.0000 -0.3827
vn 0.3827 -0.0000 0.9239
vn -0.9239 -0.0000 0.3827
vn -0.3827 -0.0000 -0.9239
vn -0.0000 1.0000 -0.0000
vn -0.0000 -1.0000 -0.0000
vt 0.000000 0.000000
s 0
usemtl counter_top
f 249/8/120 242/8/120 250/8/120 257/8/120
f 247/8/121 248/8/121 256/8/121 255/8/121
f 245/8/122 246/8/122 254/8/122 253/8/122
f 243/8/123 244/8/123 252/8/123 251/8/123
f 248/8/124 249/8/124 257/8/124 256/8/124
f 246/8/125 247/8/125 255/8/125 254/8/125
f 244/8/126 245/8/126 253/8/126 252/8/126
f 242/8/127 243/8/127 251/8/127 250/8/127
f 251/8/128 252/8/128 253/8/128 254/8/128 255/8/128 256/8/128 257/8/128 250/8/128
f 265/8/120 258/8/120 266/8/120 273/8/120
f 263/8/121 264/8/121 272/8/121 271/8/121
f 261/8/122 262/8/122 270/8/122 269/8/122
f 259/8/123 260/8/123 268/8/123 267/8/123
f 264/8/124 265/8/124 273/8/124 272/8/124
f 262/8/125 263/8/125 271/8/125 270/8/125
f 260/8/126 261/8/126 269/8/126 268/8/126
f 258/8/127 259/8/127 267/8/127 266/8/127
f 267/8/128 268/8/128 269/8/128 270/8/128 271/8/128 272/8/128 273/8/128 266/8/128
f 281/8/120 289/8/120 282/8/120 274/8/120
f 279/8/121 287/8/121 288/8/121 280/8/121
f 277/8/122 285/8/122 286/8/122 278/8/122
f 275/8/123 283/8/123 284/8/123 276/8/123
f 280/8/124 288/8/124 289/8/124 281/8/124
f 278/8/125 286/8/125 287/8/125 279/8/125
f 276/8/126 284/8/126 285/8/126 277/8/126
f 274/8/127 282/8/127 283/8/127 275/8/127
f 283/8/129 282/8/129 289/8/129 288/8/129 287/8/129 286/8/129 285/8/129 284/8/129
f 297/8/120 305/8/120 298/8/120 290/8/120
f 295/8/121 303/8/121 304/8/121 296/8/121
f 293/8/122 301/8/122 302/8/122 294/8/122
f 291/8/123 299/8/123 300/8/123 292/8/123
f 296/8/124 304/8/124 305/8/124 297/8/124
f 294/8/125 302/8/125 303/8/125 295/8/125
f 292/8/126 300/8/126 301/8/126 293/8/126
f 290/8/127 298/8/127 299/8/127 291/8/127
f 299/8/129 298/8/129 305/8/129 304/8/129 303/8/129 302/8/129 301/8/129 300/8/129
