# Blender 4.3.2
# www.blender.org
mtllib crate.mtl
o Cube
v -1.000000 -1.000000 1.000000
v -0.797961 1.000000 0.797961
v -1.000000 -1.000000 -1.000000
v -0.797961 1.000000 -0.797961
v 1.000000 -1.000000 1.000000
v 0.797961 1.000000 0.797961
v 1.000000 -1.000000 -1.000000
v 0.797961 1.000000 -0.797961
v -1.000000 1.000000 1.000000
v -1.000000 1.000000 -1.000000
v 1.000000 1.000000 -1.000000
v 1.000000 1.000000 1.000000
v -0.797961 -0.201304 0.797961
v -0.797961 -0.201304 -0.797961
v 0.797961 -0.201304 -0.797961
v 0.797961 -0.201304 0.797961
v -1.000000 -0.846006 0.846006
v -1.000000 0.846006 0.846006
v -1.000000 0.846006 -0.846006
v -1.000000 -0.846006 -0.846006
v -0.846006 -0.846006 -1.000000
v -0.846006 0.846006 -1.000000
v 0.846006 0.846006 -1.000000
v 0.846006 -0.846006 -1.000000
v 1.000000 -0.846006 -0.846006
v 1.000000 0.846006 -0.846006
v 1.000000 0.846006 0.846006
v 1.000000 -0.846006 0.846006
v 0.846006 -0.846006 1.000000
v 0.846006 0.846006 1.000000
v -0.846006 0.846006 1.000000
v -0.846006 -0.846006 1.000000
v -0.918218 -0.799574 0.776818
v -0.918218 0.799574 0.776818
v -0.918218 -0.799574 -0.776818
v -0.918218 0.799574 -0.776818
v -0.776818 0.799574 -0.918218
v -0.776818 -0.799574 -0.918218
v 0.776818 -0.799574 -0.918218
v 0.776818 0.799574 -0.918218
v 0.918218 0.799574 -0.776818
v 0.918218 -0.799574 -0.776818
v 0.918218 -0.799574 0.776818
v 0.918218 0.799574 0.776818
v 0.776818 0.799574 0.918218
v 0.776818 -0.799574 0.918218
v -0.776818 -0.799574 0.918218
v -0.776818 0.799574 0.918218
vn -0.4937 -0.8696 -0.0000
vn -0.7634 -0.0000 0.6459
vn -0.0000 0.8696 -0.4937
vn 0.6459 -0.0000 0.7634
vn -0.0000 -1.0000 -0.0000
vn -1.0000 -0.0000 -0.0000
vn -0.0000 1.0000 -0.0000
vn 1.0000 -0.0000 -0.0000
vn -0.0000 -0.0000 -1.0000
vn -0.0000 -0.0000 1.0000
vn 0.4937 0.8696 -0.0000
vn -0.0000 -0.8696 -0.4937
vn -0.0000 0.8696 0.4937
vn -0.6459 -0.0000 0.7634
vn 0.4937 -0.8696 -0.0000
vn -0.7634 -0.0000 -0.6459
vn -0.0000 -0.8696 0.4937
vn 0.6459 -0.0000 -0.7634
vn 0.7634 -0.0000 0.6459
vn -0.6459 -0.0000 -0.7634
vn 0.7634 -0.0000 -0.6459
vn -0.4937 0.8696 -0.0000
vt 0.605751 0.019249
vt 0.605751 0.230751
vt 0.394249 0.769249
vt 0.605751 0.769249
vt 0.394249 0.480751
vt 0.394249 0.269249
vt 0.394249 0.519249
vt 0.605751 0.519249
vt 0.125000 0.500000
vt 0.375000 0.500000
vt 0.375000 0.750000
vt 0.125000 0.750000
vt 0.650255 0.724745
vt 0.650255 0.525255
vt 0.849745 0.724745
vt 0.849745 0.525255
vt 0.875000 0.500000
vt 0.875000 0.750000
vt 0.625000 0.500000
vt 0.625000 0.750000
vt 0.375000 0.000000
vt 0.625000 0.000000
vt 0.394249 0.019249
vt 0.625000 0.250000
vt 0.375000 0.250000
vt 0.394249 0.230751
vt 0.605751 0.269249
vt 0.605751 0.480751
vt 0.605751 0.730751
vt 0.394249 0.730751
vt 0.625000 1.000000
vt 0.605751 0.980751
vt 0.375000 1.000000
vt 0.394249 0.980751
s 0
f 18/1/1 19/2/1 36/2/1 34/1/1
f 29/3/2 30/4/2 45/4/2 46/3/2
f 24/5/3 21/6/3 38/6/3 39/5/3
f 25/7/4 26/8/4 41/8/4 42/7/4
f 3/9/5 7/10/5 5/11/5 1/12/5
f 6/13/6 8/14/6 15/14/6 16/13/6
f 2/15/7 4/16/7 10/17/7 9/18/7
f 4/16/7 8/14/7 11/19/7 10/17/7
f 8/14/7 6/13/7 12/20/7 11/19/7
f 6/13/7 2/15/7 9/18/7 12/20/7
f 15/14/7 14/16/7 13/15/7 16/13/7
f 4/16/8 2/15/8 13/15/8 14/16/8
f 2/15/9 6/13/9 16/13/9 13/15/9
f 8/14/10 4/16/10 14/16/10 15/14/10
f 1/21/6 9/22/6 18/1/6 17/23/6
f 9/22/6 10/24/6 19/2/6 18/1/6
f 10/24/6 3/25/6 20/26/6 19/2/6
f 3/25/6 1/21/6 17/23/6 20/26/6
f 3/25/9 10/24/9 22/27/9 21/6/9
f 10/24/9 11/19/9 23/28/9 22/27/9
f 11/19/9 7/10/9 24/5/9 23/28/9
f 7/10/9 3/25/9 21/6/9 24/5/9
f 7/10/8 11/19/8 26/8/8 25/7/8
f 11/19/8 12/20/8 27/29/8 26/8/8
f 12/20/8 5/11/8 28/30/8 27/29/8
f 5/11/8 7/10/8 25/7/8 28/30/8
f 5/11/10 12/20/10 30/4/10 29/3/10
f 12/20/10 9/31/10 31/32/10 30/4/10
f 9/31/10 1/33/10 32/34/10 31/32/10
f 1/33/10 5/11/10 29/3/10 32/34/10
f 33/23/6 34/1/6 36/2/6 35/26/6
f 38/6/9 37/27/9 40/28/9 39/5/9
f 42/7/8 41/8/8 44/29/8 43/30/8
f 46/3/10 45/4/10 48/32/10 47/34/10
f 28/30/11 25/7/11 42/7/11 43/30/11
f 22/27/12 23/28/12 40/28/12 37/27/12
f 32/34/13 29/3/13 46/3/13 47/34/13
f 19/2/14 20/26/14 35/26/14 36/2/14
f 26/8/15 27/29/15 44/29/15 41/8/15
f 23/28/16 24/5/16 39/5/16 40/28/16
f 30/4/17 31/32/17 48/32/17 45/4/17
f 27/29/18 28/30/18 43/30/18 44/29/18
f 31/32/19 32/34/19 47/34/19 48/32/19
f 17/23/20 18/1/20 34/1/20 33/23/20
f 21/6/21 22/27/21 37/27/21 38/6/21
f 20/26/22 17/23/22 33/23/22 35/26/22
