# Blender 4.3.2
# www.blender.org
mtllib fire extinguisher.mtl
o Cylinder
v 0.000000 -1.000000 -0.522635
v 0.000000 -0.942909 -0.580845
v 0.200004 -1.000000 -0.482852
v 0.222280 -0.942909 -0.536631
v 0.369559 -1.000000 -0.369559
v 0.410719 -0.942909 -0.410719
v 0.482852 -1.000000 -0.200004
v 0.536631 -0.942909 -0.222280
v 0.522635 -1.000000 -0.000000
v 0.580845 -0.942909 -0.000000
v 0.482852 -1.000000 0.200004
v 0.536631 -0.942909 0.222280
v 0.369559 -1.000000 0.369559
v 0.410719 -0.942909 0.410719
v 0.200004 -1.000000 0.482852
v 0.222280 -0.942909 0.536631
v 0.000000 -1.000000 0.522635
v 0.000000 -0.942909 0.580845
v -0.200004 -1.000000 0.482852
v -0.222280 -0.942909 0.536631
v -0.369559 -1.000000 0.369559
v -0.410719 -0.942909 0.410719
v -0.482852 -1.000000 0.200004
v -0.536631 -0.942909 0.222280
v -0.522635 -1.000000 -0.000000
v -0.580845 -0.942909 -0.000000
v -0.482852 -1.000000 -0.200004
v -0.536631 -0.942909 -0.222280
v -0.369559 -1.000000 -0.369559
v -0.410719 -0.942909 -0.410719
v -0.200004 -1.000000 -0.482852
v -0.222280 -0.942909 -0.536631
v 0.000000 1.442258 -0.580845
v -0.000000 1.522905 -0.364380
v 0.000000 1.499284 -0.483872
v 0.139442 1.522905 -0.336644
v 0.222280 1.442258 -0.536631
v 0.185170 1.499284 -0.447040
v 0.257656 1.522905 -0.257656
v 0.410719 1.442258 -0.410719
v 0.342149 1.499284 -0.342149
v 0.336644 1.522905 -0.139442
v 0.536631 1.442258 -0.222280
v 0.447040 1.499284 -0.185170
v 0.364380 1.522905 -0.000000
v 0.580845 1.442258 -0.000000
v 0.483872 1.499284 -0.000000
v 0.336644 1.522905 0.139442
v 0.536631 1.442258 0.222280
v 0.447040 1.499284 0.185170
v 0.257656 1.522905 0.257656
v 0.410719 1.442258 0.410719
v 0.342149 1.499284 0.342149
v 0.139442 1.522905 0.336644
v 0.222280 1.442258 0.536631
v 0.185170 1.499284 0.447040
v -0.000000 1.522905 0.364380
v 0.000000 1.442258 0.580845
v 0.000000 1.499284 0.483872
v -0.139442 1.522905 0.336644
v -0.222280 1.442258 0.536631
v -0.185170 1.499284 0.447040
v -0.257656 1.522905 0.257656
v -0.410719 1.442258 0.410719
v -0.342149 1.499284 0.342149
v -0.336644 1.522905 0.139442
v -0.536631 1.442258 0.222280
v -0.447040 1.499284 0.185170
v -0.364380 1.522905 -0.000000
v -0.580845 1.442258 -0.000000
v -0.483872 1.499284 -0.000000
v -0.336644 1.522905 -0.139442
v -0.536631 1.442258 -0.222280
v -0.447040 1.499284 -0.185170
v -0.257656 1.522905 -0.257656
v -0.410719 1.442258 -0.410719
v -0.342149 1.499284 -0.342149
v -0.139442 1.522905 -0.336644
v -0.222280 1.442258 -0.536631
v -0.185170 1.499284 -0.447040
v 0.000000 -0.074156 -0.580845
v 0.000000 0.573505 -0.580845
v 0.222280 0.573505 -0.536631
v 0.222280 -0.074156 -0.536631
v -0.222280 -0.074156 -0.536631
v -0.222280 0.573505 -0.536631
v 0.410719 -0.074156 -0.410719
v 0.410719 0.573505 -0.410719
v 0.536631 0.573505 -0.222280
v 0.536631 -0.074156 -0.222280
v 0.580845 -0.074156 -0.000000
v 0.580845 0.573505 -0.000000
v 0.536631 -0.074156 0.222280
v 0.536631 0.573505 0.222280
v 0.410719 -0.074156 0.410719
v 0.410719 0.573505 0.410719
v 0.222280 -0.074156 0.536631
v 0.222280 0.573505 0.536631
v 0.000000 -0.074156 0.580845
v 0.000000 0.573505 0.580845
v -0.222280 -0.074156 0.536631
v -0.222280 0.573505 0.536631
v -0.410719 -0.074156 0.410719
v -0.410719 0.573505 0.410719
v -0.536631 -0.074156 0.222280
v -0.536631 0.573505 0.222280
v -0.580845 -0.074156 -0.000000
v -0.580845 0.573505 -0.000000
v -0.536631 -0.074156 -0.222280
v -0.536631 0.573505 -0.222280
v -0.410719 -0.074156 -0.410719
v -0.410719 0.573505 -0.410719
vn -0.7071 -0.0000 -0.7071
vn -0.3827 -0.0000 -0.9239
vn 1.0000 -0.0000 -0.0000
vn 0.9239 -0.0000 0.3827
vn 0.7071 -0.0000 0.7071
vn 0.3827 -0.0000 0.9239
vn -0.0000 -0.0000 1.0000
vn -0.3827 -0.0000 0.9239
vn -0.7071 -0.0000 0.7071
vn -0.9239 -0.0000 0.3827
vn -1.0000 -0.0000 -0.0000
vn -0.9239 -0.0000 -0.3827
vn 0.3827 -0.0000 -0.9239
vn 0.7071 -0.0000 -0.7071
vn 0.9239 -0.0000 -0.3827
vn -0.0000 1.0000 -0.0000
vn -0.0000 -0.7139 -0.7002
vn 0.2680 -0.7139 -0.6469
vn 0.1597 -0.9088 -0.3855
vn -0.0000 -0.9088 -0.4172
vn 0.4951 -0.7139 -0.4951
vn 0.2950 -0.9088 -0.2950
vn 0.6469 -0.7139 -0.2680
vn 0.3855 -0.9088 -0.1597
vn 0.7002 -0.7139 -0.0000
vn 0.4172 -0.9088 -0.0000
vn 0.6469 -0.7139 0.2680
vn 0.3855 -0.9088 0.1597
vn 0.4951 -0.7139 0.4951
vn 0.2950 -0.9088 0.2950
vn 0.2680 -0.7139 0.6469
vn 0.1597 -0.9088 0.3855
vn -0.0000 -0.7139 0.7002
vn -0.0000 -0.9088 0.4172
vn -0.2680 -0.7139 0.6469
vn -0.1597 -0.9088 0.3855
vn -0.4951 -0.7139 0.4951
vn -0.2950 -0.9088 0.2950
vn -0.6469 -0.7139 0.2680
vn -0.3855 -0.9088 0.1597
vn -0.7002 -0.7139 -0.0000
vn -0.4172 -0.9088 -0.0000
vn -0.6469 -0.7139 -0.2680
vn -0.3855 -0.9088 -0.1597
vn -0.4951 -0.7139 -0.4951
vn -0.2950 -0.9088 -0.2950
vn -0.2680 -0.7139 -0.6469
vn -0.1597 -0.9088 -0.3855
vn 0.1940 0.8620 -0.4683
vn -0.0000 0.8620 -0.5069
vn -0.0000 0.9277 -0.3734
vn 0.1429 0.9277 -0.3450
vn -0.0000 0.9810 -0.1939
vn 0.0742 0.9810 -0.1792
vn 0.3584 0.8620 -0.3584
vn 0.2641 0.9277 -0.2641
vn 0.1371 0.9810 -0.1371
vn 0.4683 0.8620 -0.1940
vn 0.3450 0.9277 -0.1429
vn 0.1792 0.9810 -0.0742
vn 0.5069 0.8620 -0.0000
vn 0.3734 0.9277 -0.0000
vn 0.1939 0.9810 -0.0000
vn 0.4683 0.8620 0.1940
vn 0.3450 0.9277 0.1429
vn 0.1792 0.9810 0.0742
vn 0.3584 0.8620 0.3584
vn 0.2641 0.9277 0.2641
vn 0.1371 0.9810 0.1371
vn 0.1940 0.8620 0.4683
vn 0.1429 0.9277 0.3450
vn 0.0742 0.9810 0.1792
vn -0.0000 0.8620 0.5069
vn -0.0000 0.9277 0.3734
vn -0.0000 0.9810 0.1939
vn -0.1940 0.8620 0.4683
vn -0.1429 0.9277 0.3450
vn -0.0742 0.9810 0.1792
vn -0.3584 0.8620 0.3584
vn -0.2641 0.9277 0.2641
vn -0.1371 0.9810 0.1371
vn -0.4683 0.8620 0.1940
vn -0.3450 0.9277 0.1429
vn -0.1792 0.9810 0.0742
vn -0.5069 0.8620 -0.0000
vn -0.3734 0.9277 -0.0000
vn -0.1939 0.9810 -0.0000
vn -0.4683 0.8620 -0.1940
vn -0.3450 0.9277 -0.1429
vn -0.1792 0.9810 -0.0742
vn -0.3584 0.8620 -0.3584
vn -0.2641 0.9277 -0.2641
vn -0.1371 0.9810 -0.1371
vn -0.1940 0.8620 -0.4683
vn -0.1429 0.9277 -0.3450
vn -0.0742 0.9810 -0.1792
vn -0.0000 -0.0000 -1.0000
vt 0.125000 0.811844
vt 0.125000 0.984017
vt 0.062500 0.984017
vt 0.062500 0.811844
vt 0.750000 0.511315
vt 0.750000 0.683488
vt 0.687500 0.683488
vt 0.687500 0.511315
vt 0.687500 0.511315
vt 0.687500 0.683488
vt 0.625000 0.683488
vt 0.625000 0.511315
vt 0.625000 0.511315
vt 0.625000 0.683488
vt 0.562500 0.683488
vt 0.562500 0.511315
vt 0.562500 0.511315
vt 0.562500 0.683488
vt 0.500000 0.683488
vt 0.500000 0.511315
vt 0.500000 0.511315
vt 0.500000 0.683488
vt 0.437500 0.683488
vt 0.437500 0.511315
vt 0.437500 0.511315
vt 0.437500 0.683488
vt 0.375000 0.683488
vt 0.375000 0.511315
vt 0.375000 0.511315
vt 0.375000 0.683488
vt 0.312500 0.683488
vt 0.312500 0.511315
vt 0.312500 0.511315
vt 0.312500 0.683488
vt 0.250000 0.683488
vt 0.250000 0.511315
vt 0.250000 0.511315
vt 0.250000 0.683488
vt 0.187500 0.683488
vt 0.187500 0.511315
vt 0.187500 0.511315
vt 0.187500 0.683488
vt 0.125000 0.683488
vt 0.125000 0.511315
vt 0.125000 0.511315
vt 0.125000 0.683488
vt 0.062500 0.683488
vt 0.062500 0.511315
vt 0.937500 0.511315
vt 0.937500 0.683488
vt 0.875000 0.683488
vt 0.875000 0.511315
vt 0.812500 0.511315
vt 0.812500 0.683488
vt 0.750000 0.683488
vt 0.750000 0.511315
vt 0.328842 0.440342
vt 0.250000 0.456024
vt 0.171158 0.440342
vt 0.104319 0.395681
vt 0.059658 0.328842
vt 0.043975 0.250000
vt 0.059658 0.171158
vt 0.104319 0.104319
vt 0.171158 0.059658
vt 0.250000 0.043975
vt 0.328842 0.059658
vt 0.395681 0.104319
vt 0.440342 0.171158
vt 0.456025 0.250000
vt 0.440342 0.328842
vt 0.395681 0.395681
vt 0.750000 0.490000
vt 0.841844 0.471731
vt 0.832640 0.449510
vt 0.750000 0.465948
vt 0.919706 0.419706
vt 0.902699 0.402698
vt 0.971731 0.341844
vt 0.949510 0.332640
vt 0.990000 0.250000
vt 0.965948 0.250000
vt 0.971731 0.158156
vt 0.949510 0.167360
vt 0.919706 0.080294
vt 0.902698 0.097301
vt 0.841844 0.028269
vt 0.832640 0.050490
vt 0.750000 0.010000
vt 0.750000 0.034052
vt 0.658156 0.028269
vt 0.667360 0.050490
vt 0.580294 0.080294
vt 0.597301 0.097302
vt 0.528269 0.158156
vt 0.550490 0.167360
vt 0.510000 0.250000
vt 0.534052 0.250000
vt 0.528269 0.341844
vt 0.550490 0.332640
vt 0.580294 0.419706
vt 0.597301 0.402699
vt 0.658156 0.471731
vt 0.667360 0.449510
vt 0.937500 0.984017
vt 1.000000 0.984017
vt 0.998704 1.000000
vt 0.938796 1.000000
vt 0.339940 0.472110
vt 0.251904 0.489621
vt 0.875000 0.984017
vt 0.937500 0.984017
vt 0.936204 1.000000
vt 0.876296 1.000000
vt 0.418091 0.420784
vt 0.343458 0.470652
vt 0.812500 0.984017
vt 0.873704 1.000000
vt 0.813796 1.000000
vt 0.470652 0.343458
vt 0.420784 0.418091
vt 0.750000 0.984017
vt 0.811204 1.000000
vt 0.751296 1.000000
vt 0.489621 0.251904
vt 0.472110 0.339940
vt 0.687500 0.984017
vt 0.750000 0.984017
vt 0.748704 1.000000
vt 0.688796 1.000000
vt 0.472110 0.160060
vt 0.489621 0.248096
vt 0.625000 0.984017
vt 0.687500 0.984017
vt 0.686204 1.000000
vt 0.626296 1.000000
vt 0.420784 0.081909
vt 0.470652 0.156542
vt 0.562500 0.984017
vt 0.623704 1.000000
vt 0.563796 1.000000
vt 0.343458 0.029347
vt 0.418091 0.079216
vt 0.500000 0.984017
vt 0.561204 1.000000
vt 0.501296 1.000000
vt 0.251904 0.010379
vt 0.339940 0.027890
vt 0.437500 0.984017
vt 0.500000 0.984017
vt 0.498704 1.000000
vt 0.438796 1.000000
vt 0.160060 0.027890
vt 0.248096 0.010379
vt 0.375000 0.984017
vt 0.437500 0.984017
vt 0.436204 1.000000
vt 0.376296 1.000000
vt 0.081909 0.079216
vt 0.156542 0.029347
vt 0.312500 0.984017
vt 0.373704 1.000000
vt 0.313796 1.000000
vt 0.029347 0.156542
vt 0.079216 0.081909
vt 0.250000 0.984017
vt 0.311204 1.000000
vt 0.251296 1.000000
vt 0.010379 0.248096
vt 0.027890 0.160060
vt 0.187500 0.984017
vt 0.250000 0.984017
vt 0.248704 1.000000
vt 0.188796 1.000000
vt 0.027890 0.339940
vt 0.010379 0.251904
vt 0.187500 0.984017
vt 0.186204 1.000000
vt 0.126296 1.000000
vt 0.079216 0.418091
vt 0.029347 0.343458
vt 0.123704 1.000000
vt 0.063796 1.000000
vt 0.156542 0.470652
vt 0.081909 0.420784
vt 0.000000 0.984017
vt 0.061204 1.000000
vt 0.001296 1.000000
vt 0.248096 0.489621
vt 0.160060 0.472110
vt 0.062500 0.511315
vt 0.062500 0.683488
vt 0.000000 0.683488
vt 0.000000 0.511315
vt 0.000000 0.811844
vt 0.875000 0.811844
vt 0.812500 0.811844
vt 1.000000 0.511315
vt 1.000000 0.683488
vt 0.937500 0.683488
vt 0.937500 0.511315
vt 0.875000 0.511315
vt 0.875000 0.683488
vt 0.812500 0.683488
vt 0.812500 0.511315
vt 0.187500 0.811844
vt 0.250000 0.811844
vt 0.312500 0.811844
vt 0.375000 0.811844
vt 0.437500 0.811844
vt 0.500000 0.811844
vt 0.562500 0.811844
vt 0.625000 0.811844
vt 0.687500 0.811844
vt 0.750000 0.811844
vt 0.687500 0.811844
vt 0.937500 0.811844
vt 1.000000 0.811844
s 1
usemtl red_non_metalic_(gloss)
f 112/1/1 76/2/1 79/3/2 86/4/2
f 10/5/3 91/6/3 93/7/4 12/8/4
f 12/9/4 93/10/4 95/11/5 14/12/5
f 14/13/5 95/14/5 97/15/6 16/16/6
f 16/17/6 97/18/6 99/19/7 18/20/7
f 18/21/7 99/22/7 101/23/8 20/24/8
f 20/25/8 101/26/8 103/27/9 22/28/9
f 22/29/9 103/30/9 105/31/10 24/32/10
f 24/33/10 105/34/10 107/35/11 26/36/11
f 26/37/11 107/38/11 109/39/12 28/40/12
f 28/41/12 109/42/12 111/43/1 30/44/1
f 30/45/1 111/46/1 85/47/2 32/48/2
f 4/49/13 84/50/13 87/51/14 6/52/14
f 8/53/15 90/54/15 91/55/3 10/56/3
f 36/57/16 34/58/16 78/59/16 75/60/16 72/61/16 69/62/16 66/63/16 63/64/16 60/65/16 57/66/16 54/67/16 51/68/16 48/69/16 45/70/16 42/71/16 39/72/16
f 2/73/17 4/74/18 3/75/19 1/76/20
f 4/74/18 6/77/21 5/78/22 3/75/19
f 6/77/21 8/79/23 7/80/24 5/78/22
f 8/79/23 10/81/25 9/82/26 7/80/24
f 10/81/25 12/83/27 11/84/28 9/82/26
f 12/83/27 14/85/29 13/86/30 11/84/28
f 14/85/29 16/87/31 15/88/32 13/86/30
f 16/87/31 18/89/33 17/90/34 15/88/32
f 18/89/33 20/91/35 19/92/36 17/90/34
f 20/91/35 22/93/37 21/94/38 19/92/36
f 22/93/37 24/95/39 23/96/40 21/94/38
f 24/95/39 26/97/41 25/98/42 23/96/40
f 26/97/41 28/99/43 27/100/44 25/98/42
f 28/99/43 30/101/45 29/102/46 27/100/44
f 30/101/45 32/103/47 31/104/48 29/102/46
f 32/103/47 2/73/17 1/76/20 31/104/48
f 1/76/20 3/75/19 5/78/22 7/80/24 9/82/26 11/84/28 13/86/30 15/88/32 17/90/34 19/92/36 21/94/38 23/96/40 25/98/42 27/100/44 29/102/46 31/104/48
f 37/105/49 33/106/50 35/107/51 38/108/52
f 38/109/52 35/110/51 34/58/53 36/57/54
f 40/111/55 37/112/49 38/113/52 41/114/56
f 41/115/56 38/116/52 36/57/54 39/72/57
f 43/117/58 40/111/55 41/118/56 44/119/59
f 44/120/59 41/121/56 39/72/57 42/71/60
f 46/122/61 43/117/58 44/123/59 47/124/62
f 47/125/62 44/126/59 42/71/60 45/70/63
f 49/127/64 46/128/61 47/129/62 50/130/65
f 50/131/65 47/132/62 45/70/63 48/69/66
f 52/133/67 49/134/64 50/135/65 53/136/68
f 53/137/68 50/138/65 48/69/66 51/68/69
f 55/139/70 52/133/67 53/140/68 56/141/71
f 56/142/71 53/143/68 51/68/69 54/67/72
f 58/144/73 55/139/70 56/145/71 59/146/74
f 59/147/74 56/148/71 54/67/72 57/66/75
f 61/149/76 58/150/73 59/151/74 62/152/77
f 62/153/77 59/154/74 57/66/75 60/65/78
f 64/155/79 61/156/76 62/157/77 65/158/80
f 65/159/80 62/160/77 60/65/78 63/64/81
f 67/161/82 64/155/79 65/162/80 68/163/83
f 68/164/83 65/165/80 63/64/81 66/63/84
f 70/166/85 67/161/82 68/167/83 71/168/86
f 71/169/86 68/170/83 66/63/84 69/62/87
f 73/171/88 70/172/85 71/173/86 74/174/89
f 74/175/89 71/176/86 69/62/87 72/61/90
f 76/2/91 73/177/88 74/178/89 77/179/92
f 77/180/92 74/181/89 72/61/90 75/60/93
f 79/3/94 76/2/91 77/182/92 80/183/95
f 80/184/95 77/185/92 75/60/93 78/59/96
f 33/186/50 79/3/94 80/187/95 35/188/51
f 35/189/51 80/190/95 78/59/96 34/58/53
f 32/191/2 85/192/2 81/193/97 2/194/97
f 86/4/2 79/3/2 33/186/97 82/195/97
f 88/196/14 40/111/14 43/117/15 89/197/15
f 2/198/97 81/199/97 84/200/13 4/201/13
f 6/202/14 87/203/14 90/204/15 8/205/15
f 110/206/12 73/177/12 76/2/1 112/1/1
f 108/207/11 70/172/11 73/171/12 110/206/12
f 106/208/10 67/161/10 70/166/11 108/207/11
f 104/209/9 64/155/9 67/161/10 106/208/10
f 102/210/8 61/156/8 64/155/9 104/209/9
f 100/211/7 58/150/7 61/149/8 102/210/8
f 98/212/6 55/139/6 58/144/7 100/211/7
f 96/213/5 52/133/5 55/139/6 98/212/6
f 94/214/4 49/134/4 52/133/5 96/213/5
f 92/215/3 46/128/3 49/127/4 94/216/4
f 89/197/15 43/117/15 46/122/3 92/215/3
f 83/217/13 37/112/13 40/111/14 88/196/14
f 82/218/97 83/217/13 84/200/13 81/199/97
f 88/196/14 89/197/15 90/204/15 87/203/14
f 86/4/2 82/195/97 81/193/97 85/192/2
f 112/1/1 86/4/2 85/47/2 111/46/1
f 110/206/12 112/1/1 111/43/1 109/42/12
f 108/207/11 110/206/12 109/39/12 107/38/11
f 106/208/10 108/207/11 107/35/11 105/34/10
f 104/209/9 106/208/10 105/31/10 103/30/9
f 102/210/8 104/209/9 103/27/9 101/26/8
f 100/211/7 102/210/8 101/23/8 99/22/7
f 98/212/6 100/211/7 99/19/7 97/18/6
f 96/213/5 98/212/6 97/15/6 95/14/5
f 94/214/4 96/213/5 95/11/5 93/10/4
f 92/215/3 94/216/4 93/7/4 91/6/3
f 89/197/15 92/215/3 91/55/3 90/54/15
f 83/217/13 88/196/14 87/51/14 84/50/13
f 82/218/97 33/106/97 37/105/13 83/217/13
o Cylinder.001
v -0.000000 1.522905 -0.364380
v 0.139442 1.522905 -0.336644
v 0.257656 1.522905 -0.257656
v 0.336644 1.522905 -0.139442
v 0.364380 1.522905 -0.000000
v 0.336644 1.522905 0.139442
v 0.257656 1.522905 0.257656
v 0.139442 1.522905 0.336644
v -0.000000 1.522905 0.364380
v -0.139442 1.522905 0.336644
v -0.257656 1.522905 0.257656
v -0.336644 1.522905 0.139442
v -0.364380 1.522905 -0.000000
v -0.336644 1.522905 -0.139442
v -0.257656 1.522905 -0.257656
v -0.139442 1.522905 -0.336644
v -0.000000 1.566417 -0.252813
v 0.096747 1.566417 -0.233569
v 0.178766 1.566417 -0.178766
v 0.233569 1.566417 -0.096747
v 0.252813 1.566417 -0.000000
v 0.233569 1.566417 0.096747
v 0.178766 1.566417 0.178766
v 0.096747 1.566417 0.233569
v -0.000000 1.566417 0.252813
v -0.096747 1.566417 0.233569
v -0.178766 1.566417 0.178766
v -0.233569 1.566417 0.096747
v -0.252813 1.566417 -0.000000
v -0.233569 1.566417 -0.096747
v -0.178766 1.566417 -0.178766
v -0.096747 1.566417 -0.233569
v 0.178766 1.817012 0.178766
v 0.096747 1.817012 0.233569
v -0.178766 1.817012 -0.178766
v -0.096747 1.817012 -0.233569
v -0.000000 1.817012 0.252813
v -0.000000 1.817012 -0.252813
v 0.096747 1.817012 -0.233569
v -0.096747 1.817012 0.233569
v 0.178766 1.817012 -0.178766
v -0.178766 1.817012 0.178766
v 0.233569 1.817012 -0.096747
v -0.233569 1.817012 0.096747
v 0.252813 1.817012 -0.000000
v -0.252813 1.817012 -0.000000
v 0.233569 1.817012 0.096747
v -0.233569 1.817012 -0.096747
v -0.000000 1.835559 -0.252813
v 0.000000 1.900669 -0.186427
v 0.000000 1.881599 -0.233369
v 0.071343 1.900669 -0.172236
v 0.096747 1.835559 -0.233569
v 0.089306 1.881599 -0.215605
v 0.131824 1.900669 -0.131824
v 0.178766 1.835559 -0.178766
v 0.165017 1.881599 -0.165017
v 0.172236 1.900669 -0.071343
v 0.233569 1.835559 -0.096747
v 0.215605 1.881599 -0.089306
v 0.186427 1.900669 -0.000000
v 0.252813 1.835559 -0.000000
v 0.233369 1.881599 -0.000000
v 0.172236 1.900669 0.071343
v 0.233569 1.835559 0.096747
v 0.215605 1.881599 0.089306
v 0.131824 1.900669 0.131824
v 0.178766 1.835559 0.178766
v 0.165017 1.881599 0.165017
v 0.071343 1.900669 0.172236
v 0.096747 1.835559 0.233569
v 0.089306 1.881599 0.215605
v 0.000000 1.900669 0.186427
v -0.000000 1.835559 0.252813
v -0.000000 1.881599 0.233369
v -0.071343 1.900669 0.172236
v -0.096747 1.835559 0.233569
v -0.089306 1.881599 0.215605
v -0.131824 1.900669 0.131824
v -0.178766 1.835559 0.178766
v -0.165017 1.881599 0.165017
v -0.172236 1.900669 0.071343
v -0.233569 1.835559 0.096747
v -0.215605 1.881599 0.089306
v -0.186427 1.900669 -0.000000
v -0.252813 1.835559 -0.000000
v -0.233369 1.881599 -0.000000
v -0.172236 1.900669 -0.071343
v -0.233569 1.835559 -0.096747
v -0.215605 1.881599 -0.089306
v -0.131824 1.900669 -0.131824
v -0.178766 1.835559 -0.178766
v -0.165017 1.881599 -0.165017
v -0.071343 1.900669 -0.172236
v -0.096747 1.835559 -0.233569
v -0.089306 1.881599 -0.215605
v -0.096747 1.764339 -0.233569
v -0.096747 1.619091 -0.233569
v 0.096747 1.764339 -0.233569
v 0.096747 1.619091 -0.233569
v 0.178766 1.764339 -0.178766
v 0.178766 1.619091 -0.178766
v -0.178766 1.764339 0.178766
v -0.178766 1.619091 0.178766
v 0.233569 1.764339 -0.096747
v 0.233569 1.619091 -0.096747
v -0.233569 1.764339 0.096747
v -0.233569 1.619091 0.096747
v 0.252813 1.764339 -0.000000
v 0.252813 1.619091 -0.000000
v -0.252813 1.764339 -0.000000
v -0.252813 1.619091 -0.000000
v 0.233569 1.764339 0.096747
v 0.233569 1.619091 0.096747
v -0.233569 1.764339 -0.096747
v -0.233569 1.619091 -0.096747
v 0.178766 1.619091 0.178766
v 0.178766 1.764339 0.178766
v -0.178766 1.619091 -0.178766
v -0.178766 1.764339 -0.178766
v -0.000000 1.619091 -0.252813
v -0.000000 1.764339 -0.252813
v -0.096747 1.691715 -0.233569
v 0.096747 1.691715 -0.233569
v 0.178766 1.691715 -0.178766
v -0.178766 1.691715 0.178766
v 0.233569 1.691715 -0.096747
v -0.233569 1.691715 0.096747
v 0.252813 1.691715 -0.000000
v -0.252813 1.691715 -0.000000
v 0.233569 1.691715 0.096747
v -0.233569 1.691715 -0.096747
v 0.178766 1.691715 0.178766
v -0.178766 1.691715 -0.178766
v -0.000000 1.691715 -0.252813
v 0.096747 1.691715 0.233569
v 0.096747 1.619091 0.233569
v -0.096747 1.691715 0.233569
v -0.096747 1.619091 0.233569
v -0.000000 1.619091 0.252813
v 0.096747 1.764339 0.233569
v -0.000000 1.764339 0.252813
v -0.096747 1.764339 0.233569
v -0.000000 1.691715 0.252813
vn -0.0000 -1.0000 -0.0000
vn -0.0000 -0.0000 1.0000
vn 0.3827 -0.0000 0.9239
vn 0.3754 0.1938 0.9064
vn -0.0000 0.1938 0.9810
vn -0.1390 0.9317 -0.3357
vn -0.2569 0.9317 -0.2569
vn -0.0000 0.9317 0.3634
vn 0.1390 0.9317 0.3357
vn 0.1390 0.9317 -0.3357
vn -0.0000 0.9317 -0.3634
vn -0.1390 0.9317 0.3357
vn 0.2569 0.9317 -0.2569
vn -0.2569 0.9317 0.2569
vn 0.3357 0.9317 -0.1390
vn -0.3357 0.9317 0.1390
vn 0.3634 0.9317 -0.0000
vn -0.3634 0.9317 -0.0000
vn 0.3357 0.9317 0.1390
vn -0.3357 0.9317 -0.1390
vn 0.2569 0.9317 0.2569
vn -0.0000 -0.0000 -1.0000
vn -0.3827 -0.0000 -0.9239
vn -0.3754 0.1938 -0.9064
vn -0.0000 0.1938 -0.9810
vn -0.3827 -0.0000 0.9239
vn -0.3754 0.1938 0.9064
vn -0.0000 1.0000 -0.0000
vn 0.7071 -0.0000 -0.7071
vn 0.3827 -0.0000 -0.9239
vn 0.3754 0.1938 -0.9064
vn 0.6937 0.1938 -0.6937
vn -0.7071 -0.0000 0.7071
vn -0.6937 0.1938 0.6937
vn 0.9239 -0.0000 -0.3827
vn 0.9064 0.1938 -0.3754
vn -0.9239 -0.0000 0.3827
vn -0.9064 0.1938 0.3754
vn 1.0000 -0.0000 -0.0000
vn 0.9810 0.1938 -0.0000
vn -1.0000 -0.0000 -0.0000
vn -0.9810 0.1938 -0.0000
vn 0.9239 -0.0000 0.3827
vn 0.9064 0.1938 0.3754
vn -0.9239 -0.0000 -0.3827
vn -0.9064 0.1938 -0.3754
vn 0.7071 -0.0000 0.7071
vn 0.6937 0.1938 0.6937
vn -0.7071 -0.0000 -0.7071
vn -0.6937 0.1938 -0.6937
vn -0.0000 0.9265 -0.3764
vn 0.1440 0.9265 -0.3477
vn 0.2774 0.6889 -0.6697
vn -0.0000 0.6889 -0.7249
vn 0.2661 0.9265 -0.2661
vn 0.5126 0.6889 -0.5126
vn 0.3477 0.9265 -0.1440
vn 0.6697 0.6889 -0.2774
vn 0.3764 0.9265 -0.0000
vn 0.7249 0.6889 -0.0000
vn 0.3477 0.9265 0.1440
vn 0.6697 0.6889 0.2774
vn 0.2661 0.9265 0.2661
vn 0.5126 0.6889 0.5126
vn 0.1440 0.9265 0.3477
vn 0.2774 0.6889 0.6697
vn -0.0000 0.9265 0.3764
vn -0.0000 0.6889 0.7249
vn -0.1440 0.9265 0.3477
vn -0.2774 0.6889 0.6697
vn -0.2661 0.9265 0.2661
vn -0.5126 0.6889 0.5126
vn -0.3477 0.9265 0.1440
vn -0.6697 0.6889 0.2774
vn -0.3764 0.9265 -0.0000
vn -0.7249 0.6889 -0.0000
vn -0.3477 0.9265 -0.1440
vn -0.6697 0.6889 -0.2774
vn -0.2661 0.9265 -0.2661
vn -0.5126 0.6889 -0.5126
vn -0.1440 0.9265 -0.3477
vn -0.2774 0.6889 -0.6697
vt 0.328842 0.440342
vt 0.395681 0.395681
vt 0.440342 0.328842
vt 0.456025 0.250000
vt 0.440342 0.171158
vt 0.395681 0.104319
vt 0.328842 0.059658
vt 0.250000 0.043975
vt 0.171158 0.059658
vt 0.104319 0.104319
vt 0.059658 0.171158
vt 0.043975 0.250000
vt 0.059658 0.328842
vt 0.104319 0.395681
vt 0.171158 0.440342
vt 0.250000 0.456024
vt 0.171158 0.440342
vt 0.171158 0.059658
vt 0.250000 0.043975
vt 0.308139 0.390360
vt 0.250000 0.401925
vt 0.191861 0.390360
vt 0.142573 0.357427
vt 0.109640 0.308139
vt 0.098075 0.250000
vt 0.109640 0.191861
vt 0.142573 0.142573
vt 0.191861 0.109640
vt 0.250000 0.098075
vt 0.308139 0.109640
vt 0.357427 0.142573
vt 0.390360 0.191861
vt 0.401925 0.250000
vt 0.390360 0.308139
vt 0.357427 0.357427
vt 0.328842 0.440342
vt 0.104319 0.104319
vt 0.440342 0.328842
vt 0.043975 0.250000
vt 0.043975 0.250000
vt 0.059658 0.328842
vt 0.395681 0.104319
vt 0.059658 0.328842
vt 0.328842 0.059658
vt 0.104319 0.395681
vt 0.059658 0.328842
vt 0.456025 0.250000
vt 0.059658 0.171158
vt 0.440342 0.328842
vt 0.104319 0.104319
vt 0.328842 0.440342
vt 0.328611 0.439785
vt 0.250000 0.455421
vt 0.328842 0.440342
vt 0.250000 0.456024
vt 0.395255 0.395255
vt 0.439785 0.328611
vt 0.455421 0.250000
vt 0.439785 0.171389
vt 0.395255 0.104745
vt 0.328611 0.060215
vt 0.250000 0.044579
vt 0.171389 0.060215
vt 0.104745 0.104745
vt 0.060215 0.171389
vt 0.044579 0.250000
vt 0.060215 0.328611
vt 0.104745 0.395255
vt 0.171389 0.439785
vt 0.395681 0.104319
vt 0.104319 0.395681
vt 0.250000 0.051817
s 1
usemtl brass_metalic_(med)
f 114/219/98 115/220/98 116/221/98 117/222/98 118/223/98 119/224/98 120/225/98 121/226/98 122/227/98 123/228/98 124/229/98 125/230/98 126/231/98 127/232/98 128/233/98 113/234/98
f 149/226/99 146/225/100 183/225/101 186/226/102
f 128/233/103 127/232/104 143/232/104 144/233/103
f 121/226/105 120/225/106 136/225/106 137/226/105
f 114/219/107 113/234/108 129/234/108 130/219/107
f 113/234/108 128/233/103 144/233/103 129/234/108
f 122/227/109 121/226/105 137/226/105 138/227/109
f 115/220/110 114/219/107 130/219/107 131/220/110
f 123/228/111 122/227/109 138/227/109 139/228/111
f 116/221/112 115/220/110 131/220/110 132/221/112
f 124/229/113 123/228/111 139/228/111 140/229/113
f 117/222/114 116/221/112 132/221/112 133/222/114
f 125/230/115 124/229/113 140/229/113 141/230/115
f 118/223/116 117/222/114 133/222/114 134/223/116
f 126/231/117 125/230/115 141/230/115 142/231/117
f 119/224/118 118/223/116 134/223/116 135/224/118
f 127/232/104 126/231/117 142/231/117 143/232/104
f 120/225/106 119/224/118 135/224/118 136/225/106
f 150/234/119 148/233/120 207/235/121 161/234/122
f 152/236/123 149/226/99 186/237/102 189/236/124
f 164/238/125 162/239/125 206/240/125 203/241/125 200/242/125 197/243/125 194/244/125 191/245/125 188/246/125 185/247/125 182/248/125 179/249/125 176/250/125 173/251/125 170/252/125 167/253/125
f 153/220/126 151/219/127 165/254/128 168/220/129
f 154/255/130 152/236/123 189/236/124 192/255/131
f 155/221/132 153/220/126 168/220/129 171/221/133
f 156/229/134 154/255/130 192/228/131 195/229/135
f 157/222/136 155/221/132 171/256/133 174/222/137
f 158/257/138 156/229/134 195/229/135 198/257/139
f 159/223/140 157/222/136 174/222/137 177/223/141
f 160/231/142 158/257/138 198/258/139 201/259/143
f 145/260/144 159/223/140 177/223/141 180/260/145
f 147/232/146 160/231/142 201/261/143 204/232/147
f 146/225/100 145/260/144 180/260/145 183/262/101
f 148/233/120 147/232/146 204/263/147 207/233/121
f 232/263/146 227/264/142 160/231/142 147/232/146
f 230/260/144 225/223/140 159/223/140 145/260/144
f 227/264/142 223/257/138 158/257/138 160/231/142
f 225/223/140 221/265/136 157/222/136 159/223/140
f 223/257/138 219/266/134 156/229/134 158/257/138
f 221/265/136 217/267/132 155/221/132 157/222/136
f 219/266/134 215/268/130 154/255/130 156/229/134
f 217/267/132 213/220/126 153/220/126 155/221/132
f 215/268/130 255/236/123 152/236/123 154/255/130
f 213/220/126 211/269/127 151/219/127 153/220/126
f 255/236/123 254/226/99 149/226/99 152/236/123
f 234/234/119 209/235/120 148/233/120 150/234/119
f 211/269/127 234/234/119 150/234/119 151/219/127
f 254/226/99 253/262/100 146/225/100 149/226/99
f 209/235/120 232/263/146 147/232/146 148/233/120
f 253/262/100 230/260/144 145/260/144 146/225/100
f 162/239/148 164/238/149 166/270/150 163/271/151
f 163/271/151 166/270/150 165/272/128 161/273/122
f 164/238/149 167/253/152 169/274/153 166/270/150
f 166/270/150 169/274/153 168/220/129 165/254/128
f 167/253/152 170/252/154 172/275/155 169/274/153
f 169/274/153 172/275/155 171/221/133 168/220/129
f 170/252/154 173/251/156 175/276/157 172/275/155
f 172/275/155 175/276/157 174/222/137 171/256/133
f 173/251/156 176/250/158 178/277/159 175/276/157
f 175/276/157 178/277/159 177/223/141 174/222/137
f 176/250/158 179/249/160 181/278/161 178/277/159
f 178/277/159 181/278/161 180/260/145 177/223/141
f 179/249/160 182/248/162 184/279/163 181/278/161
f 181/278/161 184/279/163 183/262/101 180/260/145
f 182/248/162 185/247/164 187/280/165 184/279/163
f 184/279/163 187/280/165 186/226/102 183/225/101
f 185/247/164 188/246/166 190/281/167 187/280/165
f 187/280/165 190/281/167 189/236/124 186/237/102
f 188/246/166 191/245/168 193/282/169 190/281/167
f 190/281/167 193/282/169 192/255/131 189/236/124
f 191/245/168 194/244/170 196/283/171 193/282/169
f 193/282/169 196/283/171 195/229/135 192/228/131
f 194/244/170 197/243/172 199/284/173 196/283/171
f 196/283/171 199/284/173 198/257/139 195/229/135
f 197/243/172 200/242/174 202/285/175 199/284/173
f 199/284/173 202/285/175 201/259/143 198/258/139
f 200/242/174 203/241/176 205/286/177 202/285/175
f 202/285/175 205/286/177 204/232/147 201/261/143
f 203/241/176 206/240/178 208/287/179 205/286/177
f 205/286/177 208/287/179 207/233/121 204/263/147
f 206/240/178 162/239/148 163/271/151 208/287/179
f 208/287/179 163/271/151 161/234/122 207/235/121
f 151/219/127 150/234/119 161/273/122 165/272/128
f 136/225/100 135/224/144 229/288/144 249/262/100
f 248/262/100 245/260/144 230/260/144 253/262/100
f 144/233/120 143/232/146 231/289/146 210/235/120
f 235/235/120 246/263/146 232/263/146 209/235/120
f 137/226/99 136/225/100 249/262/100 252/226/99
f 130/219/127 129/234/119 233/234/119 212/269/127
f 236/269/127 247/234/119 234/234/119 211/269/127
f 129/234/119 144/233/120 210/235/120 233/234/119
f 247/234/119 235/235/120 209/235/120 234/234/119
f 138/227/123 137/226/99 252/226/99 251/236/123
f 131/220/126 130/219/127 212/269/127 214/220/126
f 237/220/126 236/269/127 211/269/127 213/220/126
f 139/228/130 138/227/123 251/236/123 216/255/130
f 238/255/130 250/236/123 255/236/123 215/268/130
f 132/221/132 131/220/126 214/220/126 218/221/132
f 239/221/132 237/220/126 213/220/126 217/267/132
f 140/229/134 139/228/130 216/255/130 220/266/134
f 240/266/134 238/255/130 215/268/130 219/266/134
f 133/222/136 132/221/132 218/221/132 222/265/136
f 241/265/136 239/221/132 217/267/132 221/265/136
f 141/230/138 140/229/134 220/266/134 224/257/138
f 242/257/138 240/266/134 219/266/134 223/257/138
f 134/223/140 133/222/136 222/265/136 226/223/140
f 243/223/140 241/265/136 221/265/136 225/223/140
f 142/231/142 141/230/138 224/257/138 228/264/142
f 244/264/142 242/257/138 223/257/138 227/264/142
f 135/224/144 134/223/140 226/223/140 229/288/144
f 245/260/144 243/223/140 225/223/140 230/260/144
f 143/232/146 142/231/142 228/264/142 231/289/146
f 246/263/146 244/264/142 227/264/142 232/263/146
f 231/289/146 228/264/142 244/264/142 246/263/146
f 229/288/144 226/223/140 243/223/140 245/260/144
f 228/264/142 224/257/138 242/257/138 244/264/142
f 226/223/140 222/265/136 241/265/136 243/223/140
f 224/257/138 220/266/134 240/266/134 242/257/138
f 222/265/136 218/221/132 239/221/132 241/265/136
f 220/266/134 216/255/130 238/255/130 240/266/134
f 218/221/132 214/220/126 237/220/126 239/221/132
f 216/255/130 251/236/123 250/236/123 238/255/130
f 214/220/126 212/269/127 236/269/127 237/220/126
f 233/234/119 210/235/120 235/235/120 247/234/119
f 212/269/127 233/234/119 247/234/119 236/269/127
f 210/235/120 231/289/146 246/263/146 235/235/120
f 249/262/100 229/288/144 245/260/144 248/262/100
f 248/262/100 256/290/99 252/226/99 249/262/100
f 256/290/99 250/236/123 251/236/123 252/226/99
f 253/262/100 254/226/99 256/290/99 248/262/100
f 254/226/99 255/236/123 250/236/123 256/290/99
o Cylinder.002
v 0.000000 1.900669 -0.186427
v 0.071343 1.900669 -0.172236
v 0.131824 1.900669 -0.131824
v 0.172236 1.900669 -0.071343
v 0.186427 1.900669 -0.000000
v 0.172236 1.900669 0.071343
v 0.131824 1.900669 0.131824
v 0.071343 1.900669 0.172236
v 0.000000 1.900669 0.186427
v -0.071343 1.900669 0.172236
v -0.131824 1.900669 0.131824
v -0.172236 1.900669 0.071343
v -0.186427 1.900669 -0.000000
v -0.172236 1.900669 -0.071343
v -0.131824 1.900669 -0.131824
v -0.071343 1.900669 -0.172236
v 0.000000 1.937341 -0.186427
v 0.071343 1.937341 -0.172236
v 0.131824 1.937341 -0.131824
v 0.172236 1.937341 -0.071343
v 0.186427 1.937341 -0.000000
v 0.172236 1.937341 0.071343
v 0.131824 1.937341 0.131824
v 0.071343 1.937341 0.172236
v 0.000000 1.937341 0.186427
v -0.071343 1.937341 0.172236
v -0.131824 1.937341 0.131824
v -0.172236 1.937341 0.071343
v -0.186427 1.937341 -0.000000
v -0.172236 1.937341 -0.071343
v -0.131824 1.937341 -0.131824
v -0.071343 1.937341 -0.172236
v 0.000000 1.976312 -0.089775
v 0.040304 1.976312 -0.089775
v 0.089775 1.976312 -0.089775
v 0.089775 1.976312 -0.040304
v 0.089775 1.976312 -0.000000
v 0.089775 1.976312 0.040304
v 0.089775 1.976312 0.089775
v 0.040304 1.976312 0.089775
v 0.000000 1.976312 0.089775
v -0.040304 1.976312 0.089775
v -0.089775 1.976312 0.089775
v -0.089775 1.976312 0.040304
v -0.089775 1.976312 -0.000000
v -0.089775 1.976312 -0.040304
v -0.089775 1.976312 -0.089775
v -0.040304 1.976312 -0.089775
v 0.089775 2.026673 -0.040304
v 0.089775 2.026673 -0.000000
v 0.089775 2.026673 0.040304
v 0.644499 1.922110 -0.089775
v 0.644499 1.922110 -0.040304
v 0.644499 1.922110 -0.000000
v 0.644499 1.922110 0.040304
v 0.644499 1.922110 0.089775
v -0.040304 2.026673 -0.040304
v -0.040304 2.026673 -0.000000
v -0.040304 2.026673 0.040304
v 0.000000 2.026673 0.040304
v 0.000000 2.026673 -0.000000
v 0.000000 2.026673 -0.040304
v 0.040304 2.026673 0.040304
v 0.040304 2.026673 -0.000000
v 0.040304 2.026673 -0.040304
v 0.367137 1.921945 -0.000000
v 0.367137 1.921945 -0.040304
v 0.378977 1.998752 0.040304
v 0.378977 1.998752 -0.040304
v 0.367137 1.921945 -0.089775
v 0.367137 1.921945 0.040304
v 0.378977 1.998752 -0.000000
v 0.367137 1.921945 0.089775
v 0.000000 2.000379 -0.089775
v 0.000000 2.026673 -0.075807
v 0.040304 2.026673 -0.075807
v 0.040304 2.000383 -0.089775
v 0.089775 2.026673 -0.075807
v 0.089775 2.000388 -0.089775
v 0.089775 2.000388 0.089775
v 0.089775 2.026673 0.075807
v 0.040304 2.026673 0.075807
v 0.040304 2.000383 0.089775
v 0.000000 2.026673 0.075807
v 0.000000 2.000379 0.089775
v -0.040304 2.026673 0.075807
v -0.040304 2.000376 0.089775
v -0.063467 2.026673 0.075807
v -0.089775 2.000375 0.089775
v -0.063467 2.026673 0.040304
v -0.089775 2.000374 0.040304
v -0.063467 2.026673 -0.000000
v -0.089775 2.000374 -0.000000
v -0.063467 2.026673 -0.040304
v -0.089775 2.000374 -0.040304
v -0.063467 2.026673 -0.075807
v -0.089775 2.000375 -0.089775
v -0.040304 2.026673 -0.075807
v -0.040304 2.000376 -0.089775
v 0.641918 2.014509 -0.075807
v 0.661628 1.990088 -0.089775
v 0.641918 2.014509 -0.040304
v 0.661641 1.990139 -0.040304
v 0.641918 2.014509 -0.000000
v 0.661646 1.990156 -0.000000
v 0.641918 2.014509 0.040304
v 0.661641 1.990139 0.040304
v 0.661628 1.990088 0.089775
v 0.641918 2.014509 0.075807
v 0.378977 1.998752 0.075807
v 0.374986 1.972864 0.089775
v 0.378977 1.998752 -0.075807
v 0.374986 1.972864 -0.089775
vn 0.2856 -0.6657 -0.6894
vn 0.5276 -0.6657 -0.5276
vn 0.6894 -0.6657 -0.2856
vn 0.7462 -0.6657 -0.0000
vn 0.6894 -0.6657 0.2856
vn 0.5276 -0.6657 0.5276
vn 0.2856 -0.6657 0.6894
vn -0.0000 -0.6657 0.7462
vn -0.2856 -0.6657 0.6894
vn -0.5276 -0.6657 0.5276
vn -0.6894 -0.6657 0.2856
vn -0.7462 -0.6657 -0.0000
vn -0.6894 -0.6657 -0.2856
vn -0.5276 -0.6657 -0.5276
vn -0.2856 -0.6657 -0.6894
vn -0.0000 -0.6657 -0.7462
vn 0.3152 0.8952 -0.3152
vn 0.1068 0.9004 -0.4217
vn 0.0959 0.9043 -0.4160
vn -0.7071 -0.0000 0.7071
vn -0.9239 -0.0000 0.3827
vn 0.9239 -0.0000 -0.3827
vn 1.0000 -0.0000 -0.0000
vn -1.0000 -0.0000 -0.0000
vn 0.9239 -0.0000 0.3827
vn -0.9239 -0.0000 -0.3827
vn 0.7071 -0.0000 0.7071
vn -0.7071 -0.0000 -0.7071
vn 0.3827 -0.0000 0.9239
vn -0.3827 -0.0000 -0.9239
vn -0.0000 -0.0000 1.0000
vn -0.0000 -0.0000 -1.0000
vn 0.3827 -0.0000 -0.9239
vn -0.3827 -0.0000 0.9239
vn 0.7071 -0.0000 -0.7071
vn -0.0000 0.2417 0.9703
vn -0.6773 0.3500 0.6471
vn -0.3152 0.8952 0.3152
vn -0.1068 0.9004 0.4217
vn -0.0959 0.9043 0.4160
vn 0.4217 0.9004 -0.1068
vn 0.4160 0.9043 -0.0959
vn -0.4217 0.9004 0.1068
vn -0.4160 0.9043 0.0959
vn 0.3917 0.9201 -0.0000
vn -0.3917 0.9201 -0.0000
vn 0.4217 0.9004 0.1068
vn 0.4160 0.9043 0.0959
vn -0.4217 0.9004 -0.1068
vn -0.4160 0.9043 -0.0959
vn 0.3152 0.8952 0.3152
vn -0.3152 0.8952 -0.3152
vn 0.1068 0.9004 0.4217
vn 0.0959 0.9043 0.4160
vn -0.1068 0.9004 -0.4217
vn -0.0959 0.9043 -0.4160
vn -0.0000 0.9201 0.3917
vn -0.0000 0.9201 -0.3917
vn -0.9238 0.3828 -0.0000
vn 0.0481 0.9988 -0.0000
vn 0.0182 0.9998 -0.0000
vn -0.0000 1.0000 -0.0000
vn -0.0598 0.9982 -0.0000
vn 0.0055 0.2327 0.9725
vn -0.0132 0.2195 0.9755
vn -0.0963 -0.9953 -0.0000
vn 0.0006 -1.0000 -0.0000
vn -0.6773 0.3500 -0.6471
vn -0.0000 0.2417 -0.9703
vn 0.0123 0.2487 0.9685
vn 0.9697 -0.2443 -0.0000
vn 0.9903 0.1390 -0.0002
vn 0.9766 0.2151 -0.0002
vn 0.0055 0.2327 -0.9725
vn -0.0132 0.2195 -0.9755
vn 0.9766 0.2151 0.0002
vn 0.9903 0.1390 0.0002
vn 0.9765 0.2153 -0.0000
vn -0.9239 0.3828 -0.0000
vn -0.0000 0.2418 0.9703
vn -0.0000 0.2418 -0.9703
vn 0.0123 0.2487 -0.9685
vn -0.1924 -0.9813 -0.0000
vn -0.0000 0.4691 -0.8831
vn -0.0000 0.4692 -0.8831
vn 0.0220 0.4692 -0.8828
vn 0.0220 0.4692 0.8828
vn -0.0000 0.4692 0.8831
vn -0.0000 0.4691 0.8831
vn -0.0000 0.4691 0.8832
vn -0.3951 0.7069 0.5867
vn -0.7070 0.7072 -0.0000
vn -0.3951 0.7069 -0.5867
vn -0.0000 0.4691 -0.8832
vn -0.0287 0.4784 0.8777
vn 0.0056 0.4743 0.8804
vn 0.7777 0.6287 -0.0005
vn 0.7774 0.6290 -0.0003
vn 0.7772 0.6293 -0.0000
vn 0.7774 0.6290 0.0003
vn 0.7777 0.6287 0.0005
vn 0.0056 0.4743 -0.8804
vn -0.0287 0.4784 -0.8777
vt 0.308139 0.390360
vt 0.357427 0.357427
vt 0.390360 0.308139
vt 0.401925 0.250000
vt 0.390360 0.191861
vt 0.357427 0.142573
vt 0.308139 0.109640
vt 0.250000 0.098075
vt 0.191861 0.109640
vt 0.142573 0.142573
vt 0.109640 0.191861
vt 0.098075 0.250000
vt 0.109640 0.308139
vt 0.142573 0.357427
vt 0.191861 0.390360
vt 0.250000 0.401925
vt 0.374941 0.331216
vt 0.390360 0.308139
vt 0.374941 0.331216
vt 0.186985 0.191861
vt 0.150771 0.191861
vt 0.159212 0.160592
vt 0.189268 0.153364
vt 0.374941 0.331216
vt 0.181793 0.250000
vt 0.142595 0.250000
vt 0.401925 0.250000
vt 0.186985 0.308139
vt 0.150771 0.308139
vt 0.357427 0.142573
vt 0.189268 0.346636
vt 0.159212 0.339408
vt 0.357427 0.142573
vt 0.250000 0.191861
vt 0.250000 0.147949
vt 0.250000 0.352051
vt 0.250000 0.308139
vt 0.310732 0.346636
vt 0.313015 0.308139
vt 0.357427 0.357427
vt 0.390360 0.191861
vt 0.374941 0.168784
vt 0.374941 0.168784
vt 0.390360 0.191861
vt 0.250000 0.250000
vt 0.318207 0.250000
vt 0.313015 0.191861
vt 0.250000 0.098075
vt 0.310732 0.153364
vt 0.250000 0.352051
vt 0.310732 0.346636
s 1
usemtl red_non_metalic_(gloss)
f 258/291/180 259/292/181 260/293/182 261/294/183 262/295/184 263/296/185 264/297/186 265/298/187 266/299/188 267/300/189 268/301/190 269/302/191 270/303/192 271/304/193 272/305/194 257/306/195
f 275/292/196 274/291/197 290/291/198 291/292/196
f 268/301/190 267/300/189 283/300/199 284/301/200
f 261/294/183 260/293/182 276/293/201 277/294/202
f 269/302/191 268/301/190 284/301/200 285/302/203
f 262/295/184 261/294/183 277/294/202 278/295/204
f 270/303/192 269/302/191 285/302/203 286/303/205
f 263/296/185 262/295/184 278/295/204 279/296/206
f 271/304/193 270/303/192 286/303/205 287/304/207
f 264/297/186 263/296/185 279/296/206 280/297/208
f 272/305/194 271/304/193 287/304/207 288/305/209
f 265/298/187 264/297/186 280/297/208 281/298/210
f 258/291/180 257/306/195 273/306/211 274/291/212
f 257/306/195 272/305/194 288/305/209 273/306/211
f 266/299/188 265/298/187 281/298/210 282/299/213
f 259/292/181 258/291/180 274/291/212 275/292/214
f 267/300/189 266/299/188 282/299/213 283/300/199
f 260/293/182 259/292/181 275/292/214 276/293/201
f 299/300/199 298/299/210 343/299/215 345/300/216
f 283/300/217 282/299/218 298/299/219 299/300/217
f 276/293/220 275/292/196 291/292/196 292/293/221
f 284/301/222 283/300/217 299/300/217 300/301/223
f 277/294/224 276/293/220 292/293/221 293/294/224
f 285/302/225 284/301/222 300/301/223 301/302/225
f 278/295/226 277/294/224 293/294/224 294/295/227
f 286/303/228 285/302/225 301/302/225 302/303/229
f 279/296/230 278/295/226 294/295/227 295/296/230
f 287/304/231 286/303/228 302/303/229 303/304/231
f 280/297/232 279/296/230 295/296/230 296/297/233
f 288/305/234 287/304/231 303/304/231 304/305/235
f 281/298/236 280/297/232 296/297/233 297/298/236
f 274/291/197 273/306/237 289/306/237 290/291/198
f 273/306/237 288/305/234 304/305/235 289/306/237
f 282/299/218 281/298/236 297/298/236 298/299/219
f 300/301/203 299/300/199 345/300/216 347/301/238
f 334/307/239 305/293/239 325/308/240 368/309/240
f 315/310/241 346/311/241 344/312/241 342/313/241
f 368/314/240 325/308/240 358/293/242 356/307/242
f 314/315/241 348/316/241 346/311/241 315/310/241
f 325/308/240 328/317/240 360/294/242 358/293/242
f 313/318/241 350/319/241 348/316/241 314/315/241
f 367/296/243 329/320/210 312/296/210 364/296/244
f 313/318/241 354/321/241 352/322/241 350/319/241
f 322/294/245 323/293/245 309/293/246 310/294/246
f 304/305/211 303/304/207 353/304/247 355/305/248
f 336/296/249 295/296/210 329/320/210 367/323/243
f 309/293/250 308/292/250 357/292/251 359/293/252
f 316/324/241 315/310/241 342/313/241 340/325/241
f 331/326/241 354/321/241 313/318/241 318/327/241
f 334/307/239 332/328/241 321/329/241 305/293/239
f 326/330/211 369/330/253 357/292/254 308/292/211
f 328/317/240 324/331/240 362/295/242 360/294/242
f 312/296/250 311/295/250 363/295/255 364/296/256
f 324/331/240 366/332/240 365/333/242 362/334/242
f 327/295/245 322/294/245 310/294/246 311/295/246
f 310/294/250 309/293/250 359/293/252 361/294/257
f 329/320/245 327/295/245 311/295/246 312/296/246
f 311/295/250 310/294/250 361/317/257 363/295/255
f 323/293/245 326/330/245 308/292/246 309/293/246
f 301/302/203 300/301/203 347/301/238 349/302/258
f 302/303/203 301/302/203 349/302/258 351/303/238
f 303/304/207 302/303/203 351/303/238 353/304/247
f 317/335/241 314/315/241 315/310/241 316/324/241
f 318/327/241 313/318/241 314/315/241 317/335/241
f 289/306/211 304/305/211 355/305/248 330/306/248
f 298/299/210 297/298/210 341/298/215 343/299/215
f 321/329/241 318/327/241 317/335/241 320/336/241
f 320/336/241 317/335/241 316/324/241 319/337/241
f 297/298/210 296/297/210 339/297/259 341/338/215
f 290/291/211 289/306/211 330/306/248 333/291/260
f 305/293/239 321/329/241 320/336/241 306/294/239
f 306/294/239 320/336/241 319/337/241 307/295/239
f 296/297/210 295/296/210 336/296/249 339/297/259
f 291/292/211 290/291/211 333/291/260 335/292/261
f 292/293/262 291/292/262 326/330/245 323/293/245
f 306/294/239 307/295/239 324/331/240 328/317/240
f 295/296/262 294/295/262 327/295/245 329/320/245
f 319/337/241 316/324/241 340/325/241 338/339/241
f 305/293/239 306/294/239 328/317/240 325/308/240
f 294/295/262 293/294/262 322/294/245 327/295/245
f 293/294/262 292/293/262 323/293/245 322/294/245
f 307/295/239 319/337/241 338/339/241 337/332/239
f 291/292/211 335/292/261 369/330/253 326/330/211
f 307/295/239 337/332/239 366/333/240 324/331/240
f 331/340/263 332/341/264 333/291/260 330/306/248
f 332/328/264 334/307/265 335/292/261 333/291/260
f 337/332/266 338/339/267 339/297/259 336/296/249
f 338/339/267 340/325/268 341/338/215 339/297/259
f 340/325/268 342/313/269 343/299/215 341/298/215
f 342/313/269 344/312/270 345/300/216 343/299/215
f 344/312/270 346/311/271 347/301/238 345/300/216
f 346/311/271 348/316/271 349/302/258 347/301/238
f 348/316/271 350/319/271 351/303/238 349/302/258
f 350/319/271 352/322/272 353/304/247 351/303/238
f 352/322/272 354/321/273 355/305/248 353/304/247
f 354/321/273 331/326/263 330/306/248 355/305/248
f 367/296/243 364/296/244 365/333/274 366/332/275
f 356/307/276 358/293/277 359/293/252 357/292/251
f 358/293/277 360/294/278 361/294/257 359/293/252
f 360/294/278 362/295/279 363/295/255 361/317/257
f 362/334/279 365/333/280 364/296/256 363/295/255
f 369/330/253 335/292/261 334/307/265 368/309/281
f 336/296/249 367/323/243 366/333/275 337/332/266
f 357/292/254 369/330/253 368/314/281 356/307/282
f 332/341/241 331/340/241 318/327/241 321/329/241
o Cylinder.003
v 0.089775 2.026673 0.089775
v 0.040304 2.026673 0.104211
v 0.000000 2.026673 0.104211
v -0.040304 2.026673 0.104211
v -0.089775 2.026673 0.089775
v -0.089775 2.026673 0.040304
v -0.089775 2.026673 0.000000
v 0.040304 2.005379 0.104211
v 0.000000 2.005379 0.104211
v -0.040304 2.005379 0.104211
v 0.576218 2.156582 0.089775
v 0.089775 2.026673 0.000000
v 0.089775 2.026673 0.044887
v 0.089775 2.065657 0.000000
v 0.089775 2.065657 0.044887
v 0.576218 2.156582 0.000000
v 0.576218 2.156582 0.044887
v 0.560322 2.244790 0.000000
v 0.560322 2.244790 0.044887
v -0.040304 2.065657 0.000000
v -0.040304 2.065657 0.052106
v 0.000000 2.065657 0.000000
v 0.000000 2.065657 0.052106
v 0.040304 2.065657 0.000000
v 0.040304 2.065657 0.052106
v 0.345424 2.128019 0.089775
v -0.040304 2.005379 0.078254
v 0.000000 2.005379 0.078254
v 0.345235 2.127904 0.000000
v 0.345281 2.127933 0.044887
v 0.040304 2.005379 0.078254
v -0.040304 2.026673 0.078254
v 0.040304 2.026673 0.078254
v 0.286081 2.195240 0.000000
v 0.286128 2.195268 0.044887
v 0.089775 2.042319 0.089775
v 0.089775 2.065657 0.066994
v 0.040304 2.065657 0.081412
v 0.040304 2.042510 0.104211
v 0.000000 2.065657 0.081406
v 0.000000 2.042648 0.104211
v -0.040304 2.065657 0.081376
v -0.040304 2.042746 0.104211
v -0.067276 2.065657 0.073482
v -0.089775 2.042811 0.089775
v -0.067276 2.065657 0.045672
v -0.089775 2.042847 0.040304
v -0.089775 2.042860 0.000000
v -0.067276 2.065657 0.000000
v 0.560322 2.244790 0.067033
v 0.564182 2.223374 0.089775
v 0.286198 2.195311 0.067024
v 0.300604 2.179039 0.089775
v -0.040304 2.005379 0.000000
v 0.000000 2.005379 0.000000
v 0.040304 2.005379 0.000000
v -0.040304 2.026673 0.000000
v 0.040304 2.026673 0.000000
v -0.040304 2.005379 0.043380
v 0.000000 2.005379 0.043380
v 0.040304 2.005379 0.043380
v 0.040304 2.026673 0.043380
v -0.040304 2.026673 0.043380
v 0.089775 2.026673 -0.089775
v 0.040304 2.026673 -0.104211
v 0.000000 2.026673 -0.104211
v -0.040304 2.026673 -0.104211
v -0.089775 2.026673 -0.089775
v -0.089775 2.026673 -0.040304
v 0.040304 2.005379 -0.104211
v 0.000000 2.005379 -0.104211
v -0.040304 2.005379 -0.104211
v 0.576218 2.156582 -0.089775
v 0.089775 2.026673 -0.044887
v 0.089775 2.065657 -0.044887
v 0.576218 2.156582 -0.044887
v 0.560322 2.244790 -0.044887
v -0.040304 2.065657 -0.052106
v 0.000000 2.065657 -0.052106
v 0.040304 2.065657 -0.052106
v 0.345424 2.128019 -0.089775
v -0.040304 2.005379 -0.078254
v 0.000000 2.005379 -0.078254
v 0.345281 2.127933 -0.044887
v 0.040304 2.005379 -0.078254
v -0.040304 2.026673 -0.078254
v 0.040304 2.026673 -0.078254
v 0.286128 2.195268 -0.044887
v 0.089775 2.042319 -0.089775
v 0.089775 2.065657 -0.066994
v 0.040304 2.065657 -0.081412
v 0.040304 2.042510 -0.104211
v 0.000000 2.065657 -0.081406
v 0.000000 2.042648 -0.104211
v -0.040304 2.065657 -0.081376
v -0.040304 2.042746 -0.104211
v -0.067276 2.065657 -0.073482
v -0.089775 2.042811 -0.089775
v -0.067276 2.065657 -0.045672
v -0.089775 2.042847 -0.040304
v 0.560322 2.244790 -0.067033
v 0.564182 2.223374 -0.089775
v 0.286198 2.195311 -0.067024
v 0.300604 2.179039 -0.089775
v -0.040304 2.005379 -0.043380
v 0.000000 2.005379 -0.043380
v 0.040304 2.005379 -0.043380
v 0.040304 2.026673 -0.043380
v -0.040304 2.026673 -0.043380
vn -0.0000 -0.0000 1.0000
vn -0.0942 -0.0000 0.9956
vn 0.0942 -0.0000 0.9956
vn -0.0000 1.0000 -0.0000
vn -0.8000 -0.0000 0.5999
vn -0.8003 -0.0000 0.5996
vn -1.0000 -0.0000 -0.0000
vn -0.3714 0.9285 -0.0003
vn -0.1777 0.9841 -0.0007
vn -0.1777 0.9841 -0.0004
vn -0.3720 0.9282 -0.0002
vn 0.2478 -0.9688 0.0004
vn 0.1876 -0.9823 0.0001
vn 0.1875 -0.9823 -0.0000
vn 0.2479 -0.9688 -0.0000
vn -0.2876 0.9578 -0.0000
vn -0.2637 0.9646 -0.0000
vn 0.1608 -0.0000 0.9870
vn 0.1197 -0.0000 0.9928
vn 0.1412 -0.0000 0.9900
vn -0.1417 -0.0000 0.9899
vn -0.3721 0.9282 -0.0000
vn 0.9841 0.1774 -0.0000
vn 0.1231 -0.9924 0.0005
vn 0.1230 -0.9924 0.0008
vn 0.2474 -0.9689 0.0005
vn 0.1232 -0.9924 -0.0000
vn -0.1778 0.9841 -0.0000
vn 1.0000 -0.0000 -0.0000
vn -0.0000 -1.0000 -0.0000
vn 0.1720 -0.9851 0.0001
vn -0.1634 0.6797 0.7151
vn 0.1098 0.6972 0.7084
vn 0.0970 0.6983 0.7092
vn -0.0408 0.6921 0.7207
vn 0.0009 0.7039 0.7103
vn -0.1073 0.7017 0.7044
vn -0.0942 0.7025 0.7054
vn -0.5047 0.7721 0.3862
vn -0.5091 0.7721 0.3803
vn -0.7120 0.7021 0.0002
vn -0.7120 0.7022 0.0002
vn -0.7119 0.7023 -0.0000
vn -0.2511 0.6956 0.6732
vn -0.1287 0.7377 0.6628
vn -0.2934 0.6778 0.6741
vn -0.0000 -0.0000 -1.0000
vn -0.0942 -0.0000 -0.9956
vn 0.0942 -0.0000 -0.9956
vn -0.8000 -0.0000 -0.5999
vn -0.8003 -0.0000 -0.5996
vn -0.3714 0.9285 0.0003
vn -0.3720 0.9282 0.0002
vn -0.1777 0.9841 0.0004
vn -0.1777 0.9841 0.0007
vn 0.2478 -0.9688 -0.0004
vn 0.1875 -0.9823 -0.0001
vn 0.1608 -0.0000 -0.9870
vn 0.1412 -0.0000 -0.9900
vn 0.1197 -0.0000 -0.9928
vn -0.1417 -0.0000 -0.9899
vn 0.2474 -0.9689 -0.0005
vn 0.1230 -0.9924 -0.0008
vn 0.1231 -0.9924 -0.0005
vn 0.1720 -0.9851 -0.0001
vn -0.1634 0.6797 -0.7151
vn -0.0408 0.6921 -0.7207
vn 0.0970 0.6983 -0.7092
vn 0.1098 0.6972 -0.7084
vn 0.0009 0.7039 -0.7103
vn -0.0942 0.7025 -0.7054
vn -0.1073 0.7017 -0.7044
vn -0.5091 0.7721 -0.3803
vn -0.5047 0.7721 -0.3862
vn -0.7120 0.7022 -0.0002
vn -0.7120 0.7021 -0.0002
vn -0.2511 0.6956 -0.6732
vn -0.2934 0.6778 -0.6741
vn -0.1287 0.7377 -0.6628
vt 0.000000 0.000000
s 1
usemtl red_non_metalic_(gloss)
f 372/342/283 373/342/284 379/342/283 378/342/283
f 371/342/285 372/342/283 378/342/283 377/342/283
f 394/342/286 392/342/286 409/342/286 407/342/286
f 392/342/286 390/342/286 411/342/286 409/342/286
f 390/342/286 415/342/286 413/342/286 411/342/286
f 374/342/287 414/342/288 416/342/289 375/342/289
f 389/342/286 418/342/286 415/342/286 390/342/286
f 421/342/290 419/342/291 388/342/292 404/342/293
f 399/342/294 382/342/295 381/342/296 398/342/297
f 395/342/283 380/342/283 420/342/283 422/342/283
f 421/342/290 404/342/293 384/342/298 406/342/299
f 370/342/300 405/342/301 408/342/302 371/342/285
f 373/342/284 412/342/303 414/342/288 374/342/287
f 373/342/284 372/342/283 410/342/283 412/342/303
f 372/342/283 371/342/285 408/342/302 410/342/283
f 422/342/283 405/342/301 370/342/300 395/342/283
f 383/342/298 393/342/286 394/342/286 384/342/298
f 393/342/286 391/342/286 392/342/286 394/342/286
f 391/342/286 389/342/286 390/342/286 392/342/286
f 404/342/293 403/342/304 383/342/298 384/342/298
f 385/342/305 387/342/305 388/342/305 386/342/305
f 399/342/294 386/342/306 380/342/307 395/342/308
f 398/342/297 385/342/309 386/342/306 399/342/294
f 386/342/305 388/342/305 419/342/305 420/342/305 380/342/305
f 404/342/293 388/342/292 387/342/310 403/342/304
f 375/342/289 416/342/289 417/342/289 376/342/289
f 371/342/311 377/342/311 400/342/311 402/342/311
f 378/342/312 379/342/312 396/342/312 397/342/312
f 371/342/312 402/342/312 370/342/313
f 374/342/312 401/342/312 373/342/312
f 379/342/289 373/342/289 401/342/289 396/342/289
f 377/342/312 378/342/312 397/342/312 400/342/312
f 395/342/308 370/342/313 382/342/295 399/342/294
f 406/342/314 407/342/315 408/342/316 405/342/317
f 407/342/315 409/342/318 410/342/318 408/342/316
f 409/342/318 411/342/319 412/342/320 410/342/318
f 411/342/319 413/342/321 414/342/322 412/342/320
f 413/342/321 415/342/323 416/342/324 414/342/322
f 415/342/323 418/342/325 417/342/325 416/342/324
f 422/342/326 420/342/327 419/342/327 421/342/328
f 405/342/317 422/342/326 421/342/328 406/342/314
f 384/342/298 394/342/286 407/342/286 406/342/299
f 429/342/312 428/342/312 423/342/312 424/342/312
f 431/342/311 430/342/311 425/342/311 427/342/311
f 430/342/312 429/342/312 424/342/312 425/342/312
f 428/342/289 432/342/289 426/342/289 423/342/289
f 396/342/289 401/342/289 432/342/289 428/342/289
f 400/342/312 397/342/312 429/342/312 430/342/312
f 402/342/311 400/342/311 430/342/311 431/342/311
f 397/342/312 396/342/312 428/342/312 429/342/312
f 375/342/312 432/342/312 401/342/312 374/342/312
f 376/342/312 426/342/312 432/342/312 375/342/312
f 382/342/295 431/342/312 427/342/312 381/342/296
f 370/342/313 402/342/312 431/342/312 382/342/295
f 435/342/329 440/342/329 441/342/329 436/342/330
f 434/342/331 439/342/329 440/342/329 435/342/329
f 449/342/286 460/342/286 462/342/286 448/342/286
f 448/342/286 462/342/286 464/342/286 447/342/286
f 447/342/286 464/342/286 466/342/286 468/342/286
f 437/342/332 438/342/289 469/342/289 467/342/333
f 389/342/286 447/342/286 468/342/286 418/342/286
f 472/342/334 457/342/335 446/342/336 470/342/337
f 453/342/338 398/342/297 381/342/296 443/342/339
f 450/342/329 473/342/329 471/342/329 442/342/329
f 472/342/334 459/342/299 444/342/298 457/342/335
f 433/342/340 434/342/331 461/342/341 458/342/342
f 436/342/330 437/342/332 467/342/333 465/342/343
f 436/342/330 465/342/343 463/342/329 435/342/329
f 435/342/329 463/342/329 461/342/341 434/342/331
f 473/342/329 450/342/329 433/342/340 458/342/342
f 383/342/298 444/342/298 449/342/286 393/342/286
f 393/342/286 449/342/286 448/342/286 391/342/286
f 391/342/286 448/342/286 447/342/286 389/342/286
f 457/342/335 444/342/298 383/342/298 403/342/304
f 385/342/305 445/342/305 446/342/305 387/342/305
f 453/342/338 450/342/344 442/342/345 445/342/346
f 398/342/297 453/342/338 445/342/346 385/342/309
f 445/342/305 442/342/305 471/342/305 470/342/305 446/342/305
f 457/342/335 403/342/304 387/342/310 446/342/336
f 438/342/289 376/342/289 417/342/289 469/342/289
f 434/342/311 456/342/311 454/342/311 439/342/311
f 440/342/312 452/342/312 451/342/312 441/342/312
f 434/342/312 433/342/347 456/342/312
f 437/342/312 436/342/312 455/342/312
f 441/342/289 451/342/289 455/342/289 436/342/289
f 439/342/312 454/342/312 452/342/312 440/342/312
f 450/342/344 453/342/338 443/342/339 433/342/347
f 459/342/348 458/342/349 461/342/350 460/342/351
f 460/342/351 461/342/350 463/342/352 462/342/352
f 462/342/352 463/342/352 465/342/353 464/342/354
f 464/342/354 465/342/353 467/342/355 466/342/356
f 466/342/356 467/342/355 469/342/357 468/342/358
f 468/342/358 469/342/357 417/342/325 418/342/325
f 473/342/359 472/342/360 470/342/361 471/342/361
f 458/342/349 459/342/348 472/342/360 473/342/359
f 444/342/298 459/342/299 460/342/286 449/342/286
f 475/342/312 424/342/312 423/342/312 474/342/312
f 477/342/311 427/342/311 425/342/311 476/342/311
f 476/342/312 425/342/312 424/342/312 475/342/312
f 474/342/289 423/342/289 426/342/289 478/342/289
f 451/342/289 474/342/289 478/342/289 455/342/289
f 454/342/312 476/342/312 475/342/312 452/342/312
f 456/342/311 477/342/311 476/342/311 454/342/311
f 452/342/312 475/342/312 474/342/312 451/342/312
f 438/342/312 437/342/312 455/342/312 478/342/312
f 376/342/312 438/342/312 478/342/312 426/342/312
f 443/342/339 381/342/296 427/342/312 477/342/312
f 433/342/347 443/342/339 477/342/312 456/342/312
o Cylinder.004
v 0.086532 1.691715 0.222019
v 0.061187 1.630528 0.222019
v -0.086532 1.691715 0.222019
v -0.061187 1.630528 0.222019
v 0.000000 1.605183 0.222019
v 0.061187 1.752902 0.222019
v 0.000000 1.778247 0.222019
v -0.061187 1.752902 0.222019
v 0.000000 1.691715 0.222019
v 0.069641 1.691715 0.399039
v 0.049244 1.642471 0.399039
v -0.069641 1.691715 0.399039
v -0.049244 1.642471 0.399039
v 0.000000 1.622074 0.399039
v 0.049244 1.740959 0.399039
v 0.000000 1.761356 0.399039
v -0.049244 1.740959 0.399039
v 0.086532 1.691715 0.399039
v 0.061187 1.630528 0.399039
v -0.086532 1.691715 0.399039
v -0.061187 1.630528 0.399039
v 0.000000 1.605183 0.399039
v 0.061187 1.752902 0.399039
v 0.000000 1.778247 0.399039
v -0.061187 1.752902 0.399039
v 0.069641 1.691715 0.379075
v 0.000000 1.622074 0.379075
v -0.058409 1.691715 0.379075
v 0.000000 1.750124 0.379075
v 0.041301 1.650414 0.379075
v -0.041301 1.650414 0.379075
v 0.041301 1.733016 0.379075
v -0.041301 1.733016 0.379075
v 0.058409 1.691715 0.379075
v 0.049244 1.642471 0.379075
v -0.069641 1.691715 0.379075
v -0.049244 1.642471 0.379075
v 0.000000 1.633307 0.379075
v 0.049244 1.740959 0.379075
v 0.000000 1.761356 0.379075
v -0.049244 1.740959 0.379075
v 0.058409 1.691715 0.518858
v 0.000000 1.633307 0.518858
v -0.058409 1.691715 0.518858
v 0.000000 1.750124 0.518858
v 0.041301 1.650414 0.518858
v -0.041301 1.650414 0.518858
v 0.041301 1.733016 0.518858
v -0.041301 1.733016 0.518858
v 0.704213 1.482065 0.704557
v 0.670484 1.423657 0.752242
v 0.636754 1.482065 0.799927
v 0.670484 1.540474 0.752242
v 0.694334 1.440764 0.718524
v 0.646633 1.440764 0.785961
v 0.694334 1.523367 0.718524
v 0.646633 1.523367 0.785961
v 1.283610 1.482065 0.655111
v 1.283610 1.482065 0.702796
v 1.283610 1.428883 0.702796
v 1.283610 1.482065 0.750482
v 1.283610 1.535248 0.702796
v 1.283610 1.444460 0.669078
v 1.283610 1.444460 0.736515
v 1.283610 1.519671 0.669078
v 1.283610 1.519671 0.736515
v 1.100822 1.440764 0.689082
v 0.953600 1.440764 0.722571
v 0.826769 1.440764 0.728019
v 0.819833 1.423657 0.766809
v 0.958957 1.423657 0.759697
v 1.107126 1.423657 0.724134
v 0.812898 1.440764 0.805599
v 0.964315 1.440764 0.796822
v 1.113430 1.440764 0.759186
v 0.810025 1.482065 0.821667
v 0.966534 1.482065 0.812200
v 1.116041 1.482065 0.773705
v 0.812898 1.523367 0.805599
v 0.964315 1.523367 0.796822
v 1.113430 1.523367 0.759186
v 0.819833 1.540474 0.766809
v 0.958957 1.540474 0.759697
v 1.107126 1.540474 0.724134
v 0.826769 1.523367 0.728019
v 0.953600 1.523367 0.722571
v 1.100822 1.523367 0.689082
v 0.829641 1.482065 0.711951
v 0.951380 1.482065 0.707194
v 1.098211 1.482066 0.674563
v 0.524921 1.461452 0.695875
v 0.358372 1.507056 0.677729
v 0.213335 1.561899 0.662640
v 0.107581 1.610431 0.625309
v 0.056279 1.638799 0.603345
v 0.021509 1.620878 0.624122
v 0.091017 1.586397 0.658290
v 0.207400 1.535736 0.697463
v 0.353717 1.482726 0.714145
v 0.513769 1.440903 0.733493
v -0.008271 1.635355 0.653538
v 0.086149 1.592217 0.701674
v 0.214229 1.539539 0.740722
v 0.359164 1.489848 0.757266
v 0.507802 1.453562 0.775515
v -0.015618 1.673750 0.674362
v 0.095829 1.624482 0.730048
v 0.229822 1.571079 0.767076
v 0.371523 1.524251 0.781831
v 0.510516 1.492016 0.797327
v 0.003773 1.713571 0.674395
v 0.114386 1.664291 0.726790
v 0.245044 1.611881 0.761086
v 0.383554 1.565782 0.773452
v 0.520322 1.533737 0.786150
v 0.038543 1.731493 0.653619
v 0.130950 1.688325 0.693809
v 0.250979 1.638044 0.726263
v 0.388210 1.590112 0.737036
v 0.531475 1.554287 0.748532
v 0.068324 1.717016 0.624203
v 0.135818 1.682506 0.650424
v 0.244150 1.634242 0.683004
v 0.382763 1.582990 0.693915
v 0.537442 1.541628 0.706510
v 0.075670 1.678621 0.603379
v 0.126138 1.650241 0.622051
v 0.228558 1.602701 0.656650
v 0.370404 1.548587 0.669350
v 0.534727 1.503174 0.684698
vn -0.0000 -0.0000 -1.0000
vn 1.0000 -0.0000 -0.0000
vn 0.7071 0.7071 -0.0000
vn -0.7071 -0.7071 -0.0000
vn -0.0000 -1.0000 -0.0000
vn 0.7071 -0.7071 -0.0000
vn -0.7071 0.7071 -0.0000
vn -1.0000 -0.0000 -0.0000
vn -0.0000 1.0000 -0.0000
vn -0.0000 -0.0000 1.0000
vn 0.9942 -0.0025 -0.1079
vn 0.6927 -0.7120 -0.1150
vn -0.0360 -0.9982 -0.0490
vn -0.7379 -0.6723 0.0599
vn 0.6964 0.7170 -0.0323
vn -0.9908 0.0284 0.1322
vn -0.7008 0.7002 0.1367
vn -0.0198 0.9971 0.0735
vn 0.5966 -0.0000 -0.8026
vn 0.6335 -0.7732 -0.0271
vn 0.6042 -0.5245 -0.5999
vn 0.6873 -0.0000 0.7264
vn 0.6717 -0.5107 0.5366
vn 0.6042 0.5245 -0.5999
vn 0.6335 0.7732 -0.0271
vn 0.6717 0.5107 0.5366
vn 0.0124 -0.9998 -0.0169
vn -0.1164 -0.6694 -0.7337
vn 0.1451 -0.6823 0.7165
vn 0.1932 -0.0000 0.9811
vn 0.1451 0.6823 0.7165
vn 0.0124 0.9998 -0.0169
vn -0.1164 0.6694 -0.7337
vn -0.1616 -0.0000 -0.9869
vn 0.0057 -0.9997 0.0240
vn -0.0964 -0.6925 -0.7149
vn 0.0009 -0.9998 0.0186
vn 0.0101 -0.6908 -0.7230
vn -0.0479 -0.9980 -0.0400
vn 0.0419 -0.6743 -0.7373
vn 0.1132 -0.6699 0.7338
vn -0.0220 -0.6751 0.7374
vn -0.1077 -0.7221 0.6834
vn 0.1537 -0.0000 0.9881
vn -0.0341 -0.0000 0.9994
vn -0.0741 -0.0471 0.9961
vn 0.1132 0.6699 0.7338
vn -0.0220 0.6751 0.7374
vn -0.0129 0.6525 0.7576
vn 0.0057 0.9997 0.0240
vn 0.0009 0.9998 0.0186
vn 0.0483 0.9981 0.0387
vn -0.0964 0.6925 -0.7149
vn 0.0101 0.6908 -0.7230
vn 0.0917 0.6998 -0.7084
vn -0.1307 -0.0000 -0.9914
vn 0.0102 -0.0000 -0.9999
vn 0.0871 0.0115 -0.9961
vn -0.1616 -0.9784 -0.1289
vn -0.0248 -0.6171 -0.7865
vn -0.1893 -0.7638 0.6171
vn -0.0922 -0.1191 0.9886
vn 0.0524 0.5830 0.8108
vn 0.1663 0.9755 0.1438
vn 0.1952 0.7521 -0.6295
vn 0.1207 0.0810 -0.9894
vn -0.2703 -0.9419 -0.1996
vn -0.0921 -0.5535 -0.8277
vn -0.3178 -0.9200 -0.2295
vn -0.0326 -0.5396 -0.8413
vn -0.3013 -0.9068 -0.2947
vn 0.0767 -0.5188 -0.8514
vn -0.2320 -0.9578 -0.1696
vn 0.4063 -0.6946 -0.5937
vn -0.2938 -0.7834 0.5477
vn -0.3925 -0.7612 0.5162
vn -0.5025 -0.7384 0.4497
vn -0.6902 -0.6531 0.3115
vn -0.1525 -0.1684 0.9738
vn -0.2392 -0.1752 0.9550
vn -0.4050 -0.1492 0.9021
vn -0.7829 -0.0179 0.6219
vn 0.0757 0.5441 0.8356
vn 0.0361 0.5086 0.8602
vn -0.0948 0.5107 0.8545
vn -0.4754 0.6271 0.6171
vn 0.2646 0.9429 0.2022
vn 0.2965 0.9152 0.2729
vn 0.2824 0.9045 0.3195
vn 0.0745 0.9514 0.2989
vn 0.2932 0.7759 -0.5586
vn 0.4026 0.7744 -0.4881
vn 0.5023 0.7481 -0.4337
vn 0.5975 0.7806 -0.1836
vn 0.1411 0.1508 -0.9784
vn 0.2720 0.1596 -0.9490
vn 0.3998 0.1457 -0.9049
vn 0.7922 0.1108 -0.6001
vt 0.328842 0.059658
vt 0.250000 0.043975
vt 0.250000 0.051817
vt 0.171158 0.059658
vt 0.186547 0.058128
vt 0.191264 0.056526
vt 0.308736 0.056526
vt 0.250000 0.045506
vt 0.191264 0.056526
vt 0.313453 0.058128
vt 0.308736 0.056526
vt 0.250000 0.045506
vt 0.296803 0.054931
vt 0.303218 0.057110
vt 0.250000 0.046524
vt 0.203197 0.054931
vt 0.296803 0.054931
vt 0.196782 0.057110
vt 0.250000 0.046524
vt 0.203197 0.054931
vt 0.203197 0.054931
vt 0.250000 0.046524
vt 0.196782 0.057110
vt 0.296803 0.054931
vt 0.303218 0.057110
vt 0.203197 0.054931
vt 0.303218 0.057110
s 1
usemtl dark_grey_non-metalic_(rough)
f 479/343/362 480/343/362 483/344/362 487/345/362
f 487/345/362 483/344/362 482/346/362 481/346/362
f 484/343/362 479/343/362 487/345/362 485/344/362
f 485/344/362 487/345/362 481/346/362 486/346/362
f 508/355/367 512/356/363 520/356/372 524/355/373
f 516/357/366 508/355/367 524/355/373 521/357/374
f 509/358/365 516/357/366 521/357/374 525/358/375
f 512/356/363 510/359/364 526/359/376 520/356/372
f 511/362/368 506/360/369 522/360/377 527/362/378
f 507/361/370 511/362/368 527/362/378 523/361/379
f 510/359/364 507/361/370 523/361/379 526/359/376
f 506/360/369 509/358/365 525/358/375 522/360/377
f 536/356/380 537/345/363 538/357/381 541/355/382
f 537/345/363 539/360/383 542/358/384 538/357/381
f 543/359/385 540/361/386 537/345/363 536/356/380
f 540/361/386 544/362/387 539/360/383 537/345/363
f 541/355/382 538/357/381 550/357/388 545/355/389
f 538/357/381 542/358/384 553/363/390 550/357/388
f 542/358/384 539/360/383 556/360/391 553/363/390
f 539/360/383 544/362/387 559/362/392 556/360/391
f 544/362/387 540/361/386 562/361/393 559/362/392
f 540/361/386 543/359/385 565/359/394 562/361/393
f 543/359/385 536/356/380 568/356/395 565/359/394
f 536/356/380 541/355/382 545/355/389 568/356/395
f 545/355/389 550/357/388 549/364/396 546/355/397
f 546/355/397 549/364/396 548/357/398 547/355/399
f 547/355/399 548/357/398 529/357/400 532/355/401
f 550/357/388 553/363/390 552/363/402 549/364/396
f 549/364/396 552/363/402 551/358/403 548/357/398
f 548/357/398 551/358/403 533/358/404 529/357/400
f 553/363/390 556/360/391 555/365/405 552/363/402
f 552/363/402 555/365/405 554/360/406 551/358/403
f 551/358/403 554/360/406 530/360/407 533/358/404
f 556/360/391 559/362/392 558/362/408 555/365/405
f 555/365/405 558/362/408 557/362/409 554/360/406
f 554/360/406 557/362/409 535/362/410 530/360/407
f 559/362/392 562/361/393 561/361/411 558/362/408
f 558/362/408 561/361/411 560/361/412 557/362/409
f 557/362/409 560/361/412 531/361/413 535/362/410
f 562/361/393 565/359/394 564/366/414 561/361/411
f 561/361/411 564/366/414 563/359/415 560/361/412
f 560/361/412 563/359/415 534/359/416 531/361/413
f 565/359/394 568/356/395 567/367/417 564/366/414
f 564/366/414 567/367/417 566/356/418 563/359/415
f 563/359/415 566/356/418 528/356/419 534/359/416
f 568/356/395 545/355/389 546/355/397 567/367/417
f 567/367/417 546/355/397 547/355/399 566/356/418
f 566/356/418 547/355/399 532/355/401 528/356/419
f 532/355/401 529/357/400 578/357/420 569/355/421
f 529/357/400 533/358/404 583/363/422 578/357/420
f 533/358/404 530/360/407 588/360/423 583/363/422
f 530/360/407 535/362/410 593/362/424 588/360/423
f 535/362/410 531/361/413 598/361/425 593/362/424
f 531/361/413 534/359/416 603/359/426 598/361/425
f 534/359/416 528/356/419 608/356/427 603/359/426
f 528/356/419 532/355/401 569/355/421 608/356/427
f 569/355/421 578/357/420 577/364/428 570/355/429
f 570/355/429 577/364/428 576/357/430 571/355/431
f 571/355/431 576/357/430 575/357/432 572/355/433
f 572/355/433 575/357/432 574/357/434 573/355/435
f 573/355/435 574/357/434 521/357/374 524/355/373
f 578/357/420 583/363/422 582/363/436 577/364/428
f 577/364/428 582/363/436 581/358/437 576/357/430
f 576/357/430 581/358/437 580/358/438 575/357/432
f 575/357/432 580/358/438 579/368/439 574/357/434
f 574/357/434 579/368/439 525/358/375 521/357/374
f 583/363/422 588/360/423 587/365/440 582/363/436
f 582/363/436 587/365/440 586/360/441 581/358/437
f 581/358/437 586/360/441 585/360/442 580/358/438
f 580/358/438 585/360/442 584/360/443 579/368/439
f 579/368/439 584/360/443 522/360/377 525/358/375
f 588/360/423 593/362/424 592/362/444 587/365/440
f 587/365/440 592/362/444 591/362/445 586/360/441
f 586/360/441 591/362/445 590/362/446 585/360/442
f 585/360/442 590/362/446 589/362/447 584/360/443
f 584/360/443 589/362/447 527/362/378 522/360/377
f 593/362/424 598/361/425 597/361/448 592/362/444
f 592/362/444 597/361/448 596/361/449 591/362/445
f 591/362/445 596/361/449 595/361/450 590/362/446
f 590/362/446 595/361/450 594/361/451 589/362/447
f 589/362/447 594/361/451 523/361/379 527/362/378
f 598/361/425 603/359/426 602/366/452 597/361/448
f 597/361/448 602/366/452 601/359/453 596/361/449
f 596/361/449 601/359/453 600/359/454 595/361/450
f 595/361/450 600/359/454 599/359/455 594/361/451
f 594/361/451 599/359/455 526/359/376 523/361/379
f 603/359/426 608/356/427 607/367/456 602/366/452
f 602/366/452 607/367/456 606/356/457 601/359/453
f 601/359/453 606/356/457 605/356/458 600/359/454
f 600/359/454 605/356/458 604/369/459 599/359/455
f 599/359/455 604/369/459 520/356/372 526/359/376
f 608/356/427 569/355/421 570/355/429 607/367/456
f 607/367/456 570/355/429 571/355/431 606/356/457
f 606/356/457 571/355/431 572/355/433 605/356/458
f 605/356/458 572/355/433 573/355/435 604/369/459
f 604/369/459 573/355/435 524/355/373 520/356/372
usemtl brass_metalic_(med)
f 490/347/363 491/348/364 515/348/364 514/347/363
f 493/349/365 494/350/366 518/350/366 517/349/365
f 494/350/366 495/351/367 519/351/367 518/350/366
f 495/351/367 490/347/363 514/347/363 519/351/367
f 486/346/368 481/346/369 498/346/369 503/346/368
f 485/344/370 486/346/368 503/346/368 502/344/370
f 484/343/364 485/344/370 502/344/370 501/343/364
f 481/346/369 482/346/365 499/346/365 498/346/369
f 479/343/363 484/343/364 501/343/364 496/343/363
f 482/346/365 483/344/366 500/344/366 499/346/365
f 483/344/366 480/343/367 497/343/367 500/344/366
f 480/343/367 479/343/363 496/343/363 497/343/367
f 488/352/371 489/353/371 497/343/371 496/343/371
f 491/348/371 490/347/371 498/346/371 499/346/371
f 489/353/371 492/354/371 500/344/371 497/343/371
f 494/350/371 493/349/371 501/343/371 502/344/371
f 492/354/371 491/348/371 499/346/371 500/344/371
f 495/351/371 494/350/371 502/344/371 503/346/371
f 493/349/371 488/352/371 496/343/371 501/343/371
f 490/347/371 495/351/371 503/346/371 498/346/371
f 488/352/369 493/349/365 517/349/365 504/352/369
f 491/348/364 492/354/370 505/354/370 515/348/364
f 492/354/370 489/353/368 513/353/368 505/354/370
f 489/353/368 488/352/369 504/352/369 513/353/368
f 512/356/371 508/355/371 513/353/371 504/352/371
f 509/358/371 506/360/371 514/347/371 515/348/371
f 508/355/371 516/357/371 505/354/371 513/353/371
f 507/361/371 510/359/371 517/349/371 518/350/371
f 516/357/371 509/358/371 515/348/371 505/354/371
f 511/362/371 507/361/371 518/350/371 519/351/371
f 510/359/371 512/356/371 504/352/371 517/349/371
f 506/360/371 511/362/371 519/351/371 514/347/371
o Cylinder.005
v 1.284094 1.482065 0.655111
v 1.284094 1.428883 0.702796
v 1.284094 1.482065 0.750482
v 1.284094 1.535248 0.702796
v 1.284094 1.444460 0.669078
v 1.284094 1.444460 0.736515
v 1.284094 1.519671 0.669078
v 1.284094 1.519671 0.736515
v 2.072272 1.482066 0.492215
v 2.072272 1.247210 0.702796
v 2.072272 1.482066 0.913378
v 2.072272 1.716922 0.702796
v 2.072272 1.315998 0.553893
v 2.072272 1.315998 0.851700
v 2.072272 1.648134 0.553893
v 2.072272 1.648134 0.851700
v 2.072272 1.482066 0.453033
v 2.072272 1.208220 0.702796
v 2.072272 1.482066 0.952559
v 2.072272 1.755912 0.702796
v 2.072272 1.289314 0.525324
v 2.072272 1.289314 0.880269
v 2.072272 1.674817 0.525324
v 2.072272 1.674817 0.880269
v 1.284094 1.482065 0.631903
v 1.284094 1.482065 0.612859
v 1.284094 1.386478 0.702796
v 1.284094 1.406024 0.702796
v 1.284094 1.482065 0.792734
v 1.284094 1.482065 0.773690
v 1.284094 1.558107 0.702796
v 1.284094 1.577653 0.702796
v 1.284094 1.415629 0.638088
v 1.284094 1.428889 0.652081
v 1.284094 1.428889 0.753512
v 1.284094 1.415629 0.767505
v 1.284094 1.548502 0.638088
v 1.284094 1.535242 0.652081
v 1.284094 1.535242 0.753512
v 1.284094 1.548502 0.767505
v 1.396691 1.566547 0.621979
v 1.509288 1.584592 0.605869
v 1.621885 1.602637 0.589760
v 1.734482 1.620682 0.573651
v 1.847078 1.638727 0.557542
v 1.959675 1.656772 0.541433
v 1.959675 1.482066 0.475865
v 1.847078 1.482066 0.498698
v 1.734481 1.482066 0.521530
v 1.621885 1.482066 0.544362
v 1.509288 1.482066 0.567194
v 1.396691 1.482065 0.590027
v 1.959675 1.307359 0.541433
v 1.847078 1.325404 0.557542
v 1.734481 1.343449 0.573651
v 1.621885 1.361494 0.589760
v 1.509288 1.379539 0.605869
v 1.396691 1.397584 0.621979
v 1.959675 1.233685 0.702796
v 1.847078 1.259151 0.702796
v 1.734481 1.284616 0.702796
v 1.621885 1.310082 0.702796
v 1.509288 1.335547 0.702796
v 1.396691 1.361013 0.702796
v 1.959675 1.307359 0.864160
v 1.847078 1.325404 0.848051
v 1.734481 1.343449 0.831941
v 1.621885 1.361494 0.815832
v 1.509288 1.379539 0.799723
v 1.396691 1.397584 0.783614
v 1.959675 1.482066 0.929727
v 1.847078 1.482066 0.906895
v 1.734481 1.482066 0.884063
v 1.621885 1.482066 0.861230
v 1.509288 1.482066 0.838398
v 1.396691 1.482065 0.815566
v 1.959675 1.656772 0.864160
v 1.847078 1.638727 0.848051
v 1.734481 1.620682 0.831941
v 1.621885 1.602637 0.815832
v 1.509288 1.584592 0.799723
v 1.396691 1.566547 0.783614
v 1.959675 1.730446 0.702796
v 1.847078 1.704981 0.702796
v 1.734481 1.679515 0.702796
v 1.621885 1.654049 0.702796
v 1.509288 1.628584 0.702796
v 1.396691 1.603118 0.702796
vn 0.2024 -0.0000 -0.9793
vn 0.2129 -0.6600 -0.7205
vn 0.2130 -0.6669 -0.7140
vn 0.2246 -0.9744 -0.0000
vn 0.2129 -0.6600 0.7205
vn 0.2130 -0.6669 0.7140
vn 0.2129 0.6600 -0.7205
vn 0.2130 0.6669 -0.7140
vn 0.2024 -0.0000 0.9793
vn 0.2246 0.9744 -0.0000
vn 0.2129 0.6600 0.7205
vn 0.2130 0.6669 0.7140
vn -1.0000 -0.0000 -0.0000
vn -0.2203 0.9754 -0.0000
vn -0.2093 0.6701 -0.7122
vn -0.2092 0.6667 -0.7154
vn -0.1989 -0.0000 -0.9800
vn -0.2093 -0.6701 -0.7122
vn -0.2092 -0.6667 -0.7154
vn -0.2092 -0.6667 0.7154
vn -0.2093 -0.6701 0.7122
vn -0.1989 -0.0000 0.9800
vn -0.2203 -0.9754 -0.0000
vn -0.2092 0.6667 0.7154
vn -0.2093 0.6701 0.7122
vn 1.0000 -0.0000 -0.0000
vn -0.1992 -0.0000 0.9800
vn -0.2093 0.6688 0.7134
vn -0.2092 0.6662 0.7158
vn -0.1991 -0.0000 0.9800
vn -0.2093 0.6681 0.7141
vn -0.1990 -0.0000 0.9800
vn -0.2093 0.6676 0.7145
vn -0.2092 0.6672 0.7149
vn -0.2092 0.6669 0.7152
vn -0.2200 -0.9755 -0.0000
vn -0.2201 -0.9755 -0.0000
vn -0.2093 -0.6688 0.7134
vn -0.2092 -0.6662 0.7158
vn -0.2093 -0.6681 0.7141
vn -0.2202 -0.9755 -0.0000
vn -0.2093 -0.6676 0.7145
vn -0.2092 -0.6672 0.7149
vn -0.2092 -0.6669 0.7152
vn -0.2201 0.9755 -0.0000
vn -0.2200 0.9755 -0.0000
vn -0.2202 0.9755 -0.0000
vn -0.2092 -0.6662 -0.7158
vn -0.2093 -0.6688 -0.7134
vn -0.2093 -0.6681 -0.7141
vn -0.2093 -0.6676 -0.7145
vn -0.2092 -0.6672 -0.7149
vn -0.2092 -0.6669 -0.7152
vn -0.2092 0.6662 -0.7158
vn -0.2093 0.6688 -0.7134
vn -0.1992 -0.0000 -0.9800
vn -0.2093 0.6681 -0.7141
vn -0.1991 -0.0000 -0.9800
vn -0.2093 0.6676 -0.7145
vn -0.1990 -0.0000 -0.9800
vn -0.2092 0.6672 -0.7149
vn -0.2092 0.6669 -0.7152
vt 0.000000 0.000000
s 1
usemtl dark_grey_non-metalic_(rough)
f 611/370/460 616/370/461 624/370/462 619/370/460
f 616/370/461 612/370/463 620/370/463 624/370/462
f 612/370/463 615/370/464 623/370/465 620/370/463
f 614/370/466 611/370/460 619/370/460 622/370/467
f 615/370/464 609/370/468 617/370/468 623/370/465
f 610/370/469 614/370/466 622/370/467 618/370/469
f 613/370/470 610/370/469 618/370/469 621/370/471
f 609/370/468 613/370/470 621/370/471 617/370/468
f 615/370/472 612/370/472 639/370/472 646/370/472
f 691/370/473 628/370/473 631/370/474 654/370/475
f 612/370/472 616/370/472 647/370/472 639/370/472
f 616/370/472 611/370/472 638/370/472 647/370/472
f 655/370/476 625/370/476 629/370/477 661/370/478
f 611/370/472 614/370/472 643/370/472 638/370/472
f 614/370/472 610/370/472 636/370/472 643/370/472
f 609/370/472 615/370/472 646/370/472 633/370/472
f 654/370/475 631/370/474 625/370/476 655/370/476
f 673/370/479 630/370/480 627/370/481 679/370/481
f 661/370/478 629/370/477 626/370/482 667/370/482
f 685/370/483 632/370/484 628/370/473 691/370/473
f 667/370/482 626/370/482 630/370/480 673/370/479
f 610/370/472 613/370/472 642/370/472 636/370/472
f 679/370/481 627/370/481 632/370/484 685/370/483
f 617/370/485 621/370/485 629/370/485 625/370/485
f 622/370/485 619/370/485 627/370/485 630/370/485
f 621/370/485 618/370/485 626/370/485 629/370/485
f 620/370/485 623/370/485 631/370/485 628/370/485
f 618/370/485 622/370/485 630/370/485 626/370/485
f 624/370/485 620/370/485 628/370/485 632/370/485
f 623/370/485 617/370/485 625/370/485 631/370/485
f 619/370/485 624/370/485 632/370/485 627/370/485
f 634/370/472 641/370/472 642/370/472 633/370/472
f 644/370/472 637/370/472 638/370/472 643/370/472
f 641/370/472 635/370/472 636/370/472 642/370/472
f 640/370/472 645/370/472 646/370/472 639/370/472
f 635/370/472 644/370/472 643/370/472 636/370/472
f 648/370/472 640/370/472 639/370/472 647/370/472
f 645/370/472 634/370/472 633/370/472 646/370/472
f 637/370/472 648/370/472 647/370/472 638/370/472
f 613/370/472 609/370/472 633/370/472 642/370/472
s 0
f 615/370/485 612/370/485 616/370/485 611/370/485 614/370/485 610/370/485 613/370/485 609/370/485
s 1
f 637/370/486 684/370/486 690/370/487 648/370/488
f 684/370/486 683/370/489 689/370/490 690/370/487
f 683/370/489 682/370/491 688/370/492 689/370/490
f 682/370/491 681/370/491 687/370/493 688/370/492
f 681/370/491 680/370/491 686/370/494 687/370/493
f 680/370/491 679/370/481 685/370/483 686/370/494
f 635/370/495 672/370/496 678/370/497 644/370/498
f 672/370/496 671/370/496 677/370/499 678/370/497
f 671/370/496 670/370/500 676/370/501 677/370/499
f 670/370/500 669/370/482 675/370/502 676/370/501
f 669/370/482 668/370/482 674/370/503 675/370/502
f 668/370/482 667/370/482 673/370/479 674/370/503
f 648/370/488 690/370/487 696/370/504 640/370/505
f 690/370/487 689/370/490 695/370/504 696/370/504
f 689/370/490 688/370/492 694/370/506 695/370/504
f 688/370/492 687/370/493 693/370/473 694/370/506
f 687/370/493 686/370/494 692/370/473 693/370/473
f 686/370/494 685/370/483 691/370/473 692/370/473
f 641/370/507 666/370/508 672/370/496 635/370/495
f 666/370/508 665/370/509 671/370/496 672/370/496
f 665/370/509 664/370/510 670/370/500 671/370/496
f 664/370/510 663/370/511 669/370/482 670/370/500
f 663/370/511 662/370/512 668/370/482 669/370/482
f 662/370/512 661/370/478 667/370/482 668/370/482
f 644/370/498 678/370/497 684/370/486 637/370/486
f 678/370/497 677/370/499 683/370/489 684/370/486
f 677/370/499 676/370/501 682/370/491 683/370/489
f 676/370/501 675/370/502 681/370/491 682/370/491
f 675/370/502 674/370/503 680/370/491 681/370/491
f 674/370/503 673/370/479 679/370/481 680/370/491
f 645/370/513 649/370/514 660/370/515 634/370/515
f 649/370/514 650/370/516 659/370/517 660/370/515
f 650/370/516 651/370/518 658/370/519 659/370/517
f 651/370/518 652/370/520 657/370/519 658/370/519
f 652/370/520 653/370/521 656/370/519 657/370/519
f 653/370/521 654/370/475 655/370/476 656/370/519
f 634/370/515 660/370/515 666/370/508 641/370/507
f 660/370/515 659/370/517 665/370/509 666/370/508
f 659/370/517 658/370/519 664/370/510 665/370/509
f 658/370/519 657/370/519 663/370/511 664/370/510
f 657/370/519 656/370/519 662/370/512 663/370/511
f 656/370/519 655/370/476 661/370/478 662/370/512
f 640/370/505 696/370/504 649/370/514 645/370/513
f 696/370/504 695/370/504 650/370/516 649/370/514
f 695/370/504 694/370/506 651/370/518 650/370/516
f 694/370/506 693/370/473 652/370/520 651/370/518
f 693/370/473 692/370/473 653/370/521 652/370/520
f 692/370/473 691/370/473 654/370/475 653/370/521
